<svg viewBox="0 0 576 512" xmlns="http://www.w3.org/2000/svg"><path d="m407.8 294.7c-3.3-.4-6.7-.8-10-1.3 3.4.4 6.7.9 10 1.3zm-119.8-67.6c-26.1-50.7-97.1-145.2-163.1-191.8-63.3-44.7-87.4-37-103.3-29.8-18.3 8.3-21.6 36.4-21.6 52.9s9.1 135.6 15 155.5c19.5 65.7 89.1 87.9 153.2 80.7 3.3-.5 6.6-.9 10-1.4-3.3.5-6.6 1-10 1.4-93.9 14-177.3 48.2-67.9 169.9 120.3 124.6 164.8-26.7 187.7-103.4 22.9 76.7 49.2 222.5 185.6 103.4 102.4-103.4 28.1-156-65.8-169.9-3.3-.4-6.7-.8-10-1.3 3.4.4 6.7.9 10 1.3 64.1 7.1 133.6-15.1 153.2-80.7 5.9-19.9 15-138.9 15-155.5s-3.3-44.7-21.6-52.9c-15.8-7.1-40-14.9-103.2 29.8-66.1 46.6-137.1 141.1-163.2 191.8z"/></svg>