<svg enable-background="new 0 0 75.294 75.294" viewBox="0 0 75.294 75.294" xmlns="http://www.w3.org/2000/svg"><path d="m66.097 12.089h-56.9c-5.071 0-9.197 4.126-9.197 9.197v32.722c0 5.071 4.126 9.197 9.197 9.197h56.9c5.071 0 9.197-4.126 9.197-9.197v-32.721c.001-5.072-4.125-9.198-9.197-9.198zm-4.494 6-23.956 15.434-23.956-15.434zm4.494 39.117h-56.9c-1.763 0-3.197-1.435-3.197-3.197v-32.552l29.796 19.16c.04.025.083.042.124.065.043.024.087.047.131.069.231.119.469.215.712.278.025.007.05.01.075.016.267.063.537.102.807.102h.002.004c.27 0 .54-.038.807-.102.025-.006.05-.009.075-.016.243-.063.48-.159.712-.278.044-.022.088-.045.131-.069.041-.023.084-.04.124-.065l29.796-19.16v32.551c-.001 1.763-1.436 3.198-3.199 3.198z"/></svg>