<svg enable-background="new 0 0 29.94 29.94" viewBox="0 0 29.94 29.94" xmlns="http://www.w3.org/2000/svg"><path d="m27.56.684h-25.177c-1.318 0-2.383 1.064-2.383 2.38v23.813c0 1.312 1.065 2.379 2.383 2.379h25.177c1.312 0 2.38-1.066 2.38-2.379v-23.813c-.001-1.316-1.069-2.38-2.38-2.38zm-7.435 8.483c-.619-.362-1.11-.648-1.727-.648-.604 0-1.12.151-1.384.405-.264.252-.395.74-.395 1.461v1.067h3.229l-.699 2.968h-2.53v9.862h-4.056v-9.862h-1.893v-2.968h1.895v-1.133c0-1.193.143-1.907.425-2.496.281-.587.826-1.241 1.584-1.611.757-.369 1.877-.555 3.036-.555 1.188 0 2.116.396 3.254.715z"/></svg>