<svg enable-background="new 0 0 455 455" viewBox="0 0 455 455" xmlns="http://www.w3.org/2000/svg"><g clip-rule="evenodd" fill-rule="evenodd"><path d="m246.4 204.35v-.665c-.136.223-.324.446-.442.665z"/><path d="m0 0v455h455v-455zm141.522 378.002h-67.506v-203.096h67.506zm-33.753-230.816h-.446c-22.645 0-37.323-15.601-37.323-35.101 0-19.928 15.107-35.087 38.211-35.087 23.109 0 37.31 15.159 37.752 35.087 0 19.5-14.643 35.101-38.194 35.101zm277.231 230.816h-67.524v-108.657c0-27.291-9.756-45.92-34.195-45.92-18.664 0-29.755 12.543-34.641 24.693-1.776 4.34-2.24 10.373-2.24 16.459v113.426h-67.537s.905-184.043 0-203.096h67.537v28.779c8.973-13.807 24.986-33.547 60.856-33.547 44.437 0 77.744 29.02 77.744 91.398z"/></g></svg>