<svg enable-background="new 0 0 455 455" viewBox="0 0 455 455" xmlns="http://www.w3.org/2000/svg"><path clip-rule="evenodd" d="m0 0v455h455v-455zm352.751 163.259c.123 2.773.186 5.561.186 8.36 0 85.403-65.002 183.876-183.873 183.876-36.496 0-70.466-10.697-99.065-29.037 5.056.601 10.199.907 15.417.907 30.278 0 58.143-10.331 80.262-27.668-28.28-.519-52.148-19.204-60.373-44.88 3.948.757 7.997 1.163 12.161 1.163 5.894 0 11.604-.794 17.027-2.268-29.563-5.939-51.841-32.057-51.841-63.368 0-.273 0-.544.006-.814 8.712 4.84 18.676 7.748 29.271 8.084-17.342-11.589-28.748-31.371-28.748-53.79 0-11.845 3.187-22.945 8.751-32.492 31.873 39.101 79.493 64.828 133.203 67.526-1.103-4.732-1.677-9.665-1.677-14.729 0-35.688 28.938-64.623 64.626-64.623 18.589 0 35.385 7.847 47.173 20.406 14.719-2.895 28.551-8.276 41.038-15.681-4.824 15.092-15.071 27.754-28.415 35.754 13.074-1.563 25.528-5.038 37.118-10.178-8.662 12.959-19.618 24.342-32.247 33.452z" fill-rule="evenodd"/></svg>