<svg enable-background="new 0 0 310 310" viewBox="0 0 310 310" xmlns="http://www.w3.org/2000/svg"><path d="m297.917 64.645c-11.19-13.302-31.85-18.728-71.306-18.728h-143.225c-40.359 0-61.369 5.776-72.517 19.938-10.869 13.808-10.869 34.153-10.869 62.311v53.669c0 54.551 12.896 82.248 83.386 82.248h143.226c34.216 0 53.176-4.788 65.442-16.527 12.579-12.038 17.946-31.693 17.946-65.721v-53.669c0-29.695-.841-50.16-12.083-63.521zm-98.896 97.765-65.038 33.991c-1.454.76-3.044 1.137-4.632 1.137-1.798 0-3.592-.484-5.181-1.446-2.992-1.813-4.819-5.056-4.819-8.554v-67.764c0-3.492 1.822-6.732 4.808-8.546 2.987-1.814 6.702-1.938 9.801-.328l65.038 33.772c3.309 1.718 5.387 5.134 5.392 8.861.004 3.73-2.065 7.151-5.369 8.877z"/></svg>