<?xml version="1.0" encoding="UTF-8"?>
<!DOCTYPE svg PUBLIC "-//W3C//DTD SVG 1.1//EN" "http://www.w3.org/Graphics/SVG/1.1/DTD/svg11.dtd">
<svg width="160mm" height="90mm" viewBox="0 0 16000 9000" version="1.1" baseProfile="tiny" xmlns="http://www.w3.org/2000/svg" stroke-width="28.222" stroke-linejoin="round" xml:space="preserve">
 <path fill="rgb(255,255,255)" stroke="none" d="M 8000,8999 L 0,8999 0,0 15999,0 15999,8999 8000,8999 Z"/>
 <path fill="none" stroke="rgb(179,179,179)" stroke-linejoin="round" d="M 8900,7860 L 2122,7860 2122,1459 15679,1459 15679,7860 8900,7860 Z"/>
 <path fill="none" stroke="rgb(179,179,179)" stroke-linejoin="round" d="M 15678,7859 L 2122,7859"/>
 <path fill="none" stroke="rgb(179,179,179)" stroke-linejoin="round" d="M 15678,6578 L 2122,6578"/>
 <path fill="none" stroke="rgb(179,179,179)" stroke-linejoin="round" d="M 15678,5298 L 2122,5298"/>
 <path fill="none" stroke="rgb(179,179,179)" stroke-linejoin="round" d="M 15678,4018 L 2122,4018"/>
 <path fill="none" stroke="rgb(179,179,179)" stroke-linejoin="round" d="M 15678,2738 L 2122,2738"/>
 <path fill="none" stroke="rgb(179,179,179)" stroke-linejoin="round" d="M 15678,1458 L 2122,1458"/>
 <path fill="none" stroke="rgb(179,179,179)" stroke-linejoin="round" d="M 2122,8009 L 2122,7859"/>
 <path fill="none" stroke="rgb(179,179,179)" stroke-linejoin="round" d="M 2122,8009 L 2122,7859"/>
 <path fill="none" stroke="rgb(179,179,179)" stroke-linejoin="round" d="M 15678,8009 L 15678,7859"/>
 <path fill="none" stroke="rgb(179,179,179)" stroke-linejoin="round" d="M 15678,8009 L 15678,7859"/>
 <path fill="none" stroke="rgb(179,179,179)" stroke-linejoin="round" d="M 2122,7859 L 15678,7859"/>
 <path fill="none" stroke="rgb(179,179,179)" stroke-linejoin="round" d="M 1972,7859 L 2122,7859"/>
 <path fill="none" stroke="rgb(179,179,179)" stroke-linejoin="round" d="M 1972,7859 L 2122,7859"/>
 <path fill="none" stroke="rgb(179,179,179)" stroke-linejoin="round" d="M 1972,6578 L 2122,6578"/>
 <path fill="none" stroke="rgb(179,179,179)" stroke-linejoin="round" d="M 1972,6578 L 2122,6578"/>
 <path fill="none" stroke="rgb(179,179,179)" stroke-linejoin="round" d="M 1972,5298 L 2122,5298"/>
 <path fill="none" stroke="rgb(179,179,179)" stroke-linejoin="round" d="M 1972,5298 L 2122,5298"/>
 <path fill="none" stroke="rgb(179,179,179)" stroke-linejoin="round" d="M 1972,4018 L 2122,4018"/>
 <path fill="none" stroke="rgb(179,179,179)" stroke-linejoin="round" d="M 1972,4018 L 2122,4018"/>
 <path fill="none" stroke="rgb(179,179,179)" stroke-linejoin="round" d="M 1972,2738 L 2122,2738"/>
 <path fill="none" stroke="rgb(179,179,179)" stroke-linejoin="round" d="M 1972,2738 L 2122,2738"/>
 <path fill="none" stroke="rgb(179,179,179)" stroke-linejoin="round" d="M 1972,1458 L 2122,1458"/>
 <path fill="none" stroke="rgb(179,179,179)" stroke-linejoin="round" d="M 1972,1458 L 2122,1458"/>
 <path fill="none" stroke="rgb(179,179,179)" stroke-linejoin="round" d="M 2122,7859 L 2122,1458"/>
 <path fill="rgb(0,132,209)" stroke="none" d="M 3816,7859 L 7206,7859 7206,2289 3816,2289 3816,7859 Z"/>
 <path fill="none" stroke="rgb(0,0,0)" stroke-linejoin="round" d="M 3816,7859 L 7206,7859 7206,2289 3816,2289 3816,7859 Z"/>
 <path fill="rgb(87,157,28)" stroke="none" d="M 7206,7859 L 10594,7859 10594,5394 7206,5394 7206,7859 Z"/>
 <path fill="none" stroke="rgb(0,0,0)" stroke-linejoin="round" d="M 7206,7859 L 10594,7859 10594,5394 7206,5394 7206,7859 Z"/>
 <path fill="rgb(197,0,11)" stroke="none" d="M 10594,7859 L 13984,7859 13984,7135 10594,7135 10594,7859 Z"/>
 <path fill="none" stroke="rgb(0,0,0)" stroke-linejoin="round" d="M 10594,7859 L 13984,7859 13984,7135 10594,7135 10594,7859 Z"/>
 <text class="TextShape"><tspan class="TextParagraph" font-family="Liberation Sans, sans-serif" font-size="353px" font-weight="400"><tspan class="TextPosition" x="1692" y="7984"><tspan fill="rgb(0,0,0)" stroke="none">0</tspan></tspan></tspan></text>
 <text class="TextShape"><tspan class="TextParagraph" font-family="Liberation Sans, sans-serif" font-size="353px" font-weight="400"><tspan class="TextPosition" x="501" y="6703"><tspan fill="rgb(0,0,0)" stroke="none">5000000</tspan></tspan></tspan></text>
 <text class="TextShape"><tspan class="TextParagraph" font-family="Liberation Sans, sans-serif" font-size="353px" font-weight="400"><tspan class="TextPosition" x="321" y="5423"><tspan fill="rgb(0,0,0)" stroke="none">10000000</tspan></tspan></tspan></text>
 <text class="TextShape"><tspan class="TextParagraph" font-family="Liberation Sans, sans-serif" font-size="353px" font-weight="400"><tspan class="TextPosition" x="321" y="4142"><tspan fill="rgb(0,0,0)" stroke="none">15000000</tspan></tspan></tspan></text>
 <text class="TextShape"><tspan class="TextParagraph" font-family="Liberation Sans, sans-serif" font-size="353px" font-weight="400"><tspan class="TextPosition" x="321" y="2862"><tspan fill="rgb(0,0,0)" stroke="none">20000000</tspan></tspan></tspan></text>
 <text class="TextShape"><tspan class="TextParagraph" font-family="Liberation Sans, sans-serif" font-size="353px" font-weight="400"><tspan class="TextPosition" x="321" y="1582"><tspan fill="rgb(0,0,0)" stroke="none">25000000</tspan></tspan></tspan></text>
 <text class="TextShape"><tspan class="TextParagraph" font-family="Liberation Sans, sans-serif" font-size="459px" font-weight="400"><tspan class="TextPosition" x="4235" y="859"><tspan fill="rgb(0,0,0)" stroke="none">Samples Processed (higher is better)</tspan></tspan></tspan></text>
 <path fill="rgb(0,132,209)" stroke="none" d="M 4403,8628 L 4298,8628 4298,8417 4509,8417 4509,8628 4403,8628 Z"/>
 <path fill="none" stroke="rgb(0,0,0)" stroke-linejoin="round" d="M 4403,8628 L 4298,8628 4298,8417 4509,8417 4509,8628 4403,8628 Z"/>
 <path fill="rgb(87,157,28)" stroke="none" d="M 6004,8628 L 5899,8628 5899,8417 6110,8417 6110,8628 6004,8628 Z"/>
 <path fill="none" stroke="rgb(0,0,0)" stroke-linejoin="round" d="M 6004,8628 L 5899,8628 5899,8417 6110,8417 6110,8628 6004,8628 Z"/>
 <path fill="rgb(197,0,11)" stroke="none" d="M 9314,8628 L 9208,8628 9208,8417 9419,8417 9419,8628 9314,8628 Z"/>
 <path fill="none" stroke="rgb(0,0,0)" stroke-linejoin="round" d="M 9314,8628 L 9208,8628 9208,8417 9419,8417 9419,8628 9314,8628 Z"/>
 <text class="TextShape"><tspan class="TextParagraph" font-family="Liberation Sans, sans-serif" font-size="353px" font-weight="400"><tspan class="TextPosition" x="4609" y="8646"><tspan fill="rgb(0,0,0)" stroke="none">Monifu</tspan></tspan></tspan></text>
 <text class="TextShape"><tspan class="TextParagraph" font-family="Liberation Sans, sans-serif" font-size="353px" font-weight="400"><tspan class="TextPosition" x="6210" y="8646"><tspan fill="rgb(0,0,0)" stroke="none">RxJava / RxScala</tspan></tspan></tspan></text>
 <text class="TextShape"><tspan class="TextParagraph" font-family="Liberation Sans, sans-serif" font-size="353px" font-weight="400"><tspan class="TextPosition" x="9519" y="8646"><tspan fill="rgb(0,0,0)" stroke="none">Akka Streams</tspan></tspan></tspan></text>
</svg>