<svg height="283.46457" width="283.46457" xmlns="http://www.w3.org/2000/svg"><g fill="none" stroke="#000" stroke-width=".025in" transform="matrix(.08160948 0 0 .08160948 -12.3049 -12.32124)"><g fill="#000"><path d="m472 3543v-3307" stroke="#b2b2b2" stroke-width="158"/><path d="m944 3543v-3307" stroke="#b2b2b2" stroke-width="158"/><path d="m1417 3543v-3307" stroke="#b2b2b2" stroke-width="158"/><path d="m1889 3543v-3307" stroke="#b2b2b2" stroke-width="158"/><path d="m2834 3543v-3307" stroke="#b2b2b2" stroke-width="158"/><path d="m3307 3543v-3307" stroke="#b2b2b2" stroke-width="158"/><path d="m2362 3543v-3307" stroke="#b2b2b2" stroke-width="158"/><path d="m236 472h3307" stroke="#b2b2b2" stroke-width="158"/><path d="m236 944h3307" stroke="#b2b2b2" stroke-width="158"/><path d="m236 1417h3307" stroke="#b2b2b2" stroke-width="158"/><path d="m236 1889h3307" stroke="#b2b2b2" stroke-width="158"/><path d="m236 2362h3307" stroke="#b2b2b2" stroke-width="158"/><path d="m236 2834h3307" stroke="#b2b2b2" stroke-width="158"/><path d="m236 3307h3307" stroke="#b2b2b2" stroke-width="158"/><circle cx="3307" cy="472" r="94" stroke="#000" stroke-width="16"/><circle cx="472" cy="3307" r="94" stroke="#000" stroke-width="16"/></g><path d="m448 3307v-2859h2859" stroke="#f00" stroke-width="32"/><path d="m472 3307v-473h472v-472h473v-473h472v-472h473v-473h472v-472h473" stroke="#00f" stroke-width="32"/><path d="m472 3307h2362v-945h473v-1890" stroke="#ffd600" stroke-width="32"/><path d="m519 3307 2788-2788" stroke="#00d100" stroke-width="32"/></g></svg>