<svg xmlns="http://www.w3.org/2000/svg" width="52.439ex" height="14.227ex" style="vertical-align:-6.833ex" viewBox="0 -3268.5 23178.1 6288.5"><title>similarity=   cos(\theta)=   \frac{A \cdot B}{\|A\| \|B\|}=   \frac{     \displaystyle\sum_{i=1}^{n} A_i B_i   }{     \sqrt{ \displaystyle\sum_{i=1}^{n} A_i^2 }     \sqrt{ \displaystyle\sum_{i=1}^{n} B_i^2 }   }</title><g fill="currentColor" stroke="currentColor" stroke-width="0" data-mml-node="math"><path stroke="none" d="M131-289q0-32 16-65t56-61 97-27q62 0 90 27t29 60q0 32-17 47t-38 16q-13 0-24-8t-12-26q0-16 9-28t17-18 13-6q1 0 1-1 0-3-7-9t-25-11-39-6q-48 0-70 26t-23 53q0 25 19 35t55 17 52 15q66 29 66 96 0 28-11 56t-33 56-63 44-94 17q-77 0-109-29T53-87q0-39 21-56t44-17q15 0 28 9t14 31q0 26-18 44t-31 18q-2 1-3 1t-1 2q1 3 8 8t31 13 55 7q36 0 62-11t38-28 17-31 5-25q0-28-21-42t-48-17-59-15-47-35q-17-25-17-58" data-c="1D460" data-mml-node="mi"/><path stroke="none" d="M653-600q0-24 19-42t44-19q18 0 30 12t13 30q0 23-20 42t-44 20q-15 0-28-10t-14-33M490-287q0-8 9-31t24-51 44-51 60-22q39 0 65 23t27 62q0 17-14 56t-40 105-42 113q-5 22-5 32 0 25 17 25 9 0 19-3t23-14 27-35 25-59q3-12 5-14t17-2q20 0 20 10 0 8-9 31t-25 51-45 50-62 22q-32 0-59-21t-28-64q0-17 5-32t43-114q38-101 44-121t7-39q0-24-17-24h-2q-30 0-55 33t-38 84q-1 1-2 3t-1 3-2 2-3 1-4 0-8 0h-14q-6-6-6-9" data-c="1D456" data-mml-node="mi"/><path stroke="none" d="M835-287q1-6 3-16t12-38 20-47 32-37 44-17 43 7 30 18 16 22 8 19l2 7q0 2 1 2l11-11q60-64 141-64 17 0 31 2t26 7 19 10 15 12 10 13 8 13 4 12 3 9 2 7l8-10q63-75 149-75 54 0 87 27t34 79q0 51-38 158t-38 128q1 14 5 19t15 5q28 0 52-30t39-82q3-11 6-13t16-2q20 0 20 8 0 1-4 15-8 29-22 57t-46 56-69 27q-47 0-68-27t-21-56q0-19 36-120t37-152q0-59-44-59h-5q-86 0-145 101l-7 12-33 134q-33 131-38 141-13 27-43 27-13 0-21-7t-11-12-3-10q0-11 34-143l36-146q3-15 3-38 0-59-44-59h-5q-86 0-145 101l-7 12-33 134Q970-26 965-16q-13 27-43 27-13 0-21-6T890-7t-2-10q0-13 38-164 39-154 39-161 3-15 3-27 0-36-25-36-22 0-37 28t-23 61-12 36q-2 2-16 2h-14q-6-6-6-9" data-c="1D45A" data-mml-node="mi"/><path stroke="none" d="M1876-600q0-24 19-42t44-19q18 0 30 12t13 30q0 23-20 42t-44 20q-15 0-28-10t-14-33m-163 313q0-8 9-31t24-51 44-51 60-22q39 0 65 23t27 62q0 17-14 56t-40 105-42 113q-5 22-5 32 0 25 17 25 9 0 19-3t23-14 27-35 25-59q3-12 5-14t17-2q20 0 20 10 0 8-9 31t-25 51-45 50-62 22q-32 0-59-21t-28-64q0-17 5-32t43-114q38-101 44-121t7-39q0-24-17-24h-2q-30 0-55 33t-38 84q-1 1-2 3t-1 3-2 2-3 1-4 0-8 0h-14q-6-6-6-9" data-c="1D456" data-mml-node="mi"/><path stroke="none" d="M2154-59q0 33 25 33 37 0 63-105 6-20 10-21 2-1 10-1h16q3 0 5 2t2 7q-1 6-3 16t-11 38-20 47-31 37-46 17q-36 0-67-22t-32-74q0-12 1-17l65-258q63-255 63-263 0-3-1-5t-4-4-5-2-8-1-8-1-9-1-10 0h-13q-3 0-8-1t-6-3-1-6q0-2 2-14 5-19 11-21t72-6q15-1 34-2t30-3 11-1q12 0 12 8 0 11-73 300t-75 303v8q0 6-1 10z" data-c="1D459" data-mml-node="mi"/><path stroke="none" d="M2368-157q0-101 76-192t171-92q51 0 90 49 16-30 46-30 13 0 23 8t10 20q0 13-37 160t-38 166q0 25 7 33t21 9q9-1 20-9 21-20 41-96 6-20 10-21 2-1 10-1h4q19 0 19 9 0 6-5 27t-20 54-32 50q-13 13-32 21-8 2-24 2-34 0-57-15t-30-31l-6-15q-1-1-4 1l-4 4q-59 56-120 56-55 0-97-40t-42-127m318-171q0-6-5-22t-23-35-46-20q-35 0-67 31t-50 81q-29 79-41 164v11q0 8-1 12 0 45 18 62t43 18q38 0 75-33t44-51q2-4 27-107t26-111" data-c="1D44E" data-mml-node="mi"/><path stroke="none" d="M2885-287q1-3 2-8t5-22 10-31 15-33 20-30 26-22 33-9q29 0 51 12t31 22 11 20q2 6 3 6t8-7q48-52 111-52h3q48 0 72 41 8 19 8 37 0 30-13 48t-26 23-25 4q-20 0-32-11t-12-29q0-48 56-64-22-13-36-13-56 0-103 74-10 16-15 33t-34 133q-34 140-39 149-13 27-43 27-13 0-21-6t-11-12-2-10q0-13 40-172t40-177q0-39-26-39-21 0-36 28t-24 61-11 36q-2 2-16 2h-14q-6-6-6-9" data-c="1D45F" data-mml-node="mi"/><path stroke="none" d="M3499-600q0-24 19-42t44-19q18 0 30 12t13 30q0 23-20 42t-44 20q-15 0-28-10t-14-33m-163 313q0-8 9-31t24-51 44-51 60-22q39 0 65 23t27 62q0 17-14 56t-40 105-42 113q-5 22-5 32 0 25 17 25 9 0 19-3t23-14 27-35 25-59q3-12 5-14t17-2q20 0 20 10 0 8-9 31t-25 51-45 50-62 22q-32 0-59-21t-28-64q0-17 5-32t43-114q38-101 44-121t7-39q0-24-17-24h-2q-30 0-55 33t-38 84q-1 1-2 3t-1 3-2 2-3 1-4 0-8 0h-14q-6-6-6-9" data-c="1D456" data-mml-node="mi"/><path stroke="none" d="M3686-385q-7-7-7-10 0-4 3-16t5-14q2-5 9-5t51-1h53l19-80q3-11 7-29t7-26 6-20 8-17 10-12 14-9 18-2q18 1 25 11t7 19q0 7-9 47t-20 79l-10 37q0 2 50 2h51q7 7 7 11 0 22-13 35h-107l-36 145q-39 160-39 172 0 42 27 42 35 0 68-34t53-84q2-6 5-7t15-2h4q15 0 15 8 0 3-3 12-5 16-18 38t-34 47-51 42-61 17q-30 0-57-15t-39-52q-2-8-2-27v-18l35-140q35-141 36-142 0-2-51-2z" data-c="1D461" data-mml-node="mi"/><path stroke="none" d="M4042-287q0-14 15-48t48-71 74-36q41 0 66 23t26 64q-2 19-3 21 0 3-16 46t-33 97-16 86q0 43 14 60t42 18q23 0 43-11t31-23 27-33q0-1 5-20t14-59 19-74q38-150 42-157 13-27 43-27 13 0 21 7t11 12 2 9q0 13-49 210t-56 216q-28 83-97 132t-138 50q-45 0-79-22t-34-66q0-22 7-37t19-22 20-10 17-3q44 0 44 42 0 20-12 35t-23 20-13 5l-3 1q2 5 19 12t34 7h8q17 0 26-2 33-9 61-38t43-62 23-56 8-30l-6 4q-6 4-19 11t-26 12q-20 5-39 5-46 0-81-22t-46-71q-1-7-1-31 0-57 35-149t35-117v-14q0-3-4-7t-11-4h-4q-23 0-42 19t-30 41-17 42-8 22-16 2h-14q-6-6-6-9" data-c="1D466" data-mml-node="mi"/><path stroke="none" d="M4844.8-347q0-13 14-20h637q15 8 15 20 0 11-14 19l-318 1h-318q-16-5-16-20m0 194q0-15 16-20h636q14 10 14 20 0 13-15 20h-637q-14-7-14-20" data-c="3D" data-mml-node="mo"/><path stroke="none" d="M5878.6-159q0-109 86-196t186-87q56 0 88 24t33 63q0 29-19 49t-48 21q-19 0-30-10t-11-30 11-34 22-21 14-6h1q0-2-6-6t-21-8-34-4q-30 0-57 14-21 9-43 31-44 44-64 124t-21 116q0 46 26 69 22 24 58 24h4q112 0 185-85 9-10 12-10 4 0 13 9t10 14-9 15-29 28-45 30-64 25-80 11q-75 0-121-48t-47-122" data-c="1D450" data-mml-node="mi"/><path stroke="none" d="M6478.6 11q-75 0-121-49t-46-118q0-65 30-123t82-101q76-61 155-61 32 0 40 1 13 3 26 7t35 16 36 30 26 49 12 70q0 107-86 193t-189 86m-80-131q0 50 26 72t59 22q44 0 83-32t62-84q9-21 23-74t14-92q0-44-18-67-24-30-64-30-63 0-111 58-37 44-55 117t-19 110" data-c="1D45C" data-mml-node="mi"/><path stroke="none" d="M6893.6-289q0-32 16-65t56-61 97-27q62 0 90 27t29 60q0 32-17 47t-38 16q-13 0-24-8t-12-26q0-16 9-28t17-18 13-6q1 0 1-1 0-3-7-9t-25-11-39-6q-48 0-70 26t-23 53q0 25 19 35t55 17 52 15q66 29 66 96 0 28-11 56t-33 56-63 44-94 17q-77 0-109-29t-33-68q0-39 21-56t44-17q15 0 28 9t14 31q0 26-18 44t-31 18q-2 1-3 1t-1 2q1 3 8 8t31 13 55 7q36 0 62-11t38-28 17-31 5-25q0-28-21-42t-48-17-59-15-47-35q-17-25-17-58" data-c="1D460" data-mml-node="mi"/><path stroke="none" d="M7325.6-250q0-69 10-131t23-107 37-88 38-67 42-52 33-34 25-21h17q14 0 14 9 0 3-17 21t-41 53-49 86-42 138-17 193 17 192 41 139 49 86 42 53 17 21q0 9-15 9h-16l-28-24q-94-85-137-212t-43-264" data-c="28" data-mml-node="mo"/><path stroke="none" d="M7655.6-200q0-102 39-215t106-195 139-94h8q7 0 12-1 54 4 84 49 39 60 39 161 0 115-45 234t-115 195-134 76h-7q-36 0-62-20t-39-53-19-67-6-70m348-366q0-102-53-102-36 0-70 45t-56 102-34 100-13 50q49 1 97 1l97-1q1-1 8-33t16-80 8-82m-270 434q0 106 53 106 15 0 32-10t41-38 48-87 48-146l5-17h-195q0 3-9 38t-16 78-7 76" data-c="1D703" data-mml-node="mi"/><path stroke="none" d="m8149.6-749 4-1h22l28 24q94 85 137 212t43 264q0 68-10 131t-23 107-37 88-38 67-41 51-32 33-23 19l-4 4h-23q-3 0-5-3t-3-9q1-1 11-13 155-161 155-475t-155-475q-10-12-11-13 0-8 5-11" data-c="29" data-mml-node="mo"/><path stroke="none" d="M8812.3-347q0-13 14-20h637q15 8 15 20 0 11-14 19l-318 1h-318q-16-5-16-20m0 194q0-15 16-20h636q14 10 14 20 0 13-15 20h-637q-14-7-14-20" data-c="3D" data-mml-node="mo"/><g data-mml-node="mfrac"><g data-mml-node="mrow"><path stroke="none" d="M10878.9-750q0 24 46 28 18 0 18 11 0 1-2 13-3 14-6 18t-13 4h-12q-10 0-34-1t-64-1q-71 0-91 2h-8q-7-7-7-11 2-27 13-35h14q70-3 102-50 6-6 181-305t178-303q7-12 24-12h25q6 9 6 10l28 323q28 323 30 326 5 11 65 11 25 0 25 10 0 2-3 14-3 15-5 18t-14 4h-14q-11 0-39-1t-73-1q-94 0-123 2h-12q-6-6-6-9t2-18q4-13 6-16l4-3h20q54-3 64-17l-12-150h-238l-34 58q-41 69-41 81m308-186q0-11-12-156t-14-146l-27 43q-16 27-63 107l-90 152 103 1q103 0 103-1" data-c="1D434" data-mml-node="mi"/><path stroke="none" d="M11721.1-926q0-24 17-42t43-18q24 0 42 16t19 43q0 25-17 43t-43 18-43-17-18-43" data-c="22C5" data-mml-node="mo"/><path stroke="none" d="M12374.3-1313q-27 0-32-1t-5-11q0-27 11-33 1-1 130-1 259 0 273 2 63 10 105 45t43 92q0 64-58 115t-133 69l-10 3q64 9 105 46t42 92q0 73-72 141t-177 77q-7 1-211 1-200 0-203-2-4-3-4-8 0-7 2-14 5-19 10-21 4-1 15-1h6q27 0 60-3 14-3 19-12 3-4 72-278t69-289q0-7-57-9m418 93q0-30-15-56t-49-34q-7-2-92-3h-42q-22 0-35 1h-13q-15 1-19 10-2 4-32 120 0 3-1 6l-31 126h81q81 0 93-2 60-10 107-58t48-110m-54 315q0-44-23-73t-60-34q-6-1-83-1-118 0-119 1 0 2-17 73t-35 141l-18 70q0 4 12 4t81 2q89 0 96-1 62-7 114-58t52-124" data-c="1D435" data-mml-node="mi"/></g><g data-mml-node="mrow"><path stroke="none" d="M10165.1-26q5-14 20-14 11 0 17 11 2 4 2 489t-2 489q-6 11-18 11-8 0-14-6l-1-1q-4-2-4-64t-1-429q0-481 1-486m196-3q5-11 17-11 7 0 15 6l1 1q4 2 4 64t1 429 0 428-5 65l-1 1q-6 6-14 6-12 0-18-11-2-4-2-489t2-489" data-c="2225" data-mml-node="mo"/><path stroke="none" d="M10740.1 636q0 24 46 28 18 0 18 11 0 1-2 13-3 14-6 18t-13 4h-12q-10 0-34-1t-64-1q-71 0-91 2h-8q-7-7-7-11 2-27 13-35h14q70-3 102-50 6-6 181-305t178-303q7-12 24-12h25q6 9 6 10l28 323q28 323 30 326 5 11 65 11 25 0 25 10 0 2-3 14-3 15-5 18t-14 4h-14q-11 0-39-1t-73-1q-94 0-123 2h-12q-6-6-6-9t2-18q4-13 6-16l4-3h20q54-3 64-17l-12-150h-238l-34 58q-41 69-41 81m308-186q0-11-12-156t-14-146l-27 43q-16 27-63 107l-90 152 103 1q103 0 103-1" data-c="1D434" data-mml-node="mi"/><path stroke="none" d="M11415.1-26q5-14 20-14 11 0 17 11 2 4 2 489t-2 489q-6 11-18 11-8 0-14-6l-1-1q-4-2-4-64t-1-429q0-481 1-486m196-3q5-11 17-11 7 0 15 6l1 1q4 2 4 64t1 429 0 428-5 65l-1 1q-6 6-14 6-12 0-18-11-2-4-2-489t2-489M11915.1-26q5-14 20-14 11 0 17 11 2 4 2 489t-2 489q-6 11-18 11-8 0-14-6l-1-1q-4-2-4-64t-1-429q0-481 1-486m196-3q5-11 17-11 7 0 15 6l1 1q4 2 4 64t1 429 0 428-5 65l-1 1q-6 6-14 6-12 0-18-11-2-4-2-489t2-489" data-c="2225" data-mml-node="mo"/><path stroke="none" d="M12513.1 73q-27 0-32-1t-5-11q0-27 11-33 1-1 130-1 259 0 273 2 63 10 105 45t43 92q0 64-58 115t-133 69l-10 3q64 9 105 46t42 92q0 73-72 141t-177 77q-7 1-211 1-200 0-203-2-4-3-4-8 0-7 2-14 5-19 10-21 4-1 15-1h6q27 0 60-3 14-3 19-12 3-4 72-278t69-289q0-7-57-9m418 93q0-30-15-56t-49-34q-7-2-92-3h-42q-22 0-35 1h-13q-15 1-19 10-2 4-32 120 0 3-1 6l-31 126h81q81 0 93-2 60-10 107-58t48-110m-54 315q0-44-23-73t-60-34q-6-1-83-1-118 0-119 1 0 2-17 73t-35 141l-18 70q0 4 12 4t81 2q89 0 96-1 62-7 114-58t52-124" data-c="1D435" data-mml-node="mi"/><path stroke="none" d="M13174.1-26q5-14 20-14 11 0 17 11 2 4 2 489t-2 489q-6 11-18 11-8 0-14-6l-1-1q-4-2-4-64t-1-429q0-481 1-486m196-3q5-11 17-11 7 0 15 6l1 1q4 2 4 64t1 429 0 428-5 65l-1 1q-6 6-14 6-12 0-18-11-2-4-2-489t2-489" data-c="2225" data-mml-node="mo"/></g><path stroke="none" d="M9932.1-220h3709v-60h-3709z"/></g><path stroke="none" d="M14094.9-347q0-13 14-20h637q15 8 15 20 0 11-14 19l-318 1h-318q-16-5-16-20m0 194q0-15 16-20h636q14 10 14 20 0 13-15 20h-637q-14-7-14-20" data-c="3D" data-mml-node="mo"/><g data-mml-node="mfrac"><g data-mml-node="mstyle"><g data-mml-node="munderover"><path stroke="none" d="M17309.6-2653.9q3-2 605-2h602l58 135q59 138 63 146h-40l-7-14q-21-41-56-78-50-48-111-77t-141-43-151-17-183-4h-448l8 11q463 633 465 639 1 2 0 6-3 3-264 302l-264 300q0 1 211 1h141q89 0 128 1 136 0 220-5t167-21 141-49 103-87q21-26 41-72h40q0 1-7 21t-25 65-31 84l-58 155-601 1q-602 0-605-2-6-2-6-9 0-2 2-6l533-610q0-1-33-45t-105-144-130-178l-266-365-1-15q0-21 5-24" data-c="2211" data-mml-node="mo"/><g data-mjx-texclass="ORD" data-mml-node="TeXAtom"><path stroke="none" d="M17527.888-1042.2q0-16.968 13.433-29.694t31.108-13.433q12.726 0 21.21 8.484t9.191 21.21q0 16.261-14.14 29.694t-31.108 14.14q-10.605 0-19.796-7.07t-9.898-23.331m-115.241 221.291q0-5.656 6.363-21.917t16.968-36.057 31.108-36.057 42.42-15.554q27.573 0 45.955 16.261t19.089 43.834q0 12.019-9.898 39.592t-28.28 74.235-29.694 79.891q-3.535 15.554-3.535 22.624 0 17.675 12.019 17.675 6.363 0 13.433-2.121t16.261-9.898 19.089-24.745 17.675-41.713q2.121-8.484 3.535-9.898t12.019-1.414q14.14 0 14.14 7.07 0 5.656-6.363 21.917t-17.675 36.057-31.815 35.35-43.834 15.554q-22.624 0-41.713-14.847t-19.796-45.248q0-12.019 3.535-22.624t30.401-80.598q26.866-71.407 31.108-85.547t4.949-27.573q0-16.968-12.019-16.968h-1.414q-21.21 0-38.885 23.331t-26.866 59.388q-.707.707-1.414 2.121t-.707 2.121-1.414 1.414-2.121.707-2.828 0-5.656 0h-9.898q-4.242-4.242-4.242-6.363" data-c="1D456" data-mml-node="mi"/><path stroke="none" d="M17681.307-863.329q0-9.191 9.898-14.14h450.359q10.605 5.656 10.605 14.14 0 7.777-9.898 13.433l-224.826.707h-224.826q-11.312-3.535-11.312-14.14m0 137.158q0-10.605 11.312-14.14h449.652q9.898 7.07 9.898 14.14 0 9.191-10.605 14.14h-450.359q-9.898-4.949-9.898-14.14" data-c="3D" data-mml-node="mo"/><path stroke="none" d="m18342.352-1026.646-9.191 3.535q-9.898 3.535-28.28 7.07t-41.006 4.949h-13.433v-32.522h13.433q33.229-1.414 61.509-10.605t39.592-16.968 19.796-15.554q1.414-2.121 8.484-2.121 6.363 0 12.019 4.242v211.393l.707 212.1q4.949 4.949 8.484 6.363t16.968 2.828 43.834 1.414h18.382V-618h-7.777q-14.847-2.121-112.413-2.121-96.152 0-110.999 2.121h-8.484v-32.522h45.248q11.312 0 17.675-.707t11.312-2.121 5.656-1.414 4.242-3.535 4.242-2.828z" data-c="31" data-mml-node="mn"/></g><g data-mjx-texclass="ORD" data-mml-node="TeXAtom"><path stroke="none" d="M17774.347-3058.809q.707-4.242 2.121-11.312t8.484-26.866 14.14-33.229 23.331-26.159 32.522-12.019q25.452 0 42.42 12.726t21.21 24.038 4.242 14.847q0 1.414.707 1.414l7.777-7.777q43.127-45.248 98.273-45.248 38.178 0 61.509 19.089t24.038 55.853-26.866 110.999-26.866 89.789q0 18.382 12.019 18.382 4.242 0 6.363-.707 20.503-3.535 36.764-26.866t24.745-56.56q1.414-5.656 14.14-5.656 14.14 0 14.14 5.656 0 .707-2.828 10.605-5.656 20.503-15.554 40.299t-32.522 39.592-48.783 19.089q-33.229 0-48.076-19.089t-14.847-39.592q0-13.433 25.452-84.84t26.159-107.464q0-41.713-31.108-41.713h-3.535q-60.802 0-102.515 71.407l-4.949 8.484-23.331 94.738q-23.331 92.617-26.866 99.687-9.191 19.089-30.401 19.089-9.191 0-14.847-4.242t-7.777-8.484-1.414-7.07q0-9.191 26.866-115.241t28.28-115.241q.707-3.535.707-16.261 0-27.573-16.968-27.573-26.866 0-44.541 70.7-4.242 14.14-4.242 14.847-1.414 4.242-13.433 4.242h-9.898q-4.242-4.242-4.242-6.363" data-c="1D45B" data-mml-node="mi"/></g></g><g data-mml-node="msub"><path stroke="none" d="M19068.3-1779.9q0 24 46 28 18 0 18 11 0 1-2 13-3 14-6 18t-13 4h-12q-10 0-34-1t-64-1q-71 0-91 2h-8q-7-7-7-11 2-27 13-35h14q70-3 102-50 6-6 181-305t178-303q7-12 24-12h25q6 9 6 10l28 323q28 323 30 326 5 11 65 11 25 0 25 10 0 2-3 14-3 15-5 18t-14 4h-14q-11 0-39-1t-73-1q-94 0-123 2h-12q-6-6-6-9t2-18q4-13 6-16l4-3h20q54-3 64-17l-12-150h-238l-34 58q-41 69-41 81m308-186q0-11-12-156t-14-146l-27 43q-16 27-63 107l-90 152 103 1q103 0 103-1" data-c="1D434" data-mml-node="mi"/><path stroke="none" d="M19773.388-1980.1q0-16.968 13.433-29.694t31.108-13.433q12.726 0 21.21 8.484t9.191 21.21q0 16.261-14.14 29.694t-31.108 14.14q-10.605 0-19.796-7.07t-9.898-23.331m-115.241 221.291q0-5.656 6.363-21.917t16.968-36.057 31.108-36.057 42.42-15.554q27.573 0 45.955 16.261t19.089 43.834q0 12.019-9.898 39.592t-28.28 74.235-29.694 79.891q-3.535 15.554-3.535 22.624 0 17.675 12.019 17.675 6.363 0 13.433-2.121t16.261-9.898 19.089-24.745 17.675-41.713q2.121-8.484 3.535-9.898t12.019-1.414q14.14 0 14.14 7.07 0 5.656-6.363 21.917t-17.675 36.057-31.815 35.35-43.834 15.554q-22.624 0-41.713-14.847t-19.796-45.248q0-12.019 3.535-22.624t30.401-80.598q26.866-71.407 31.108-85.547t4.949-27.573q0-16.968-12.019-16.968h-1.414q-21.21 0-38.885 23.331t-26.866 59.388q-.707.707-1.414 2.121t-.707 2.121-1.414 1.414-2.121.707-2.828 0-5.656 0h-9.898q-4.242-4.242-4.242-6.363" data-c="1D456" data-mml-node="mi"/></g><g data-mml-node="msub"><path stroke="none" d="M20168.2-2342.9q-27 0-32-1t-5-11q0-27 11-33 1-1 130-1 259 0 273 2 63 10 105 45t43 92q0 64-58 115t-133 69l-10 3q64 9 105 46t42 92q0 73-72 141t-177 77q-7 1-211 1-200 0-203-2-4-3-4-8 0-7 2-14 5-19 10-21 4-1 15-1h6q27 0 60-3 14-3 19-12 3-4 72-278t69-289q0-7-57-9m418 93q0-30-15-56t-49-34q-7-2-92-3h-42q-22 0-35 1h-13q-15 1-19 10-2 4-32 120 0 3-1 6l-31 126h81q81 0 93-2 60-10 107-58t48-110m-54 315q0-44-23-73t-60-34q-6-1-83-1-118 0-119 1 0 2-17 73t-35 141l-18 70q0 4 12 4t81 2q89 0 96-1 62-7 114-58t52-124" data-c="1D435" data-mml-node="mi"/><path stroke="none" d="M20859.288-1980.1q0-16.968 13.433-29.694t31.108-13.433q12.726 0 21.21 8.484t9.191 21.21q0 16.261-14.14 29.694t-31.108 14.14q-10.605 0-19.796-7.07t-9.898-23.331m-115.241 221.291q0-5.656 6.363-21.917t16.968-36.057 31.108-36.057 42.42-15.554q27.573 0 45.955 16.261t19.089 43.834q0 12.019-9.898 39.592t-28.28 74.235-29.694 79.891q-3.535 15.554-3.535 22.624 0 17.675 12.019 17.675 6.363 0 13.433-2.121t16.261-9.898 19.089-24.745 17.675-41.713q2.121-8.484 3.535-9.898t12.019-1.414q14.14 0 14.14 7.07 0 5.656-6.363 21.917t-17.675 36.057-31.815 35.35-43.834 15.554q-22.624 0-41.713-14.847t-19.796-45.248q0-12.019 3.535-22.624t30.401-80.598q26.866-71.407 31.108-85.547t4.949-27.573q0-16.968-12.019-16.968h-1.414q-21.21 0-38.885 23.331t-26.866 59.388q-.707.707-1.414 2.121t-.707 2.121-1.414 1.414-2.121.707-2.828 0-5.656 0h-9.898q-4.242-4.242-4.242-6.363" data-c="1D456" data-mml-node="mi"/></g></g><g data-mml-node="mrow"><g data-mml-node="msqrt"><g data-mml-node="mstyle"><g data-mml-node="munderover"><path stroke="none" d="M16394.7 797.8q3-2 605-2h602l58 135q59 138 63 146h-40l-7-14q-21-41-56-78-50-48-111-77t-141-43-151-17-183-4h-448l8 11q463 633 465 639 1 2 0 6-3 3-264 302l-264 300q0 1 211 1h141q89 0 128 1 136 0 220-5t167-21 141-49 103-87q21-26 41-72h40q0 1-7 21t-25 65-31 84l-58 155-601 1q-602 0-605-2-6-2-6-9 0-2 2-6l533-610q0-1-33-45t-105-144-130-178l-266-365-1-15q0-21 5-24" data-c="2211" data-mml-node="mo"/><g data-mjx-texclass="ORD" data-mml-node="TeXAtom"><path stroke="none" d="M16612.988 2409.5q0-16.968 13.433-29.694t31.108-13.433q12.726 0 21.21 8.484t9.191 21.21q0 16.261-14.14 29.694t-31.108 14.14q-10.605 0-19.796-7.07t-9.898-23.331m-115.241 221.291q0-5.656 6.363-21.917t16.968-36.057 31.108-36.057 42.42-15.554q27.573 0 45.955 16.261t19.089 43.834q0 12.019-9.898 39.592t-28.28 74.235-29.694 79.891q-3.535 15.554-3.535 22.624 0 17.675 12.019 17.675 6.363 0 13.433-2.121t16.261-9.898 19.089-24.745 17.675-41.713q2.121-8.484 3.535-9.898t12.019-1.414q14.14 0 14.14 7.07 0 5.656-6.363 21.917t-17.675 36.057-31.815 35.35-43.834 15.554q-22.624 0-41.713-14.847t-19.796-45.248q0-12.019 3.535-22.624t30.401-80.598q26.866-71.407 31.108-85.547t4.949-27.573q0-16.968-12.019-16.968h-1.414q-21.21 0-38.885 23.331t-26.866 59.388q-.707.707-1.414 2.121t-.707 2.121-1.414 1.414-2.121.707-2.828 0-5.656 0h-9.898q-4.242-4.242-4.242-6.363" data-c="1D456" data-mml-node="mi"/><path stroke="none" d="M16766.407 2588.371q0-9.191 9.898-14.14h450.359q10.605 5.656 10.605 14.14 0 7.777-9.898 13.433l-224.826.707h-224.826q-11.312-3.535-11.312-14.14m0 137.158q0-10.605 11.312-14.14h449.652q9.898 7.07 9.898 14.14 0 9.191-10.605 14.14h-450.359q-9.898-4.949-9.898-14.14" data-c="3D" data-mml-node="mo"/><path stroke="none" d="m17427.452 2425.054-9.191 3.535q-9.898 3.535-28.28 7.07t-41.006 4.949h-13.433v-32.522h13.433q33.229-1.414 61.509-10.605t39.592-16.968 19.796-15.554q1.414-2.121 8.484-2.121 6.363 0 12.019 4.242v211.393l.707 212.1q4.949 4.949 8.484 6.363t16.968 2.828 43.834 1.414h18.382v32.522h-7.777q-14.847-2.121-112.413-2.121-96.152 0-110.999 2.121h-8.484v-32.522h45.248q11.312 0 17.675-.707t11.312-2.121 5.656-1.414 4.242-3.535 4.242-2.828z" data-c="31" data-mml-node="mn"/></g><g data-mjx-texclass="ORD" data-mml-node="TeXAtom"><path stroke="none" d="M16859.447 392.891q.707-4.242 2.121-11.312t8.484-26.866 14.14-33.229 23.331-26.159 32.522-12.019q25.452 0 42.42 12.726t21.21 24.038 4.242 14.847q0 1.414.707 1.414l7.777-7.777q43.127-45.248 98.273-45.248 38.178 0 61.509 19.089t24.038 55.853-26.866 110.999-26.866 89.789q0 18.382 12.019 18.382 4.242 0 6.363-.707 20.503-3.535 36.764-26.866t24.745-56.56q1.414-5.656 14.14-5.656 14.14 0 14.14 5.656 0 .707-2.828 10.605-5.656 20.503-15.554 40.299t-32.522 39.592-48.783 19.089q-33.229 0-48.076-19.089t-14.847-39.592q0-13.433 25.452-84.84t26.159-107.464q0-41.713-31.108-41.713h-3.535q-60.802 0-102.515 71.407l-4.949 8.484-23.331 94.738q-23.331 92.617-26.866 99.687-9.191 19.089-30.401 19.089-9.191 0-14.847-4.242t-7.777-8.484-1.414-7.07q0-9.191 26.866-115.241t28.28-115.241q.707-3.535.707-16.261 0-27.573-16.968-27.573-26.866 0-44.541 70.7-4.242 14.14-4.242 14.847-1.414 4.242-13.433 4.242h-9.898q-4.242-4.242-4.242-6.363" data-c="1D45B" data-mml-node="mi"/></g></g><g data-mml-node="msubsup"><path stroke="none" d="M18153.4 1671.8q0 24 46 28 18 0 18 11 0 1-2 13-3 14-6 18t-13 4h-12q-10 0-34-1t-64-1q-71 0-91 2h-8q-7-7-7-11 2-27 13-35h14q70-3 102-50 6-6 181-305t178-303q7-12 24-12h25q6 9 6 10l28 323q28 323 30 326 5 11 65 11 25 0 25 10 0 2-3 14-3 15-5 18t-14 4h-14q-11 0-39-1t-73-1q-94 0-123 2h-12q-6-6-6-9t2-18q4-13 6-16l4-3h20q54-3 64-17l-12-150h-238l-34 58q-41 69-41 81m308-186q0-11-12-156t-14-146l-27 43q-16 27-63 107l-90 152 103 1q103 0 103-1" data-c="1D434" data-mml-node="mi"/><path stroke="none" d="M18805.463 1029.497q-19.089 0-30.401-12.726t-11.312-31.108q0-50.197 37.471-86.961t93.324-36.764q64.337 0 107.464 39.592t43.834 102.515q0 30.401-14.14 57.974t-33.936 48.076-56.56 52.318q-25.452 21.917-70.7 65.044l-41.713 39.592 53.732.707q110.999 0 118.069-3.535 4.949-1.414 16.968-62.923v-2.121h28.28v2.121q-.707 2.121-9.191 64.337t-10.605 65.044v2.121h-262.297v-21.917q0-4.949 4.242-10.605t21.21-24.745q20.503-22.624 35.35-39.592 6.363-7.07 24.038-26.159t24.038-26.159 20.503-23.331 19.796-24.038 16.261-21.21 14.847-22.624 10.605-20.503 9.191-22.624 4.949-21.21 2.121-23.331q0-44.541-24.038-77.063t-68.579-32.522q-23.331 0-41.006 12.019t-24.745 23.331-7.07 13.433q0 .707 3.535.707 12.726 0 26.159 9.898t13.433 32.522q0 17.675-11.312 29.694t-31.815 12.726" data-c="32" data-mml-node="mn"/><path stroke="none" d="M18858.488 1568.6q0-16.968 13.433-29.694t31.108-13.433q12.726 0 21.21 8.484t9.191 21.21q0 16.261-14.14 29.694t-31.108 14.14q-10.605 0-19.796-7.07t-9.898-23.331m-115.241 221.291q0-5.656 6.363-21.917t16.968-36.057 31.108-36.057 42.42-15.554q27.573 0 45.955 16.261t19.089 43.834q0 12.019-9.898 39.592t-28.28 74.235-29.694 79.891q-3.535 15.554-3.535 22.624 0 17.675 12.019 17.675 6.363 0 13.433-2.121t16.261-9.898 19.089-24.745 17.675-41.713q2.121-8.484 3.535-9.898t12.019-1.414q14.14 0 14.14 7.07 0 5.656-6.363 21.917t-17.675 36.057-31.815 35.35-43.834 15.554q-22.624 0-41.713-14.847t-19.796-45.248q0-12.019 3.535-22.624t30.401-80.598q26.866-71.407 31.108-85.547t4.949-27.573q0-16.968-12.019-16.968h-1.414q-21.21 0-38.885 23.331t-26.866 59.388q-.707.707-1.414 2.121t-.707 2.121-1.414 1.414-2.121.707-2.828 0-5.656 0h-9.898q-4.242-4.242-4.242-6.363" data-c="1D456" data-mml-node="mi"/></g></g><path stroke="none" d="M16297.7 31q5-11 18-11 7 0 12 5t7 12q0 7-278 1489t-282 1485q-2 9-21 9h-3q-12 0-12-2l-14-82q-15-83-43-246t-55-319l-111-645-64 127-26-26 76-153 77-151q1 1 105 604 101 601 104 606l254-1347q252-1345 256-1355" data-c="221A" data-mml-node="mo"/><path stroke="none" d="M16334.7 80h2797.2V20h-2797.2z"/></g><g data-mml-node="msqrt"><g data-mml-node="mstyle"><g data-mml-node="munderover"><path stroke="none" d="M20211.9 797.8q3-2 605-2h602l58 135q59 138 63 146h-40l-7-14q-21-41-56-78-50-48-111-77t-141-43-151-17-183-4h-448l8 11q463 633 465 639 1 2 0 6-3 3-264 302l-264 300q0 1 211 1h141q89 0 128 1 136 0 220-5t167-21 141-49 103-87q21-26 41-72h40q0 1-7 21t-25 65-31 84l-58 155-601 1q-602 0-605-2-6-2-6-9 0-2 2-6l533-610q0-1-33-45t-105-144-130-178l-266-365-1-15q0-21 5-24" data-c="2211" data-mml-node="mo"/><g data-mjx-texclass="ORD" data-mml-node="TeXAtom"><path stroke="none" d="M20430.188 2409.5q0-16.968 13.433-29.694t31.108-13.433q12.726 0 21.21 8.484t9.191 21.21q0 16.261-14.14 29.694t-31.108 14.14q-10.605 0-19.796-7.07t-9.898-23.331m-115.241 221.291q0-5.656 6.363-21.917t16.968-36.057 31.108-36.057 42.42-15.554q27.573 0 45.955 16.261t19.089 43.834q0 12.019-9.898 39.592t-28.28 74.235-29.694 79.891q-3.535 15.554-3.535 22.624 0 17.675 12.019 17.675 6.363 0 13.433-2.121t16.261-9.898 19.089-24.745 17.675-41.713q2.121-8.484 3.535-9.898t12.019-1.414q14.14 0 14.14 7.07 0 5.656-6.363 21.917t-17.675 36.057-31.815 35.35-43.834 15.554q-22.624 0-41.713-14.847t-19.796-45.248q0-12.019 3.535-22.624t30.401-80.598q26.866-71.407 31.108-85.547t4.949-27.573q0-16.968-12.019-16.968h-1.414q-21.21 0-38.885 23.331t-26.866 59.388q-.707.707-1.414 2.121t-.707 2.121-1.414 1.414-2.121.707-2.828 0-5.656 0h-9.898q-4.242-4.242-4.242-6.363" data-c="1D456" data-mml-node="mi"/><path stroke="none" d="M20583.607 2588.371q0-9.191 9.898-14.14h450.359q10.605 5.656 10.605 14.14 0 7.777-9.898 13.433l-224.826.707h-224.826q-11.312-3.535-11.312-14.14m0 137.158q0-10.605 11.312-14.14h449.652q9.898 7.07 9.898 14.14 0 9.191-10.605 14.14h-450.359q-9.898-4.949-9.898-14.14" data-c="3D" data-mml-node="mo"/><path stroke="none" d="m21244.652 2425.054-9.191 3.535q-9.898 3.535-28.28 7.07t-41.006 4.949h-13.433v-32.522h13.433q33.229-1.414 61.509-10.605t39.592-16.968 19.796-15.554q1.414-2.121 8.484-2.121 6.363 0 12.019 4.242v211.393l.707 212.1q4.949 4.949 8.484 6.363t16.968 2.828 43.834 1.414h18.382v32.522h-7.777q-14.847-2.121-112.413-2.121-96.152 0-110.999 2.121h-8.484v-32.522h45.248q11.312 0 17.675-.707t11.312-2.121 5.656-1.414 4.242-3.535 4.242-2.828z" data-c="31" data-mml-node="mn"/></g><g data-mjx-texclass="ORD" data-mml-node="TeXAtom"><path stroke="none" d="M20676.647 392.891q.707-4.242 2.121-11.312t8.484-26.866 14.14-33.229 23.331-26.159 32.522-12.019q25.452 0 42.42 12.726t21.21 24.038 4.242 14.847q0 1.414.707 1.414l7.777-7.777q43.127-45.248 98.273-45.248 38.178 0 61.509 19.089t24.038 55.853-26.866 110.999-26.866 89.789q0 18.382 12.019 18.382 4.242 0 6.363-.707 20.503-3.535 36.764-26.866t24.745-56.56q1.414-5.656 14.14-5.656 14.14 0 14.14 5.656 0 .707-2.828 10.605-5.656 20.503-15.554 40.299t-32.522 39.592-48.783 19.089q-33.229 0-48.076-19.089t-14.847-39.592q0-13.433 25.452-84.84t26.159-107.464q0-41.713-31.108-41.713h-3.535q-60.802 0-102.515 71.407l-4.949 8.484-23.331 94.738q-23.331 92.617-26.866 99.687-9.191 19.089-30.401 19.089-9.191 0-14.847-4.242t-7.777-8.484-1.414-7.07q0-9.191 26.866-115.241t28.28-115.241q.707-3.535.707-16.261 0-27.573-16.968-27.573-26.866 0-44.541 70.7-4.242 14.14-4.242 14.847-1.414 4.242-13.433 4.242h-9.898q-4.242-4.242-4.242-6.363" data-c="1D45B" data-mml-node="mi"/></g></g><g data-mml-node="msubsup"><path stroke="none" d="M21993.6 1108.8q-27 0-32-1t-5-11q0-27 11-33 1-1 130-1 259 0 273 2 63 10 105 45t43 92q0 64-58 115t-133 69l-10 3q64 9 105 46t42 92q0 73-72 141t-177 77q-7 1-211 1-200 0-203-2-4-3-4-8 0-7 2-14 5-19 10-21 4-1 15-1h6q27 0 60-3 14-3 19-12 3-4 72-278t69-289q0-7-57-9m418 93q0-30-15-56t-49-34q-7-2-92-3h-42q-22 0-35 1h-13q-15 1-19 10-2 4-32 120 0 3-1 6l-31 126h81q81 0 93-2 60-10 107-58t48-110m-54 315q0-44-23-73t-60-34q-6-1-83-1-118 0-119 1 0 2-17 73t-35 141l-18 70q0 4 12 4t81 2q89 0 96-1 62-7 114-58t52-124" data-c="1D435" data-mml-node="mi"/><path stroke="none" d="M22631.663 1029.497q-19.089 0-30.401-12.726t-11.312-31.108q0-50.197 37.471-86.961t93.324-36.764q64.337 0 107.464 39.592t43.834 102.515q0 30.401-14.14 57.974t-33.936 48.076-56.56 52.318q-25.452 21.917-70.7 65.044l-41.713 39.592 53.732.707q110.999 0 118.069-3.535 4.949-1.414 16.968-62.923v-2.121h28.28v2.121q-.707 2.121-9.191 64.337t-10.605 65.044v2.121h-262.297v-21.917q0-4.949 4.242-10.605t21.21-24.745q20.503-22.624 35.35-39.592 6.363-7.07 24.038-26.159t24.038-26.159 20.503-23.331 19.796-24.038 16.261-21.21 14.847-22.624 10.605-20.503 9.191-22.624 4.949-21.21 2.121-23.331q0-44.541-24.038-77.063t-68.579-32.522q-23.331 0-41.006 12.019t-24.745 23.331-7.07 13.433q0 .707 3.535.707 12.726 0 26.159 9.898t13.433 32.522q0 17.675-11.312 29.694t-31.815 12.726" data-c="32" data-mml-node="mn"/><path stroke="none" d="M22684.688 1568.6q0-16.968 13.433-29.694t31.108-13.433q12.726 0 21.21 8.484t9.191 21.21q0 16.261-14.14 29.694t-31.108 14.14q-10.605 0-19.796-7.07t-9.898-23.331m-115.241 221.291q0-5.656 6.363-21.917t16.968-36.057 31.108-36.057 42.42-15.554q27.573 0 45.955 16.261t19.089 43.834q0 12.019-9.898 39.592t-28.28 74.235-29.694 79.891q-3.535 15.554-3.535 22.624 0 17.675 12.019 17.675 6.363 0 13.433-2.121t16.261-9.898 19.089-24.745 17.675-41.713q2.121-8.484 3.535-9.898t12.019-1.414q14.14 0 14.14 7.07 0 5.656-6.363 21.917t-17.675 36.057-31.815 35.35-43.834 15.554q-22.624 0-41.713-14.847t-19.796-45.248q0-12.019 3.535-22.624t30.401-80.598q26.866-71.407 31.108-85.547t4.949-27.573q0-16.968-12.019-16.968h-1.414q-21.21 0-38.885 23.331t-26.866 59.388q-.707.707-1.414 2.121t-.707 2.121-1.414 1.414-2.121.707-2.828 0-5.656 0h-9.898q-4.242-4.242-4.242-6.363" data-c="1D456" data-mml-node="mi"/></g></g><path stroke="none" d="M20114.9 31q5-11 18-11 7 0 12 5t7 12q0 7-278 1489t-282 1485q-2 9-21 9h-3q-12 0-12-2l-14-82q-15-83-43-246t-55-319l-111-645-64 127-26-26 76-153 77-151q1 1 105 604 101 601 104 606l254-1347q252-1345 256-1355" data-c="221A" data-mml-node="mo"/><path stroke="none" d="M20151.9 80h2806.2V20h-2806.2z"/></g></g><path stroke="none" d="M15214.7-220h7843.4v-60h-7843.4z"/></g></g></svg>