<svg xmlns="http://www.w3.org/2000/svg" width="31.125ex" height="21.629ex" style="vertical-align:-10.249ex" viewBox="0 -5030 13757.2 9559.9"><title>\begin{aligned} S &amp;= \sum_{k=1}^{25} \frac{1}{(4k-1)(4k+3)} \\ &amp;= \sum_{k=1}^{25} \frac{1}{4} \left( \frac{1}{4k-1} - \frac{1}{4k+3} \right) \\ &amp;= \frac{1}{4} \sum_{k=1}^{25} \left( \frac{1}{4k-1} - \frac{1}{4k+3} \right) \end{aligned}</title><g fill="currentColor" stroke="currentColor" stroke-width="0" data-mml-node="math"><g data-mml-node="mtable"><g data-mml-node="mtr"><g data-mml-node="mtd"><path stroke="none" d="M308-3333q59 0 108-52t50-121q0-63-52-87-106-27-136-37t-42-20q-60-42-60-121 0-61 32-111t65-75q29-25 70-40t64-16h18q96 0 139 64 1 0 13-13t26-29 20-22h4q3 0 5-1 13 0 13 7t-28 121-32 118-16 3q-20 0-20-9 0-6 1-10 0-3 1-19t2-26q0-34-9-59t-18-37-25-25q-36-21-82-21-57 0-106 46t-50 106q0 30 15 52t41 31q4 2 70 19t67 18q34 11 66 48t32 100q0 26-8 56-5 22-18 49t-36 59-66 60-94 38q-12 2-34 2-99 0-154-55l-10-11-28 31q-23 27-28 31t-13 4q-13 0-13-8 0-3 58-235 2-6 20-6h13q6 6 6 11 0 2-1 9t-4 21-2 33q2 39 18 66t43 40 52 18 53 5" data-c="1D446" data-mml-node="mi"/></g><g data-mml-node="mtd"><path stroke="none" d="M978.8-3656q0-13 14-20h637q15 8 15 20 0 11-14 19l-318 1h-318q-16-5-16-20m0 194q0-15 16-20h636q14 10 14 20 0 13-15 20h-637q-14-7-14-20" data-c="3D" data-mml-node="mo"/><g data-mml-node="munderover"><path stroke="none" d="M2038.6-4257q3-2 605-2h602l58 135q59 138 63 146h-40l-7-14q-21-41-56-78-50-48-111-77t-141-43-151-17-183-4h-448l8 11q463 633 465 639 1 2 0 6-3 3-264 302l-264 300q0 1 211 1h141q89 0 128 1 136 0 220-5t167-21 141-49 103-87q21-26 41-72h40q0 1-7 21t-25 65-31 84l-58 155-601 1q-602 0-605-2-6-2-6-9 0-2 2-6l533-610q0-1-33-45t-105-144-130-178l-266-365-1-15q0-21 5-24" data-c="2211" data-mml-node="mo"/><g data-mjx-texclass="ORD" data-mml-node="TeXAtom"><path stroke="none" d="M2150.147-2658.729q0-7.07 2.828-16.261t8.484-9.191q.707 0 50.904-3.535t51.611-4.242q8.484 0 8.484 5.656 0 4.949-35.35 147.763-35.35 139.986-35.35 144.935 13.433-7.07 20.503-13.433 16.968-12.726 48.783-44.541t49.49-43.127q28.28-19.089 53.732-19.089 21.21 0 33.229 13.433t12.726 38.178q0 17.675-4.949 29.694t-13.433 17.675-14.847 7.777-12.726 2.121q-14.14 0-22.624-7.777t-8.484-20.503q0-17.675 11.312-28.987t22.624-14.847l11.312-2.121q-8.484-8.484-16.968-8.484h-2.828q-22.624 2.121-44.541 17.675t-51.611 45.248-46.662 43.127q1.414.707 10.605 2.121t16.968 4.242 18.382 5.656 19.089 9.898 15.554 12.726 12.019 18.382 4.242 23.331q0 12.019-3.535 28.987t-4.242 28.28q0 28.28 19.089 28.28 33.936 0 55.146-84.133 1.414-5.656 14.14-5.656h2.828q11.312 0 11.312 6.363 0 3.535-2.121 9.898-28.987 99.687-83.426 99.687-31.815 0-51.611-18.382t-19.796-53.025q0-12.726 2.121-21.917t2.121-16.968q0-15.554-9.898-26.866t-24.745-16.261-24.038-7.777-12.726-2.121h-1.414q-8.484 29.694-14.847 57.267t-9.898 41.006-6.363 26.159-4.949 16.968-4.949 9.191-7.777 6.363q-9.191 6.363-19.796 6.363-12.019 0-18.382-7.07t-6.363-12.019q0-7.07 26.159-113.12t51.611-208.565l26.159-102.515q.707-9.191-4.949-11.312t-27.573-3.535h-12.726q-2.121 0-4.949-2.121t-2.121-4.949" data-c="1D458" data-mml-node="mi"/><path stroke="none" d="M2472.539-2446.629q0-9.191 9.898-14.14h450.359q10.605 5.656 10.605 14.14 0 7.777-9.898 13.433l-224.826.707h-224.826q-11.312-3.535-11.312-14.14m0 137.158q0-10.605 11.312-14.14h449.652q9.898 7.07 9.898 14.14 0 9.191-10.605 14.14h-450.359q-9.898-4.949-9.898-14.14" data-c="3D" data-mml-node="mo"/><path stroke="none" d="m3133.584-2609.946-9.191 3.535q-9.898 3.535-28.28 7.07t-41.006 4.949h-13.433v-32.522h13.433q33.229-1.414 61.509-10.605t39.592-16.968 19.796-15.554q1.414-2.121 8.484-2.121 6.363 0 12.019 4.242v211.393l.707 212.1q4.949 4.949 8.484 6.363t16.968 2.828 43.834 1.414h18.382v32.522h-7.777q-14.847-2.121-112.413-2.121-96.152 0-110.999 2.121h-8.484v-32.522h45.248q11.312 0 17.675-.707t11.312-2.121 5.656-1.414 4.242-3.535 4.242-2.828z" data-c="31" data-mml-node="mn"/></g><g data-mjx-texclass="ORD" data-mml-node="TeXAtom"><g stroke="none" data-mml-node="mn"><path d="M2424.063-4762.303q-19.089 0-30.401-12.726t-11.312-31.108q0-50.197 37.471-86.961t93.324-36.764q64.337 0 107.464 39.592t43.834 102.515q0 30.401-14.14 57.974t-33.936 48.076-56.56 52.318q-25.452 21.917-70.7 65.044l-41.713 39.592 53.732.707q110.999 0 118.069-3.535 4.949-1.414 16.968-62.923v-2.121h28.28v2.121q-.707 2.121-9.191 64.337t-10.605 65.044v2.121H2382.35v-21.917q0-4.949 4.242-10.605t21.21-24.745q20.503-22.624 35.35-39.592 6.363-7.07 24.038-26.159t24.038-26.159 20.503-23.331 19.796-24.038 16.261-21.21 14.847-22.624 10.605-20.503 9.191-22.624 4.949-21.21 2.121-23.331q0-44.541-24.038-77.063t-68.579-32.522q-23.331 0-41.006 12.019t-24.745 23.331-7.07 13.433q0 .707 3.535.707 12.726 0 26.159 9.898t13.433 32.522q0 17.675-11.312 29.694t-31.815 12.726" data-c="32"/><path d="M2816.448-4569.999q0 16.968-11.312 28.28t-27.573 11.312h-4.949q32.522 55.853 86.254 55.853 49.49 0 72.114-42.42 13.433-23.331 13.433-90.496 0-72.821-19.089-98.273-18.382-23.331-41.006-23.331h-4.242q-55.146 0-83.426 48.076-2.828 4.949-4.949 5.656t-10.605 1.414q-12.019 0-13.433-4.242-1.414-2.828-1.414-123.725v-91.203q0-35.35 3.535-35.35 1.414-1.414 2.828-1.414.707 0 14.847 5.656t38.885 11.312 53.025 5.656q50.197 0 96.152-19.796 5.656-2.828 9.191-2.828 5.656 0 5.656 12.726v9.191q-57.974 68.579-144.935 68.579-21.917 0-39.592-4.242l-7.07-1.414v121.604q13.433-9.898 21.21-15.554t25.452-11.312 36.057-5.656q57.267 0 96.859 45.955t39.592 108.878q0 65.044-45.248 110.999t-110.292 46.662q-57.267 0-91.91-38.178t-34.643-86.254q0-16.968 7.777-26.866t16.261-12.726 16.261-2.828q17.675 0 28.987 12.019t11.312 28.28" data-c="35"/></g></g></g><g data-mml-node="mfrac"><path stroke="none" d="m7293.6-4563-13 5q-14 5-40 10t-58 7h-19v-46h19q47-2 87-15t56-24 28-22q2-3 12-3 9 0 17 6v299l1 300q7 7 12 9t24 4 62 2h26v46h-11q-21-3-159-3-136 0-157 3h-12v-46h64q16 0 25-1t16-3 8-2 6-5 6-4z" data-c="31" data-mml-node="mn"/><g data-mml-node="mrow"><path stroke="none" d="M3903.2-2849q0-69 10-131t23-107 37-88 38-67 42-52 33-34 25-21h17q14 0 14 9 0 3-17 21t-41 53-49 86-42 138-17 193 17 192 41 139 49 86 42 53 17 21q0 9-15 9h-16l-28-24q-94-85-137-212t-43-264" data-c="28" data-mml-node="mo"/><path stroke="none" d="M4660.2-2599q-18-3-129-3-116 0-134 3h-9v-46h58q7 0 17-2t14-5 7-8q1-2 1-54v-50h-259v-46l151-231q153-232 155-233 2-2 21-2h18l6 6v460h92v46h-92v99q0 7 6 12 8 7 57 8h29v46zm-169-211v-334l-219 333 109 1z" data-c="34" data-mml-node="mn"/><path stroke="none" d="M4819.2-3246q0-10 4-23t12-13q1 0 72-5t73-6q12 0 12 8 0 7-50 209-50 198-50 205 19-10 29-19 24-18 69-63t70-61q40-27 76-27 30 0 47 19t18 54q0 25-7 42t-19 25-21 11-18 3q-20 0-32-11t-12-29q0-25 16-41t32-21l16-3q-12-12-24-12h-4q-32 3-63 25t-73 64-66 61q2 1 15 3t24 6 26 8 27 14 22 18 17 26 6 33q0 17-5 41t-6 40q0 40 27 40 48 0 78-119 2-8 20-8h4q16 0 16 9 0 5-3 14-41 141-118 141-45 0-73-26t-28-75q0-18 3-31t3-24q0-22-14-38t-35-23-34-11-18-3h-2q-12 42-21 81t-14 58-9 37-7 24-7 13-11 9q-13 9-28 9-17 0-26-10t-9-17q0-10 37-160t73-295l37-145q1-13-7-16t-39-5h-18q-3 0-7-3t-3-7" data-c="1D458" data-mml-node="mi"/><path stroke="none" d="M5525.4-2836v-13l14-20h581q15 8 15 20t-15 20h-581q-14-7-14-20Z" data-c="2212" data-mml-node="mo"/><path stroke="none" d="m6654.6-3177-13 5q-14 5-40 10t-58 7h-19v-46h19q47-2 87-15t56-24 28-22q2-3 12-3 9 0 17 6v299l1 300q7 7 12 9t24 4 62 2h26v46h-11q-21-3-159-3-136 0-157 3h-12v-46h64q16 0 25-1t16-3 8-2 6-5 6-4z" data-c="31" data-mml-node="mn"/><path stroke="none" d="m7001.6-3348 4-1h22l28 24q94 85 137 212t43 264q0 68-10 131t-23 107-37 88-38 67-41 51-32 33-23 19l-4 4h-23q-3 0-5-3t-3-9q1-1 11-13 155-161 155-475t-155-475q-10-12-11-13 0-8 5-11" data-c="29" data-mml-node="mo"/><path stroke="none" d="M7424.6-2849q0-69 10-131t23-107 37-88 38-67 42-52 33-34 25-21h17q14 0 14 9 0 3-17 21t-41 53-49 86-42 138-17 193 17 192 41 139 49 86 42 53 17 21q0 9-15 9h-16l-28-24q-94-85-137-212t-43-264" data-c="28" data-mml-node="mo"/><path stroke="none" d="M8181.6-2599q-18-3-129-3-116 0-134 3h-9v-46h58q7 0 17-2t14-5 7-8q1-2 1-54v-50h-259v-46l151-231q153-232 155-233 2-2 21-2h18l6 6v460h92v46h-92v99q0 7 6 12 8 7 57 8h29v46zm-169-211v-334l-219 333 109 1z" data-c="34" data-mml-node="mn"/><path stroke="none" d="M8340.6-3246q0-10 4-23t12-13q1 0 72-5t73-6q12 0 12 8 0 7-50 209-50 198-50 205 19-10 29-19 24-18 69-63t70-61q40-27 76-27 30 0 47 19t18 54q0 25-7 42t-19 25-21 11-18 3q-20 0-32-11t-12-29q0-25 16-41t32-21l16-3q-12-12-24-12h-4q-32 3-63 25t-73 64-66 61q2 1 15 3t24 6 26 8 27 14 22 18 17 26 6 33q0 17-5 41t-6 40q0 40 27 40 48 0 78-119 2-8 20-8h4q16 0 16 9 0 5-3 14-41 141-118 141-45 0-73-26t-28-75q0-18 3-31t3-24q0-22-14-38t-35-23-34-11-18-3h-2q-12 42-21 81t-14 58-9 37-7 24-7 13-11 9q-13 9-28 9-17 0-26-10t-9-17q0-10 37-160t73-295l37-145q1-13-7-16t-39-5h-18q-3 0-7-3t-3-7" data-c="1D458" data-mml-node="mi"/><path stroke="none" d="M9018.9-2836v-13l14-20h299v-150l1-150q10-13 19-13 13 0 20 15v298h298q15 8 15 20t-15 20h-298v298q-8 14-18 14h-4q-12 0-18-14v-298h-299q-14-7-14-20Z" data-c="2B" data-mml-node="mo"/><path stroke="none" d="M10090.1-3062q-27 0-42-17t-16-44q0-55 48-98t116-43q35 0 44 1 74 12 113 53t40 89q0 52-34 101t-94 71l-3 2q0 1 9 3t29 9 38 21q82 53 82 140 0 79-62 138t-157 59q-80 0-138-43t-58-109q0-28 18-45t45-18q28 0 46 18t18 45q0 11-3 20t-7 16-11 12-12 8-10 4-8 3l-4 1q51 45 124 45 55 0 83-53 17-33 17-101v-20q0-95-64-127-15-6-61-7l-42-1-3-2q-2-3-2-16 0-18 8-18 28 0 58-5 34-5 62-42t28-112v-8q0-57-35-79-22-14-47-14-32 0-59 11t-38 23-11 12h3q3 1 8 2t10 5 12 7 10 11 8 15 3 20q0 22-14 39t-45 18" data-c="33" data-mml-node="mn"/><path stroke="none" d="m10523.1-3348 4-1h22l28 24q94 85 137 212t43 264q0 68-10 131t-23 107-37 88-38 67-41 51-32 33-23 19l-4 4h-23q-3 0-5-3t-3-9q1-1 11-13 155-161 155-475t-155-475q-10-12-11-13 0-8 5-11" data-c="29" data-mml-node="mo"/></g><path stroke="none" d="M3709.2-3529h7242.9v-60H3709.2z"/></g></g></g><g data-mml-node="mtr"><g data-mml-node="mtd"><path stroke="none" d="M978.8-369.4q0-13 14-20h637q15 8 15 20 0 11-14 19l-318 1h-318q-16-5-16-20m0 194q0-15 16-20h636q14 10 14 20 0 13-15 20h-637q-14-7-14-20" data-c="3D" data-mml-node="mo"/><g data-mml-node="munderover"><path stroke="none" d="M2038.6-970.4q3-2 605-2h602l58 135q59 138 63 146h-40l-7-14q-21-41-56-78-50-48-111-77t-141-43-151-17-183-4h-448l8 11q463 633 465 639 1 2 0 6-3 3-264 302l-264 300q0 1 211 1h141q89 0 128 1 136 0 220-5t167-21 141-49 103-87q21-26 41-72h40q0 1-7 21t-25 65-31 84l-58 155-601 1q-602 0-605-2-6-2-6-9 0-2 2-6l533-610q0-1-33-45t-105-144-130-178l-266-365-1-15q0-21 5-24" data-c="2211" data-mml-node="mo"/><g data-mjx-texclass="ORD" data-mml-node="TeXAtom"><path stroke="none" d="M2150.147 627.871q0-7.07 2.828-16.261t8.484-9.191q.707 0 50.904-3.535t51.611-4.242q8.484 0 8.484 5.656 0 4.949-35.35 147.763-35.35 139.986-35.35 144.935 13.433-7.07 20.503-13.433 16.968-12.726 48.783-44.541t49.49-43.127q28.28-19.089 53.732-19.089 21.21 0 33.229 13.433t12.726 38.178q0 17.675-4.949 29.694t-13.433 17.675-14.847 7.777-12.726 2.121q-14.14 0-22.624-7.777t-8.484-20.503q0-17.675 11.312-28.987t22.624-14.847l11.312-2.121q-8.484-8.484-16.968-8.484h-2.828q-22.624 2.121-44.541 17.675t-51.611 45.248-46.662 43.127q1.414.707 10.605 2.121t16.968 4.242 18.382 5.656 19.089 9.898 15.554 12.726 12.019 18.382 4.242 23.331q0 12.019-3.535 28.987t-4.242 28.28q0 28.28 19.089 28.28 33.936 0 55.146-84.133 1.414-5.656 14.14-5.656h2.828q11.312 0 11.312 6.363 0 3.535-2.121 9.898-28.987 99.687-83.426 99.687-31.815 0-51.611-18.382t-19.796-53.025q0-12.726 2.121-21.917t2.121-16.968q0-15.554-9.898-26.866t-24.745-16.261-24.038-7.777-12.726-2.121h-1.414q-8.484 29.694-14.847 57.267t-9.898 41.006-6.363 26.159-4.949 16.968-4.949 9.191-7.777 6.363q-9.191 6.363-19.796 6.363-12.019 0-18.382-7.07t-6.363-12.019q0-7.07 26.159-113.12t51.611-208.565l26.159-102.515q.707-9.191-4.949-11.312t-27.573-3.535h-12.726q-2.121 0-4.949-2.121t-2.121-4.949" data-c="1D458" data-mml-node="mi"/><path stroke="none" d="M2472.539 839.971q0-9.191 9.898-14.14h450.359q10.605 5.656 10.605 14.14 0 7.777-9.898 13.433l-224.826.707h-224.826q-11.312-3.535-11.312-14.14m0 137.158q0-10.605 11.312-14.14h449.652q9.898 7.07 9.898 14.14 0 9.191-10.605 14.14h-450.359q-9.898-4.949-9.898-14.14" data-c="3D" data-mml-node="mo"/><path stroke="none" d="m3133.584 676.654-9.191 3.535q-9.898 3.535-28.28 7.07t-41.006 4.949h-13.433v-32.522h13.433q33.229-1.414 61.509-10.605t39.592-16.968 19.796-15.554q1.414-2.121 8.484-2.121 6.363 0 12.019 4.242v211.393l.707 212.1q4.949 4.949 8.484 6.363t16.968 2.828 43.834 1.414h18.382v32.522h-7.777q-14.847-2.121-112.413-2.121-96.152 0-110.999 2.121h-8.484v-32.522h45.248q11.312 0 17.675-.707t11.312-2.121 5.656-1.414 4.242-3.535 4.242-2.828z" data-c="31" data-mml-node="mn"/></g><g data-mjx-texclass="ORD" data-mml-node="TeXAtom"><g stroke="none" data-mml-node="mn"><path d="M2424.063-1475.703q-19.089 0-30.401-12.726t-11.312-31.108q0-50.197 37.471-86.961t93.324-36.764q64.337 0 107.464 39.592t43.834 102.515q0 30.401-14.14 57.974t-33.936 48.076-56.56 52.318q-25.452 21.917-70.7 65.044l-41.713 39.592 53.732.707q110.999 0 118.069-3.535 4.949-1.414 16.968-62.923v-2.121h28.28v2.121q-.707 2.121-9.191 64.337t-10.605 65.044v2.121H2382.35v-21.917q0-4.949 4.242-10.605t21.21-24.745q20.503-22.624 35.35-39.592 6.363-7.07 24.038-26.159t24.038-26.159 20.503-23.331 19.796-24.038 16.261-21.21 14.847-22.624 10.605-20.503 9.191-22.624 4.949-21.21 2.121-23.331q0-44.541-24.038-77.063t-68.579-32.522q-23.331 0-41.006 12.019t-24.745 23.331-7.07 13.433q0 .707 3.535.707 12.726 0 26.159 9.898t13.433 32.522q0 17.675-11.312 29.694t-31.815 12.726" data-c="32"/><path d="M2816.448-1283.399q0 16.968-11.312 28.28t-27.573 11.312h-4.949q32.522 55.853 86.254 55.853 49.49 0 72.114-42.42 13.433-23.331 13.433-90.496 0-72.821-19.089-98.273-18.382-23.331-41.006-23.331h-4.242q-55.146 0-83.426 48.076-2.828 4.949-4.949 5.656t-10.605 1.414q-12.019 0-13.433-4.242-1.414-2.828-1.414-123.725v-91.203q0-35.35 3.535-35.35 1.414-1.414 2.828-1.414.707 0 14.847 5.656t38.885 11.312 53.025 5.656q50.197 0 96.152-19.796 5.656-2.828 9.191-2.828 5.656 0 5.656 12.726v9.191q-57.974 68.579-144.935 68.579-21.917 0-39.592-4.242l-7.07-1.414v121.604q13.433-9.898 21.21-15.554t25.452-11.312 36.057-5.656q57.267 0 96.859 45.955t39.592 108.878q0 65.044-45.248 110.999t-110.292 46.662q-57.267 0-91.91-38.178t-34.643-86.254q0-16.968 7.777-26.866t16.261-12.726 16.261-2.828q17.675 0 28.987 12.019t11.312 28.28" data-c="35"/></g></g></g><g data-mml-node="mfrac"><path stroke="none" d="m4022.2-1276.4-13 5q-14 5-40 10t-58 7h-19v-46h19q47-2 87-15t56-24 28-22q2-3 12-3 9 0 17 6v299l1 300q7 7 12 9t24 4 62 2h26v46h-11q-21-3-159-3-136 0-157 3h-12v-46h64q16 0 25-1t16-3 8-2 6-5 6-4z" data-c="31" data-mml-node="mn"/><path stroke="none" d="M4271.2 663.6q-18-3-129-3-116 0-134 3h-9v-46h58q7 0 17-2t14-5 7-8q1-2 1-54v-50h-259v-46l151-231q153-232 155-233 2-2 21-2h18l6 6v460h92v46h-92v99q0 7 6 12 8 7 57 8h29v46zm-169-211v-334l-219 333 109 1z" data-c="34" data-mml-node="mn"/><path stroke="none" d="M3709.2-242.4h700v-60h-700z"/></g><g data-mml-node="mrow"><path stroke="none" d="M5230.2 918.1q0 3-6 9h-31q-2-2-28-27t-45-43-54-61-62-81-63-101-62-125-55-149-45-176-29-203-12-234q0-711 364-1110 23-25 43-44t33-32 15-13h31q6 6 6 9 0 5-20 26t-52 59-72 95-81 143-76 191-60 252-32 316q-2 38-2 109 0 389 94 680t290 494q11 12 11 16" data-c="28" data-mml-node="mo"/><g data-mml-node="mfrac"><path stroke="none" d="m6819.9-1276.4-13 5q-14 5-40 10t-58 7h-19v-46h19q47-2 87-15t56-24 28-22q2-3 12-3 9 0 17 6v299l1 300q7 7 12 9t24 4 62 2h26v46h-11q-21-3-159-3-136 0-157 3h-12v-46h64q16 0 25-1t16-3 8-2 6-5 6-4z" data-c="31" data-mml-node="mn"/><g data-mml-node="mrow"><path stroke="none" d="M5947.2 663.6q-18-3-129-3-116 0-134 3h-9v-46h58q7 0 17-2t14-5 7-8q1-2 1-54v-50h-259v-46l151-231q153-232 155-233 2-2 21-2h18l6 6v460h92v46h-92v99q0 7 6 12 8 7 57 8h29v46zm-169-211v-334l-219 333 109 1z" data-c="34" data-mml-node="mn"/><path stroke="none" d="M6106.2 16.6q0-10 4-23t12-13q1 0 72-5t73-6q12 0 12 8 0 7-50 209-50 198-50 205 19-10 29-19 24-18 69-63t70-61q40-27 76-27 30 0 47 19t18 54q0 25-7 42t-19 25-21 11-18 3q-20 0-32-11t-12-29q0-25 16-41t32-21l16-3q-12-12-24-12h-4q-32 3-63 25t-73 64-66 61q2 1 15 3t24 6 26 8 27 14 22 18 17 26 6 33q0 17-5 41t-6 40q0 40 27 40 48 0 78-119 2-8 20-8h4q16 0 16 9 0 5-3 14-41 141-118 141-45 0-73-26t-28-75q0-18 3-31t3-24q0-22-14-38t-35-23-34-11-18-3h-2q-12 42-21 81t-14 58-9 37-7 24-7 13-11 9q-13 9-28 9-17 0-26-10t-9-17q0-10 37-160t73-295l37-145q1-13-7-16t-39-5h-18q-3 0-7-3t-3-7" data-c="1D458" data-mml-node="mi"/><path stroke="none" d="M6812.4 426.6v-13l14-20h581q15 8 15 20t-15 20h-581q-14-7-14-20Z" data-c="2212" data-mml-node="mo"/><path stroke="none" d="m7941.6 85.6-13 5q-14 5-40 10t-58 7h-19v-46h19q47-2 87-15t56-24 28-22q2-3 12-3 9 0 17 6v299l1 300q7 7 12 9t24 4 62 2h26v46h-11q-21-3-159-3-136 0-157 3h-12v-46h64q16 0 25-1t16-3 8-2 6-5 6-4z" data-c="31" data-mml-node="mn"/></g><path stroke="none" d="M5385.2-242.4h2943.4v-60H5385.2z"/></g><path stroke="none" d="M8754.9-259.4v-13l14-20h581q15 8 15 20t-15 20h-581q-14-7-14-20Z" data-c="2212" data-mml-node="mo"/><g data-mml-node="mfrac"><path stroke="none" d="m11225.8-1276.4-13 5q-14 5-40 10t-58 7h-19v-46h19q47-2 87-15t56-24 28-22q2-3 12-3 9 0 17 6v299l1 300q7 7 12 9t24 4 62 2h26v46h-11q-21-3-159-3-136 0-157 3h-12v-46h64q16 0 25-1t16-3 8-2 6-5 6-4z" data-c="31" data-mml-node="mn"/><g data-mml-node="mrow"><path stroke="none" d="M10353.1 663.6q-18-3-129-3-116 0-134 3h-9v-46h58q7 0 17-2t14-5 7-8q1-2 1-54v-50h-259v-46l151-231q153-232 155-233 2-2 21-2h18l6 6v460h92v46h-92v99q0 7 6 12 8 7 57 8h29v46zm-169-211v-334l-219 333 109 1z" data-c="34" data-mml-node="mn"/><path stroke="none" d="M10512.1 16.6q0-10 4-23t12-13q1 0 72-5t73-6q12 0 12 8 0 7-50 209-50 198-50 205 19-10 29-19 24-18 69-63t70-61q40-27 76-27 30 0 47 19t18 54q0 25-7 42t-19 25-21 11-18 3q-20 0-32-11t-12-29q0-25 16-41t32-21l16-3q-12-12-24-12h-4q-32 3-63 25t-73 64-66 61q2 1 15 3t24 6 26 8 27 14 22 18 17 26 6 33q0 17-5 41t-6 40q0 40 27 40 48 0 78-119 2-8 20-8h4q16 0 16 9 0 5-3 14-41 141-118 141-45 0-73-26t-28-75q0-18 3-31t3-24q0-22-14-38t-35-23-34-11-18-3h-2q-12 42-21 81t-14 58-9 37-7 24-7 13-11 9q-13 9-28 9-17 0-26-10t-9-17q0-10 37-160t73-295l37-145q1-13-7-16t-39-5h-18q-3 0-7-3t-3-7" data-c="1D458" data-mml-node="mi"/><path stroke="none" d="M11190.3 426.6v-13l14-20h299v-150l1-150q10-13 19-13 13 0 20 15v298h298q15 8 15 20t-15 20h-298v298q-8 14-18 14h-4q-12 0-18-14v-298h-299q-14-7-14-20Z" data-c="2B" data-mml-node="mo"/><path stroke="none" d="M12261.5 200.6q-27 0-42-17t-16-44q0-55 48-98t116-43q35 0 44 1 74 12 113 53t40 89q0 52-34 101t-94 71l-3 2q0 1 9 3t29 9 38 21q82 53 82 140 0 79-62 138t-157 59q-80 0-138-43t-58-109q0-28 18-45t45-18q28 0 46 18t18 45q0 11-3 20t-7 16-11 12-12 8-10 4-8 3l-4 1q51 45 124 45 55 0 83-53 17-33 17-101v-20q0-95-64-127-15-6-61-7l-42-1-3-2q-2-3-2-16 0-18 8-18 28 0 58-5 34-5 62-42t28-112v-8q0-57-35-79-22-14-47-14-32 0-59 11t-38 23-11 12h3q3 1 8 2t10 5 12 7 10 11 8 15 3 20q0 22-14 39t-45 18" data-c="33" data-mml-node="mn"/></g><path stroke="none" d="M9791.1-242.4h2943.4v-60H9791.1z"/></g><path stroke="none" d="M12888.5-1459.9q0-8 3-10t13-2h21q2 2 28 27t45 43 54 61 62 81 63 101 62 124 55 149 45 176 29 203 12 234q0 117-7 198-47 572-357 913-23 25-43 44t-33 32-15 13h-15q-13 0-17-2t-5-10q54-54 106-124 288-383 288-1064 0-202-26-377t-64-294-93-224-100-163-99-116l-4-4q-2-2-3-4t-3-3z" data-c="29" data-mml-node="mo"/></g></g></g><g data-mml-node="mtr"><g data-mml-node="mtd"><path stroke="none" d="M978.8 2917.3q0-13 14-20h637q15 8 15 20 0 11-14 19l-318 1h-318q-16-5-16-20m0 194q0-15 16-20h636q14 10 14 20 0 13-15 20h-637q-14-7-14-20" data-c="3D" data-mml-node="mo"/><g data-mml-node="mfrac"><path stroke="none" d="m2411.6 2010.3-13 5q-14 5-40 10t-58 7h-19v-46h19q47-2 87-15t56-24 28-22q2-3 12-3 9 0 17 6v299l1 300q7 7 12 9t24 4 62 2h26v46h-11q-21-3-159-3-136 0-157 3h-12v-46h64q16 0 25-1t16-3 8-2 6-5 6-4z" data-c="31" data-mml-node="mn"/><path stroke="none" d="M2660.6 3950.3q-18-3-129-3-116 0-134 3h-9v-46h58q7 0 17-2t14-5 7-8q1-2 1-54v-50h-259v-46l151-231q153-232 155-233 2-2 21-2h18l6 6v460h92v46h-92v99q0 7 6 12 8 7 57 8h29v46zm-169-211v-334l-219 333 109 1z" data-c="34" data-mml-node="mn"/><path stroke="none" d="M2098.6 3044.3h700v-60h-700z"/></g><g data-mml-node="munderover"><path stroke="none" d="M3145.2 2316.3q3-2 605-2h602l58 135q59 138 63 146h-40l-7-14q-21-41-56-78-50-48-111-77t-141-43-151-17-183-4h-448l8 11q463 633 465 639 1 2 0 6-3 3-264 302l-264 300q0 1 211 1h141q89 0 128 1 136 0 220-5t167-21 141-49 103-87q21-26 41-72h40q0 1-7 21t-25 65-31 84l-58 155-601 1q-602 0-605-2-6-2-6-9 0-2 2-6l533-610q0-1-33-45t-105-144-130-178l-266-365-1-15q0-21 5-24" data-c="2211" data-mml-node="mo"/><g data-mjx-texclass="ORD" data-mml-node="TeXAtom"><path stroke="none" d="M3256.747 3914.571q0-7.07 2.828-16.261t8.484-9.191q.707 0 50.904-3.535t51.611-4.242q8.484 0 8.484 5.656 0 4.949-35.35 147.763-35.35 139.986-35.35 144.935 13.433-7.07 20.503-13.433 16.968-12.726 48.783-44.541t49.49-43.127q28.28-19.089 53.732-19.089 21.21 0 33.229 13.433t12.726 38.178q0 17.675-4.949 29.694t-13.433 17.675-14.847 7.777-12.726 2.121q-14.14 0-22.624-7.777t-8.484-20.503q0-17.675 11.312-28.987t22.624-14.847l11.312-2.121q-8.484-8.484-16.968-8.484h-2.828q-22.624 2.121-44.541 17.675t-51.611 45.248-46.662 43.127q1.414.707 10.605 2.121t16.968 4.242 18.382 5.656 19.089 9.898 15.554 12.726 12.019 18.382 4.242 23.331q0 12.019-3.535 28.987t-4.242 28.28q0 28.28 19.089 28.28 33.936 0 55.146-84.133 1.414-5.656 14.14-5.656h2.828q11.312 0 11.312 6.363 0 3.535-2.121 9.898-28.987 99.687-83.426 99.687-31.815 0-51.611-18.382t-19.796-53.025q0-12.726 2.121-21.917t2.121-16.968q0-15.554-9.898-26.866t-24.745-16.261-24.038-7.777-12.726-2.121h-1.414q-8.484 29.694-14.847 57.267t-9.898 41.006-6.363 26.159-4.949 16.968-4.949 9.191-7.777 6.363q-9.191 6.363-19.796 6.363-12.019 0-18.382-7.07t-6.363-12.019q0-7.07 26.159-113.12t51.611-208.565l26.159-102.515q.707-9.191-4.949-11.312t-27.573-3.535h-12.726q-2.121 0-4.949-2.121t-2.121-4.949" data-c="1D458" data-mml-node="mi"/><path stroke="none" d="M3579.139 4126.671q0-9.191 9.898-14.14h450.359q10.605 5.656 10.605 14.14 0 7.777-9.898 13.433l-224.826.707h-224.826q-11.312-3.535-11.312-14.14m0 137.158q0-10.605 11.312-14.14h449.652q9.898 7.07 9.898 14.14 0 9.191-10.605 14.14h-450.359q-9.898-4.949-9.898-14.14" data-c="3D" data-mml-node="mo"/><path stroke="none" d="m4240.184 3963.354-9.191 3.535q-9.898 3.535-28.28 7.07t-41.006 4.949h-13.433v-32.522h13.433q33.229-1.414 61.509-10.605t39.592-16.968 19.796-15.554q1.414-2.121 8.484-2.121 6.363 0 12.019 4.242v211.393l.707 212.1q4.949 4.949 8.484 6.363t16.968 2.828 43.834 1.414h18.382V4372h-7.777q-14.847-2.121-112.413-2.121-96.152 0-110.999 2.121h-8.484v-32.522h45.248q11.312 0 17.675-.707t11.312-2.121 5.656-1.414 4.242-3.535 4.242-2.828z" data-c="31" data-mml-node="mn"/></g><g data-mjx-texclass="ORD" data-mml-node="TeXAtom"><g stroke="none" data-mml-node="mn"><path d="M3530.663 1810.997q-19.089 0-30.401-12.726t-11.312-31.108q0-50.197 37.471-86.961t93.324-36.764q64.337 0 107.464 39.592t43.834 102.515q0 30.401-14.14 57.974t-33.936 48.076-56.56 52.318q-25.452 21.917-70.7 65.044l-41.713 39.592 53.732.707q110.999 0 118.069-3.535 4.949-1.414 16.968-62.923v-2.121h28.28v2.121q-.707 2.121-9.191 64.337t-10.605 65.044v2.121H3488.95v-21.917q0-4.949 4.242-10.605t21.21-24.745q20.503-22.624 35.35-39.592 6.363-7.07 24.038-26.159t24.038-26.159 20.503-23.331 19.796-24.038 16.261-21.21 14.847-22.624 10.605-20.503 9.191-22.624 4.949-21.21 2.121-23.331q0-44.541-24.038-77.063t-68.579-32.522q-23.331 0-41.006 12.019t-24.745 23.331-7.07 13.433q0 .707 3.535.707 12.726 0 26.159 9.898t13.433 32.522q0 17.675-11.312 29.694t-31.815 12.726" data-c="32"/><path d="M3923.048 2003.301q0 16.968-11.312 28.28t-27.573 11.312h-4.949q32.522 55.853 86.254 55.853 49.49 0 72.114-42.42 13.433-23.331 13.433-90.496 0-72.821-19.089-98.273-18.382-23.331-41.006-23.331h-4.242q-55.146 0-83.426 48.076-2.828 4.949-4.949 5.656t-10.605 1.414q-12.019 0-13.433-4.242-1.414-2.828-1.414-123.725v-91.203q0-35.35 3.535-35.35 1.414-1.414 2.828-1.414.707 0 14.847 5.656t38.885 11.312 53.025 5.656q50.197 0 96.152-19.796 5.656-2.828 9.191-2.828 5.656 0 5.656 12.726v9.191q-57.974 68.579-144.935 68.579-21.917 0-39.592-4.242l-7.07-1.414v121.604q13.433-9.898 21.21-15.554t25.452-11.312 36.057-5.656q57.267 0 96.859 45.955t39.592 108.878q0 65.044-45.248 110.999t-110.292 46.662q-57.267 0-91.91-38.178t-34.643-86.254q0-16.968 7.777-26.866t16.261-12.726 16.261-2.828q17.675 0 28.987 12.019t11.312 28.28" data-c="35"/></g></g></g><g data-mml-node="mrow"><path stroke="none" d="M5396.9 4204.8q0 3-6 9h-31q-2-2-28-27t-45-43-54-61-62-81-63-101-62-125-55-149-45-176-29-203-12-234q0-711 364-1110 23-25 43-44t33-32 15-13h31q6 6 6 9 0 5-20 26t-52 59-72 95-81 143-76 191-60 252-32 316q-2 38-2 109 0 389 94 680t290 494q11 12 11 16" data-c="28" data-mml-node="mo"/><g data-mml-node="mfrac"><path stroke="none" d="m6986.6 2010.3-13 5q-14 5-40 10t-58 7h-19v-46h19q47-2 87-15t56-24 28-22q2-3 12-3 9 0 17 6v299l1 300q7 7 12 9t24 4 62 2h26v46h-11q-21-3-159-3-136 0-157 3h-12v-46h64q16 0 25-1t16-3 8-2 6-5 6-4z" data-c="31" data-mml-node="mn"/><g data-mml-node="mrow"><path stroke="none" d="M6113.9 3950.3q-18-3-129-3-116 0-134 3h-9v-46h58q7 0 17-2t14-5 7-8q1-2 1-54v-50h-259v-46l151-231q153-232 155-233 2-2 21-2h18l6 6v460h92v46h-92v99q0 7 6 12 8 7 57 8h29v46zm-169-211v-334l-219 333 109 1z" data-c="34" data-mml-node="mn"/><path stroke="none" d="M6272.9 3303.3q0-10 4-23t12-13q1 0 72-5t73-6q12 0 12 8 0 7-50 209-50 198-50 205 19-10 29-19 24-18 69-63t70-61q40-27 76-27 30 0 47 19t18 54q0 25-7 42t-19 25-21 11-18 3q-20 0-32-11t-12-29q0-25 16-41t32-21l16-3q-12-12-24-12h-4q-32 3-63 25t-73 64-66 61q2 1 15 3t24 6 26 8 27 14 22 18 17 26 6 33q0 17-5 41t-6 40q0 40 27 40 48 0 78-119 2-8 20-8h4q16 0 16 9 0 5-3 14-41 141-118 141-45 0-73-26t-28-75q0-18 3-31t3-24q0-22-14-38t-35-23-34-11-18-3h-2q-12 42-21 81t-14 58-9 37-7 24-7 13-11 9q-13 9-28 9-17 0-26-10t-9-17q0-10 37-160t73-295l37-145q1-13-7-16t-39-5h-18q-3 0-7-3t-3-7" data-c="1D458" data-mml-node="mi"/><path stroke="none" d="M6979.1 3713.3v-13l14-20h581q15 8 15 20t-15 20h-581q-14-7-14-20Z" data-c="2212" data-mml-node="mo"/><path stroke="none" d="m8108.3 3372.3-13 5q-14 5-40 10t-58 7h-19v-46h19q47-2 87-15t56-24 28-22q2-3 12-3 9 0 17 6v299l1 300q7 7 12 9t24 4 62 2h26v46h-11q-21-3-159-3-136 0-157 3h-12v-46h64q16 0 25-1t16-3 8-2 6-5 6-4z" data-c="31" data-mml-node="mn"/></g><path stroke="none" d="M5551.9 3044.3h2943.4v-60H5551.9z"/></g><path stroke="none" d="M8921.6 3027.3v-13l14-20h581q15 8 15 20t-15 20h-581q-14-7-14-20Z" data-c="2212" data-mml-node="mo"/><g data-mml-node="mfrac"><path stroke="none" d="m11392.5 2010.3-13 5q-14 5-40 10t-58 7h-19v-46h19q47-2 87-15t56-24 28-22q2-3 12-3 9 0 17 6v299l1 300q7 7 12 9t24 4 62 2h26v46h-11q-21-3-159-3-136 0-157 3h-12v-46h64q16 0 25-1t16-3 8-2 6-5 6-4z" data-c="31" data-mml-node="mn"/><g data-mml-node="mrow"><path stroke="none" d="M10519.8 3950.3q-18-3-129-3-116 0-134 3h-9v-46h58q7 0 17-2t14-5 7-8q1-2 1-54v-50h-259v-46l151-231q153-232 155-233 2-2 21-2h18l6 6v460h92v46h-92v99q0 7 6 12 8 7 57 8h29v46zm-169-211v-334l-219 333 109 1z" data-c="34" data-mml-node="mn"/><path stroke="none" d="M10678.8 3303.3q0-10 4-23t12-13q1 0 72-5t73-6q12 0 12 8 0 7-50 209-50 198-50 205 19-10 29-19 24-18 69-63t70-61q40-27 76-27 30 0 47 19t18 54q0 25-7 42t-19 25-21 11-18 3q-20 0-32-11t-12-29q0-25 16-41t32-21l16-3q-12-12-24-12h-4q-32 3-63 25t-73 64-66 61q2 1 15 3t24 6 26 8 27 14 22 18 17 26 6 33q0 17-5 41t-6 40q0 40 27 40 48 0 78-119 2-8 20-8h4q16 0 16 9 0 5-3 14-41 141-118 141-45 0-73-26t-28-75q0-18 3-31t3-24q0-22-14-38t-35-23-34-11-18-3h-2q-12 42-21 81t-14 58-9 37-7 24-7 13-11 9q-13 9-28 9-17 0-26-10t-9-17q0-10 37-160t73-295l37-145q1-13-7-16t-39-5h-18q-3 0-7-3t-3-7" data-c="1D458" data-mml-node="mi"/><path stroke="none" d="M11357 3713.3v-13l14-20h299v-150l1-150q10-13 19-13 13 0 20 15v298h298q15 8 15 20t-15 20h-298v298q-8 14-18 14h-4q-12 0-18-14v-298h-299q-14-7-14-20Z" data-c="2B" data-mml-node="mo"/><path stroke="none" d="M12428.2 3487.3q-27 0-42-17t-16-44q0-55 48-98t116-43q35 0 44 1 74 12 113 53t40 89q0 52-34 101t-94 71l-3 2q0 1 9 3t29 9 38 21q82 53 82 140 0 79-62 138t-157 59q-80 0-138-43t-58-109q0-28 18-45t45-18q28 0 46 18t18 45q0 11-3 20t-7 16-11 12-12 8-10 4-8 3l-4 1q51 45 124 45 55 0 83-53 17-33 17-101v-20q0-95-64-127-15-6-61-7l-42-1-3-2q-2-3-2-16 0-18 8-18 28 0 58-5 34-5 62-42t28-112v-8q0-57-35-79-22-14-47-14-32 0-59 11t-38 23-11 12h3q3 1 8 2t10 5 12 7 10 11 8 15 3 20q0 22-14 39t-45 18" data-c="33" data-mml-node="mn"/></g><path stroke="none" d="M9957.8 3044.3h2943.4v-60H9957.8z"/></g><path stroke="none" d="M13055.2 1826.8q0-8 3-10t13-2h21q2 2 28 27t45 43 54 61 62 81 63 101 62 124 55 149 45 176 29 203 12 234q0 117-7 198-47 572-357 913-23 25-43 44t-33 32-15 13h-15q-13 0-17-2t-5-10q54-54 106-124 288-383 288-1064 0-202-26-377t-64-294-93-224-100-163-99-116l-4-4q-2-2-3-4t-3-3z" data-c="29" data-mml-node="mo"/></g></g></g></g></g></svg>