<svg xmlns="http://www.w3.org/2000/svg" width="18.912ex" height="2.185ex" style="vertical-align:-.186ex" viewBox="0 -883.9 8359 965.9"><title>x^2 - 23x + 132 = 0</title><g fill="currentColor" stroke="currentColor" stroke-width="0" data-mml-node="math"><g data-mml-node="msup"><path stroke="none" d="M52-289q7-42 54-97t116-56q35 0 64 18t43 45q42-63 101-63 37 0 64 22t28 59q0 29-14 47t-27 22-23 4q-19 0-31-11t-12-29q0-46 50-63-11-13-40-13-13 0-19 2-38 16-56 66-60 221-60 258 0 28 16 40t35 12q37 0 73-33t49-81q3-10 6-11t16-2h4q15 0 15 8 0 1-2 11-16 57-62 101T333 11q-70 0-106-63-41 62-94 62h-6q-49 0-70-26T35-71q0-32 19-52t45-20q43 0 43 42 0 20-12 35t-23 20-13 5l-3 1q0 1 6 4t16 7 19 3q36 0 62-45 9-16 23-68t28-108 16-66q5-27 5-39 0-28-15-40t-34-12q-40 0-75 32t-49 82q-2 9-5 10t-16 2H58q-6-6-6-11" data-c="1D465" data-mml-node="mi"/><path stroke="none" d="M682.063-716.303q-19.089 0-30.401-12.726t-11.312-31.108q0-50.197 37.471-86.961t93.324-36.764q64.337 0 107.464 39.592t43.834 102.515q0 30.401-14.14 57.974t-33.936 48.076-56.56 52.318q-25.452 21.917-70.7 65.044l-41.713 39.592 53.732.707q110.999 0 118.069-3.535 4.949-1.414 16.968-62.923v-2.121h28.28v2.121q-.707 2.121-9.191 64.337t-10.605 65.044V-413H640.35v-21.917q0-4.949 4.242-10.605t21.21-24.745q20.503-22.624 35.35-39.592 6.363-7.07 24.038-26.159t24.038-26.159 20.503-23.331 19.796-24.038 16.261-21.21 14.847-22.624 10.605-20.503 9.191-22.624 4.949-21.21 2.121-23.331q0-44.541-24.038-77.063t-68.579-32.522q-23.331 0-41.006 12.019t-24.745 23.331-7.07 13.433q0 .707 3.535.707 12.726 0 26.159 9.898t13.433 32.522q0 17.675-11.312 29.694t-31.815 12.726" data-c="32" data-mml-node="mn"/></g><path stroke="none" d="M1314.8-237v-13l14-20h581q15 8 15 20t-15 20h-581q-14-7-14-20Z" data-c="2212" data-mml-node="mo"/><g stroke="none" data-mml-node="mn"><path d="M2340-429q-27 0-43-18t-16-44q0-71 53-123t132-52q91 0 152 56t62 145q0 43-20 82t-48 68-80 74q-36 31-100 92l-59 56 76 1q157 0 167-5 7-2 24-89v-3h40v3q-1 3-13 91t-15 92v3h-371v-31q0-7 6-15t30-35q29-32 50-56 9-10 34-37t34-37 29-33 28-34 23-30 21-32 15-29 13-32 7-30 3-33q0-63-34-109t-97-46q-33 0-58 17t-35 33-10 19q0 1 5 1 18 0 37 14t19 46q0 25-16 42t-45 18" data-c="32"/><path d="M2858-463q-27 0-42-17t-16-44q0-55 48-98t116-43q35 0 44 1 74 12 113 53t40 89q0 52-34 101t-94 71l-3 2q0 1 9 3t29 9 38 21q82 53 82 140 0 79-62 138t-157 59q-80 0-138-43t-58-109q0-28 18-45t45-18q28 0 46 18t18 45q0 11-3 20t-7 16-11 12-12 8-10 4-8 3l-4 1q51 45 124 45 55 0 83-53 17-33 17-101v-20q0-95-64-127-15-6-61-7l-42-1-3-2q-2-3-2-16 0-18 8-18 28 0 58-5 34-5 62-42t28-112v-8q0-57-35-79-22-14-47-14-32 0-59 11t-38 23-11 12h3q3 1 8 2t10 5 12 7 10 11 8 15 3 20q0 22-14 39t-45 18" data-c="33"/></g><path stroke="none" d="M3283-289q7-42 54-97t116-56q35 0 64 18t43 45q42-63 101-63 37 0 64 22t28 59q0 29-14 47t-27 22-23 4q-19 0-31-11t-12-29q0-46 50-63-11-13-40-13-13 0-19 2-38 16-56 66-60 221-60 258 0 28 16 40t35 12q37 0 73-33t49-81q3-10 6-11t16-2h4q15 0 15 8 0 1-2 11-16 57-62 101t-107 44q-70 0-106-63-41 62-94 62h-6q-49 0-70-26t-22-55q0-32 19-52t45-20q43 0 43 42 0 20-12 35t-23 20-13 5l-3 1q0 1 6 4t16 7 19 3q36 0 62-45 9-16 23-68t28-108 16-66q5-27 5-39 0-28-15-40t-34-12q-40 0-75 32t-49 82q-2 9-5 10t-16 2h-14q-6-6-6-11" data-c="1D465" data-mml-node="mi"/><path stroke="none" d="M4081.2-237v-13l14-20h299v-150l1-150q10-13 19-13 13 0 20 15v298h298q15 8 15 20t-15 20h-298V68q-8 14-18 14h-4q-12 0-18-14v-298h-299q-14-7-14-20Z" data-c="2B" data-mml-node="mo"/><g stroke="none" data-mml-node="mn"><path d="m5238.4-578-13 5q-14 5-40 10t-58 7h-19v-46h19q47-2 87-15t56-24 28-22q2-3 12-3 9 0 17 6v299l1 300q7 7 12 9t24 4 62 2h26V0h-11q-21-3-159-3-136 0-157 3h-12v-46h64q16 0 25-1t16-3 8-2 6-5 6-4z" data-c="31"/><path d="M5652.4-463q-27 0-42-17t-16-44q0-55 48-98t116-43q35 0 44 1 74 12 113 53t40 89q0 52-34 101t-94 71l-3 2q0 1 9 3t29 9 38 21q82 53 82 140 0 79-62 138t-157 59q-80 0-138-43t-58-109q0-28 18-45t45-18q28 0 46 18t18 45q0 11-3 20t-7 16-11 12-12 8-10 4-8 3l-4 1q51 45 124 45 55 0 83-53 17-33 17-101v-20q0-95-64-127-15-6-61-7l-42-1-3-2q-2-3-2-16 0-18 8-18 28 0 58-5 34-5 62-42t28-112v-8q0-57-35-79-22-14-47-14-32 0-59 11t-38 23-11 12h3q3 1 8 2t10 5 12 7 10 11 8 15 3 20q0 22-14 39t-45 18" data-c="33"/><path d="M6134.4-429q-27 0-43-18t-16-44q0-71 53-123t132-52q91 0 152 56t62 145q0 43-20 82t-48 68-80 74q-36 31-100 92l-59 56 76 1q157 0 167-5 7-2 24-89v-3h40v3q-1 3-13 91t-15 92v3h-371v-31q0-7 6-15t30-35q29-32 50-56 9-10 34-37t34-37 29-33 28-34 23-30 21-32 15-29 13-32 7-30 3-33q0-63-34-109t-97-46q-33 0-58 17t-35 33-10 19q0 1 5 1 18 0 37 14t19 46q0 25-16 42t-45 18" data-c="32"/></g><path stroke="none" d="M6859.2-347q0-13 14-20h637q15 8 15 20 0 11-14 19l-318 1h-318q-16-5-16-20m0 194q0-15 16-20h636q14 10 14 20 0 13-15 20h-637q-14-7-14-20" data-c="3D" data-mml-node="mo"/><path stroke="none" d="M7955-585q56-81 153-81 48 0 96 26t78 92q37 83 37 228 0 155-43 237-20 42-55 67t-61 31-51 7q-26 0-52-6t-61-32-55-67q-43-82-43-237 0-174 57-265m225-12q-30-32-71-32-42 0-72 32-25 26-33 72t-8 192q0 158 8 208t36 79q28 30 69 30 40 0 68-30 29-30 36-84t8-203q0-145-8-191t-33-73" data-c="30" data-mml-node="mn"/></g></svg>