<svg xmlns="http://www.w3.org/2000/svg" width="66.988ex" height="6.354ex" style="vertical-align:-2.819ex" viewBox="0 -1562.5 29608.7 2808.5"><title>classify(word_1, word_2 \ldots word_n) = \\[6pt]   \operatorname*{argmax}_{cat} P(cat)  \cdot \prod_{i=1}^{n} P(word_i|cat)</title><g fill="currentColor" stroke="currentColor" stroke-width="0" data-mml-node="math"><path stroke="none" d="M34-159q0-109 86-196t186-87q56 0 88 24t33 63q0 29-19 49t-48 21q-19 0-30-10t-11-30 11-34 22-21 14-6h1q0-2-6-6t-21-8-34-4q-30 0-57 14-21 9-43 31-44 44-64 124t-21 116q0 46 26 69 22 24 58 24h4q112 0 185-85 9-10 12-10 4 0 13 9t10 14-9 15-29 28-45 30-64 25-80 11q-75 0-121-48T34-159" data-c="1D450" data-mml-node="mi"/><path stroke="none" d="M550-59q0 33 25 33 37 0 63-105 6-20 10-21 2-1 10-1h16q3 0 5 2t2 7q-1 6-3 16t-11 38-20 47-31 37-46 17q-36 0-67-22t-32-74q0-12 1-17l65-258q63-255 63-263 0-3-1-5t-4-4-5-2-8-1-8-1-9-1-10 0h-13q-3 0-8-1t-6-3-1-6q0-2 2-14 5-19 11-21t72-6q15-1 34-2t30-3 11-1q12 0 12 8 0 11-73 300T551-83v8q0 6-1 10z" data-c="1D459" data-mml-node="mi"/><path stroke="none" d="M764-157q0-101 76-192t171-92q51 0 90 49 16-30 46-30 13 0 23 8t10 20q0 13-37 160t-38 166q0 25 7 33t21 9q9-1 20-9 21-20 41-96 6-20 10-21 2-1 10-1h4q19 0 19 9 0 6-5 27t-20 54-32 50q-13 13-32 21-8 2-24 2-34 0-57-15t-30-31l-6-15q-1-1-4 1l-4 4q-59 56-120 56-55 0-97-40t-42-127m318-171q0-6-5-22t-23-35-46-20q-35 0-67 31t-50 81q-29 79-41 164v11q0 8-1 12 0 45 18 62t43 18q38 0 75-33t44-51q2-4 27-107t26-111" data-c="1D44E" data-mml-node="mi"/><path stroke="none" d="M1391-289q0-32 16-65t56-61 97-27q62 0 90 27t29 60q0 32-17 47t-38 16q-13 0-24-8t-12-26q0-16 9-28t17-18 13-6q1 0 1-1 0-3-7-9t-25-11-39-6q-48 0-70 26t-23 53q0 25 19 35t55 17 52 15q66 29 66 96 0 28-11 56t-33 56-63 44-94 17q-77 0-109-29t-33-68q0-39 21-56t44-17q15 0 28 9t14 31q0 26-18 44t-31 18q-2 1-3 1t-1 2q1 3 8 8t31 13 55 7q36 0 62-11t38-28 17-31 5-25q0-28-21-42t-48-17-59-15-47-35q-17-25-17-58M1860-289q0-32 16-65t56-61 97-27q62 0 90 27t29 60q0 32-17 47t-38 16q-13 0-24-8t-12-26q0-16 9-28t17-18 13-6q1 0 1-1 0-3-7-9t-25-11-39-6q-48 0-70 26t-23 53q0 25 19 35t55 17 52 15q66 29 66 96 0 28-11 56t-33 56-63 44-94 17q-77 0-109-29t-33-68q0-39 21-56t44-17q15 0 28 9t14 31q0 26-18 44t-31 18q-2 1-3 1t-1 2q1 3 8 8t31 13 55 7q36 0 62-11t38-28 17-31 5-25q0-28-21-42t-48-17-59-15-47-35q-17-25-17-58" data-c="1D460" data-mml-node="mi"/><path stroke="none" d="M2382-600q0-24 19-42t44-19q18 0 30 12t13 30q0 23-20 42t-44 20q-15 0-28-10t-14-33m-163 313q0-8 9-31t24-51 44-51 60-22q39 0 65 23t27 62q0 17-14 56t-40 105-42 113q-5 22-5 32 0 25 17 25 9 0 19-3t23-14 27-35 25-59q3-12 5-14t17-2q20 0 20 10 0 8-9 31t-25 51-45 50-62 22q-32 0-59-21t-28-64q0-17 5-32t43-114q38-101 44-121t7-39q0-24-17-24h-2q-30 0-55 33t-38 84q-1 1-2 3t-1 3-2 2-3 1-4 0-8 0h-14q-6-6-6-9" data-c="1D456" data-mml-node="mi"/><path stroke="none" d="M2661 162q2 0 6 2t11 3 12 1q13 0 24-13t16-29q10-27 34-153t46-240 22-115v-3h-47q-47 0-50-2-4-3-4-10l7-28q2-5 8-5t47-1q48 0 48-1 0-2 9-50t12-58q37-165 146-165 37 2 61 22t24 53q0 36-21 52t-42 17q-44 0-44-42 0-19 11-33t24-21l9-5q-16-6-30-6-12 0-23 10t-15 28q-7 29-16 78t-16 83-7 36 55 2q45 0 52 1t11 6q1 4-2 17t-5 16q-2 5-9 5t-54 1h-56l-23 122q-48 248-67 310-27 85-70 126-37 32-73 32-32 0-58-19t-26-54q0-37 21-54t42-17q44 0 44 42 0 19-11 33t-24 21z" data-c="1D453" data-mml-node="mi"/><path stroke="none" d="M3114-287q0-14 15-48t48-71 74-36q41 0 66 23t26 64q-2 19-3 21 0 3-16 46t-33 97-16 86q0 43 14 60t42 18q23 0 43-11t31-23 27-33q0-1 5-20t14-59 19-74q38-150 42-157 13-27 43-27 13 0 21 7t11 12 2 9q0 13-49 210t-56 216q-28 83-97 132t-138 50q-45 0-79-22t-34-66q0-22 7-37t19-22 20-10 17-3q44 0 44 42 0 20-12 35t-23 20-13 5l-3 1q2 5 19 12t34 7h8q17 0 26-2 33-9 61-38t43-62 23-56 8-30l-6 4q-6 4-19 11t-26 12q-20 5-39 5-46 0-81-22t-46-71q-1-7-1-31 0-57 35-149t35-117v-14q0-3-4-7t-11-4h-4q-23 0-42 19t-30 41-17 42-8 22-16 2h-14q-6-6-6-9" data-c="1D466" data-mml-node="mi"/><path stroke="none" d="M3677-250q0-69 10-131t23-107 37-88 38-67 42-52 33-34 25-21h17q14 0 14 9 0 3-17 21t-41 53-49 86-42 138-17 193 17 192 41 139 49 86 42 53 17 21q0 9-15 9h-16l-28-24q-94-85-137-212t-43-264" data-c="28" data-mml-node="mo"/><path stroke="none" d="M4552-385q0-21 19-39t42-19q18 0 33 18t16 57q0 29-19 115-15 56-27 92t-35 81-55 68-72 23q-44 0-78-16t-49-43q-1 1-3 4-41 55-100 55-26 0-50-6t-47-19-37-39-14-63q0-54 34-146t35-117v-14q0-3-4-7t-11-4h-4q-23 0-42 19t-30 41-17 42-8 22-16 2h-14q-6-6-6-9 0-6 8-28t23-51 44-52 65-23q43 0 66 25t23 58q0 18-33 108t-33 139q0 46 21 65t53 20q43 0 76-61l5-9v-32q0-6 1-8t1-7 1-9 3-13 3-17 6-24 8-32 11-43q29-114 33-123 13-27 43-27 19 0 26 10t8 19q0 13-29 128t-32 132q-2 11-2 35v7q0 15 3 29t19 29 45 16q71 0 113-122 9-23 20-65t12-60q0-33-13-52t-26-32-13-28" data-c="1D464" data-mml-node="mi"/><path stroke="none" d="M4889 11q-75 0-121-49t-46-118q0-65 30-123t82-101q76-61 155-61 32 0 40 1 13 3 26 7t35 16 36 30 26 49 12 70q0 107-86 193t-189 86m-80-131q0 50 26 72t59 22q44 0 83-32t62-84q9-21 23-74t14-92q0-44-18-67-24-30-64-30-63 0-111 58-37 44-55 117t-19 110" data-c="1D45C" data-mml-node="mi"/><path stroke="none" d="M5194-287q1-3 2-8t5-22 10-31 15-33 20-30 26-22 33-9q29 0 51 12t31 22 11 20q2 6 3 6t8-7q48-52 111-52h3q48 0 72 41 8 19 8 37 0 30-13 48t-26 23-25 4q-20 0-32-11t-12-29q0-48 56-64-22-13-36-13-56 0-103 74-10 16-15 33t-34 133q-34 140-39 149-13 27-43 27-13 0-21-6t-11-12-2-10q0-13 40-172t40-177q0-39-26-39-21 0-36 28t-24 61-11 36q-2 2-16 2h-14q-6-6-6-9" data-c="1D45F" data-mml-node="mi"/><g data-mml-node="msub"><path stroke="none" d="M5990-683q1 0 72-5t73-6q12 0 12 8 0 7-73 302t-75 301-1 15q0 42 28 42 9-1 20-9 21-20 41-96 6-20 10-21 2-1 10-1h8q15 0 15 8 0 5-3 16-13 50-30 81t-28 40-28 16q-8 2-24 2-34 0-57-15t-30-31l-6-15q-1-1-4 1l-4 4q-59 56-120 56-55 0-97-40t-42-127q0-48 20-98t48-86q47-57 94-79t85-22q56 0 84 42 5 6 5 4 1-4 27-109t28-111q0-13-7-16t-39-5h-21q-6-6-6-8t2-19q5-19 13-19m-14 357q-23-79-75-79-35 0-67 31t-50 81q-29 79-41 164v11q0 8-1 12 0 45 18 62t43 18q54 0 111-72l8-11z" data-c="1D451" data-mml-node="mi"/><path stroke="none" d="m6327.591-258.646-9.191 3.535q-9.898 3.535-28.28 7.07t-41.006 4.949h-13.433v-32.522h13.433q33.229-1.414 61.509-10.605t39.592-16.968 19.796-15.554q1.414-2.121 8.484-2.121 6.363 0 12.019 4.242v211.393l.707 212.1q4.949 4.949 8.484 6.363t16.968 2.828 43.834 1.414h18.382V150h-7.777q-14.847-2.121-112.413-2.121-96.152 0-110.999 2.121h-8.484v-32.522h45.248q11.312 0 17.675-.707t11.312-2.121 5.656-1.414 4.242-3.535 4.242-2.828z" data-c="31" data-mml-node="mn"/></g><path stroke="none" d="M6658.6-35v-25l16-43 43-18q28 0 50 25t23 88q0 35-9 68t-21 57-26 41-24 27-13 9q-4 0-13-9t-9-13 11-16 25-30 26-50 16-73V-9l-1 1q-2 1-5 2t-6 3-9 2-12 1q-27 0-44-17Z" data-c="2C" data-mml-node="mo"/><path stroke="none" d="M7605.2-385q0-21 19-39t42-19q18 0 33 18t16 57q0 29-19 115-15 56-27 92t-35 81-55 68-72 23q-44 0-78-16t-49-43q-1 1-3 4-41 55-100 55-26 0-50-6t-47-19-37-39-14-63q0-54 34-146t35-117v-14q0-3-4-7t-11-4h-4q-23 0-42 19t-30 41-17 42-8 22-16 2h-14q-6-6-6-9 0-6 8-28t23-51 44-52 65-23q43 0 66 25t23 58q0 18-33 108t-33 139q0 46 21 65t53 20q43 0 76-61l5-9v-32q0-6 1-8t1-7 1-9 3-13 3-17 6-24 8-32 11-43q29-114 33-123 13-27 43-27 19 0 26 10t8 19q0 13-29 128t-32 132q-2 11-2 35v7q0 15 3 29t19 29 45 16q71 0 113-122 9-23 20-65t12-60q0-33-13-52t-26-32-13-28" data-c="1D464" data-mml-node="mi"/><path stroke="none" d="M7942.2 11q-75 0-121-49t-46-118q0-65 30-123t82-101q76-61 155-61 32 0 40 1 13 3 26 7t35 16 36 30 26 49 12 70q0 107-86 193t-189 86m-80-131q0 50 26 72t59 22q44 0 83-32t62-84q9-21 23-74t14-92q0-44-18-67-24-30-64-30-63 0-111 58-37 44-55 117t-19 110" data-c="1D45C" data-mml-node="mi"/><path stroke="none" d="M8247.2-287q1-3 2-8t5-22 10-31 15-33 20-30 26-22 33-9q29 0 51 12t31 22 11 20q2 6 3 6t8-7q48-52 111-52h3q48 0 72 41 8 19 8 37 0 30-13 48t-26 23-25 4q-20 0-32-11t-12-29q0-48 56-64-22-13-36-13-56 0-103 74-10 16-15 33t-34 133q-34 140-39 149-13 27-43 27-13 0-21-6t-11-12-2-10q0-13 40-172t40-177q0-39-26-39-21 0-36 28t-24 61-11 36q-2 2-16 2h-14q-6-6-6-9" data-c="1D45F" data-mml-node="mi"/><g data-mml-node="msub"><path stroke="none" d="M9043.2-683q1 0 72-5t73-6q12 0 12 8 0 7-73 302t-75 301-1 15q0 42 28 42 9-1 20-9 21-20 41-96 6-20 10-21 2-1 10-1h8q15 0 15 8 0 5-3 16-13 50-30 81t-28 40-28 16q-8 2-24 2-34 0-57-15t-30-31l-6-15q-1-1-4 1l-4 4q-59 56-120 56-55 0-97-40t-42-127q0-48 20-98t48-86q47-57 94-79t85-22q56 0 84 42 5 6 5 4 1-4 27-109t28-111q0-13-7-16t-39-5h-21q-6-6-6-8t2-19q5-19 13-19m-14 357q-23-79-75-79-35 0-67 31t-50 81q-29 79-41 164v11q0 8-1 12 0 45 18 62t43 18q54 0 111-72l8-11z" data-c="1D451" data-mml-node="mi"/><path stroke="none" d="M9307.263-153.303q-19.089 0-30.401-12.726t-11.312-31.108q0-50.197 37.471-86.961t93.324-36.764q64.337 0 107.464 39.592t43.834 102.515q0 30.401-14.14 57.974t-33.936 48.076-56.56 52.318q-25.452 21.917-70.7 65.044l-41.713 39.592 53.732.707q110.999 0 118.069-3.535 4.949-1.414 16.968-62.923v-2.121h28.28v2.121q-.707 2.121-9.191 64.337t-10.605 65.044V150H9265.55v-21.917q0-4.949 4.242-10.605t21.21-24.745q20.503-22.624 35.35-39.592 6.363-7.07 24.038-26.159T9374.428.823t20.503-23.331 19.796-24.038 16.261-21.21 14.847-22.624 10.605-20.503 9.191-22.624 4.949-21.21 2.121-23.331q0-44.541-24.038-77.063t-68.579-32.522q-23.331 0-41.006 12.019t-24.745 23.331-7.07 13.433q0 .707 3.535.707 12.726 0 26.159 9.898t13.433 32.522q0 17.675-11.312 29.694t-31.815 12.726" data-c="32" data-mml-node="mn"/></g><path stroke="none" d="M9878.4-60q0-24 17-42t43-18q24 0 42 16t19 43q0 25-17 43t-43 18-43-17-18-43m447 0q0-24 17-42t43-18q24 0 42 16t19 43q0 25-17 43t-43 18-43-17-18-43m447 0q0-24 17-42t43-18q24 0 42 16t19 43q0 25-17 43t-43 18-43-17-18-43" data-c="2026" data-mml-node="mo"/><path stroke="none" d="M11719.1-385q0-21 19-39t42-19q18 0 33 18t16 57q0 29-19 115-15 56-27 92t-35 81-55 68-72 23q-44 0-78-16t-49-43q-1 1-3 4-41 55-100 55-26 0-50-6t-47-19-37-39-14-63q0-54 34-146t35-117v-14q0-3-4-7t-11-4h-4q-23 0-42 19t-30 41-17 42-8 22-16 2h-14q-6-6-6-9 0-6 8-28t23-51 44-52 65-23q43 0 66 25t23 58q0 18-33 108t-33 139q0 46 21 65t53 20q43 0 76-61l5-9v-32q0-6 1-8t1-7 1-9 3-13 3-17 6-24 8-32 11-43q29-114 33-123 13-27 43-27 19 0 26 10t8 19q0 13-29 128t-32 132q-2 11-2 35v7q0 15 3 29t19 29 45 16q71 0 113-122 9-23 20-65t12-60q0-33-13-52t-26-32-13-28" data-c="1D464" data-mml-node="mi"/><path stroke="none" d="M12056.1 11q-75 0-121-49t-46-118q0-65 30-123t82-101q76-61 155-61 32 0 40 1 13 3 26 7t35 16 36 30 26 49 12 70q0 107-86 193t-189 86m-80-131q0 50 26 72t59 22q44 0 83-32t62-84q9-21 23-74t14-92q0-44-18-67-24-30-64-30-63 0-111 58-37 44-55 117t-19 110" data-c="1D45C" data-mml-node="mi"/><path stroke="none" d="M12361.1-287q1-3 2-8t5-22 10-31 15-33 20-30 26-22 33-9q29 0 51 12t31 22 11 20q2 6 3 6t8-7q48-52 111-52h3q48 0 72 41 8 19 8 37 0 30-13 48t-26 23-25 4q-20 0-32-11t-12-29q0-48 56-64-22-13-36-13-56 0-103 74-10 16-15 33t-34 133q-34 140-39 149-13 27-43 27-13 0-21-6t-11-12-2-10q0-13 40-172t40-177q0-39-26-39-21 0-36 28t-24 61-11 36q-2 2-16 2h-14q-6-6-6-9" data-c="1D45F" data-mml-node="mi"/><g data-mml-node="msub"><path stroke="none" d="M13157.1-683q1 0 72-5t73-6q12 0 12 8 0 7-73 302t-75 301-1 15q0 42 28 42 9-1 20-9 21-20 41-96 6-20 10-21 2-1 10-1h8q15 0 15 8 0 5-3 16-13 50-30 81t-28 40-28 16q-8 2-24 2-34 0-57-15t-30-31l-6-15q-1-1-4 1l-4 4q-59 56-120 56-55 0-97-40t-42-127q0-48 20-98t48-86q47-57 94-79t85-22q56 0 84 42 5 6 5 4 1-4 27-109t28-111q0-13-7-16t-39-5h-21q-6-6-6-8t2-19q5-19 13-19m-14 357q-23-79-75-79-35 0-67 31t-50 81q-29 79-41 164v11q0 8-1 12 0 45 18 62t43 18q54 0 111-72l8-11z" data-c="1D451" data-mml-node="mi"/><path stroke="none" d="M13358.947-52.909q.707-4.242 2.121-11.312t8.484-26.866 14.14-33.229 23.331-26.159 32.522-12.019q25.452 0 42.42 12.726t21.21 24.038 4.242 14.847q0 1.414.707 1.414l7.777-7.777q43.127-45.248 98.273-45.248 38.178 0 61.509 19.089t24.038 55.853-26.866 110.999-26.866 89.789q0 18.382 12.019 18.382 4.242 0 6.363-.707 20.503-3.535 36.764-26.866t24.745-56.56q1.414-5.656 14.14-5.656 14.14 0 14.14 5.656 0 .707-2.828 10.605-5.656 20.503-15.554 40.299t-32.522 39.592-48.783 19.089q-33.229 0-48.076-19.089t-14.847-39.592q0-13.433 25.452-84.84t26.159-107.464q0-41.713-31.108-41.713h-3.535q-60.802 0-102.515 71.407l-4.949 8.484-23.331 94.738q-23.331 92.617-26.866 99.687-9.191 19.089-30.401 19.089-9.191 0-14.847-4.242t-7.777-8.484-1.414-7.07q0-9.191 26.866-115.241t28.28-115.241q.707-3.535.707-16.261 0-27.573-16.968-27.573-26.866 0-44.541 70.7-4.242 14.14-4.242 14.847-1.414 4.242-13.433 4.242h-9.898q-4.242-4.242-4.242-6.363" data-c="1D45B" data-mml-node="mi"/></g><path stroke="none" d="m13878.4-749 4-1h22l28 24q94 85 137 212t43 264q0 68-10 131t-23 107-37 88-38 67-41 51-32 33-23 19l-4 4h-23q-3 0-5-3t-3-9q1-1 11-13 155-161 155-475t-155-475q-10-12-11-13 0-8 5-11" data-c="29" data-mml-node="mo"/><path stroke="none" d="M14541.1-347q0-13 14-20h637q15 8 15 20 0 11-14 19l-318 1h-318q-16-5-16-20m0 194q0-15 16-20h636q14 10 14 20 0 13-15 20h-637q-14-7-14-20" data-c="3D" data-mml-node="mo"/><g data-mml-node="munder"><g stroke="none" data-mml-node="mi"><path d="M15677.9-305h-22l-37-15-15-39q0-35 34-62t121-27q73 0 118 32t60 76q5 14 5 31t1 115v70q0 48 5 66t21 18q15 0 20-16t5-53v-36h40v39q-1 40-3 47-9 30-35 47t-55 18-47-18-24-42v-4l-2 3q-2 3-5 6t-8 9-12 11-15 12-18 11-22 8-26 6-31 3q-60 0-108-31t-48-87q0-21 7-40t27-41 48-37 78-28 110-15h14v-22q0-34-6-50-22-71-97-71-18 0-34 1t-25 4-8 3q22 15 22 44 0 25-16 39Zm-11 199q0 31 24 55t59 25q38 0 67-23t39-60q2-7 3-66 0-58-1-58-8 0-21 1t-45 9-58 20-46 37-21 60" data-c="61"/><path d="M16076.9-46h14q39 0 47-14v-31q0-14 1-31t0-39 0-42v-125l-1-23q-3-19-14-25t-45-9h-18v-23q0-23 2-23l10-1q10-1 28-2t36-2q16-1 35-2t29-3 11-1h3v69q39-68 97-68h6q45 0 66 22t21 46q0 21-13 36t-38 15-37-16-13-34q0-9 2-16t5-12 3-5q-2-2-23 4-16 8-24 15-47 45-47 179v106q0 12 1 20t0 15v5q1 2 3 4t5 3 5 3 7 2 7 1 9 1 9 0 10 1 10 0h31V0h-9q-18-3-127-3-103 0-112 3h-8v-46z" data-c="72"/><path d="M16761.9-409q44-44 100-44 30 0 43 19t13 38q0 14-9 25t-27 11q-33 0-37-30-2-14 3-21 0-1 1-3v-1q-28 3-53 22-8 5-8 7 0 1 4 5t9 12 11 18 9 26 4 33q0 62-49 105t-121 44q-50 0-99-28-11 18-11 38 0 35 26 52 9 6 17 6t72 2q84 1 108 6 61 9 96 41 39 39 39 98 0 67-78 103-60 31-142 31-83 0-143-31-78-35-78-100 0-36 21-60t42-33l11-6q-36-31-36-84 0-47 29-85-44-44-44-99 0-63 50-106t121-44q51 0 95 26zm-30 66q-5-28-26-44t-52-17q-29 0-50 16t-26 45q-3 17-3 51 0 44 7 65t30 35q17 10 43 10 22 0 38-7t23-18 11-20 5-15q3-16 3-50t-3-51m104 418q0-25-14-41t-41-23-49-9-54-2h-27q-67 0-80 6-20 9-31 28t-12 40q0 10 6 23t21 30 48 28 80 12q69 0 111-28t42-64" data-c="67"/><path d="M16973.9-46h14q39 0 47-14v-62q0-17 1-39t0-42v-66q0-35-1-59v-23q-3-19-14-25t-45-9h-18v-23q0-23 2-23l10-1q10-1 28-2t37-2q17-1 36-2t29-3 11-1h3v40q0 38 1 38t5-5 12-15 19-18 29-19 38-16 51-5q15 0 28 2t23 6 19 8 15 9 11 11 9 11 7 11 4 10 3 8l2 5 3-4 6-8q3-4 9-11t13-13 15-13 20-12 23-10 26-7 31-3q126 0 137 113 1 7 1 139v86q0 38 2 45t11 10q21 3 49 3h16V0h-8l-23-1q-24-1-51-1t-38-1q-103 0-112 3h-8v-46h16q61 0 61-16 1-2 1-138-1-135-2-143-6-28-20-42t-24-17-26-2q-45 0-79 34-27 27-34 55t-8 83v124q0 30 1 40t3 13 9 6q21 3 49 3h16V0h-8l-24-1q-23-1-50-1t-38-1q-103 0-112 3h-8v-46h16q61 0 61-16 1-2 1-138-1-135-2-143-6-28-20-42t-24-17-26-2q-45 0-79 34-27 27-34 55t-8 83v124q0 30 1 40t3 13 9 6q21 3 49 3h16V0h-8l-23-1q-24-1-51-1t-38-1q-103 0-112 3h-8v-46z" data-c="6D"/><path d="M17902.9-305h-22l-37-15-15-39q0-35 34-62t121-27q73 0 118 32t60 76q5 14 5 31t1 115v70q0 48 5 66t21 18q15 0 20-16t5-53v-36h40v39q-1 40-3 47-9 30-35 47t-55 18-47-18-24-42v-4l-2 3q-2 3-5 6t-8 9-12 11-15 12-18 11-22 8-26 6-31 3q-60 0-108-31t-48-87q0-21 7-40t27-41 48-37 78-28 110-15h14v-22q0-34-6-50-22-71-97-71-18 0-34 1t-25 4-8 3q22 15 22 44 0 25-16 39Zm-11 199q0 31 24 55t59 25q38 0 67-23t39-60q2-7 3-66 0-58-1-58-8 0-21 1t-45 9-58 20-46 37-21 60" data-c="61"/><path d="M18466.9 0q-12-3-99-3-76 0-85 3h-6v-46h14q23-1 42-6t29-9 25-17 18-18 21-26 20-28l46-60-58-78q-9-13-19-27t-16-21-11-15-9-12-6-7-7-6-6-3-6-2-8-2q-6 0-36-2h-28v-46h7q36 2 103 2 93 0 103-2h8v46q-36 4-36 16 0 2 10 16t28 38 29 41l4 4 25-34q32-41 32-54 0-6-2-11t-5-7-5-4-7-4l-3-1h-5v-46h7q15 3 99 3 79 0 85-3h6v46h-7q-49 0-81 17-17 8-34 27t-65 84l-16 21 62 85q66 90 71 94t17 7q18 4 53 4h17V0h-14q-8-1-20-1t-25-1-25 0-18-1h-37q-26 0-50 2l-23 1h-9v-46h3q11 0 22-5t11-12q0-2-40-57l-41-55q-1 1-31 42t-34 45q-4 5-4 14 0 11 7 19t18 9q2 0 2 23V0z" data-c="78"/></g><g data-mjx-texclass="ORD" data-mml-node="TeXAtom"><path stroke="none" d="M16723.638 703.187q0-77.063 60.802-138.572t131.502-61.509q39.592 0 62.216 16.968t23.331 44.541q0 20.503-13.433 34.643t-33.936 14.847q-13.433 0-21.21-7.07t-7.777-21.21 7.777-24.038 15.554-14.847 9.898-4.242h.707q0-1.414-4.242-4.242t-14.847-5.656-24.038-2.828q-21.21 0-40.299 9.898-14.847 6.363-30.401 21.917-31.108 31.108-45.248 87.668t-14.847 82.012q0 32.522 18.382 48.783 15.554 16.968 41.006 16.968h2.828q79.184 0 130.795-60.095 6.363-7.07 8.484-7.07 2.828 0 9.191 6.363t7.07 9.898-6.363 10.605-20.503 19.796-31.815 21.21-45.248 17.675-56.56 7.777q-53.025 0-85.547-33.936t-33.229-86.254" data-c="1D450" data-mml-node="mi"/><path stroke="none" d="M17029.062 704.601q0-71.407 53.732-135.744t120.897-65.044q36.057 0 63.63 34.643 11.312-21.21 32.522-21.21 9.191 0 16.261 5.656t7.07 14.14q0 9.191-26.159 113.12t-26.866 117.362q0 17.675 4.949 23.331t14.847 6.363q6.363-.707 14.14-6.363 14.847-14.14 28.987-67.872 4.242-14.14 7.07-14.847 1.414-.707 7.07-.707h2.828q13.433 0 13.433 6.363 0 4.242-3.535 19.089t-14.14 38.178-22.624 35.35q-9.191 9.191-22.624 14.847-5.656 1.414-16.968 1.414-24.038 0-40.299-10.605t-21.21-21.917l-4.242-10.605q-.707-.707-2.828.707l-2.828 2.828q-41.713 39.592-84.84 39.592-38.885 0-68.579-28.28t-29.694-89.789m224.826-120.897q0-4.242-3.535-15.554t-16.261-24.745-32.522-14.14q-24.745 0-47.369 21.917t-35.35 57.267q-20.503 55.853-28.987 115.948v7.777q0 5.656-.707 8.484 0 31.815 12.726 43.834t30.401 12.726q26.866 0 53.025-23.331t31.108-36.057q1.414-2.828 19.089-75.649t18.382-78.477" data-c="1D44E" data-mml-node="mi"/><path stroke="none" d="M17398.116 543.405q-4.949-4.949-4.949-7.07 0-2.828 2.121-11.312t3.535-9.898q1.414-3.535 6.363-3.535t36.057-.707h37.471l13.433-56.56q2.121-7.777 4.949-20.503t4.949-18.382 4.242-14.14 5.656-12.019 7.07-8.484 9.898-6.363 12.726-1.414q12.726.707 17.675 7.777t4.949 13.433q0 4.949-6.363 33.229t-14.14 55.853l-7.07 26.159q0 1.414 35.35 1.414h36.057q4.949 4.949 4.949 7.777 0 15.554-9.191 24.745h-75.649l-25.452 102.515q-27.573 113.12-27.573 121.604 0 29.694 19.089 29.694 24.745 0 48.076-24.038t37.471-59.388q1.414-4.242 3.535-4.949t10.605-1.414h2.828q10.605 0 10.605 5.656 0 2.121-2.121 8.484-3.535 11.312-12.726 26.866t-24.038 33.229-36.057 29.694-43.127 12.019q-21.21 0-40.299-10.605t-27.573-36.764q-1.414-5.656-1.414-19.089v-12.726l24.745-98.98q24.745-99.687 25.452-100.394 0-1.414-36.057-1.414z" data-c="1D461" data-mml-node="mi"/></g></g><path stroke="none" d="M19247.6-628q0-7-57-9-24 0-31-1t-7-10q0-1 2-11 6-20 9-22t194-2q190 1 203 3 64 11 107 49t44 101q0 77-66 141-69 68-178 86-7 1-105 2h-95l-30 119q-30 116-30 123 0 4 1 5t7 4 17 2 33 2h31q6 9 6 11 0 16-7 30-5 5-16 5-3 0-37-1t-100-1h-95q-33 0-36 1-18 0-18-10 0-2 3-14 4-16 8-18t23-3q27 0 60-3 14-3 19-12 3-4 72-278t69-289m358 74q0-13-2-21t-9-22-25-22-49-16q-7-1-80-2h-35q-18 0-29 1t-12 0q-13 1-18 9-2 6-19 77t-35 138-18 68q0 2 81 2h35q112 0 160-50 27-27 41-79t14-83" data-c="1D443" data-mml-node="mi"/><path stroke="none" d="M19805.6-250q0-69 10-131t23-107 37-88 38-67 42-52 33-34 25-21h17q14 0 14 9 0 3-17 21t-41 53-49 86-42 138-17 193 17 192 41 139 49 86 42 53 17 21q0 9-15 9h-16l-28-24q-94-85-137-212t-43-264" data-c="28" data-mml-node="mo"/><path stroke="none" d="M20134.6-159q0-109 86-196t186-87q56 0 88 24t33 63q0 29-19 49t-48 21q-19 0-30-10t-11-30 11-34 22-21 14-6h1q0-2-6-6t-21-8-34-4q-30 0-57 14-21 9-43 31-44 44-64 124t-21 116q0 46 26 69 22 24 58 24h4q112 0 185-85 9-10 12-10 4 0 13 9t10 14-9 15-29 28-45 30-64 25-80 11q-75 0-121-48t-47-122" data-c="1D450" data-mml-node="mi"/><path stroke="none" d="M20566.6-157q0-101 76-192t171-92q51 0 90 49 16-30 46-30 13 0 23 8t10 20q0 13-37 160t-38 166q0 25 7 33t21 9q9-1 20-9 21-20 41-96 6-20 10-21 2-1 10-1h4q19 0 19 9 0 6-5 27t-20 54-32 50q-13 13-32 21-8 2-24 2-34 0-57-15t-30-31l-6-15q-1-1-4 1l-4 4q-59 56-120 56-55 0-97-40t-42-127m318-171q0-6-5-22t-23-35-46-20q-35 0-67 31t-50 81q-29 79-41 164v11q0 8-1 12 0 45 18 62t43 18q38 0 75-33t44-51q2-4 27-107t26-111" data-c="1D44E" data-mml-node="mi"/><path stroke="none" d="M21088.6-385q-7-7-7-10 0-4 3-16t5-14q2-5 9-5t51-1h53l19-80q3-11 7-29t7-26 6-20 8-17 10-12 14-9 18-2q18 1 25 11t7 19q0 7-9 47t-20 79l-10 37q0 2 50 2h51q7 7 7 11 0 22-13 35h-107l-36 145q-39 160-39 172 0 42 27 42 35 0 68-34t53-84q2-6 5-7t15-2h4q15 0 15 8 0 3-3 12-5 16-18 38t-34 47-51 42-61 17q-30 0-57-15t-39-52q-2-8-2-27v-18l35-140q35-141 36-142 0-2-51-2z" data-c="1D461" data-mml-node="mi"/><path stroke="none" d="m21483.6-749 4-1h22l28 24q94 85 137 212t43 264q0 68-10 131t-23 107-37 88-38 67-41 51-32 33-23 19l-4 4h-23q-3 0-5-3t-3-9q1-1 11-13 155-161 155-475t-155-475q-10-12-11-13 0-8 5-11" data-c="29" data-mml-node="mo"/><path stroke="none" d="M22112.8-250q0-24 17-42t43-18q24 0 42 16t19 43q0 25-17 43t-43 18-43-17-18-43" data-c="22C5" data-mml-node="mo"/><g data-mml-node="munderover"><path stroke="none" d="M22755-812q0-1-2-7t-4-10-6-11-9-13-14-13-19-12-26-9-33-6-41-3h-10v-54h1165v54h-10q-131 0-153 84V311q18 85 153 85h10v54h-496v-54h10q129 0 153-82 1-2 1-3V-896h-501v604l1 603q16 85 153 85h10v54h-496v-54h10q129 0 153-82 1-2 1-3z" data-c="220F" data-mml-node="mo"/><g data-mjx-texclass="ORD" data-mml-node="TeXAtom"><path stroke="none" d="M22730.288 663.7q0-16.968 13.433-29.694t31.108-13.433q12.726 0 21.21 8.484t9.191 21.21q0 16.261-14.14 29.694t-31.108 14.14q-10.605 0-19.796-7.07t-9.898-23.331m-115.241 221.291q0-5.656 6.363-21.917t16.968-36.057 31.108-36.057 42.42-15.554q27.573 0 45.955 16.261t19.089 43.834q0 12.019-9.898 39.592t-28.28 74.235-29.694 79.891q-3.535 15.554-3.535 22.624 0 17.675 12.019 17.675 6.363 0 13.433-2.121t16.261-9.898 19.089-24.745 17.675-41.713q2.121-8.484 3.535-9.898t12.019-1.414q14.14 0 14.14 7.07 0 5.656-6.363 21.917t-17.675 36.057-31.815 35.35-43.834 15.554q-22.624 0-41.713-14.847t-19.796-45.248q0-12.019 3.535-22.624t30.401-80.598q26.866-71.407 31.108-85.547t4.949-27.573q0-16.968-12.019-16.968h-1.414q-21.21 0-38.885 23.331t-26.866 59.388q-.707.707-1.414 2.121t-.707 2.121-1.414 1.414-2.121.707-2.828 0-5.656 0h-9.898q-4.242-4.242-4.242-6.363" data-c="1D456" data-mml-node="mi"/><path stroke="none" d="M22883.707 842.571q0-9.191 9.898-14.14h450.359q10.605 5.656 10.605 14.14 0 7.777-9.898 13.433l-224.826.707h-224.826q-11.312-3.535-11.312-14.14m0 137.158q0-10.605 11.312-14.14h449.652q9.898 7.07 9.898 14.14 0 9.191-10.605 14.14h-450.359q-9.898-4.949-9.898-14.14" data-c="3D" data-mml-node="mo"/><path stroke="none" d="m23544.752 679.254-9.191 3.535q-9.898 3.535-28.28 7.07t-41.006 4.949h-13.433v-32.522h13.433q33.229-1.414 61.509-10.605t39.592-16.968 19.796-15.554q1.414-2.121 8.484-2.121 6.363 0 12.019 4.242v211.393l.707 212.1q4.949 4.949 8.484 6.363t16.968 2.828 43.834 1.414h18.382v32.522h-7.777q-14.847-2.121-112.413-2.121-96.152 0-110.999 2.121h-8.484v-32.522h45.248q11.312 0 17.675-.707t11.312-2.121 5.656-1.414 4.242-3.535 4.242-2.828z" data-c="31" data-mml-node="mn"/></g><g data-mjx-texclass="ORD" data-mml-node="TeXAtom"><path stroke="none" d="M22976.747-1352.909q.707-4.242 2.121-11.312t8.484-26.866 14.14-33.229 23.331-26.159 32.522-12.019q25.452 0 42.42 12.726t21.21 24.038 4.242 14.847q0 1.414.707 1.414l7.777-7.777q43.127-45.248 98.273-45.248 38.178 0 61.509 19.089t24.038 55.853-26.866 110.999-26.866 89.789q0 18.382 12.019 18.382 4.242 0 6.363-.707 20.503-3.535 36.764-26.866t24.745-56.56q1.414-5.656 14.14-5.656 14.14 0 14.14 5.656 0 .707-2.828 10.605-5.656 20.503-15.554 40.299t-32.522 39.592-48.783 19.089q-33.229 0-48.076-19.089t-14.847-39.592q0-13.433 25.452-84.84t26.159-107.464q0-41.713-31.108-41.713h-3.535q-60.802 0-102.515 71.407l-4.949 8.484-23.331 94.738q-23.331 92.617-26.866 99.687-9.191 19.089-30.401 19.089-9.191 0-14.847-4.242t-7.777-8.484-1.414-7.07q0-9.191 26.866-115.241t28.28-115.241q.707-3.535.707-16.261 0-27.573-16.968-27.573-26.866 0-44.541 70.7-4.242 14.14-4.242 14.847-1.414 4.242-13.433 4.242h-9.898q-4.242-4.242-4.242-6.363" data-c="1D45B" data-mml-node="mi"/></g></g><path stroke="none" d="M24266.7-628q0-7-57-9-24 0-31-1t-7-10q0-1 2-11 6-20 9-22t194-2q190 1 203 3 64 11 107 49t44 101q0 77-66 141-69 68-178 86-7 1-105 2h-95l-30 119q-30 116-30 123 0 4 1 5t7 4 17 2 33 2h31q6 9 6 11 0 16-7 30-5 5-16 5-3 0-37-1t-100-1h-95q-33 0-36 1-18 0-18-10 0-2 3-14 4-16 8-18t23-3q27 0 60-3 14-3 19-12 3-4 72-278t69-289m358 74q0-13-2-21t-9-22-25-22-49-16q-7-1-80-2h-35q-18 0-29 1t-12 0q-13 1-18 9-2 6-19 77t-35 138-18 68q0 2 81 2h35q112 0 160-50 27-27 41-79t14-83" data-c="1D443" data-mml-node="mi"/><path stroke="none" d="M24824.7-250q0-69 10-131t23-107 37-88 38-67 42-52 33-34 25-21h17q14 0 14 9 0 3-17 21t-41 53-49 86-42 138-17 193 17 192 41 139 49 86 42 53 17 21q0 9-15 9h-16l-28-24q-94-85-137-212t-43-264" data-c="28" data-mml-node="mo"/><path stroke="none" d="M25699.7-385q0-21 19-39t42-19q18 0 33 18t16 57q0 29-19 115-15 56-27 92t-35 81-55 68-72 23q-44 0-78-16t-49-43q-1 1-3 4-41 55-100 55-26 0-50-6t-47-19-37-39-14-63q0-54 34-146t35-117v-14q0-3-4-7t-11-4h-4q-23 0-42 19t-30 41-17 42-8 22-16 2h-14q-6-6-6-9 0-6 8-28t23-51 44-52 65-23q43 0 66 25t23 58q0 18-33 108t-33 139q0 46 21 65t53 20q43 0 76-61l5-9v-32q0-6 1-8t1-7 1-9 3-13 3-17 6-24 8-32 11-43q29-114 33-123 13-27 43-27 19 0 26 10t8 19q0 13-29 128t-32 132q-2 11-2 35v7q0 15 3 29t19 29 45 16q71 0 113-122 9-23 20-65t12-60q0-33-13-52t-26-32-13-28" data-c="1D464" data-mml-node="mi"/><path stroke="none" d="M26036.7 11q-75 0-121-49t-46-118q0-65 30-123t82-101q76-61 155-61 32 0 40 1 13 3 26 7t35 16 36 30 26 49 12 70q0 107-86 193t-189 86m-80-131q0 50 26 72t59 22q44 0 83-32t62-84q9-21 23-74t14-92q0-44-18-67-24-30-64-30-63 0-111 58-37 44-55 117t-19 110" data-c="1D45C" data-mml-node="mi"/><path stroke="none" d="M26341.7-287q1-3 2-8t5-22 10-31 15-33 20-30 26-22 33-9q29 0 51 12t31 22 11 20q2 6 3 6t8-7q48-52 111-52h3q48 0 72 41 8 19 8 37 0 30-13 48t-26 23-25 4q-20 0-32-11t-12-29q0-48 56-64-22-13-36-13-56 0-103 74-10 16-15 33t-34 133q-34 140-39 149-13 27-43 27-13 0-21-6t-11-12-2-10q0-13 40-172t40-177q0-39-26-39-21 0-36 28t-24 61-11 36q-2 2-16 2h-14q-6-6-6-9" data-c="1D45F" data-mml-node="mi"/><g data-mml-node="msub"><path stroke="none" d="M27137.7-683q1 0 72-5t73-6q12 0 12 8 0 7-73 302t-75 301-1 15q0 42 28 42 9-1 20-9 21-20 41-96 6-20 10-21 2-1 10-1h8q15 0 15 8 0 5-3 16-13 50-30 81t-28 40-28 16q-8 2-24 2-34 0-57-15t-30-31l-6-15q-1-1-4 1l-4 4q-59 56-120 56-55 0-97-40t-42-127q0-48 20-98t48-86q47-57 94-79t85-22q56 0 84 42 5 6 5 4 1-4 27-109t28-111q0-13-7-16t-39-5h-21q-6-6-6-8t2-19q5-19 13-19m-14 357q-23-79-75-79-35 0-67 31t-50 81q-29 79-41 164v11q0 8-1 12 0 45 18 62t43 18q54 0 111-72l8-11z" data-c="1D451" data-mml-node="mi"/><path stroke="none" d="M27454.788-274.2q0-16.968 13.433-29.694t31.108-13.433q12.726 0 21.21 8.484t9.191 21.21q0 16.261-14.14 29.694t-31.108 14.14q-10.605 0-19.796-7.07t-9.898-23.331m-115.241 221.291q0-5.656 6.363-21.917t16.968-36.057 31.108-36.057 42.42-15.554q27.573 0 45.955 16.261t19.089 43.834q0 12.019-9.898 39.592t-28.28 74.235-29.694 79.891q-3.535 15.554-3.535 22.624 0 17.675 12.019 17.675 6.363 0 13.433-2.121t16.261-9.898 19.089-24.745 17.675-41.713q2.121-8.484 3.535-9.898t12.019-1.414q14.14 0 14.14 7.07 0 5.656-6.363 21.917t-17.675 36.057-31.815 35.35-43.834 15.554q-22.624 0-41.713-14.847t-19.796-45.248q0-12.019 3.535-22.624t30.401-80.598q26.866-71.407 31.108-85.547t4.949-27.573q0-16.968-12.019-16.968h-1.414q-21.21 0-38.885 23.331t-26.866 59.388q-.707.707-1.414 2.121t-.707 2.121-1.414 1.414-2.121.707-2.828 0-5.656 0h-9.898q-4.242-4.242-4.242-6.363" data-c="1D456" data-mml-node="mi"/></g><path stroke="none" d="M27757.7 249.5h-2q-12 0-18-14v-486l1-486q10-13 19-13 13 0 20 15v970q-8 14-18 14z" data-c="7C" data-mml-node="mo"/><path stroke="none" d="M27930.7-159q0-109 86-196t186-87q56 0 88 24t33 63q0 29-19 49t-48 21q-19 0-30-10t-11-30 11-34 22-21 14-6h1q0-2-6-6t-21-8-34-4q-30 0-57 14-21 9-43 31-44 44-64 124t-21 116q0 46 26 69 22 24 58 24h4q112 0 185-85 9-10 12-10 4 0 13 9t10 14-9 15-29 28-45 30-64 25-80 11q-75 0-121-48t-47-122" data-c="1D450" data-mml-node="mi"/><path stroke="none" d="M28362.7-157q0-101 76-192t171-92q51 0 90 49 16-30 46-30 13 0 23 8t10 20q0 13-37 160t-38 166q0 25 7 33t21 9q9-1 20-9 21-20 41-96 6-20 10-21 2-1 10-1h4q19 0 19 9 0 6-5 27t-20 54-32 50q-13 13-32 21-8 2-24 2-34 0-57-15t-30-31l-6-15q-1-1-4 1l-4 4q-59 56-120 56-55 0-97-40t-42-127m318-171q0-6-5-22t-23-35-46-20q-35 0-67 31t-50 81q-29 79-41 164v11q0 8-1 12 0 45 18 62t43 18q38 0 75-33t44-51q2-4 27-107t26-111" data-c="1D44E" data-mml-node="mi"/><path stroke="none" d="M28884.7-385q-7-7-7-10 0-4 3-16t5-14q2-5 9-5t51-1h53l19-80q3-11 7-29t7-26 6-20 8-17 10-12 14-9 18-2q18 1 25 11t7 19q0 7-9 47t-20 79l-10 37q0 2 50 2h51q7 7 7 11 0 22-13 35h-107l-36 145q-39 160-39 172 0 42 27 42 35 0 68-34t53-84q2-6 5-7t15-2h4q15 0 15 8 0 3-3 12-5 16-18 38t-34 47-51 42-61 17q-30 0-57-15t-39-52q-2-8-2-27v-18l35-140q35-141 36-142 0-2-51-2z" data-c="1D461" data-mml-node="mi"/><path stroke="none" d="m29279.7-749 4-1h22l28 24q94 85 137 212t43 264q0 68-10 131t-23 107-37 88-38 67-41 51-32 33-23 19l-4 4h-23q-3 0-5-3t-3-9q1-1 11-13 155-161 155-475t-155-475q-10-12-11-13 0-8 5-11" data-c="29" data-mml-node="mo"/></g></svg>