<svg xmlns="http://www.w3.org/2000/svg" width="14.486ex" height="8.597ex" style="vertical-align:-3.733ex" viewBox="0 -2150 6403 3800"><title>\left\{ \begin{array}{l} 49a - 7 = 0 \\ 7a - 1 = 0 \\ 7b - 12a = 0 \end{array} \right.</title><g fill="currentColor" stroke="currentColor" stroke-width="0" data-mml-node="math"><g data-mml-node="mrow"><g data-mml-node="mo" transform="scale(1 -1)"><path stroke="none" d="m712 2150 6-6v-28q0-11-14-19-77-53-127-136t-67-185q0-1-1-4-4-28-5-172v-109q0-242-1-244-1-4-9-5t-50-1q-52 0-54 1-3 1-4 4-2 10-2 235v82q0 50-1 70 0 99 9 153t42 121q76 150 230 236l13 7z" data-c="23A7"/><path stroke="none" d="m718-1644-6-6h-35l-11 6q-124 68-198 179t-83 238q-1 10-1 194 0 285 1 287l4 4q3 1 55 1 42 0 50-1t9-5q1-2 1-243v-127q0-104 4-147t22-96q16-48 39-89t48-69 44-45 38-31 18-13 1-20z" data-c="23A9"/><path stroke="none" d="M389 1159q2 1 66 1 41 0 43-1 3-1 4-4 2-10 2-231 0-233-1-242-9-133-78-243T243 259l-14-9 14-9q106-66 178-175t82-248q1-9 1-242v-205q0-29-5-30h-1q-2-1-54-1t-54 1q-3 1-4 4-2 10-2 230v143q0 106-7 166T342 10q-17 44-41 82t-46 63-41 41-31 26-12 10q-1 1-1 18t1 18q0 1 20 16t49 47 60 76 54 117 29 155q1 12 1 246 0 227 1 230z" data-c="23A8"/><svg width="889" height="281" y="1060" viewBox="0 49.5 889 281"><path stroke="none" d="M384 207.3v160.312q0 52.516 5 59.426 2 1.382 66 1.382 41 0 43-1.382 4-1.382 5-15.202 1-20.73 1-204.536V16.584q0-27.64-5-29.022h-1q-2-1.382-54-1.382t-54 1.382q-4 1.382-5 15.202-1 20.73-1 204.536" data-c="23AA"/></svg><svg width="889" height="281" y="-841" viewBox="0 49.5 889 281"><path stroke="none" d="M384 207.3v160.312q0 52.516 5 59.426 2 1.382 66 1.382 41 0 43-1.382 4-1.382 5-15.202 1-20.73 1-204.536V16.584q0-27.64-5-29.022h-1q-2-1.382-54-1.382t-54 1.382q-4 1.382-5 15.202-1 20.73-1 204.536" data-c="23AA"/></svg></g><g data-mml-node="mtable"><g data-mml-node="mtr"><g data-mml-node="mtd"><g stroke="none" data-mml-node="mn"><path d="M1351-1400q-18-3-129-3-116 0-134 3h-9v-46h58q7 0 17-2t14-5 7-8q1-2 1-54v-50H917v-46l151-231q153-232 155-233 2-2 21-2h18l6 6v460h92v46h-92v99q0 7 6 12 8 7 57 8h29v46zm-169-211v-334l-219 333 109 1z" data-c="34"/><path d="M1741-1687q-48 76-120 76-78 0-128-59t-60-126q-2-16-2-40v-8q0-93 69-162 60-60 132-60h6q4 0 8 1h4q12 0 25 2t37 12 47 32 43 59q43 88 43 226 0 140-60 237-35 56-84 87t-104 32q-61 0-100-29t-40-86 53-56q22 0 37 14t15 39q0 18-9 31t-16 16-13 5l-4 1q0 2 7 6t26 10 42 5h6q60 0 101-64 39-56 39-194zm-108 39q48 0 77-49t30-133q0-78-8-112-2-10-6-20t-14-26-30-27-47-10q-38 0-65 27-21 22-27 52t-7 105q0 83 5 112t20 47q25 34 72 34" data-c="39"/></g><path stroke="none" d="M1922-1557q0-101 76-192t171-92q51 0 90 49 16-30 46-30 13 0 23 8t10 20q0 13-37 160t-38 166q0 25 7 33t21 9q9-1 20-9 21-20 41-96 6-20 10-21 2-1 10-1h4q19 0 19 9 0 6-5 27t-20 54-32 50q-13 13-32 21-8 2-24 2-34 0-57-15t-30-31l-6-15q-1-1-4 1l-4 4q-59 56-120 56-55 0-97-40t-42-127m318-171q0-6-5-22t-23-35-46-20q-35 0-67 31t-50 81q-29 79-41 164v11q0 8-1 12 0 45 18 62t43 18q38 0 75-33t44-51q2-4 27-107t26-111" data-c="1D44E" data-mml-node="mi"/><path stroke="none" d="M2724.2-1637v-13l14-20h581q15 8 15 20t-15 20h-581q-14-7-14-20Z" data-c="2212" data-mml-node="mo"/><path stroke="none" d="M3695.4-1858q1-2 17-109l16-107q0-2 20-2h20v4q0 10 15 17t52 9 169 2h121v39l-68 93-30 40q-21 28-27 37t-21 32-20 36-14 37-13 46-8 54-6 68-3 82v28q0 14-1 24v9q-4 17-19 29t-34 12q-11 0-21-3t-21-19-11-40q0-158 97-328 20-32 84-121l46-63h-93q-174 0-183 6-6 3-11 24t-10 43l-3 21v3h-40z" data-c="37" data-mml-node="mn"/><path stroke="none" d="M4474.2-1747q0-13 14-20h637q15 8 15 20 0 11-14 19l-318 1h-318q-16-5-16-20m0 194q0-15 16-20h636q14 10 14 20 0 13-15 20h-637q-14-7-14-20" data-c="3D" data-mml-node="mo"/><path stroke="none" d="M5570-1985q56-81 153-81 48 0 96 26t78 92q37 83 37 228 0 155-43 237-20 42-55 67t-61 31-51 7q-26 0-52-6t-61-32-55-67q-43-82-43-237 0-174 57-265m225-12q-30-32-71-32-42 0-72 32-25 26-33 72t-8 192q0 158 8 208t36 79q28 30 69 30 40 0 68-30 29-30 36-84t8-203q0-145-8-191t-33-73" data-c="30" data-mml-node="mn"/></g></g><g data-mml-node="mtr"><g data-mml-node="mtd"><path stroke="none" d="M944-458q1-2 17-109l16-107q0-2 20-2h20v4q0 10 15 17t52 9 169 2h121v39l-68 93-30 40q-21 28-27 37t-21 32-20 36-14 37-13 46-8 54-6 68-3 82v28q0 14-1 24v9q-4 17-19 29t-34 12q-11 0-21-3t-21-19-11-40q0-158 97-328 20-32 84-121l46-63h-93q-174 0-183 6-6 3-11 24t-10 43l-3 21v3h-40z" data-c="37" data-mml-node="mn"/><path stroke="none" d="M1422-157q0-101 76-192t171-92q51 0 90 49 16-30 46-30 13 0 23 8t10 20q0 13-37 160t-38 166q0 25 7 33t21 9q9-1 20-9 21-20 41-96 6-20 10-21 2-1 10-1h4q19 0 19 9 0 6-5 27t-20 54-32 50q-13 13-32 21-8 2-24 2-34 0-57-15t-30-31l-6-15q-1-1-4 1l-4 4q-59 56-120 56-55 0-97-40t-42-127m318-171q0-6-5-22t-23-35-46-20q-35 0-67 31t-50 81q-29 79-41 164v11q0 8-1 12 0 45 18 62t43 18q38 0 75-33t44-51q2-4 27-107t26-111" data-c="1D44E" data-mml-node="mi"/><path stroke="none" d="M2224.2-237v-13l14-20h581q15 8 15 20t-15 20h-581q-14-7-14-20Z" data-c="2212" data-mml-node="mo"/><path stroke="none" d="m3353.4-578-13 5q-14 5-40 10t-58 7h-19v-46h19q47-2 87-15t56-24 28-22q2-3 12-3 9 0 17 6v299l1 300q7 7 12 9t24 4 62 2h26V0h-11q-21-3-159-3-136 0-157 3h-12v-46h64q16 0 25-1t16-3 8-2 6-5 6-4z" data-c="31" data-mml-node="mn"/><path stroke="none" d="M3974.2-347q0-13 14-20h637q15 8 15 20 0 11-14 19l-318 1h-318q-16-5-16-20m0 194q0-15 16-20h636q14 10 14 20 0 13-15 20h-637q-14-7-14-20" data-c="3D" data-mml-node="mo"/><path stroke="none" d="M5070-585q56-81 153-81 48 0 96 26t78 92q37 83 37 228 0 155-43 237-20 42-55 67t-61 31-51 7q-26 0-52-6t-61-32-55-67q-43-82-43-237 0-174 57-265m225-12q-30-32-71-32-42 0-72 32-25 26-33 72t-8 192q0 158 8 208t36 79q28 30 69 30 40 0 68-30 29-30 36-84t8-203q0-145-8-191t-33-73" data-c="30" data-mml-node="mn"/></g></g><g data-mml-node="mtr"><g data-mml-node="mtd"><path stroke="none" d="M944 942q1-2 17-109l16-107q0-2 20-2h20v4q0 10 15 17t52 9 169 2h121v39l-68 93-30 40q-21 28-27 37t-21 32-20 36-14 37-13 46-8 54-6 68-3 82v28q0 14-1 24v9q-4 17-19 29t-34 12q-11 0-21-3t-21-19-11-40q0-158 97-328 20-32 84-121l46-63h-93q-174 0-183 6-6 3-11 24t-10 43l-3 21v3h-40z" data-c="37" data-mml-node="mn"/><path stroke="none" d="M1462 753q0-10 4-23t12-13q1 0 72-5t73-6q12 0 12 9t-34 143q-8 34-17 70t-15 54l-4 19q0 3 6-3 49-40 101-40 62 0 100 46t39 116q0 111-79 201t-170 90q-50 0-91-38t-42-123v-9q0-21 8-58t49-197q50-197 50-209t-38-14h-26q-3 0-7-3t-3-7m263 322v-6q0-74-61-74-17 0-35 8t-33 21-26 24-18 22l-6 8-21 86q-22 86-22 122 0 48 24 72 16 16 40 16 33 0 67-32 25-23 40-56t33-105 18-106" data-c="1D44F" data-mml-node="mi"/><path stroke="none" d="M2124.2 1163v-13l14-20h581q15 8 15 20t-15 20h-581q-14-7-14-20Z" data-c="2212" data-mml-node="mo"/><g stroke="none" data-mml-node="mn"><path d="m3253.4 822-13 5q-14 5-40 10t-58 7h-19v-46h19q47-2 87-15t56-24 28-22q2-3 12-3 9 0 17 6v299l1 300q7 7 12 9t24 4 62 2h26v46h-11q-21-3-159-3-136 0-157 3h-12v-46h64q16 0 25-1t16-3 8-2 6-5 6-4z" data-c="31"/><path d="M3649.4 971q-27 0-43-18t-16-44q0-71 53-123t132-52q91 0 152 56t62 145q0 43-20 82t-48 68-80 74q-36 31-100 92l-59 56 76 1q157 0 167-5 7-2 24-89v-3h40v3q-1 3-13 91t-15 92v3h-371v-31q0-7 6-15t30-35q29-32 50-56 9-10 34-37t34-37 29-33 28-34 23-30 21-32 15-29 13-32 7-30 3-33q0-63-34-109t-97-46q-33 0-58 17t-35 33-10 19q0 1 5 1 18 0 37 14t19 46q0 25-16 42t-45 18" data-c="32"/></g><path stroke="none" d="M4073.4 1243q0-101 76-192t171-92q51 0 90 49 16-30 46-30 13 0 23 8t10 20q0 13-37 160t-38 166q0 25 7 33t21 9q9-1 20-9 21-20 41-96 6-20 10-21 2-1 10-1h4q19 0 19 9 0 6-5 27t-20 54-32 50q-13 13-32 21-8 2-24 2-34 0-57-15t-30-31l-6-15q-1-1-4 1l-4 4q-59 56-120 56-55 0-97-40t-42-127m318-171q0-6-5-22t-23-35-46-20q-35 0-67 31t-50 81q-29 79-41 164v11q0 8-1 12 0 45 18 62t43 18q38 0 75-33t44-51q2-4 27-107t26-111" data-c="1D44E" data-mml-node="mi"/><path stroke="none" d="M4903.2 1053q0-13 14-20h637q15 8 15 20 0 11-14 19l-318 1h-318q-16-5-16-20m0 194q0-15 16-20h636q14 10 14 20 0 13-15 20h-637q-14-7-14-20" data-c="3D" data-mml-node="mo"/><path stroke="none" d="M5999 815q56-81 153-81 48 0 96 26t78 92q37 83 37 228 0 155-43 237-20 42-55 67t-61 31-51 7q-26 0-52-6t-61-32-55-67q-43-82-43-237 0-174 57-265m225-12q-30-32-71-32-42 0-72 32-25 26-33 72t-8 192q0 158 8 208t36 79q28 30 69 30 40 0 68-30 29-30 36-84t8-203q0-145-8-191t-33-73" data-c="30" data-mml-node="mn"/></g></g></g></g></g></svg>