<svg xmlns="http://www.w3.org/2000/svg" width="56.915ex" height="12.298ex" style="vertical-align:-5.583ex" viewBox="0 -2967.9 25156.2 5435.7"><title>\begin{aligned} 7k^2 + k &amp;= a(7k-3)(7k+4) + b(7k+4) - b(7k-3) \\ 7k^2 + k &amp;= a(49k^2 + 28k - 21k - 12) + 7kb + 4b - 7kb + 3b \\ 0 &amp;= 49a k^2 + 7a k + 7b - 12a \\ 0 &amp;= k^2 (49a-7) + k(-1+7a) + (7b - 12a) \end{aligned}</title><g fill="currentColor" stroke="currentColor" stroke-width="0" data-mml-node="math"><g data-mml-node="mtable"><g data-mml-node="mtr"><g data-mml-node="mtd"><path stroke="none" d="M55-2541.9q1-2 17-109l16-107q0-2 20-2h20v4q0 10 15 17t52 9 169 2h121v39l-68 93-30 40q-21 28-27 37t-21 32-20 36-14 37-13 46-8 54-6 68-3 82v28q0 14-1 24v9q-4 17-19 29t-34 12q-11 0-21-3t-21-19-11-40q0-158 97-328 20-32 84-121l46-63h-93q-174 0-183 6-6 3-11 24t-10 43l-3 21v3H55z" data-c="37" data-mml-node="mn"/><g data-mml-node="msup"><path stroke="none" d="M621-2730.9q0-10 4-23t12-13q1 0 72-5t73-6q12 0 12 8 0 7-50 209-50 198-50 205 19-10 29-19 24-18 69-63t70-61q40-27 76-27 30 0 47 19t18 54q0 25-7 42t-19 25-21 11-18 3q-20 0-32-11t-12-29q0-25 16-41t32-21l16-3q-12-12-24-12h-4q-32 3-63 25t-73 64-66 61q2 1 15 3t24 6 26 8 27 14 22 18 17 26 6 33q0 17-5 41t-6 40q0 40 27 40 48 0 78-119 2-8 20-8h4q16 0 16 9 0 5-3 14-41 141-118 141-45 0-73-26t-28-75q0-18 3-31t3-24q0-22-14-38t-35-23-34-11-18-3h-2q-12 42-21 81t-14 58-9 37-7 24-7 13-11 9q-13 9-28 9-17 0-26-10t-9-17q0-10 37-160t73-295l37-145q1-13-7-16t-39-5h-18q-3 0-7-3t-3-7" data-c="1D458" data-mml-node="mi"/><path stroke="none" d="M1131.063-2800.203q-19.089 0-30.401-12.726t-11.312-31.108q0-50.197 37.471-86.961t93.324-36.764q64.337 0 107.464 39.592t43.834 102.515q0 30.401-14.14 57.974t-33.936 48.076-56.56 52.318q-25.452 21.917-70.7 65.044l-41.713 39.592 53.732.707q110.999 0 118.069-3.535 4.949-1.414 16.968-62.923v-2.121h28.28v2.121q-.707 2.121-9.191 64.337t-10.605 65.044v2.121H1089.35v-21.917q0-4.949 4.242-10.605t21.21-24.745q20.503-22.624 35.35-39.592 6.363-7.07 24.038-26.159t24.038-26.159 20.503-23.331 19.796-24.038 16.261-21.21 14.847-22.624 10.605-20.503 9.191-22.624 4.949-21.21 2.121-23.331q0-44.541-24.038-77.063t-68.579-32.522q-23.331 0-41.006 12.019t-24.745 23.331-7.07 13.433q0 .707 3.535.707 12.726 0 26.159 9.898t13.433 32.522q0 17.675-11.312 29.694t-31.815 12.726" data-c="32" data-mml-node="mn"/></g><path stroke="none" d="M1735.8-2320.9v-13l14-20h299v-150l1-150q10-13 19-13 13 0 20 15v298h298q15 8 15 20t-15 20h-298v298q-8 14-18 14h-4q-12 0-18-14v-298h-299q-14-7-14-20Z" data-c="2B" data-mml-node="mo"/><path stroke="none" d="M2801-2730.9q0-10 4-23t12-13q1 0 72-5t73-6q12 0 12 8 0 7-50 209-50 198-50 205 19-10 29-19 24-18 69-63t70-61q40-27 76-27 30 0 47 19t18 54q0 25-7 42t-19 25-21 11-18 3q-20 0-32-11t-12-29q0-25 16-41t32-21l16-3q-12-12-24-12h-4q-32 3-63 25t-73 64-66 61q2 1 15 3t24 6 26 8 27 14 22 18 17 26 6 33q0 17-5 41t-6 40q0 40 27 40 48 0 78-119 2-8 20-8h4q16 0 16 9 0 5-3 14-41 141-118 141-45 0-73-26t-28-75q0-18 3-31t3-24q0-22-14-38t-35-23-34-11-18-3h-2q-12 42-21 81t-14 58-9 37-7 24-7 13-11 9q-13 9-28 9-17 0-26-10t-9-17q0-10 37-160t73-295l37-145q1-13-7-16t-39-5h-18q-3 0-7-3t-3-7" data-c="1D458" data-mml-node="mi"/></g><g data-mml-node="mtd"><path stroke="none" d="M3534.8-2430.9q0-13 14-20h637q15 8 15 20 0 11-14 19l-318 1h-318q-16-5-16-20m0 194q0-15 16-20h636q14 10 14 20 0 13-15 20h-637q-14-7-14-20" data-c="3D" data-mml-node="mo"/><path stroke="none" d="M4567.6-2240.9q0-101 76-192t171-92q51 0 90 49 16-30 46-30 13 0 23 8t10 20q0 13-37 160t-38 166q0 25 7 33t21 9q9-1 20-9 21-20 41-96 6-20 10-21 2-1 10-1h4q19 0 19 9 0 6-5 27t-20 54-32 50q-13 13-32 21-8 2-24 2-34 0-57-15t-30-31l-6-15q-1-1-4 1l-4 4q-59 56-120 56-55 0-97-40t-42-127m318-171q0-6-5-22t-23-35-46-20q-35 0-67 31t-50 81q-29 79-41 164v11q0 8-1 12 0 45 18 62t43 18q38 0 75-33t44-51q2-4 27-107t26-111" data-c="1D44E" data-mml-node="mi"/><path stroke="none" d="M5157.6-2333.9q0-69 10-131t23-107 37-88 38-67 42-52 33-34 25-21h17q14 0 14 9 0 3-17 21t-41 53-49 86-42 138-17 193 17 192 41 139 49 86 42 53 17 21q0 9-15 9h-16l-28-24q-94-85-137-212t-43-264" data-c="28" data-mml-node="mo"/><path stroke="none" d="M5507.6-2541.9q1-2 17-109l16-107q0-2 20-2h20v4q0 10 15 17t52 9 169 2h121v39l-68 93-30 40q-21 28-27 37t-21 32-20 36-14 37-13 46-8 54-6 68-3 82v28q0 14-1 24v9q-4 17-19 29t-34 12q-11 0-21-3t-21-19-11-40q0-158 97-328 20-32 84-121l46-63h-93q-174 0-183 6-6 3-11 24t-10 43l-3 21v3h-40z" data-c="37" data-mml-node="mn"/><path stroke="none" d="M6073.6-2730.9q0-10 4-23t12-13q1 0 72-5t73-6q12 0 12 8 0 7-50 209-50 198-50 205 19-10 29-19 24-18 69-63t70-61q40-27 76-27 30 0 47 19t18 54q0 25-7 42t-19 25-21 11-18 3q-20 0-32-11t-12-29q0-25 16-41t32-21l16-3q-12-12-24-12h-4q-32 3-63 25t-73 64-66 61q2 1 15 3t24 6 26 8 27 14 22 18 17 26 6 33q0 17-5 41t-6 40q0 40 27 40 48 0 78-119 2-8 20-8h4q16 0 16 9 0 5-3 14-41 141-118 141-45 0-73-26t-28-75q0-18 3-31t3-24q0-22-14-38t-35-23-34-11-18-3h-2q-12 42-21 81t-14 58-9 37-7 24-7 13-11 9q-13 9-28 9-17 0-26-10t-9-17q0-10 37-160t73-295l37-145q1-13-7-16t-39-5h-18q-3 0-7-3t-3-7" data-c="1D458" data-mml-node="mi"/><path stroke="none" d="M6779.8-2320.9v-13l14-20h581q15 8 15 20t-15 20h-581q-14-7-14-20Z" data-c="2212" data-mml-node="mo"/><path stroke="none" d="M7823-2546.9q-27 0-42-17t-16-44q0-55 48-98t116-43q35 0 44 1 74 12 113 53t40 89q0 52-34 101t-94 71l-3 2q0 1 9 3t29 9 38 21q82 53 82 140 0 79-62 138t-157 59q-80 0-138-43t-58-109q0-28 18-45t45-18q28 0 46 18t18 45q0 11-3 20t-7 16-11 12-12 8-10 4-8 3l-4 1q51 45 124 45 55 0 83-53 17-33 17-101v-20q0-95-64-127-15-6-61-7l-42-1-3-2q-2-3-2-16 0-18 8-18 28 0 58-5 34-5 62-42t28-112v-8q0-57-35-79-22-14-47-14-32 0-59 11t-38 23-11 12h3q3 1 8 2t10 5 12 7 10 11 8 15 3 20q0 22-14 39t-45 18" data-c="33" data-mml-node="mn"/><path stroke="none" d="m8256-2832.9 4-1h22l28 24q94 85 137 212t43 264q0 68-10 131t-23 107-37 88-38 67-41 51-32 33-23 19l-4 4h-23q-3 0-5-3t-3-9q1-1 11-13 155-161 155-475t-155-475q-10-12-11-13 0-8 5-11" data-c="29" data-mml-node="mo"/><path stroke="none" d="M8679-2333.9q0-69 10-131t23-107 37-88 38-67 42-52 33-34 25-21h17q14 0 14 9 0 3-17 21t-41 53-49 86-42 138-17 193 17 192 41 139 49 86 42 53 17 21q0 9-15 9h-16l-28-24q-94-85-137-212t-43-264" data-c="28" data-mml-node="mo"/><path stroke="none" d="M9029-2541.9q1-2 17-109l16-107q0-2 20-2h20v4q0 10 15 17t52 9 169 2h121v39l-68 93-30 40q-21 28-27 37t-21 32-20 36-14 37-13 46-8 54-6 68-3 82v28q0 14-1 24v9q-4 17-19 29t-34 12q-11 0-21-3t-21-19-11-40q0-158 97-328 20-32 84-121l46-63h-93q-174 0-183 6-6 3-11 24t-10 43l-3 21v3h-40z" data-c="37" data-mml-node="mn"/><path stroke="none" d="M9595-2730.9q0-10 4-23t12-13q1 0 72-5t73-6q12 0 12 8 0 7-50 209-50 198-50 205 19-10 29-19 24-18 69-63t70-61q40-27 76-27 30 0 47 19t18 54q0 25-7 42t-19 25-21 11-18 3q-20 0-32-11t-12-29q0-25 16-41t32-21l16-3q-12-12-24-12h-4q-32 3-63 25t-73 64-66 61q2 1 15 3t24 6 26 8 27 14 22 18 17 26 6 33q0 17-5 41t-6 40q0 40 27 40 48 0 78-119 2-8 20-8h4q16 0 16 9 0 5-3 14-41 141-118 141-45 0-73-26t-28-75q0-18 3-31t3-24q0-22-14-38t-35-23-34-11-18-3h-2q-12 42-21 81t-14 58-9 37-7 24-7 13-11 9q-13 9-28 9-17 0-26-10t-9-17q0-10 37-160t73-295l37-145q1-13-7-16t-39-5h-18q-3 0-7-3t-3-7" data-c="1D458" data-mml-node="mi"/><path stroke="none" d="M10273.2-2320.9v-13l14-20h299v-150l1-150q10-13 19-13 13 0 20 15v298h298q15 8 15 20t-15 20h-298v298q-8 14-18 14h-4q-12 0-18-14v-298h-299q-14-7-14-20Z" data-c="2B" data-mml-node="mo"/><path stroke="none" d="M11679.4-2083.9q-18-3-129-3-116 0-134 3h-9v-46h58q7 0 17-2t14-5 7-8q1-2 1-54v-50h-259v-46l151-231q153-232 155-233 2-2 21-2h18l6 6v460h92v46h-92v99q0 7 6 12 8 7 57 8h29v46zm-169-211v-334l-219 333 109 1z" data-c="34" data-mml-node="mn"/><path stroke="none" d="m11777.4-2832.9 4-1h22l28 24q94 85 137 212t43 264q0 68-10 131t-23 107-37 88-38 67-41 51-32 33-23 19l-4 4h-23q-3 0-5-3t-3-9q1-1 11-13 155-161 155-475t-155-475q-10-12-11-13 0-8 5-11" data-c="29" data-mml-node="mo"/><path stroke="none" d="M12384.7-2320.9v-13l14-20h299v-150l1-150q10-13 19-13 13 0 20 15v298h298q15 8 15 20t-15 20h-298v298q-8 14-18 14h-4q-12 0-18-14v-298h-299q-14-7-14-20Z" data-c="2B" data-mml-node="mo"/><path stroke="none" d="M13401.9-2730.9q0-10 4-23t12-13q1 0 72-5t73-6q12 0 12 9t-34 143q-8 34-17 70t-15 54l-4 19q0 3 6-3 49-40 101-40 62 0 100 46t39 116q0 111-79 201t-170 90q-50 0-91-38t-42-123v-9q0-21 8-58t49-197q50-197 50-209t-38-14h-26q-3 0-7-3t-3-7m263 322v-6q0-74-61-74-17 0-35 8t-33 21-26 24-18 22l-6 8-21 86q-22 86-22 122 0 48 24 72 16 16 40 16 33 0 67-32 25-23 40-56t33-105 18-106" data-c="1D44F" data-mml-node="mi"/><path stroke="none" d="M13851.9-2333.9q0-69 10-131t23-107 37-88 38-67 42-52 33-34 25-21h17q14 0 14 9 0 3-17 21t-41 53-49 86-42 138-17 193 17 192 41 139 49 86 42 53 17 21q0 9-15 9h-16l-28-24q-94-85-137-212t-43-264" data-c="28" data-mml-node="mo"/><path stroke="none" d="M14201.9-2541.9q1-2 17-109l16-107q0-2 20-2h20v4q0 10 15 17t52 9 169 2h121v39l-68 93-30 40q-21 28-27 37t-21 32-20 36-14 37-13 46-8 54-6 68-3 82v28q0 14-1 24v9q-4 17-19 29t-34 12q-11 0-21-3t-21-19-11-40q0-158 97-328 20-32 84-121l46-63h-93q-174 0-183 6-6 3-11 24t-10 43l-3 21v3h-40z" data-c="37" data-mml-node="mn"/><path stroke="none" d="M14767.9-2730.9q0-10 4-23t12-13q1 0 72-5t73-6q12 0 12 8 0 7-50 209-50 198-50 205 19-10 29-19 24-18 69-63t70-61q40-27 76-27 30 0 47 19t18 54q0 25-7 42t-19 25-21 11-18 3q-20 0-32-11t-12-29q0-25 16-41t32-21l16-3q-12-12-24-12h-4q-32 3-63 25t-73 64-66 61q2 1 15 3t24 6 26 8 27 14 22 18 17 26 6 33q0 17-5 41t-6 40q0 40 27 40 48 0 78-119 2-8 20-8h4q16 0 16 9 0 5-3 14-41 141-118 141-45 0-73-26t-28-75q0-18 3-31t3-24q0-22-14-38t-35-23-34-11-18-3h-2q-12 42-21 81t-14 58-9 37-7 24-7 13-11 9q-13 9-28 9-17 0-26-10t-9-17q0-10 37-160t73-295l37-145q1-13-7-16t-39-5h-18q-3 0-7-3t-3-7" data-c="1D458" data-mml-node="mi"/><path stroke="none" d="M15446.1-2320.9v-13l14-20h299v-150l1-150q10-13 19-13 13 0 20 15v298h298q15 8 15 20t-15 20h-298v298q-8 14-18 14h-4q-12 0-18-14v-298h-299q-14-7-14-20Z" data-c="2B" data-mml-node="mo"/><path stroke="none" d="M16852.3-2083.9q-18-3-129-3-116 0-134 3h-9v-46h58q7 0 17-2t14-5 7-8q1-2 1-54v-50h-259v-46l151-231q153-232 155-233 2-2 21-2h18l6 6v460h92v46h-92v99q0 7 6 12 8 7 57 8h29v46zm-169-211v-334l-219 333 109 1z" data-c="34" data-mml-node="mn"/><path stroke="none" d="m16950.3-2832.9 4-1h22l28 24q94 85 137 212t43 264q0 68-10 131t-23 107-37 88-38 67-41 51-32 33-23 19l-4 4h-23q-3 0-5-3t-3-9q1-1 11-13 155-161 155-475t-155-475q-10-12-11-13 0-8 5-11" data-c="29" data-mml-node="mo"/><path stroke="none" d="M17585.6-2320.9v-13l14-20h581q15 8 15 20t-15 20h-581q-14-7-14-20Z" data-c="2212" data-mml-node="mo"/><path stroke="none" d="M18574.8-2730.9q0-10 4-23t12-13q1 0 72-5t73-6q12 0 12 9t-34 143q-8 34-17 70t-15 54l-4 19q0 3 6-3 49-40 101-40 62 0 100 46t39 116q0 111-79 201t-170 90q-50 0-91-38t-42-123v-9q0-21 8-58t49-197q50-197 50-209t-38-14h-26q-3 0-7-3t-3-7m263 322v-6q0-74-61-74-17 0-35 8t-33 21-26 24-18 22l-6 8-21 86q-22 86-22 122 0 48 24 72 16 16 40 16 33 0 67-32 25-23 40-56t33-105 18-106" data-c="1D44F" data-mml-node="mi"/><path stroke="none" d="M19024.8-2333.9q0-69 10-131t23-107 37-88 38-67 42-52 33-34 25-21h17q14 0 14 9 0 3-17 21t-41 53-49 86-42 138-17 193 17 192 41 139 49 86 42 53 17 21q0 9-15 9h-16l-28-24q-94-85-137-212t-43-264" data-c="28" data-mml-node="mo"/><path stroke="none" d="M19374.8-2541.9q1-2 17-109l16-107q0-2 20-2h20v4q0 10 15 17t52 9 169 2h121v39l-68 93-30 40q-21 28-27 37t-21 32-20 36-14 37-13 46-8 54-6 68-3 82v28q0 14-1 24v9q-4 17-19 29t-34 12q-11 0-21-3t-21-19-11-40q0-158 97-328 20-32 84-121l46-63h-93q-174 0-183 6-6 3-11 24t-10 43l-3 21v3h-40z" data-c="37" data-mml-node="mn"/><path stroke="none" d="M19940.8-2730.9q0-10 4-23t12-13q1 0 72-5t73-6q12 0 12 8 0 7-50 209-50 198-50 205 19-10 29-19 24-18 69-63t70-61q40-27 76-27 30 0 47 19t18 54q0 25-7 42t-19 25-21 11-18 3q-20 0-32-11t-12-29q0-25 16-41t32-21l16-3q-12-12-24-12h-4q-32 3-63 25t-73 64-66 61q2 1 15 3t24 6 26 8 27 14 22 18 17 26 6 33q0 17-5 41t-6 40q0 40 27 40 48 0 78-119 2-8 20-8h4q16 0 16 9 0 5-3 14-41 141-118 141-45 0-73-26t-28-75q0-18 3-31t3-24q0-22-14-38t-35-23-34-11-18-3h-2q-12 42-21 81t-14 58-9 37-7 24-7 13-11 9q-13 9-28 9-17 0-26-10t-9-17q0-10 37-160t73-295l37-145q1-13-7-16t-39-5h-18q-3 0-7-3t-3-7" data-c="1D458" data-mml-node="mi"/><path stroke="none" d="M20647-2320.9v-13l14-20h581q15 8 15 20t-15 20h-581q-14-7-14-20Z" data-c="2212" data-mml-node="mo"/><path stroke="none" d="M21690.2-2546.9q-27 0-42-17t-16-44q0-55 48-98t116-43q35 0 44 1 74 12 113 53t40 89q0 52-34 101t-94 71l-3 2q0 1 9 3t29 9 38 21q82 53 82 140 0 79-62 138t-157 59q-80 0-138-43t-58-109q0-28 18-45t45-18q28 0 46 18t18 45q0 11-3 20t-7 16-11 12-12 8-10 4-8 3l-4 1q51 45 124 45 55 0 83-53 17-33 17-101v-20q0-95-64-127-15-6-61-7l-42-1-3-2q-2-3-2-16 0-18 8-18 28 0 58-5 34-5 62-42t28-112v-8q0-57-35-79-22-14-47-14-32 0-59 11t-38 23-11 12h3q3 1 8 2t10 5 12 7 10 11 8 15 3 20q0 22-14 39t-45 18" data-c="33" data-mml-node="mn"/><path stroke="none" d="m22123.2-2832.9 4-1h22l28 24q94 85 137 212t43 264q0 68-10 131t-23 107-37 88-38 67-41 51-32 33-23 19l-4 4h-23q-3 0-5-3t-3-9q1-1 11-13 155-161 155-475t-155-475q-10-12-11-13 0-8 5-11" data-c="29" data-mml-node="mo"/></g></g><g data-mml-node="mtr"><g data-mml-node="mtd"><path stroke="none" d="M55-1108q1-2 17-109l16-107q0-2 20-2h20v4q0 10 15 17t52 9 169 2h121v39l-68 93-30 40q-21 28-27 37t-21 32-20 36-14 37-13 46-8 54-6 68-3 82v28q0 14-1 24v9q-4 17-19 29t-34 12q-11 0-21-3t-21-19-11-40q0-158 97-328 20-32 84-121l46-63h-93q-174 0-183 6-6 3-11 24t-10 43l-3 21v3H55z" data-c="37" data-mml-node="mn"/><g data-mml-node="msup"><path stroke="none" d="M621-1297q0-10 4-23t12-13q1 0 72-5t73-6q12 0 12 8 0 7-50 209-50 198-50 205 19-10 29-19 24-18 69-63t70-61q40-27 76-27 30 0 47 19t18 54q0 25-7 42t-19 25-21 11-18 3q-20 0-32-11t-12-29q0-25 16-41t32-21l16-3q-12-12-24-12h-4q-32 3-63 25t-73 64-66 61q2 1 15 3t24 6 26 8 27 14 22 18 17 26 6 33q0 17-5 41t-6 40q0 40 27 40 48 0 78-119 2-8 20-8h4q16 0 16 9 0 5-3 14-41 141-118 141-45 0-73-26t-28-75q0-18 3-31t3-24q0-22-14-38t-35-23-34-11-18-3h-2q-12 42-21 81t-14 58-9 37-7 24-7 13-11 9q-13 9-28 9-17 0-26-10t-9-17q0-10 37-160t73-295l37-145q1-13-7-16t-39-5h-18q-3 0-7-3t-3-7" data-c="1D458" data-mml-node="mi"/><path stroke="none" d="M1131.063-1366.303q-19.089 0-30.401-12.726t-11.312-31.108q0-50.197 37.471-86.961t93.324-36.764q64.337 0 107.464 39.592t43.834 102.515q0 30.401-14.14 57.974t-33.936 48.076-56.56 52.318q-25.452 21.917-70.7 65.044l-41.713 39.592 53.732.707q110.999 0 118.069-3.535 4.949-1.414 16.968-62.923v-2.121h28.28v2.121q-.707 2.121-9.191 64.337t-10.605 65.044v2.121H1089.35v-21.917q0-4.949 4.242-10.605t21.21-24.745q20.503-22.624 35.35-39.592 6.363-7.07 24.038-26.159t24.038-26.159 20.503-23.331 19.796-24.038 16.261-21.21 14.847-22.624 10.605-20.503 9.191-22.624 4.949-21.21 2.121-23.331q0-44.541-24.038-77.063t-68.579-32.522q-23.331 0-41.006 12.019t-24.745 23.331-7.07 13.433q0 .707 3.535.707 12.726 0 26.159 9.898t13.433 32.522q0 17.675-11.312 29.694t-31.815 12.726" data-c="32" data-mml-node="mn"/></g><path stroke="none" d="M1735.8-887v-13l14-20h299v-150l1-150q10-13 19-13 13 0 20 15v298h298q15 8 15 20t-15 20h-298v298q-8 14-18 14h-4q-12 0-18-14v-298h-299q-14-7-14-20Z" data-c="2B" data-mml-node="mo"/><path stroke="none" d="M2801-1297q0-10 4-23t12-13q1 0 72-5t73-6q12 0 12 8 0 7-50 209-50 198-50 205 19-10 29-19 24-18 69-63t70-61q40-27 76-27 30 0 47 19t18 54q0 25-7 42t-19 25-21 11-18 3q-20 0-32-11t-12-29q0-25 16-41t32-21l16-3q-12-12-24-12h-4q-32 3-63 25t-73 64-66 61q2 1 15 3t24 6 26 8 27 14 22 18 17 26 6 33q0 17-5 41t-6 40q0 40 27 40 48 0 78-119 2-8 20-8h4q16 0 16 9 0 5-3 14-41 141-118 141-45 0-73-26t-28-75q0-18 3-31t3-24q0-22-14-38t-35-23-34-11-18-3h-2q-12 42-21 81t-14 58-9 37-7 24-7 13-11 9q-13 9-28 9-17 0-26-10t-9-17q0-10 37-160t73-295l37-145q1-13-7-16t-39-5h-18q-3 0-7-3t-3-7" data-c="1D458" data-mml-node="mi"/></g><g data-mml-node="mtd"><path stroke="none" d="M3534.8-997q0-13 14-20h637q15 8 15 20 0 11-14 19l-318 1h-318q-16-5-16-20m0 194q0-15 16-20h636q14 10 14 20 0 13-15 20h-637q-14-7-14-20" data-c="3D" data-mml-node="mo"/><path stroke="none" d="M4567.6-807q0-101 76-192t171-92q51 0 90 49 16-30 46-30 13 0 23 8t10 20q0 13-37 160t-38 166q0 25 7 33t21 9q9-1 20-9 21-20 41-96 6-20 10-21 2-1 10-1h4q19 0 19 9 0 6-5 27t-20 54-32 50q-13 13-32 21-8 2-24 2-34 0-57-15t-30-31l-6-15q-1-1-4 1l-4 4q-59 56-120 56-55 0-97-40t-42-127m318-171q0-6-5-22t-23-35-46-20q-35 0-67 31t-50 81q-29 79-41 164v11q0 8-1 12 0 45 18 62t43 18q38 0 75-33t44-51q2-4 27-107t26-111" data-c="1D44E" data-mml-node="mi"/><path stroke="none" d="M5157.6-900q0-69 10-131t23-107 37-88 38-67 42-52 33-34 25-21h17q14 0 14 9 0 3-17 21t-41 53-49 86-42 138-17 193 17 192 41 139 49 86 42 53 17 21q0 9-15 9h-16l-28-24q-94-85-137-212t-43-264" data-c="28" data-mml-node="mo"/><g stroke="none" data-mml-node="mn"><path d="M5914.6-650q-18-3-129-3-116 0-134 3h-9v-46h58q7 0 17-2t14-5 7-8q1-2 1-54v-50h-259v-46l151-231q153-232 155-233 2-2 21-2h18l6 6v460h92v46h-92v99q0 7 6 12 8 7 57 8h29v46zm-169-211v-334l-219 333 109 1z" data-c="34"/><path d="M6304.6-937q-48 76-120 76-78 0-128-59t-60-126q-2-16-2-40v-8q0-93 69-162 60-60 132-60h6q4 0 8 1h4q12 0 25 2t37 12 47 32 43 59q43 88 43 226 0 140-60 237-35 56-84 87t-104 32q-61 0-100-29t-40-86 53-56q22 0 37 14t15 39q0 18-9 31t-16 16-13 5l-4 1q0 2 7 6t26 10 42 5h6q60 0 101-64 39-56 39-194zm-108 39q48 0 77-49t30-133q0-78-8-112-2-10-6-20t-14-26-30-27-47-10q-38 0-65 27-21 22-27 52t-7 105q0 83 5 112t20 47q25 34 72 34" data-c="39"/></g><g data-mml-node="msup"><path stroke="none" d="M6573.6-1297q0-10 4-23t12-13q1 0 72-5t73-6q12 0 12 8 0 7-50 209-50 198-50 205 19-10 29-19 24-18 69-63t70-61q40-27 76-27 30 0 47 19t18 54q0 25-7 42t-19 25-21 11-18 3q-20 0-32-11t-12-29q0-25 16-41t32-21l16-3q-12-12-24-12h-4q-32 3-63 25t-73 64-66 61q2 1 15 3t24 6 26 8 27 14 22 18 17 26 6 33q0 17-5 41t-6 40q0 40 27 40 48 0 78-119 2-8 20-8h4q16 0 16 9 0 5-3 14-41 141-118 141-45 0-73-26t-28-75q0-18 3-31t3-24q0-22-14-38t-35-23-34-11-18-3h-2q-12 42-21 81t-14 58-9 37-7 24-7 13-11 9q-13 9-28 9-17 0-26-10t-9-17q0-10 37-160t73-295l37-145q1-13-7-16t-39-5h-18q-3 0-7-3t-3-7" data-c="1D458" data-mml-node="mi"/><path stroke="none" d="M7083.663-1366.303q-19.089 0-30.401-12.726t-11.312-31.108q0-50.197 37.471-86.961t93.324-36.764q64.337 0 107.464 39.592t43.834 102.515q0 30.401-14.14 57.974t-33.936 48.076-56.56 52.318q-25.452 21.917-70.7 65.044l-41.713 39.592 53.732.707q110.999 0 118.069-3.535 4.949-1.414 16.968-62.923v-2.121h28.28v2.121q-.707 2.121-9.191 64.337t-10.605 65.044v2.121H7041.95v-21.917q0-4.949 4.242-10.605t21.21-24.745q20.503-22.624 35.35-39.592 6.363-7.07 24.038-26.159t24.038-26.159 20.503-23.331 19.796-24.038 16.261-21.21 14.847-22.624 10.605-20.503 9.191-22.624 4.949-21.21 2.121-23.331q0-44.541-24.038-77.063t-68.579-32.522q-23.331 0-41.006 12.019t-24.745 23.331-7.07 13.433q0 .707 3.535.707 12.726 0 26.159 9.898t13.433 32.522q0 17.675-11.312 29.694t-31.815 12.726" data-c="32" data-mml-node="mn"/></g><path stroke="none" d="M7688.3-887v-13l14-20h299v-150l1-150q10-13 19-13 13 0 20 15v298h298q15 8 15 20t-15 20h-298v298q-8 14-18 14h-4q-12 0-18-14v-298h-299q-14-7-14-20Z" data-c="2B" data-mml-node="mo"/><g stroke="none" data-mml-node="mn"><path d="M8741.6-1079q-27 0-43-18t-16-44q0-71 53-123t132-52q91 0 152 56t62 145q0 43-20 82t-48 68-80 74q-36 31-100 92l-59 56 76 1q157 0 167-5 7-2 24-89v-3h40v3q-1 3-13 91t-15 92v3h-371v-31q0-7 6-15t30-35q29-32 50-56 9-10 34-37t34-37 29-33 28-34 23-30 21-32 15-29 13-32 7-30 3-33q0-63-34-109t-97-46q-33 0-58 17t-35 33-10 19q0 1 5 1 18 0 37 14t19 46q0 25-16 42t-45 18" data-c="32"/><path d="M9202.6-1067v-77l54-124 124-48q71 0 126 42t55 109q0 30-11 56t-26 42-31 28-26 18-11 8l14 9 28 20q14 10 16 11 75 59 75 149 0 79-58 137t-150 59q-90 0-148-51t-58-126q0-108 129-180l-18-13q-21-13-27-20-57-49-57-126Zm216 31 6-4 9-6q3-2 10-7t12-10 11-12 11-13 10-16 9-17 5-20 2-22q0-43-29-73t-67-38q-7-1-33-1-41 0-77 26t-37 65q0 23 13 42t26 29 50 32q7 5 11 7zm-36 365q58 0 100-34t42-82q0-17-5-32t-12-25-22-22-23-18-29-19-27-17q-14-9-30-19t-26-17l-8-5q-6 0-29 17t-48 55-26 82q0 59 43 97t100 39" data-c="38"/></g><path stroke="none" d="M9753.6-1297q0-10 4-23t12-13q1 0 72-5t73-6q12 0 12 8 0 7-50 209-50 198-50 205 19-10 29-19 24-18 69-63t70-61q40-27 76-27 30 0 47 19t18 54q0 25-7 42t-19 25-21 11-18 3q-20 0-32-11t-12-29q0-25 16-41t32-21l16-3q-12-12-24-12h-4q-32 3-63 25t-73 64-66 61q2 1 15 3t24 6 26 8 27 14 22 18 17 26 6 33q0 17-5 41t-6 40q0 40 27 40 48 0 78-119 2-8 20-8h4q16 0 16 9 0 5-3 14-41 141-118 141-45 0-73-26t-28-75q0-18 3-31t3-24q0-22-14-38t-35-23-34-11-18-3h-2q-12 42-21 81t-14 58-9 37-7 24-7 13-11 9q-13 9-28 9-17 0-26-10t-9-17q0-10 37-160t73-295l37-145q1-13-7-16t-39-5h-18q-3 0-7-3t-3-7" data-c="1D458" data-mml-node="mi"/><path stroke="none" d="M10459.8-887v-13l14-20h581q15 8 15 20t-15 20h-581q-14-7-14-20Z" data-c="2212" data-mml-node="mo"/><g stroke="none" data-mml-node="mn"><path d="M11485-1079q-27 0-43-18t-16-44q0-71 53-123t132-52q91 0 152 56t62 145q0 43-20 82t-48 68-80 74q-36 31-100 92l-59 56 76 1q157 0 167-5 7-2 24-89v-3h40v3q-1 3-13 91t-15 92v3h-371v-31q0-7 6-15t30-35q29-32 50-56 9-10 34-37t34-37 29-33 28-34 23-30 21-32 15-29 13-32 7-30 3-33q0-63-34-109t-97-46q-33 0-58 17t-35 33-10 19q0 1 5 1 18 0 37 14t19 46q0 25-16 42t-45 18" data-c="32"/><path d="m12089-1228-13 5q-14 5-40 10t-58 7h-19v-46h19q47-2 87-15t56-24 28-22q2-3 12-3 9 0 17 6v299l1 300q7 7 12 9t24 4 62 2h26v46h-11q-21-3-159-3-136 0-157 3h-12v-46h64q16 0 25-1t16-3 8-2 6-5 6-4z" data-c="31"/></g><path stroke="none" d="M12497-1297q0-10 4-23t12-13q1 0 72-5t73-6q12 0 12 8 0 7-50 209-50 198-50 205 19-10 29-19 24-18 69-63t70-61q40-27 76-27 30 0 47 19t18 54q0 25-7 42t-19 25-21 11-18 3q-20 0-32-11t-12-29q0-25 16-41t32-21l16-3q-12-12-24-12h-4q-32 3-63 25t-73 64-66 61q2 1 15 3t24 6 26 8 27 14 22 18 17 26 6 33q0 17-5 41t-6 40q0 40 27 40 48 0 78-119 2-8 20-8h4q16 0 16 9 0 5-3 14-41 141-118 141-45 0-73-26t-28-75q0-18 3-31t3-24q0-22-14-38t-35-23-34-11-18-3h-2q-12 42-21 81t-14 58-9 37-7 24-7 13-11 9q-13 9-28 9-17 0-26-10t-9-17q0-10 37-160t73-295l37-145q1-13-7-16t-39-5h-18q-3 0-7-3t-3-7" data-c="1D458" data-mml-node="mi"/><path stroke="none" d="M13203.2-887v-13l14-20h581q15 8 15 20t-15 20h-581q-14-7-14-20Z" data-c="2212" data-mml-node="mo"/><g stroke="none" data-mml-node="mn"><path d="m14332.4-1228-13 5q-14 5-40 10t-58 7h-19v-46h19q47-2 87-15t56-24 28-22q2-3 12-3 9 0 17 6v299l1 300q7 7 12 9t24 4 62 2h26v46h-11q-21-3-159-3-136 0-157 3h-12v-46h64q16 0 25-1t16-3 8-2 6-5 6-4z" data-c="31"/><path d="M14728.4-1079q-27 0-43-18t-16-44q0-71 53-123t132-52q91 0 152 56t62 145q0 43-20 82t-48 68-80 74q-36 31-100 92l-59 56 76 1q157 0 167-5 7-2 24-89v-3h40v3q-1 3-13 91t-15 92v3h-371v-31q0-7 6-15t30-35q29-32 50-56 9-10 34-37t34-37 29-33 28-34 23-30 21-32 15-29 13-32 7-30 3-33q0-63-34-109t-97-46q-33 0-58 17t-35 33-10 19q0 1 5 1 18 0 37 14t19 46q0 25-16 42t-45 18" data-c="32"/></g><path stroke="none" d="m15179.4-1399 4-1h22l28 24q94 85 137 212t43 264q0 68-10 131t-23 107-37 88-38 67-41 51-32 33-23 19l-4 4h-23q-3 0-5-3t-3-9q1-1 11-13 155-161 155-475t-155-475q-10-12-11-13 0-8 5-11" data-c="29" data-mml-node="mo"/><path stroke="none" d="M15786.7-887v-13l14-20h299v-150l1-150q10-13 19-13 13 0 20 15v298h298q15 8 15 20t-15 20h-298v298q-8 14-18 14h-4q-12 0-18-14v-298h-299q-14-7-14-20Z" data-c="2B" data-mml-node="mo"/><path stroke="none" d="M16785.9-1108q1-2 17-109l16-107q0-2 20-2h20v4q0 10 15 17t52 9 169 2h121v39l-68 93-30 40q-21 28-27 37t-21 32-20 36-14 37-13 46-8 54-6 68-3 82v28q0 14-1 24v9q-4 17-19 29t-34 12q-11 0-21-3t-21-19-11-40q0-158 97-328 20-32 84-121l46-63h-93q-174 0-183 6-6 3-11 24t-10 43l-3 21v3h-40z" data-c="37" data-mml-node="mn"/><path stroke="none" d="M17351.9-1297q0-10 4-23t12-13q1 0 72-5t73-6q12 0 12 8 0 7-50 209-50 198-50 205 19-10 29-19 24-18 69-63t70-61q40-27 76-27 30 0 47 19t18 54q0 25-7 42t-19 25-21 11-18 3q-20 0-32-11t-12-29q0-25 16-41t32-21l16-3q-12-12-24-12h-4q-32 3-63 25t-73 64-66 61q2 1 15 3t24 6 26 8 27 14 22 18 17 26 6 33q0 17-5 41t-6 40q0 40 27 40 48 0 78-119 2-8 20-8h4q16 0 16 9 0 5-3 14-41 141-118 141-45 0-73-26t-28-75q0-18 3-31t3-24q0-22-14-38t-35-23-34-11-18-3h-2q-12 42-21 81t-14 58-9 37-7 24-7 13-11 9q-13 9-28 9-17 0-26-10t-9-17q0-10 37-160t73-295l37-145q1-13-7-16t-39-5h-18q-3 0-7-3t-3-7" data-c="1D458" data-mml-node="mi"/><path stroke="none" d="M17824.9-1297q0-10 4-23t12-13q1 0 72-5t73-6q12 0 12 9t-34 143q-8 34-17 70t-15 54l-4 19q0 3 6-3 49-40 101-40 62 0 100 46t39 116q0 111-79 201t-170 90q-50 0-91-38t-42-123v-9q0-21 8-58t49-197q50-197 50-209t-38-14h-26q-3 0-7-3t-3-7m263 322v-6q0-74-61-74-17 0-35 8t-33 21-26 24-18 22l-6 8-21 86q-22 86-22 122 0 48 24 72 16 16 40 16 33 0 67-32 25-23 40-56t33-105 18-106" data-c="1D44F" data-mml-node="mi"/><path stroke="none" d="M18459.1-887v-13l14-20h299v-150l1-150q10-13 19-13 13 0 20 15v298h298q15 8 15 20t-15 20h-298v298q-8 14-18 14h-4q-12 0-18-14v-298h-299q-14-7-14-20Z" data-c="2B" data-mml-node="mo"/><path stroke="none" d="M19865.3-650q-18-3-129-3-116 0-134 3h-9v-46h58q7 0 17-2t14-5 7-8q1-2 1-54v-50h-259v-46l151-231q153-232 155-233 2-2 21-2h18l6 6v460h92v46h-92v99q0 7 6 12 8 7 57 8h29v46zm-169-211v-334l-219 333 109 1z" data-c="34" data-mml-node="mn"/><path stroke="none" d="M19976.3-1297q0-10 4-23t12-13q1 0 72-5t73-6q12 0 12 9t-34 143q-8 34-17 70t-15 54l-4 19q0 3 6-3 49-40 101-40 62 0 100 46t39 116q0 111-79 201t-170 90q-50 0-91-38t-42-123v-9q0-21 8-58t49-197q50-197 50-209t-38-14h-26q-3 0-7-3t-3-7m263 322v-6q0-74-61-74-17 0-35 8t-33 21-26 24-18 22l-6 8-21 86q-22 86-22 122 0 48 24 72 16 16 40 16 33 0 67-32 25-23 40-56t33-105 18-106" data-c="1D44F" data-mml-node="mi"/><path stroke="none" d="M20638.6-887v-13l14-20h581q15 8 15 20t-15 20h-581q-14-7-14-20Z" data-c="2212" data-mml-node="mo"/><path stroke="none" d="M21609.8-1108q1-2 17-109l16-107q0-2 20-2h20v4q0 10 15 17t52 9 169 2h121v39l-68 93-30 40q-21 28-27 37t-21 32-20 36-14 37-13 46-8 54-6 68-3 82v28q0 14-1 24v9q-4 17-19 29t-34 12q-11 0-21-3t-21-19-11-40q0-158 97-328 20-32 84-121l46-63h-93q-174 0-183 6-6 3-11 24t-10 43l-3 21v3h-40z" data-c="37" data-mml-node="mn"/><path stroke="none" d="M22175.8-1297q0-10 4-23t12-13q1 0 72-5t73-6q12 0 12 8 0 7-50 209-50 198-50 205 19-10 29-19 24-18 69-63t70-61q40-27 76-27 30 0 47 19t18 54q0 25-7 42t-19 25-21 11-18 3q-20 0-32-11t-12-29q0-25 16-41t32-21l16-3q-12-12-24-12h-4q-32 3-63 25t-73 64-66 61q2 1 15 3t24 6 26 8 27 14 22 18 17 26 6 33q0 17-5 41t-6 40q0 40 27 40 48 0 78-119 2-8 20-8h4q16 0 16 9 0 5-3 14-41 141-118 141-45 0-73-26t-28-75q0-18 3-31t3-24q0-22-14-38t-35-23-34-11-18-3h-2q-12 42-21 81t-14 58-9 37-7 24-7 13-11 9q-13 9-28 9-17 0-26-10t-9-17q0-10 37-160t73-295l37-145q1-13-7-16t-39-5h-18q-3 0-7-3t-3-7" data-c="1D458" data-mml-node="mi"/><path stroke="none" d="M22648.8-1297q0-10 4-23t12-13q1 0 72-5t73-6q12 0 12 9t-34 143q-8 34-17 70t-15 54l-4 19q0 3 6-3 49-40 101-40 62 0 100 46t39 116q0 111-79 201t-170 90q-50 0-91-38t-42-123v-9q0-21 8-58t49-197q50-197 50-209t-38-14h-26q-3 0-7-3t-3-7m263 322v-6q0-74-61-74-17 0-35 8t-33 21-26 24-18 22l-6 8-21 86q-22 86-22 122 0 48 24 72 16 16 40 16 33 0 67-32 25-23 40-56t33-105 18-106" data-c="1D44F" data-mml-node="mi"/><path stroke="none" d="M23283-887v-13l14-20h299v-150l1-150q10-13 19-13 13 0 20 15v298h298q15 8 15 20t-15 20h-298v298q-8 14-18 14h-4q-12 0-18-14v-298h-299q-14-7-14-20Z" data-c="2B" data-mml-node="mo"/><path stroke="none" d="M24354.2-1113q-27 0-42-17t-16-44q0-55 48-98t116-43q35 0 44 1 74 12 113 53t40 89q0 52-34 101t-94 71l-3 2q0 1 9 3t29 9 38 21q82 53 82 140 0 79-62 138t-157 59q-80 0-138-43t-58-109q0-28 18-45t45-18q28 0 46 18t18 45q0 11-3 20t-7 16-11 12-12 8-10 4-8 3l-4 1q51 45 124 45 55 0 83-53 17-33 17-101v-20q0-95-64-127-15-6-61-7l-42-1-3-2q-2-3-2-16 0-18 8-18 28 0 58-5 34-5 62-42t28-112v-8q0-57-35-79-22-14-47-14-32 0-59 11t-38 23-11 12h3q3 1 8 2t10 5 12 7 10 11 8 15 3 20q0 22-14 39t-45 18" data-c="33" data-mml-node="mn"/><path stroke="none" d="M24800.2-1297q0-10 4-23t12-13q1 0 72-5t73-6q12 0 12 9t-34 143q-8 34-17 70t-15 54l-4 19q0 3 6-3 49-40 101-40 62 0 100 46t39 116q0 111-79 201t-170 90q-50 0-91-38t-42-123v-9q0-21 8-58t49-197q50-197 50-209t-38-14h-26q-3 0-7-3t-3-7m263 322v-6q0-74-61-74-17 0-35 8t-33 21-26 24-18 22l-6 8-21 86q-22 86-22 122 0 48 24 72 16 16 40 16 33 0 67-32 25-23 40-56t33-105 18-106" data-c="1D44F" data-mml-node="mi"/></g></g><g data-mml-node="mtr"><g data-mml-node="mtd"><path stroke="none" d="M2797 198.9q56-81 153-81 48 0 96 26t78 92q37 83 37 228 0 155-43 237-20 42-55 67t-61 31-51 7q-26 0-52-6t-61-32-55-67q-43-82-43-237 0-174 57-265m225-12q-30-32-71-32-42 0-72 32-25 26-33 72t-8 192q0 158 8 208t36 79q28 30 69 30 40 0 68-30 29-30 36-84t8-203q0-145-8-191t-33-73" data-c="30" data-mml-node="mn"/></g><g data-mml-node="mtd"><path stroke="none" d="M3534.8 436.9q0-13 14-20h637q15 8 15 20 0 11-14 19l-318 1h-318q-16-5-16-20m0 194q0-15 16-20h636q14 10 14 20 0 13-15 20h-637q-14-7-14-20" data-c="3D" data-mml-node="mo"/><g stroke="none" data-mml-node="mn"><path d="M4996.6 783.9q-18-3-129-3-116 0-134 3h-9v-46h58q7 0 17-2t14-5 7-8q1-2 1-54v-50h-259v-46l151-231q153-232 155-233 2-2 21-2h18l6 6v460h92v46h-92v99q0 7 6 12 8 7 57 8h29v46zm-169-211v-334l-219 333 109 1z" data-c="34"/><path d="M5386.6 496.9q-48 76-120 76-78 0-128-59t-60-126q-2-16-2-40v-8q0-93 69-162 60-60 132-60h6q4 0 8 1h4q12 0 25 2t37 12 47 32 43 59q43 88 43 226 0 140-60 237-35 56-84 87t-104 32q-61 0-100-29t-40-86 53-56q22 0 37 14t15 39q0 18-9 31t-16 16-13 5l-4 1q0 2 7 6t26 10 42 5h6q60 0 101-64 39-56 39-194zm-108 39q48 0 77-49t30-133q0-78-8-112-2-10-6-20t-14-26-30-27-47-10q-38 0-65 27-21 22-27 52t-7 105q0 83 5 112t20 47q25 34 72 34" data-c="39"/></g><path stroke="none" d="M5567.6 626.9q0-101 76-192t171-92q51 0 90 49 16-30 46-30 13 0 23 8t10 20q0 13-37 160t-38 166q0 25 7 33t21 9q9-1 20-9 21-20 41-96 6-20 10-21 2-1 10-1h4q19 0 19 9 0 6-5 27t-20 54-32 50q-13 13-32 21-8 2-24 2-34 0-57-15t-30-31l-6-15q-1-1-4 1l-4 4q-59 56-120 56-55 0-97-40t-42-127m318-171q0-6-5-22t-23-35-46-20q-35 0-67 31t-50 81q-29 79-41 164v11q0 8-1 12 0 45 18 62t43 18q38 0 75-33t44-51q2-4 27-107t26-111" data-c="1D44E" data-mml-node="mi"/><g data-mml-node="msup"><path stroke="none" d="M6184.6 136.9q0-10 4-23t12-13q1 0 72-5t73-6q12 0 12 8 0 7-50 209-50 198-50 205 19-10 29-19 24-18 69-63t70-61q40-27 76-27 30 0 47 19t18 54q0 25-7 42t-19 25-21 11-18 3q-20 0-32-11t-12-29q0-25 16-41t32-21l16-3q-12-12-24-12h-4q-32 3-63 25t-73 64-66 61q2 1 15 3t24 6 26 8 27 14 22 18 17 26 6 33q0 17-5 41t-6 40q0 40 27 40 48 0 78-119 2-8 20-8h4q16 0 16 9 0 5-3 14-41 141-118 141-45 0-73-26t-28-75q0-18 3-31t3-24q0-22-14-38t-35-23-34-11-18-3h-2q-12 42-21 81t-14 58-9 37-7 24-7 13-11 9q-13 9-28 9-17 0-26-10t-9-17q0-10 37-160t73-295l37-145q1-13-7-16t-39-5h-18q-3 0-7-3t-3-7" data-c="1D458" data-mml-node="mi"/><path stroke="none" d="M6694.663 67.597q-19.089 0-30.401-12.726t-11.312-31.108q0-50.197 37.471-86.961t93.324-36.764q64.337 0 107.464 39.592t43.834 102.515q0 30.401-14.14 57.974t-33.936 48.076-56.56 52.318q-25.452 21.917-70.7 65.044l-41.713 39.592 53.732.707q110.999 0 118.069-3.535 4.949-1.414 16.968-62.923v-2.121h28.28v2.121q-.707 2.121-9.191 64.337t-10.605 65.044v2.121H6652.95v-21.917q0-4.949 4.242-10.605t21.21-24.745q20.503-22.624 35.35-39.592 6.363-7.07 24.038-26.159t24.038-26.159 20.503-23.331 19.796-24.038 16.261-21.21 14.847-22.624 10.605-20.503 9.191-22.624 4.949-21.21 2.121-23.331q0-44.541-24.038-77.063t-68.579-32.522q-23.331 0-41.006 12.019t-24.745 23.331-7.07 13.433q0 .707 3.535.707 12.726 0 26.159 9.898t13.433 32.522q0 17.675-11.312 29.694t-31.815 12.726" data-c="32" data-mml-node="mn"/></g><path stroke="none" d="M7299.3 546.9v-13l14-20h299v-150l1-150q10-13 19-13 13 0 20 15v298h298q15 8 15 20t-15 20h-298v298q-8 14-18 14h-4q-12 0-18-14v-298h-299q-14-7-14-20Z" data-c="2B" data-mml-node="mo"/><path stroke="none" d="M8298.6 325.9q1-2 17-109l16-107q0-2 20-2h20v4q0 10 15 17t52 9 169 2h121v39l-68 93-30 40q-21 28-27 37t-21 32-20 36-14 37-13 46-8 54-6 68-3 82v28q0 14-1 24v9q-4 17-19 29t-34 12q-11 0-21-3t-21-19-11-40q0-158 97-328 20-32 84-121l46-63h-93q-174 0-183 6-6 3-11 24t-10 43l-3 21v3h-40z" data-c="37" data-mml-node="mn"/><path stroke="none" d="M8776.6 626.9q0-101 76-192t171-92q51 0 90 49 16-30 46-30 13 0 23 8t10 20q0 13-37 160t-38 166q0 25 7 33t21 9q9-1 20-9 21-20 41-96 6-20 10-21 2-1 10-1h4q19 0 19 9 0 6-5 27t-20 54-32 50q-13 13-32 21-8 2-24 2-34 0-57-15t-30-31l-6-15q-1-1-4 1l-4 4q-59 56-120 56-55 0-97-40t-42-127m318-171q0-6-5-22t-23-35-46-20q-35 0-67 31t-50 81q-29 79-41 164v11q0 8-1 12 0 45 18 62t43 18q38 0 75-33t44-51q2-4 27-107t26-111" data-c="1D44E" data-mml-node="mi"/><path stroke="none" d="M9393.6 136.9q0-10 4-23t12-13q1 0 72-5t73-6q12 0 12 8 0 7-50 209-50 198-50 205 19-10 29-19 24-18 69-63t70-61q40-27 76-27 30 0 47 19t18 54q0 25-7 42t-19 25-21 11-18 3q-20 0-32-11t-12-29q0-25 16-41t32-21l16-3q-12-12-24-12h-4q-32 3-63 25t-73 64-66 61q2 1 15 3t24 6 26 8 27 14 22 18 17 26 6 33q0 17-5 41t-6 40q0 40 27 40 48 0 78-119 2-8 20-8h4q16 0 16 9 0 5-3 14-41 141-118 141-45 0-73-26t-28-75q0-18 3-31t3-24q0-22-14-38t-35-23-34-11-18-3h-2q-12 42-21 81t-14 58-9 37-7 24-7 13-11 9q-13 9-28 9-17 0-26-10t-9-17q0-10 37-160t73-295l37-145q1-13-7-16t-39-5h-18q-3 0-7-3t-3-7" data-c="1D458" data-mml-node="mi"/><path stroke="none" d="M10071.8 546.9v-13l14-20h299v-150l1-150q10-13 19-13 13 0 20 15v298h298q15 8 15 20t-15 20h-298v298q-8 14-18 14h-4q-12 0-18-14v-298h-299q-14-7-14-20Z" data-c="2B" data-mml-node="mo"/><path stroke="none" d="M11071 325.9q1-2 17-109l16-107q0-2 20-2h20v4q0 10 15 17t52 9 169 2h121v39l-68 93-30 40q-21 28-27 37t-21 32-20 36-14 37-13 46-8 54-6 68-3 82v28q0 14-1 24v9q-4 17-19 29t-34 12q-11 0-21-3t-21-19-11-40q0-158 97-328 20-32 84-121l46-63h-93q-174 0-183 6-6 3-11 24t-10 43l-3 21v3h-40z" data-c="37" data-mml-node="mn"/><path stroke="none" d="M11589 136.9q0-10 4-23t12-13q1 0 72-5t73-6q12 0 12 9t-34 143q-8 34-17 70t-15 54l-4 19q0 3 6-3 49-40 101-40 62 0 100 46t39 116q0 111-79 201t-170 90q-50 0-91-38t-42-123v-9q0-21 8-58t49-197q50-197 50-209t-38-14h-26q-3 0-7-3t-3-7m263 322v-6q0-74-61-74-17 0-35 8t-33 21-26 24-18 22l-6 8-21 86q-22 86-22 122 0 48 24 72 16 16 40 16 33 0 67-32 25-23 40-56t33-105 18-106" data-c="1D44F" data-mml-node="mi"/><path stroke="none" d="M12251.2 546.9v-13l14-20h581q15 8 15 20t-15 20h-581q-14-7-14-20Z" data-c="2212" data-mml-node="mo"/><g stroke="none" data-mml-node="mn"><path d="m13380.4 205.9-13 5q-14 5-40 10t-58 7h-19v-46h19q47-2 87-15t56-24 28-22q2-3 12-3 9 0 17 6v299l1 300q7 7 12 9t24 4 62 2h26v46h-11q-21-3-159-3-136 0-157 3h-12v-46h64q16 0 25-1t16-3 8-2 6-5 6-4z" data-c="31"/><path d="M13776.4 354.9q-27 0-43-18t-16-44q0-71 53-123t132-52q91 0 152 56t62 145q0 43-20 82t-48 68-80 74q-36 31-100 92l-59 56 76 1q157 0 167-5 7-2 24-89v-3h40v3q-1 3-13 91t-15 92v3h-371v-31q0-7 6-15t30-35q29-32 50-56 9-10 34-37t34-37 29-33 28-34 23-30 21-32 15-29 13-32 7-30 3-33q0-63-34-109t-97-46q-33 0-58 17t-35 33-10 19q0 1 5 1 18 0 37 14t19 46q0 25-16 42t-45 18" data-c="32"/></g><path stroke="none" d="M14200.4 626.9q0-101 76-192t171-92q51 0 90 49 16-30 46-30 13 0 23 8t10 20q0 13-37 160t-38 166q0 25 7 33t21 9q9-1 20-9 21-20 41-96 6-20 10-21 2-1 10-1h4q19 0 19 9 0 6-5 27t-20 54-32 50q-13 13-32 21-8 2-24 2-34 0-57-15t-30-31l-6-15q-1-1-4 1l-4 4q-59 56-120 56-55 0-97-40t-42-127m318-171q0-6-5-22t-23-35-46-20q-35 0-67 31t-50 81q-29 79-41 164v11q0 8-1 12 0 45 18 62t43 18q38 0 75-33t44-51q2-4 27-107t26-111" data-c="1D44E" data-mml-node="mi"/></g></g><g data-mml-node="mtr"><g data-mml-node="mtd"><path stroke="none" d="M2797 1632.9q56-81 153-81 48 0 96 26t78 92q37 83 37 228 0 155-43 237-20 42-55 67t-61 31-51 7q-26 0-52-6t-61-32-55-67q-43-82-43-237 0-174 57-265m225-12q-30-32-71-32-42 0-72 32-25 26-33 72t-8 192q0 158 8 208t36 79q28 30 69 30 40 0 68-30 29-30 36-84t8-203q0-145-8-191t-33-73" data-c="30" data-mml-node="mn"/></g><g data-mml-node="mtd"><path stroke="none" d="M3534.8 1870.9q0-13 14-20h637q15 8 15 20 0 11-14 19l-318 1h-318q-16-5-16-20m0 194q0-15 16-20h636q14 10 14 20 0 13-15 20h-637q-14-7-14-20" data-c="3D" data-mml-node="mo"/><g data-mml-node="msup"><path stroke="none" d="M4655.6 1570.9q0-10 4-23t12-13q1 0 72-5t73-6q12 0 12 8 0 7-50 209-50 198-50 205 19-10 29-19 24-18 69-63t70-61q40-27 76-27 30 0 47 19t18 54q0 25-7 42t-19 25-21 11-18 3q-20 0-32-11t-12-29q0-25 16-41t32-21l16-3q-12-12-24-12h-4q-32 3-63 25t-73 64-66 61q2 1 15 3t24 6 26 8 27 14 22 18 17 26 6 33q0 17-5 41t-6 40q0 40 27 40 48 0 78-119 2-8 20-8h4q16 0 16 9 0 5-3 14-41 141-118 141-45 0-73-26t-28-75q0-18 3-31t3-24q0-22-14-38t-35-23-34-11-18-3h-2q-12 42-21 81t-14 58-9 37-7 24-7 13-11 9q-13 9-28 9-17 0-26-10t-9-17q0-10 37-160t73-295l37-145q1-13-7-16t-39-5h-18q-3 0-7-3t-3-7" data-c="1D458" data-mml-node="mi"/><path stroke="none" d="M5165.663 1501.597q-19.089 0-30.401-12.726t-11.312-31.108q0-50.197 37.471-86.961t93.324-36.764q64.337 0 107.464 39.592t43.834 102.515q0 30.401-14.14 57.974t-33.936 48.076-56.56 52.318q-25.452 21.917-70.7 65.044l-41.713 39.592 53.732.707q110.999 0 118.069-3.535 4.949-1.414 16.968-62.923v-2.121h28.28v2.121q-.707 2.121-9.191 64.337t-10.605 65.044v2.121H5123.95v-21.917q0-4.949 4.242-10.605t21.21-24.745q20.503-22.624 35.35-39.592 6.363-7.07 24.038-26.159t24.038-26.159 20.503-23.331 19.796-24.038 16.261-21.21 14.847-22.624 10.605-20.503 9.191-22.624 4.949-21.21 2.121-23.331q0-44.541-24.038-77.063t-68.579-32.522q-23.331 0-41.006 12.019t-24.745 23.331-7.07 13.433q0 .707 3.535.707 12.726 0 26.159 9.898t13.433 32.522q0 17.675-11.312 29.694t-31.815 12.726" data-c="32" data-mml-node="mn"/></g><path stroke="none" d="M5586.1 1967.9q0-69 10-131t23-107 37-88 38-67 42-52 33-34 25-21h17q14 0 14 9 0 3-17 21t-41 53-49 86-42 138-17 193 17 192 41 139 49 86 42 53 17 21q0 9-15 9h-16l-28-24q-94-85-137-212t-43-264" data-c="28" data-mml-node="mo"/><g stroke="none" data-mml-node="mn"><path d="M6343.1 2217.9q-18-3-129-3-116 0-134 3h-9v-46h58q7 0 17-2t14-5 7-8q1-2 1-54v-50h-259v-46l151-231q153-232 155-233 2-2 21-2h18l6 6v460h92v46h-92v99q0 7 6 12 8 7 57 8h29v46zm-169-211v-334l-219 333 109 1z" data-c="34"/><path d="M6733.1 1930.9q-48 76-120 76-78 0-128-59t-60-126q-2-16-2-40v-8q0-93 69-162 60-60 132-60h6q4 0 8 1h4q12 0 25 2t37 12 47 32 43 59q43 88 43 226 0 140-60 237-35 56-84 87t-104 32q-61 0-100-29t-40-86 53-56q22 0 37 14t15 39q0 18-9 31t-16 16-13 5l-4 1q0 2 7 6t26 10 42 5h6q60 0 101-64 39-56 39-194zm-108 39q48 0 77-49t30-133q0-78-8-112-2-10-6-20t-14-26-30-27-47-10q-38 0-65 27-21 22-27 52t-7 105q0 83 5 112t20 47q25 34 72 34" data-c="39"/></g><path stroke="none" d="M6914.1 2060.9q0-101 76-192t171-92q51 0 90 49 16-30 46-30 13 0 23 8t10 20q0 13-37 160t-38 166q0 25 7 33t21 9q9-1 20-9 21-20 41-96 6-20 10-21 2-1 10-1h4q19 0 19 9 0 6-5 27t-20 54-32 50q-13 13-32 21-8 2-24 2-34 0-57-15t-30-31l-6-15q-1-1-4 1l-4 4q-59 56-120 56-55 0-97-40t-42-127m318-171q0-6-5-22t-23-35-46-20q-35 0-67 31t-50 81q-29 79-41 164v11q0 8-1 12 0 45 18 62t43 18q38 0 75-33t44-51q2-4 27-107t26-111" data-c="1D44E" data-mml-node="mi"/><path stroke="none" d="M7716.3 1980.9v-13l14-20h581q15 8 15 20t-15 20h-581q-14-7-14-20Z" data-c="2212" data-mml-node="mo"/><path stroke="none" d="M8687.6 1759.9q1-2 17-109l16-107q0-2 20-2h20v4q0 10 15 17t52 9 169 2h121v39l-68 93-30 40q-21 28-27 37t-21 32-20 36-14 37-13 46-8 54-6 68-3 82v28q0 14-1 24v9q-4 17-19 29t-34 12q-11 0-21-3t-21-19-11-40q0-158 97-328 20-32 84-121l46-63h-93q-174 0-183 6-6 3-11 24t-10 43l-3 21v3h-40z" data-c="37" data-mml-node="mn"/><path stroke="none" d="m9192.6 1468.9 4-1h22l28 24q94 85 137 212t43 264q0 68-10 131t-23 107-37 88-38 67-41 51-32 33-23 19l-4 4h-23q-3 0-5-3t-3-9q1-1 11-13 155-161 155-475t-155-475q-10-12-11-13 0-8 5-11" data-c="29" data-mml-node="mo"/><path stroke="none" d="M9799.8 1980.9v-13l14-20h299v-150l1-150q10-13 19-13 13 0 20 15v298h298q15 8 15 20t-15 20h-298v298q-8 14-18 14h-4q-12 0-18-14v-298h-299q-14-7-14-20Z" data-c="2B" data-mml-node="mo"/><path stroke="none" d="M10865 1570.9q0-10 4-23t12-13q1 0 72-5t73-6q12 0 12 8 0 7-50 209-50 198-50 205 19-10 29-19 24-18 69-63t70-61q40-27 76-27 30 0 47 19t18 54q0 25-7 42t-19 25-21 11-18 3q-20 0-32-11t-12-29q0-25 16-41t32-21l16-3q-12-12-24-12h-4q-32 3-63 25t-73 64-66 61q2 1 15 3t24 6 26 8 27 14 22 18 17 26 6 33q0 17-5 41t-6 40q0 40 27 40 48 0 78-119 2-8 20-8h4q16 0 16 9 0 5-3 14-41 141-118 141-45 0-73-26t-28-75q0-18 3-31t3-24q0-22-14-38t-35-23-34-11-18-3h-2q-12 42-21 81t-14 58-9 37-7 24-7 13-11 9q-13 9-28 9-17 0-26-10t-9-17q0-10 37-160t73-295l37-145q1-13-7-16t-39-5h-18q-3 0-7-3t-3-7" data-c="1D458" data-mml-node="mi"/><path stroke="none" d="M11359 1967.9q0-69 10-131t23-107 37-88 38-67 42-52 33-34 25-21h17q14 0 14 9 0 3-17 21t-41 53-49 86-42 138-17 193 17 192 41 139 49 86 42 53 17 21q0 9-15 9h-16l-28-24q-94-85-137-212t-43-264" data-c="28" data-mml-node="mo"/><path stroke="none" d="M11738 1980.9v-13l14-20h581q15 8 15 20t-15 20h-581q-14-7-14-20Z" data-c="2212" data-mml-node="mo"/><path stroke="none" d="m12645 1639.9-13 5q-14 5-40 10t-58 7h-19v-46h19q47-2 87-15t56-24 28-22q2-3 12-3 9 0 17 6v299l1 300q7 7 12 9t24 4 62 2h26v46h-11q-21-3-159-3-136 0-157 3h-12v-46h64q16 0 25-1t16-3 8-2 6-5 6-4z" data-c="31" data-mml-node="mn"/><path stroke="none" d="M13210.2 1980.9v-13l14-20h299v-150l1-150q10-13 19-13 13 0 20 15v298h298q15 8 15 20t-15 20h-298v298q-8 14-18 14h-4q-12 0-18-14v-298h-299q-14-7-14-20Z" data-c="2B" data-mml-node="mo"/><path stroke="none" d="M14209.4 1759.9q1-2 17-109l16-107q0-2 20-2h20v4q0 10 15 17t52 9 169 2h121v39l-68 93-30 40q-21 28-27 37t-21 32-20 36-14 37-13 46-8 54-6 68-3 82v28q0 14-1 24v9q-4 17-19 29t-34 12q-11 0-21-3t-21-19-11-40q0-158 97-328 20-32 84-121l46-63h-93q-174 0-183 6-6 3-11 24t-10 43l-3 21v3h-40z" data-c="37" data-mml-node="mn"/><path stroke="none" d="M14687.4 2060.9q0-101 76-192t171-92q51 0 90 49 16-30 46-30 13 0 23 8t10 20q0 13-37 160t-38 166q0 25 7 33t21 9q9-1 20-9 21-20 41-96 6-20 10-21 2-1 10-1h4q19 0 19 9 0 6-5 27t-20 54-32 50q-13 13-32 21-8 2-24 2-34 0-57-15t-30-31l-6-15q-1-1-4 1l-4 4q-59 56-120 56-55 0-97-40t-42-127m318-171q0-6-5-22t-23-35-46-20q-35 0-67 31t-50 81q-29 79-41 164v11q0 8-1 12 0 45 18 62t43 18q38 0 75-33t44-51q2-4 27-107t26-111" data-c="1D44E" data-mml-node="mi"/><path stroke="none" d="m15243.4 1468.9 4-1h22l28 24q94 85 137 212t43 264q0 68-10 131t-23 107-37 88-38 67-41 51-32 33-23 19l-4 4h-23q-3 0-5-3t-3-9q1-1 11-13 155-161 155-475t-155-475q-10-12-11-13 0-8 5-11" data-c="29" data-mml-node="mo"/><path stroke="none" d="M15850.7 1980.9v-13l14-20h299v-150l1-150q10-13 19-13 13 0 20 15v298h298q15 8 15 20t-15 20h-298v298q-8 14-18 14h-4q-12 0-18-14v-298h-299q-14-7-14-20Z" data-c="2B" data-mml-node="mo"/><path stroke="none" d="M16888.9 1967.9q0-69 10-131t23-107 37-88 38-67 42-52 33-34 25-21h17q14 0 14 9 0 3-17 21t-41 53-49 86-42 138-17 193 17 192 41 139 49 86 42 53 17 21q0 9-15 9h-16l-28-24q-94-85-137-212t-43-264" data-c="28" data-mml-node="mo"/><path stroke="none" d="M17238.9 1759.9q1-2 17-109l16-107q0-2 20-2h20v4q0 10 15 17t52 9 169 2h121v39l-68 93-30 40q-21 28-27 37t-21 32-20 36-14 37-13 46-8 54-6 68-3 82v28q0 14-1 24v9q-4 17-19 29t-34 12q-11 0-21-3t-21-19-11-40q0-158 97-328 20-32 84-121l46-63h-93q-174 0-183 6-6 3-11 24t-10 43l-3 21v3h-40z" data-c="37" data-mml-node="mn"/><path stroke="none" d="M17756.9 1570.9q0-10 4-23t12-13q1 0 72-5t73-6q12 0 12 9t-34 143q-8 34-17 70t-15 54l-4 19q0 3 6-3 49-40 101-40 62 0 100 46t39 116q0 111-79 201t-170 90q-50 0-91-38t-42-123v-9q0-21 8-58t49-197q50-197 50-209t-38-14h-26q-3 0-7-3t-3-7m263 322v-6q0-74-61-74-17 0-35 8t-33 21-26 24-18 22l-6 8-21 86q-22 86-22 122 0 48 24 72 16 16 40 16 33 0 67-32 25-23 40-56t33-105 18-106" data-c="1D44F" data-mml-node="mi"/><path stroke="none" d="M18419.1 1980.9v-13l14-20h581q15 8 15 20t-15 20h-581q-14-7-14-20Z" data-c="2212" data-mml-node="mo"/><g stroke="none" data-mml-node="mn"><path d="m19548.3 1639.9-13 5q-14 5-40 10t-58 7h-19v-46h19q47-2 87-15t56-24 28-22q2-3 12-3 9 0 17 6v299l1 300q7 7 12 9t24 4 62 2h26v46h-11q-21-3-159-3-136 0-157 3h-12v-46h64q16 0 25-1t16-3 8-2 6-5 6-4z" data-c="31"/><path d="M19944.3 1788.9q-27 0-43-18t-16-44q0-71 53-123t132-52q91 0 152 56t62 145q0 43-20 82t-48 68-80 74q-36 31-100 92l-59 56 76 1q157 0 167-5 7-2 24-89v-3h40v3q-1 3-13 91t-15 92v3h-371v-31q0-7 6-15t30-35q29-32 50-56 9-10 34-37t34-37 29-33 28-34 23-30 21-32 15-29 13-32 7-30 3-33q0-63-34-109t-97-46q-33 0-58 17t-35 33-10 19q0 1 5 1 18 0 37 14t19 46q0 25-16 42t-45 18" data-c="32"/></g><path stroke="none" d="M20368.3 2060.9q0-101 76-192t171-92q51 0 90 49 16-30 46-30 13 0 23 8t10 20q0 13-37 160t-38 166q0 25 7 33t21 9q9-1 20-9 21-20 41-96 6-20 10-21 2-1 10-1h4q19 0 19 9 0 6-5 27t-20 54-32 50q-13 13-32 21-8 2-24 2-34 0-57-15t-30-31l-6-15q-1-1-4 1l-4 4q-59 56-120 56-55 0-97-40t-42-127m318-171q0-6-5-22t-23-35-46-20q-35 0-67 31t-50 81q-29 79-41 164v11q0 8-1 12 0 45 18 62t43 18q38 0 75-33t44-51q2-4 27-107t26-111" data-c="1D44E" data-mml-node="mi"/><path stroke="none" d="m20924.3 1468.9 4-1h22l28 24q94 85 137 212t43 264q0 68-10 131t-23 107-37 88-38 67-41 51-32 33-23 19l-4 4h-23q-3 0-5-3t-3-9q1-1 11-13 155-161 155-475t-155-475q-10-12-11-13 0-8 5-11" data-c="29" data-mml-node="mo"/></g></g></g></g></svg>