<svg xmlns="http://www.w3.org/2000/svg" width="28.206ex" height="8.751ex" style="vertical-align:-3.81ex" viewBox="0 -2183.9 12467.2 3867.9"><title>\begin{aligned} (x - a)(x + b) &amp;= 0 \iff \\ x^2 - (a + b)x + ab &amp;= 0 \iff \\ x^2 - 97 x + 2352 &amp;= 0 \end{aligned}</title><g fill="currentColor" stroke="currentColor" stroke-width="0" data-mml-node="math"><g data-mml-node="mtable"><g data-mml-node="mtr"><g data-mml-node="mtd"><path stroke="none" d="M1933-1683.9q0-69 10-131t23-107 37-88 38-67 42-52 33-34 25-21h17q14 0 14 9 0 3-17 21t-41 53-49 86-42 138-17 193 17 192 41 139 49 86 42 53 17 21q0 9-15 9h-16l-28-24q-94-85-137-212t-43-264" data-c="28" data-mml-node="mo"/><path stroke="none" d="M2280-1722.9q7-42 54-97t116-56q35 0 64 18t43 45q42-63 101-63 37 0 64 22t28 59q0 29-14 47t-27 22-23 4q-19 0-31-11t-12-29q0-46 50-63-11-13-40-13-13 0-19 2-38 16-56 66-60 221-60 258 0 28 16 40t35 12q37 0 73-33t49-81q3-10 6-11t16-2h4q15 0 15 8 0 1-2 11-16 57-62 101t-107 44q-70 0-106-63-41 62-94 62h-6q-49 0-70-26t-22-55q0-32 19-52t45-20q43 0 43 42 0 20-12 35t-23 20-13 5l-3 1q0 1 6 4t16 7 19 3q36 0 62-45 9-16 23-68t28-108 16-66q5-27 5-39 0-28-15-40t-34-12q-40 0-75 32t-49 82q-2 9-5 10t-16 2h-14q-6-6-6-11" data-c="1D465" data-mml-node="mi"/><path stroke="none" d="M3106.2-1670.9v-13l14-20h581q15 8 15 20t-15 20h-581q-14-7-14-20Z" data-c="2212" data-mml-node="mo"/><path stroke="none" d="M4055.4-1590.9q0-101 76-192t171-92q51 0 90 49 16-30 46-30 13 0 23 8t10 20q0 13-37 160t-38 166q0 25 7 33t21 9q9-1 20-9 21-20 41-96 6-20 10-21 2-1 10-1h4q19 0 19 9 0 6-5 27t-20 54-32 50q-13 13-32 21-8 2-24 2-34 0-57-15t-30-31l-6-15q-1-1-4 1l-4 4q-59 56-120 56-55 0-97-40t-42-127m318-171q0-6-5-22t-23-35-46-20q-35 0-67 31t-50 81q-29 79-41 164v11q0 8-1 12 0 45 18 62t43 18q38 0 75-33t44-51q2-4 27-107t26-111" data-c="1D44E" data-mml-node="mi"/><path stroke="none" d="m4611.4-2182.9 4-1h22l28 24q94 85 137 212t43 264q0 68-10 131t-23 107-37 88-38 67-41 51-32 33-23 19l-4 4h-23q-3 0-5-3t-3-9q1-1 11-13 155-161 155-475t-155-475q-10-12-11-13 0-8 5-11" data-c="29" data-mml-node="mo"/><path stroke="none" d="M5034.4-1683.9q0-69 10-131t23-107 37-88 38-67 42-52 33-34 25-21h17q14 0 14 9 0 3-17 21t-41 53-49 86-42 138-17 193 17 192 41 139 49 86 42 53 17 21q0 9-15 9h-16l-28-24q-94-85-137-212t-43-264" data-c="28" data-mml-node="mo"/><path stroke="none" d="M5381.4-1722.9q7-42 54-97t116-56q35 0 64 18t43 45q42-63 101-63 37 0 64 22t28 59q0 29-14 47t-27 22-23 4q-19 0-31-11t-12-29q0-46 50-63-11-13-40-13-13 0-19 2-38 16-56 66-60 221-60 258 0 28 16 40t35 12q37 0 73-33t49-81q3-10 6-11t16-2h4q15 0 15 8 0 1-2 11-16 57-62 101t-107 44q-70 0-106-63-41 62-94 62h-6q-49 0-70-26t-22-55q0-32 19-52t45-20q43 0 43 42 0 20-12 35t-23 20-13 5l-3 1q0 1 6 4t16 7 19 3q36 0 62-45 9-16 23-68t28-108 16-66q5-27 5-39 0-28-15-40t-34-12q-40 0-75 32t-49 82q-2 9-5 10t-16 2h-14q-6-6-6-11" data-c="1D465" data-mml-node="mi"/><path stroke="none" d="M6179.7-1670.9v-13l14-20h299v-150l1-150q10-13 19-13 13 0 20 15v298h298q15 8 15 20t-15 20h-298v298q-8 14-18 14h-4q-12 0-18-14v-298h-299q-14-7-14-20Z" data-c="2B" data-mml-node="mo"/><path stroke="none" d="M7196.9-2080.9q0-10 4-23t12-13q1 0 72-5t73-6q12 0 12 9t-34 143q-8 34-17 70t-15 54l-4 19q0 3 6-3 49-40 101-40 62 0 100 46t39 116q0 111-79 201t-170 90q-50 0-91-38t-42-123v-9q0-21 8-58t49-197q50-197 50-209t-38-14h-26q-3 0-7-3t-3-7m263 322v-6q0-74-61-74-17 0-35 8t-33 21-26 24-18 22l-6 8-21 86q-22 86-22 122 0 48 24 72 16 16 40 16 33 0 67-32 25-23 40-56t33-105 18-106" data-c="1D44F" data-mml-node="mi"/><path stroke="none" d="m7612.9-2182.9 4-1h22l28 24q94 85 137 212t43 264q0 68-10 131t-23 107-37 88-38 67-41 51-32 33-23 19l-4 4h-23q-3 0-5-3t-3-9q1-1 11-13 155-161 155-475t-155-475q-10-12-11-13 0-8 5-11" data-c="29" data-mml-node="mo"/></g><g data-mml-node="mtd"><path stroke="none" d="M8275.7-1780.9q0-13 14-20h637q15 8 15 20 0 11-14 19l-318 1h-318q-16-5-16-20m0 194q0-15 16-20h636q14 10 14 20 0 13-15 20h-637q-14-7-14-20" data-c="3D" data-mml-node="mo"/><path stroke="none" d="M9371.5-2018.9q56-81 153-81 48 0 96 26t78 92q37 83 37 228 0 155-43 237-20 42-55 67t-61 31-51 7q-26 0-52-6t-61-32-55-67q-43-82-43-237 0-174 57-265m225-12q-30-32-71-32-42 0-72 32-25 26-33 72t-8 192q0 158 8 208t36 79q28 30 69 30 40 0 68-30 29-30 36-84t8-203q0-145-8-191t-33-73" data-c="30" data-mml-node="mn"/><path stroke="none" d="M11769.2-1947.9q0-11 16-11h13q2 0 4 1t2 1 2 3 2 3 3 5q37 74 98 131t111 81 96 37q17 5 17 13t-9 11-37 11-58 24q-144 70-218 216-4 9-7 10t-15 2q-20 0-20-7 0-4 5-17 35-69 86-123l10-10h-1221l10 10q51 54 86 123 5 13 5 17 0 7-20 7-11 0-14-1t-8-11q-45-89-124-156t-181-93q-10-3-13-5t-3-8 3-7 11-5 19-6 30-10 41-18q143-70 217-216 5-10 8-11t16-2q18 1 18 10 0 5-5 15-35 69-86 123l-10 10h1221l-10-10q-33-35-62-81t-29-56m-1164 341h1309l10-8q39-30 117-69-1-1-18-9t-45-24-54-36l-10-8h-653l-3-1-325 1h-328l-10 8q-39 30-117 69 1 1 18 9t45 24 54 36z" data-c="27FA" data-mml-node="mo"/></g></g><g data-mml-node="mtr"><g data-mml-node="mtd"><g data-mml-node="msup"><path stroke="none" d="M52-289q7-42 54-97t116-56q35 0 64 18t43 45q42-63 101-63 37 0 64 22t28 59q0 29-14 47t-27 22-23 4q-19 0-31-11t-12-29q0-46 50-63-11-13-40-13-13 0-19 2-38 16-56 66-60 221-60 258 0 28 16 40t35 12q37 0 73-33t49-81q3-10 6-11t16-2h4q15 0 15 8 0 1-2 11-16 57-62 101T333 11q-70 0-106-63-41 62-94 62h-6q-49 0-70-26T35-71q0-32 19-52t45-20q43 0 43 42 0 20-12 35t-23 20-13 5l-3 1q0 1 6 4t16 7 19 3q36 0 62-45 9-16 23-68t28-108 16-66q5-27 5-39 0-28-15-40t-34-12q-40 0-75 32t-49 82q-2 9-5 10t-16 2H58q-6-6-6-11" data-c="1D465" data-mml-node="mi"/><path stroke="none" d="M682.063-716.303q-19.089 0-30.401-12.726t-11.312-31.108q0-50.197 37.471-86.961t93.324-36.764q64.337 0 107.464 39.592t43.834 102.515q0 30.401-14.14 57.974t-33.936 48.076-56.56 52.318q-25.452 21.917-70.7 65.044l-41.713 39.592 53.732.707q110.999 0 118.069-3.535 4.949-1.414 16.968-62.923v-2.121h28.28v2.121q-.707 2.121-9.191 64.337t-10.605 65.044V-413H640.35v-21.917q0-4.949 4.242-10.605t21.21-24.745q20.503-22.624 35.35-39.592 6.363-7.07 24.038-26.159t24.038-26.159 20.503-23.331 19.796-24.038 16.261-21.21 14.847-22.624 10.605-20.503 9.191-22.624 4.949-21.21 2.121-23.331q0-44.541-24.038-77.063t-68.579-32.522q-23.331 0-41.006 12.019t-24.745 23.331-7.07 13.433q0 .707 3.535.707 12.726 0 26.159 9.898t13.433 32.522q0 17.675-11.312 29.694t-31.815 12.726" data-c="32" data-mml-node="mn"/></g><path stroke="none" d="M1314.8-237v-13l14-20h581q15 8 15 20t-15 20h-581q-14-7-14-20Z" data-c="2212" data-mml-node="mo"/><path stroke="none" d="M2325-250q0-69 10-131t23-107 37-88 38-67 42-52 33-34 25-21h17q14 0 14 9 0 3-17 21t-41 53-49 86-42 138-17 193 17 192 41 139 49 86 42 53 17 21q0 9-15 9h-16l-28-24q-94-85-137-212t-43-264" data-c="28" data-mml-node="mo"/><path stroke="none" d="M2653-157q0-101 76-192t171-92q51 0 90 49 16-30 46-30 13 0 23 8t10 20q0 13-37 160t-38 166q0 25 7 33t21 9q9-1 20-9 21-20 41-96 6-20 10-21 2-1 10-1h4q19 0 19 9 0 6-5 27t-20 54-32 50q-13 13-32 21-8 2-24 2-34 0-57-15t-30-31l-6-15q-1-1-4 1l-4 4q-59 56-120 56-55 0-97-40t-42-127m318-171q0-6-5-22t-23-35-46-20q-35 0-67 31t-50 81q-29 79-41 164v11q0 8-1 12 0 45 18 62t43 18q38 0 75-33t44-51q2-4 27-107t26-111" data-c="1D44E" data-mml-node="mi"/><path stroke="none" d="M3427.2-237v-13l14-20h299v-150l1-150q10-13 19-13 13 0 20 15v298h298q15 8 15 20t-15 20h-298V68q-8 14-18 14h-4q-12 0-18-14v-298h-299q-14-7-14-20Z" data-c="2B" data-mml-node="mo"/><path stroke="none" d="M4444.4-647q0-10 4-23t12-13q1 0 72-5t73-6q12 0 12 9t-34 143q-8 34-17 70t-15 54l-4 19q0 3 6-3 49-40 101-40 62 0 100 46t39 116q0 111-79 201t-170 90q-50 0-91-38t-42-123v-9q0-21 8-58t49-197q50-197 50-209t-38-14h-26q-3 0-7-3t-3-7m263 322v-6q0-74-61-74-17 0-35 8t-33 21-26 24-18 22l-6 8-21 86q-22 86-22 122 0 48 24 72 16 16 40 16 33 0 67-32 25-23 40-56t33-105 18-106" data-c="1D44F" data-mml-node="mi"/><path stroke="none" d="m4860.4-749 4-1h22l28 24q94 85 137 212t43 264q0 68-10 131t-23 107-37 88-38 67-41 51-32 33-23 19l-4 4h-23q-3 0-5-3t-3-9q1-1 11-13 155-161 155-475t-155-475q-10-12-11-13 0-8 5-11" data-c="29" data-mml-node="mo"/><path stroke="none" d="M5241.4-289q7-42 54-97t116-56q35 0 64 18t43 45q42-63 101-63 37 0 64 22t28 59q0 29-14 47t-27 22-23 4q-19 0-31-11t-12-29q0-46 50-63-11-13-40-13-13 0-19 2-38 16-56 66-60 221-60 258 0 28 16 40t35 12q37 0 73-33t49-81q3-10 6-11t16-2h4q15 0 15 8 0 1-2 11-16 57-62 101t-107 44q-70 0-106-63-41 62-94 62h-6q-49 0-70-26t-22-55q0-32 19-52t45-20q43 0 43 42 0 20-12 35t-23 20-13 5l-3 1q0 1 6 4t16 7 19 3q36 0 62-45 9-16 23-68t28-108 16-66q5-27 5-39 0-28-15-40t-34-12q-40 0-75 32t-49 82q-2 9-5 10t-16 2h-14q-6-6-6-11" data-c="1D465" data-mml-node="mi"/><path stroke="none" d="M6039.7-237v-13l14-20h299v-150l1-150q10-13 19-13 13 0 20 15v298h298q15 8 15 20t-15 20h-298V68q-8 14-18 14h-4q-12 0-18-14v-298h-299q-14-7-14-20Z" data-c="2B" data-mml-node="mo"/><path stroke="none" d="M7016.9-157q0-101 76-192t171-92q51 0 90 49 16-30 46-30 13 0 23 8t10 20q0 13-37 160t-38 166q0 25 7 33t21 9q9-1 20-9 21-20 41-96 6-20 10-21 2-1 10-1h4q19 0 19 9 0 6-5 27t-20 54-32 50q-13 13-32 21-8 2-24 2-34 0-57-15t-30-31l-6-15q-1-1-4 1l-4 4q-59 56-120 56-55 0-97-40t-42-127m318-171q0-6-5-22t-23-35-46-20q-35 0-67 31t-50 81q-29 79-41 164v11q0 8-1 12 0 45 18 62t43 18q38 0 75-33t44-51q2-4 27-107t26-111" data-c="1D44E" data-mml-node="mi"/><path stroke="none" d="M7585.9-647q0-10 4-23t12-13q1 0 72-5t73-6q12 0 12 9t-34 143q-8 34-17 70t-15 54l-4 19q0 3 6-3 49-40 101-40 62 0 100 46t39 116q0 111-79 201t-170 90q-50 0-91-38t-42-123v-9q0-21 8-58t49-197q50-197 50-209t-38-14h-26q-3 0-7-3t-3-7m263 322v-6q0-74-61-74-17 0-35 8t-33 21-26 24-18 22l-6 8-21 86q-22 86-22 122 0 48 24 72 16 16 40 16 33 0 67-32 25-23 40-56t33-105 18-106" data-c="1D44F" data-mml-node="mi"/></g><g data-mml-node="mtd"><path stroke="none" d="M8275.7-347q0-13 14-20h637q15 8 15 20 0 11-14 19l-318 1h-318q-16-5-16-20m0 194q0-15 16-20h636q14 10 14 20 0 13-15 20h-637q-14-7-14-20" data-c="3D" data-mml-node="mo"/><path stroke="none" d="M9371.5-585q56-81 153-81 48 0 96 26t78 92q37 83 37 228 0 155-43 237-20 42-55 67t-61 31-51 7q-26 0-52-6t-61-32-55-67q-43-82-43-237 0-174 57-265m225-12q-30-32-71-32-42 0-72 32-25 26-33 72t-8 192q0 158 8 208t36 79q28 30 69 30 40 0 68-30 29-30 36-84t8-203q0-145-8-191t-33-73" data-c="30" data-mml-node="mn"/><path stroke="none" d="M11769.2-514q0-11 16-11h13q2 0 4 1t2 1 2 3 2 3 3 5q37 74 98 131t111 81 96 37q17 5 17 13t-9 11-37 11-58 24q-144 70-218 216-4 9-7 10t-15 2q-20 0-20-7 0-4 5-17 35-69 86-123l10-10h-1221l10 10q51 54 86 123 5 13 5 17 0 7-20 7-11 0-14-1t-8-11q-45-89-124-156t-181-93q-10-3-13-5t-3-8 3-7 11-5 19-6 30-10 41-18q143-70 217-216 5-10 8-11t16-2q18 1 18 10 0 5-5 15-35 69-86 123l-10 10h1221l-10-10q-33-35-62-81t-29-56m-1164 341h1309l10-8q39-30 117-69-1-1-18-9t-45-24-54-36l-10-8h-653l-3-1-325 1h-328l-10 8q-39 30-117 69 1 1 18 9t45 24 54 36z" data-c="27FA" data-mml-node="mo"/></g></g><g data-mml-node="mtr"><g data-mml-node="mtd"><g data-mml-node="msup"><path stroke="none" d="M968.4 1144.9q7-42 54-97t116-56q35 0 64 18t43 45q42-63 101-63 37 0 64 22t28 59q0 29-14 47t-27 22-23 4q-19 0-31-11t-12-29q0-46 50-63-11-13-40-13-13 0-19 2-38 16-56 66-60 221-60 258 0 28 16 40t35 12q37 0 73-33t49-81q3-10 6-11t16-2h4q15 0 15 8 0 1-2 11-16 57-62 101t-107 44q-70 0-106-63-41 62-94 62h-6q-49 0-70-26t-22-55q0-32 19-52t45-20q43 0 43 42 0 20-12 35t-23 20-13 5l-3 1q0 1 6 4t16 7 19 3q36 0 62-45 9-16 23-68t28-108 16-66q5-27 5-39 0-28-15-40t-34-12q-40 0-75 32t-49 82q-2 9-5 10t-16 2h-14q-6-6-6-11" data-c="1D465" data-mml-node="mi"/><path stroke="none" d="M1598.463 717.597q-19.089 0-30.401-12.726t-11.312-31.108q0-50.197 37.471-86.961t93.324-36.764q64.337 0 107.464 39.592t43.834 102.515q0 30.401-14.14 57.974t-33.936 48.076-56.56 52.318q-25.452 21.917-70.7 65.044l-41.713 39.592 53.732.707q110.999 0 118.069-3.535 4.949-1.414 16.968-62.923v-2.121h28.28v2.121q-.707 2.121-9.191 64.337t-10.605 65.044v2.121H1556.75v-21.917q0-4.949 4.242-10.605t21.21-24.745q20.503-22.624 35.35-39.592 6.363-7.07 24.038-26.159t24.038-26.159 20.503-23.331 19.796-24.038 16.261-21.21 14.847-22.624 10.605-20.503 9.191-22.624 4.949-21.21 2.121-23.331q0-44.541-24.038-77.063t-68.579-32.522q-23.331 0-41.006 12.019t-24.745 23.331-7.07 13.433q0 .707 3.535.707 12.726 0 26.159 9.898t13.433 32.522q0 17.675-11.312 29.694t-31.815 12.726" data-c="32" data-mml-node="mn"/></g><path stroke="none" d="M2231.2 1196.9v-13l14-20h581q15 8 15 20t-15 20h-581q-14-7-14-20Z" data-c="2212" data-mml-node="mo"/><g stroke="none" data-mml-node="mn"><path d="M3499.4 1146.9q-48 76-120 76-78 0-128-59t-60-126q-2-16-2-40v-8q0-93 69-162 60-60 132-60h6q4 0 8 1h4q12 0 25 2t37 12 47 32 43 59q43 88 43 226 0 140-60 237-35 56-84 87t-104 32q-61 0-100-29t-40-86 53-56q22 0 37 14t15 39q0 18-9 31t-16 16-13 5l-4 1q0 2 7 6t26 10 42 5h6q60 0 101-64 39-56 39-194zm-108 39q48 0 77-49t30-133q0-78-8-112-2-10-6-20t-14-26-30-27-47-10q-38 0-65 27-21 22-27 52t-7 105q0 83 5 112t20 47q25 34 72 34" data-c="39"/><path d="M3702.4 975.9q1-2 17-109l16-107q0-2 20-2h20v4q0 10 15 17t52 9 169 2h121v39l-68 93-30 40q-21 28-27 37t-21 32-20 36-14 37-13 46-8 54-6 68-3 82v28q0 14-1 24v9q-4 17-19 29t-34 12q-11 0-21-3t-21-19-11-40q0-158 97-328 20-32 84-121l46-63h-93q-174 0-183 6-6 3-11 24t-10 43l-3 21v3h-40z" data-c="37"/></g><path stroke="none" d="M4199.4 1144.9q7-42 54-97t116-56q35 0 64 18t43 45q42-63 101-63 37 0 64 22t28 59q0 29-14 47t-27 22-23 4q-19 0-31-11t-12-29q0-46 50-63-11-13-40-13-13 0-19 2-38 16-56 66-60 221-60 258 0 28 16 40t35 12q37 0 73-33t49-81q3-10 6-11t16-2h4q15 0 15 8 0 1-2 11-16 57-62 101t-107 44q-70 0-106-63-41 62-94 62h-6q-49 0-70-26t-22-55q0-32 19-52t45-20q43 0 43 42 0 20-12 35t-23 20-13 5l-3 1q0 1 6 4t16 7 19 3q36 0 62-45 9-16 23-68t28-108 16-66q5-27 5-39 0-28-15-40t-34-12q-40 0-75 32t-49 82q-2 9-5 10t-16 2h-14q-6-6-6-11" data-c="1D465" data-mml-node="mi"/><path stroke="none" d="M4997.6 1196.9v-13l14-20h299v-150l1-150q10-13 19-13 13 0 20 15v298h298q15 8 15 20t-15 20h-298v298q-8 14-18 14h-4q-12 0-18-14v-298h-299q-14-7-14-20Z" data-c="2B" data-mml-node="mo"/><g stroke="none" data-mml-node="mn"><path d="M6050.8 1004.9q-27 0-43-18t-16-44q0-71 53-123t132-52q91 0 152 56t62 145q0 43-20 82t-48 68-80 74q-36 31-100 92l-59 56 76 1q157 0 167-5 7-2 24-89v-3h40v3q-1 3-13 91t-15 92v3h-371v-31q0-7 6-15t30-35q29-32 50-56 9-10 34-37t34-37 29-33 28-34 23-30 21-32 15-29 13-32 7-30 3-33q0-63-34-109t-97-46q-33 0-58 17t-35 33-10 19q0 1 5 1 18 0 37 14t19 46q0 25-16 42t-45 18" data-c="32"/><path d="M6568.8 970.9q-27 0-42-17t-16-44q0-55 48-98t116-43q35 0 44 1 74 12 113 53t40 89q0 52-34 101t-94 71l-3 2q0 1 9 3t29 9 38 21q82 53 82 140 0 79-62 138t-157 59q-80 0-138-43t-58-109q0-28 18-45t45-18q28 0 46 18t18 45q0 11-3 20t-7 16-11 12-12 8-10 4-8 3l-4 1q51 45 124 45 55 0 83-53 17-33 17-101v-20q0-95-64-127-15-6-61-7l-42-1-3-2q-2-3-2-16 0-18 8-18 28 0 58-5 34-5 62-42t28-112v-8q0-57-35-79-22-14-47-14-32 0-59 11t-38 23-11 12h3q3 1 8 2t10 5 12 7 10 11 8 15 3 20q0 22-14 39t-45 18" data-c="33"/><path d="M7105.8 1276.9q0 24-16 40t-39 16h-7q46 79 122 79 70 0 102-60 19-33 19-128 0-103-27-139-26-33-58-33h-6q-78 0-118 68-4 7-7 8t-15 2q-17 0-19-6-2-4-2-175v-129q0-50 5-50 2-2 4-2 1 0 21 8t55 16 75 8q71 0 136-28 8-4 13-4 8 0 8 18v13q-82 97-205 97-31 0-56-6l-10-2v172q19-14 30-22t36-16 51-8q81 0 137 65t56 154q0 92-64 157t-156 66q-81 0-130-54t-49-122q0-24 11-38t23-18 23-4q25 0 41 17t16 40" data-c="35"/><path d="M7550.8 1004.9q-27 0-43-18t-16-44q0-71 53-123t132-52q91 0 152 56t62 145q0 43-20 82t-48 68-80 74q-36 31-100 92l-59 56 76 1q157 0 167-5 7-2 24-89v-3h40v3q-1 3-13 91t-15 92v3h-371v-31q0-7 6-15t30-35q29-32 50-56 9-10 34-37t34-37 29-33 28-34 23-30 21-32 15-29 13-32 7-30 3-33q0-63-34-109t-97-46q-33 0-58 17t-35 33-10 19q0 1 5 1 18 0 37 14t19 46q0 25-16 42t-45 18" data-c="32"/></g></g><g data-mml-node="mtd"><path stroke="none" d="M8275.7 1086.9q0-13 14-20h637q15 8 15 20 0 11-14 19l-318 1h-318q-16-5-16-20m0 194q0-15 16-20h636q14 10 14 20 0 13-15 20h-637q-14-7-14-20" data-c="3D" data-mml-node="mo"/><path stroke="none" d="M9371.5 848.9q56-81 153-81 48 0 96 26t78 92q37 83 37 228 0 155-43 237-20 42-55 67t-61 31-51 7q-26 0-52-6t-61-32-55-67q-43-82-43-237 0-174 57-265m225-12q-30-32-71-32-42 0-72 32-25 26-33 72t-8 192q0 158 8 208t36 79q28 30 69 30 40 0 68-30 29-30 36-84t8-203q0-145-8-191t-33-73" data-c="30" data-mml-node="mn"/></g></g></g></g></svg>