<svg xmlns="http://www.w3.org/2000/svg" width="47.961ex" height="22.385ex" style="vertical-align:-11.131ex" viewBox="0 -4974.4 21198.7 9894.4"><title>r = \frac{   \displaystyle\sum_{i=1}^{n} a_i b_i -   \frac{     \displaystyle\sum_{i=1}^{n} a_i \displaystyle\sum_{i=1}^{n} b_i   }{n} }{   \sqrt{     (\displaystyle\sum_{i=1}^{n} a_i^2 -       \frac{(\displaystyle\sum_{i=1}^{n} a_i)^2}{n}) \cdot     (\displaystyle\sum_{i=1}^{n} b_i^2 -       \frac{(\displaystyle\sum_{i=1}^{n} b_i)^2}{n})   } }</title><g fill="currentColor" stroke="currentColor" stroke-width="0" data-mml-node="math"><path stroke="none" d="M21-287q1-3 2-8t5-22 10-31 15-33 20-30 26-22 33-9q29 0 51 12t31 22 11 20q2 6 3 6t8-7q48-52 111-52h3q48 0 72 41 8 19 8 37 0 30-13 48t-26 23-25 4q-20 0-32-11t-12-29q0-48 56-64-22-13-36-13-56 0-103 74-10 16-15 33t-34 133Q156-25 151-16q-13 27-43 27-13 0-21-6T76-7t-2-10q0-13 40-172t40-177q0-39-26-39-21 0-36 28t-24 61-11 36q-2 2-16 2H27q-6-6-6-9" data-c="1D45F" data-mml-node="mi"/><path stroke="none" d="M784.8-347q0-13 14-20h637q15 8 15 20 0 11-14 19l-318 1h-318q-16-5-16-20m0 194q0-15 16-20h636q14 10 14 20 0 13-15 20h-637q-14-7-14-20" data-c="3D" data-mml-node="mo"/><g data-mml-node="mfrac"><g data-mml-node="mstyle"><g data-mml-node="munderover"><path stroke="none" d="M6609.2-2653.9q3-2 605-2h602l58 135q59 138 63 146h-40l-7-14q-21-41-56-78-50-48-111-77t-141-43-151-17-183-4h-448l8 11q463 633 465 639 1 2 0 6-3 3-264 302l-264 300q0 1 211 1h141q89 0 128 1 136 0 220-5t167-21 141-49 103-87q21-26 41-72h40q0 1-7 21t-25 65-31 84l-58 155-601 1q-602 0-605-2-6-2-6-9 0-2 2-6l533-610q0-1-33-45t-105-144-130-178l-266-365-1-15q0-21 5-24" data-c="2211" data-mml-node="mo"/><g data-mjx-texclass="ORD" data-mml-node="TeXAtom"><path stroke="none" d="M6827.488-1042.2q0-16.968 13.433-29.694t31.108-13.433q12.726 0 21.21 8.484t9.191 21.21q0 16.261-14.14 29.694t-31.108 14.14q-10.605 0-19.796-7.07t-9.898-23.331m-115.241 221.291q0-5.656 6.363-21.917t16.968-36.057 31.108-36.057 42.42-15.554q27.573 0 45.955 16.261t19.089 43.834q0 12.019-9.898 39.592t-28.28 74.235-29.694 79.891q-3.535 15.554-3.535 22.624 0 17.675 12.019 17.675 6.363 0 13.433-2.121t16.261-9.898 19.089-24.745 17.675-41.713q2.121-8.484 3.535-9.898t12.019-1.414q14.14 0 14.14 7.07 0 5.656-6.363 21.917t-17.675 36.057-31.815 35.35-43.834 15.554q-22.624 0-41.713-14.847t-19.796-45.248q0-12.019 3.535-22.624t30.401-80.598q26.866-71.407 31.108-85.547t4.949-27.573q0-16.968-12.019-16.968h-1.414q-21.21 0-38.885 23.331t-26.866 59.388q-.707.707-1.414 2.121t-.707 2.121-1.414 1.414-2.121.707-2.828 0-5.656 0h-9.898q-4.242-4.242-4.242-6.363" data-c="1D456" data-mml-node="mi"/><path stroke="none" d="M6980.907-863.329q0-9.191 9.898-14.14h450.359q10.605 5.656 10.605 14.14 0 7.777-9.898 13.433l-224.826.707h-224.826q-11.312-3.535-11.312-14.14m0 137.158q0-10.605 11.312-14.14h449.652q9.898 7.07 9.898 14.14 0 9.191-10.605 14.14h-450.359q-9.898-4.949-9.898-14.14" data-c="3D" data-mml-node="mo"/><path stroke="none" d="m7641.952-1026.646-9.191 3.535q-9.898 3.535-28.28 7.07t-41.006 4.949h-13.433v-32.522h13.433q33.229-1.414 61.509-10.605t39.592-16.968 19.796-15.554q1.414-2.121 8.484-2.121 6.363 0 12.019 4.242v211.393l.707 212.1q4.949 4.949 8.484 6.363t16.968 2.828 43.834 1.414h18.382V-618h-7.777q-14.847-2.121-112.413-2.121-96.152 0-110.999 2.121h-8.484v-32.522h45.248q11.312 0 17.675-.707t11.312-2.121 5.656-1.414 4.242-3.535 4.242-2.828z" data-c="31" data-mml-node="mn"/></g><g data-mjx-texclass="ORD" data-mml-node="TeXAtom"><path stroke="none" d="M7073.947-3058.809q.707-4.242 2.121-11.312t8.484-26.866 14.14-33.229 23.331-26.159 32.522-12.019q25.452 0 42.42 12.726t21.21 24.038 4.242 14.847q0 1.414.707 1.414l7.777-7.777q43.127-45.248 98.273-45.248 38.178 0 61.509 19.089t24.038 55.853-26.866 110.999-26.866 89.789q0 18.382 12.019 18.382 4.242 0 6.363-.707 20.503-3.535 36.764-26.866t24.745-56.56q1.414-5.656 14.14-5.656 14.14 0 14.14 5.656 0 .707-2.828 10.605-5.656 20.503-15.554 40.299t-32.522 39.592-48.783 19.089q-33.229 0-48.076-19.089t-14.847-39.592q0-13.433 25.452-84.84t26.159-107.464q0-41.713-31.108-41.713h-3.535q-60.802 0-102.515 71.407l-4.949 8.484-23.331 94.738q-23.331 92.617-26.866 99.687-9.191 19.089-30.401 19.089-9.191 0-14.847-4.242t-7.777-8.484-1.414-7.07q0-9.191 26.866-115.241t28.28-115.241q.707-3.535.707-16.261 0-27.573-16.968-27.573-26.866 0-44.541 70.7-4.242 14.14-4.242 14.847-1.414 4.242-13.433 4.242h-9.898q-4.242-4.242-4.242-6.363" data-c="1D45B" data-mml-node="mi"/></g></g><g data-mml-node="msub"><path stroke="none" d="M8192.9-1862.9q0-101 76-192t171-92q51 0 90 49 16-30 46-30 13 0 23 8t10 20q0 13-37 160t-38 166q0 25 7 33t21 9q9-1 20-9 21-20 41-96 6-20 10-21 2-1 10-1h4q19 0 19 9 0 6-5 27t-20 54-32 50q-13 13-32 21-8 2-24 2-34 0-57-15t-30-31l-6-15q-1-1-4 1l-4 4q-59 56-120 56-55 0-97-40t-42-127m318-171q0-6-5-22t-23-35-46-20q-35 0-67 31t-50 81q-29 79-41 164v11q0 8-1 12 0 45 18 62t43 18q38 0 75-33t44-51q2-4 27-107t26-111" data-c="1D44E" data-mml-node="mi"/><path stroke="none" d="M8851.988-1980.1q0-16.968 13.433-29.694t31.108-13.433q12.726 0 21.21 8.484t9.191 21.21q0 16.261-14.14 29.694t-31.108 14.14q-10.605 0-19.796-7.07t-9.898-23.331m-115.241 221.291q0-5.656 6.363-21.917t16.968-36.057 31.108-36.057 42.42-15.554q27.573 0 45.955 16.261t19.089 43.834q0 12.019-9.898 39.592t-28.28 74.235-29.694 79.891q-3.535 15.554-3.535 22.624 0 17.675 12.019 17.675 6.363 0 13.433-2.121t16.261-9.898 19.089-24.745 17.675-41.713q2.121-8.484 3.535-9.898t12.019-1.414q14.14 0 14.14 7.07 0 5.656-6.363 21.917t-17.675 36.057-31.815 35.35-43.834 15.554q-22.624 0-41.713-14.847t-19.796-45.248q0-12.019 3.535-22.624t30.401-80.598q26.866-71.407 31.108-85.547t4.949-27.573q0-16.968-12.019-16.968h-1.414q-21.21 0-38.885 23.331t-26.866 59.388q-.707.707-1.414 2.121t-.707 2.121-1.414 1.414-2.121.707-2.828 0-5.656 0h-9.898q-4.242-4.242-4.242-6.363" data-c="1D456" data-mml-node="mi"/></g><g data-mml-node="msub"><path stroke="none" d="M9088.8-2352.9q0-10 4-23t12-13q1 0 72-5t73-6q12 0 12 9t-34 143q-8 34-17 70t-15 54l-4 19q0 3 6-3 49-40 101-40 62 0 100 46t39 116q0 111-79 201t-170 90q-50 0-91-38t-42-123v-9q0-21 8-58t49-197q50-197 50-209t-38-14h-26q-3 0-7-3t-3-7m263 322v-6q0-74-61-74-17 0-35 8t-33 21-26 24-18 22l-6 8-21 86q-22 86-22 122 0 48 24 72 16 16 40 16 33 0 67-32 25-23 40-56t33-105 18-106" data-c="1D44F" data-mml-node="mi"/><path stroke="none" d="M9607.888-1980.1q0-16.968 13.433-29.694t31.108-13.433q12.726 0 21.21 8.484t9.191 21.21q0 16.261-14.14 29.694t-31.108 14.14q-10.605 0-19.796-7.07t-9.898-23.331m-115.241 221.291q0-5.656 6.363-21.917t16.968-36.057 31.108-36.057 42.42-15.554q27.573 0 45.955 16.261t19.089 43.834q0 12.019-9.898 39.592t-28.28 74.235-29.694 79.891q-3.535 15.554-3.535 22.624 0 17.675 12.019 17.675 6.363 0 13.433-2.121t16.261-9.898 19.089-24.745 17.675-41.713q2.121-8.484 3.535-9.898t12.019-1.414q14.14 0 14.14 7.07 0 5.656-6.363 21.917t-17.675 36.057-31.815 35.35-43.834 15.554q-22.624 0-41.713-14.847t-19.796-45.248q0-12.019 3.535-22.624t30.401-80.598q26.866-71.407 31.108-85.547t4.949-27.573q0-16.968-12.019-16.968h-1.414q-21.21 0-38.885 23.331t-26.866 59.388q-.707.707-1.414 2.121t-.707 2.121-1.414 1.414-2.121.707-2.828 0-5.656 0h-9.898q-4.242-4.242-4.242-6.363" data-c="1D456" data-mml-node="mi"/></g><path stroke="none" d="M10078-1942.9v-13l14-20h581q15 8 15 20t-15 20h-581q-14-7-14-20Z" data-c="2212" data-mml-node="mo"/><g data-mml-node="mfrac"><g data-mml-node="mstyle"><g data-mml-node="munderover"><path stroke="none" d="M11274.2-4359.8q3-2 605-2h602l58 135q59 138 63 146h-40l-7-14q-21-41-56-78-50-48-111-77t-141-43-151-17-183-4h-448l8 11q463 633 465 639 1 2 0 6-3 3-264 302l-264 300q0 1 211 1h141q89 0 128 1 136 0 220-5t167-21 141-49 103-87q21-26 41-72h40q0 1-7 21t-25 65-31 84l-58 155-601 1q-602 0-605-2-6-2-6-9 0-2 2-6l533-610q0-1-33-45t-105-144-130-178l-266-365-1-15q0-21 5-24" data-c="2211" data-mml-node="mo"/><g data-mjx-texclass="ORD" data-mml-node="TeXAtom"><path stroke="none" d="M11492.488-2748.1q0-16.968 13.433-29.694t31.108-13.433q12.726 0 21.21 8.484t9.191 21.21q0 16.261-14.14 29.694t-31.108 14.14q-10.605 0-19.796-7.07t-9.898-23.331m-115.241 221.291q0-5.656 6.363-21.917t16.968-36.057 31.108-36.057 42.42-15.554q27.573 0 45.955 16.261t19.089 43.834q0 12.019-9.898 39.592t-28.28 74.235-29.694 79.891q-3.535 15.554-3.535 22.624 0 17.675 12.019 17.675 6.363 0 13.433-2.121t16.261-9.898 19.089-24.745 17.675-41.713q2.121-8.484 3.535-9.898t12.019-1.414q14.14 0 14.14 7.07 0 5.656-6.363 21.917t-17.675 36.057-31.815 35.35-43.834 15.554q-22.624 0-41.713-14.847t-19.796-45.248q0-12.019 3.535-22.624t30.401-80.598q26.866-71.407 31.108-85.547t4.949-27.573q0-16.968-12.019-16.968h-1.414q-21.21 0-38.885 23.331t-26.866 59.388q-.707.707-1.414 2.121t-.707 2.121-1.414 1.414-2.121.707-2.828 0-5.656 0h-9.898q-4.242-4.242-4.242-6.363" data-c="1D456" data-mml-node="mi"/><path stroke="none" d="M11645.907-2569.229q0-9.191 9.898-14.14h450.359q10.605 5.656 10.605 14.14 0 7.777-9.898 13.433l-224.826.707h-224.826q-11.312-3.535-11.312-14.14m0 137.158q0-10.605 11.312-14.14h449.652q9.898 7.07 9.898 14.14 0 9.191-10.605 14.14h-450.359q-9.898-4.949-9.898-14.14" data-c="3D" data-mml-node="mo"/><path stroke="none" d="m12306.952-2732.546-9.191 3.535q-9.898 3.535-28.28 7.07t-41.006 4.949h-13.433v-32.522h13.433q33.229-1.414 61.509-10.605t39.592-16.968 19.796-15.554q1.414-2.121 8.484-2.121 6.363 0 12.019 4.242v211.393l.707 212.1q4.949 4.949 8.484 6.363t16.968 2.828 43.834 1.414h18.382v32.522h-7.777q-14.847-2.121-112.413-2.121-96.152 0-110.999 2.121h-8.484v-32.522h45.248q11.312 0 17.675-.707t11.312-2.121 5.656-1.414 4.242-3.535 4.242-2.828z" data-c="31" data-mml-node="mn"/></g><g data-mjx-texclass="ORD" data-mml-node="TeXAtom"><path stroke="none" d="M11738.947-4764.709q.707-4.242 2.121-11.312t8.484-26.866 14.14-33.229 23.331-26.159 32.522-12.019q25.452 0 42.42 12.726t21.21 24.038 4.242 14.847q0 1.414.707 1.414l7.777-7.777q43.127-45.248 98.273-45.248 38.178 0 61.509 19.089t24.038 55.853-26.866 110.999-26.866 89.789q0 18.382 12.019 18.382 4.242 0 6.363-.707 20.503-3.535 36.764-26.866t24.745-56.56q1.414-5.656 14.14-5.656 14.14 0 14.14 5.656 0 .707-2.828 10.605-5.656 20.503-15.554 40.299t-32.522 39.592-48.783 19.089q-33.229 0-48.076-19.089t-14.847-39.592q0-13.433 25.452-84.84t26.159-107.464q0-41.713-31.108-41.713h-3.535q-60.802 0-102.515 71.407l-4.949 8.484-23.331 94.738q-23.331 92.617-26.866 99.687-9.191 19.089-30.401 19.089-9.191 0-14.847-4.242t-7.777-8.484-1.414-7.07q0-9.191 26.866-115.241t28.28-115.241q.707-3.535.707-16.261 0-27.573-16.968-27.573-26.866 0-44.541 70.7-4.242 14.14-4.242 14.847-1.414 4.242-13.433 4.242h-9.898q-4.242-4.242-4.242-6.363" data-c="1D45B" data-mml-node="mi"/></g></g><g data-mml-node="msub"><path stroke="none" d="M12857.9-3568.8q0-101 76-192t171-92q51 0 90 49 16-30 46-30 13 0 23 8t10 20q0 13-37 160t-38 166q0 25 7 33t21 9q9-1 20-9 21-20 41-96 6-20 10-21 2-1 10-1h4q19 0 19 9 0 6-5 27t-20 54-32 50q-13 13-32 21-8 2-24 2-34 0-57-15t-30-31l-6-15q-1-1-4 1l-4 4q-59 56-120 56-55 0-97-40t-42-127m318-171q0-6-5-22t-23-35-46-20q-35 0-67 31t-50 81q-29 79-41 164v11q0 8-1 12 0 45 18 62t43 18q38 0 75-33t44-51q2-4 27-107t26-111" data-c="1D44E" data-mml-node="mi"/><path stroke="none" d="M13516.988-3686q0-16.968 13.433-29.694t31.108-13.433q12.726 0 21.21 8.484t9.191 21.21q0 16.261-14.14 29.694t-31.108 14.14q-10.605 0-19.796-7.07t-9.898-23.331m-115.241 221.291q0-5.656 6.363-21.917t16.968-36.057 31.108-36.057 42.42-15.554q27.573 0 45.955 16.261t19.089 43.834q0 12.019-9.898 39.592t-28.28 74.235-29.694 79.891q-3.535 15.554-3.535 22.624 0 17.675 12.019 17.675 6.363 0 13.433-2.121t16.261-9.898 19.089-24.745 17.675-41.713q2.121-8.484 3.535-9.898t12.019-1.414q14.14 0 14.14 7.07 0 5.656-6.363 21.917t-17.675 36.057-31.815 35.35-43.834 15.554q-22.624 0-41.713-14.847t-19.796-45.248q0-12.019 3.535-22.624t30.401-80.598q26.866-71.407 31.108-85.547t4.949-27.573q0-16.968-12.019-16.968h-1.414q-21.21 0-38.885 23.331t-26.866 59.388q-.707.707-1.414 2.121t-.707 2.121-1.414 1.414-2.121.707-2.828 0-5.656 0h-9.898q-4.242-4.242-4.242-6.363" data-c="1D456" data-mml-node="mi"/></g><g data-mml-node="mstyle"><g data-mml-node="munderover"><path stroke="none" d="M13907.5-4359.8q3-2 605-2h602l58 135q59 138 63 146h-40l-7-14q-21-41-56-78-50-48-111-77t-141-43-151-17-183-4h-448l8 11q463 633 465 639 1 2 0 6-3 3-264 302l-264 300q0 1 211 1h141q89 0 128 1 136 0 220-5t167-21 141-49 103-87q21-26 41-72h40q0 1-7 21t-25 65-31 84l-58 155-601 1q-602 0-605-2-6-2-6-9 0-2 2-6l533-610q0-1-33-45t-105-144-130-178l-266-365-1-15q0-21 5-24" data-c="2211" data-mml-node="mo"/><g data-mjx-texclass="ORD" data-mml-node="TeXAtom"><path stroke="none" d="M14125.788-2748.1q0-16.968 13.433-29.694t31.108-13.433q12.726 0 21.21 8.484t9.191 21.21q0 16.261-14.14 29.694t-31.108 14.14q-10.605 0-19.796-7.07t-9.898-23.331m-115.241 221.291q0-5.656 6.363-21.917t16.968-36.057 31.108-36.057 42.42-15.554q27.573 0 45.955 16.261t19.089 43.834q0 12.019-9.898 39.592t-28.28 74.235-29.694 79.891q-3.535 15.554-3.535 22.624 0 17.675 12.019 17.675 6.363 0 13.433-2.121t16.261-9.898 19.089-24.745 17.675-41.713q2.121-8.484 3.535-9.898t12.019-1.414q14.14 0 14.14 7.07 0 5.656-6.363 21.917t-17.675 36.057-31.815 35.35-43.834 15.554q-22.624 0-41.713-14.847t-19.796-45.248q0-12.019 3.535-22.624t30.401-80.598q26.866-71.407 31.108-85.547t4.949-27.573q0-16.968-12.019-16.968h-1.414q-21.21 0-38.885 23.331t-26.866 59.388q-.707.707-1.414 2.121t-.707 2.121-1.414 1.414-2.121.707-2.828 0-5.656 0h-9.898q-4.242-4.242-4.242-6.363" data-c="1D456" data-mml-node="mi"/><path stroke="none" d="M14279.207-2569.229q0-9.191 9.898-14.14h450.359q10.605 5.656 10.605 14.14 0 7.777-9.898 13.433l-224.826.707h-224.826q-11.312-3.535-11.312-14.14m0 137.158q0-10.605 11.312-14.14h449.652q9.898 7.07 9.898 14.14 0 9.191-10.605 14.14h-450.359q-9.898-4.949-9.898-14.14" data-c="3D" data-mml-node="mo"/><path stroke="none" d="m14940.252-2732.546-9.191 3.535q-9.898 3.535-28.28 7.07t-41.006 4.949h-13.433v-32.522h13.433q33.229-1.414 61.509-10.605t39.592-16.968 19.796-15.554q1.414-2.121 8.484-2.121 6.363 0 12.019 4.242v211.393l.707 212.1q4.949 4.949 8.484 6.363t16.968 2.828 43.834 1.414h18.382v32.522h-7.777q-14.847-2.121-112.413-2.121-96.152 0-110.999 2.121h-8.484v-32.522h45.248q11.312 0 17.675-.707t11.312-2.121 5.656-1.414 4.242-3.535 4.242-2.828z" data-c="31" data-mml-node="mn"/></g><g data-mjx-texclass="ORD" data-mml-node="TeXAtom"><path stroke="none" d="M14372.247-4764.709q.707-4.242 2.121-11.312t8.484-26.866 14.14-33.229 23.331-26.159 32.522-12.019q25.452 0 42.42 12.726t21.21 24.038 4.242 14.847q0 1.414.707 1.414l7.777-7.777q43.127-45.248 98.273-45.248 38.178 0 61.509 19.089t24.038 55.853-26.866 110.999-26.866 89.789q0 18.382 12.019 18.382 4.242 0 6.363-.707 20.503-3.535 36.764-26.866t24.745-56.56q1.414-5.656 14.14-5.656 14.14 0 14.14 5.656 0 .707-2.828 10.605-5.656 20.503-15.554 40.299t-32.522 39.592-48.783 19.089q-33.229 0-48.076-19.089t-14.847-39.592q0-13.433 25.452-84.84t26.159-107.464q0-41.713-31.108-41.713h-3.535q-60.802 0-102.515 71.407l-4.949 8.484-23.331 94.738q-23.331 92.617-26.866 99.687-9.191 19.089-30.401 19.089-9.191 0-14.847-4.242t-7.777-8.484-1.414-7.07q0-9.191 26.866-115.241t28.28-115.241q.707-3.535.707-16.261 0-27.573-16.968-27.573-26.866 0-44.541 70.7-4.242 14.14-4.242 14.847-1.414 4.242-13.433 4.242h-9.898q-4.242-4.242-4.242-6.363" data-c="1D45B" data-mml-node="mi"/></g></g><g data-mml-node="msub"><path stroke="none" d="M15531.2-4058.8q0-10 4-23t12-13q1 0 72-5t73-6q12 0 12 9t-34 143q-8 34-17 70t-15 54l-4 19q0 3 6-3 49-40 101-40 62 0 100 46t39 116q0 111-79 201t-170 90q-50 0-91-38t-42-123v-9q0-21 8-58t49-197q50-197 50-209t-38-14h-26q-3 0-7-3t-3-7m263 322v-6q0-74-61-74-17 0-35 8t-33 21-26 24-18 22l-6 8-21 86q-22 86-22 122 0 48 24 72 16 16 40 16 33 0 67-32 25-23 40-56t33-105 18-106" data-c="1D44F" data-mml-node="mi"/><path stroke="none" d="M16050.288-3686q0-16.968 13.433-29.694t31.108-13.433q12.726 0 21.21 8.484t9.191 21.21q0 16.261-14.14 29.694t-31.108 14.14q-10.605 0-19.796-7.07t-9.898-23.331m-115.241 221.291q0-5.656 6.363-21.917t16.968-36.057 31.108-36.057 42.42-15.554q27.573 0 45.955 16.261t19.089 43.834q0 12.019-9.898 39.592t-28.28 74.235-29.694 79.891q-3.535 15.554-3.535 22.624 0 17.675 12.019 17.675 6.363 0 13.433-2.121t16.261-9.898 19.089-24.745 17.675-41.713q2.121-8.484 3.535-9.898t12.019-1.414q14.14 0 14.14 7.07 0 5.656-6.363 21.917t-17.675 36.057-31.815 35.35-43.834 15.554q-22.624 0-41.713-14.847t-19.796-45.248q0-12.019 3.535-22.624t30.401-80.598q26.866-71.407 31.108-85.547t4.949-27.573q0-16.968-12.019-16.968h-1.414q-21.21 0-38.885 23.331t-26.866 59.388q-.707.707-1.414 2.121t-.707 2.121-1.414 1.414-2.121.707-2.828 0-5.656 0h-9.898q-4.242-4.242-4.242-6.363" data-c="1D456" data-mml-node="mi"/></g></g></g><path stroke="none" d="M13435.2-1306.9q1-6 3-16t12-38 20-47 33-37 46-17q36 0 60 18t30 34 6 21q0 2 1 2l11-11q61-64 139-64 54 0 87 27t34 79-38 157-38 127q0 26 17 26 6 0 9-1 29-5 52-38t35-80q2-8 20-8 20 0 20 8 0 1-4 15-8 29-22 57t-46 56-69 27q-47 0-68-27t-21-56q0-19 36-120t37-152q0-59-44-59h-5q-86 0-145 101l-7 12-33 134q-33 131-38 141-13 27-43 27-13 0-21-6t-11-12-2-10q0-13 38-163t40-163q1-5 1-23 0-39-24-39-38 0-63 100-6 20-6 21-2 6-19 6h-14q-6-6-6-9" data-c="1D45B" data-mml-node="mi"/><path stroke="none" d="M11114.2-1925.9h5199.9v-60h-5199.9z"/></g></g><g data-mml-node="msqrt"><path stroke="none" d="M3154.6 3298.8q0-69 10-131t23-107 37-88 38-67 42-52 33-34 25-21h17q14 0 14 9 0 3-17 21t-41 53-49 86-42 138-17 193 17 192 41 139 49 86 42 53 17 21q0 9-15 9h-16l-28-24q-94-85-137-212t-43-264" data-c="28" data-mml-node="mo"/><g data-mml-node="mstyle"><g data-mml-node="munderover"><path stroke="none" d="M3509.6 2600.8q3-2 605-2h602l58 135q59 138 63 146h-40l-7-14q-21-41-56-78-50-48-111-77t-141-43-151-17-183-4h-448l8 11q463 633 465 639 1 2 0 6-3 3-264 302l-264 300q0 1 211 1h141q89 0 128 1 136 0 220-5t167-21 141-49 103-87q21-26 41-72h40q0 1-7 21t-25 65-31 84l-58 155-601 1q-602 0-605-2-6-2-6-9 0-2 2-6l533-610q0-1-33-45t-105-144-130-178l-266-365-1-15q0-21 5-24" data-c="2211" data-mml-node="mo"/><g data-mjx-texclass="ORD" data-mml-node="TeXAtom"><path stroke="none" d="M3727.888 4212.5q0-16.968 13.433-29.694t31.108-13.433q12.726 0 21.21 8.484t9.191 21.21q0 16.261-14.14 29.694t-31.108 14.14q-10.605 0-19.796-7.07t-9.898-23.331m-115.241 221.291q0-5.656 6.363-21.917t16.968-36.057 31.108-36.057 42.42-15.554q27.573 0 45.955 16.261t19.089 43.834q0 12.019-9.898 39.592t-28.28 74.235-29.694 79.891q-3.535 15.554-3.535 22.624 0 17.675 12.019 17.675 6.363 0 13.433-2.121t16.261-9.898 19.089-24.745 17.675-41.713q2.121-8.484 3.535-9.898t12.019-1.414q14.14 0 14.14 7.07 0 5.656-6.363 21.917t-17.675 36.057-31.815 35.35-43.834 15.554q-22.624 0-41.713-14.847t-19.796-45.248q0-12.019 3.535-22.624t30.401-80.598q26.866-71.407 31.108-85.547t4.949-27.573q0-16.968-12.019-16.968h-1.414q-21.21 0-38.885 23.331t-26.866 59.388q-.707.707-1.414 2.121t-.707 2.121-1.414 1.414-2.121.707-2.828 0-5.656 0h-9.898q-4.242-4.242-4.242-6.363" data-c="1D456" data-mml-node="mi"/><path stroke="none" d="M3881.307 4391.371q0-9.191 9.898-14.14h450.359q10.605 5.656 10.605 14.14 0 7.777-9.898 13.433l-224.826.707h-224.826q-11.312-3.535-11.312-14.14m0 137.158q0-10.605 11.312-14.14h449.652q9.898 7.07 9.898 14.14 0 9.191-10.605 14.14h-450.359q-9.898-4.949-9.898-14.14" data-c="3D" data-mml-node="mo"/><path stroke="none" d="m4542.352 4228.054-9.191 3.535q-9.898 3.535-28.28 7.07t-41.006 4.949h-13.433v-32.522h13.433q33.229-1.414 61.509-10.605t39.592-16.968 19.796-15.554q1.414-2.121 8.484-2.121 6.363 0 12.019 4.242v211.393l.707 212.1q4.949 4.949 8.484 6.363t16.968 2.828 43.834 1.414h18.382v32.522h-7.777q-14.847-2.121-112.413-2.121-96.152 0-110.999 2.121h-8.484v-32.522h45.248q11.312 0 17.675-.707t11.312-2.121 5.656-1.414 4.242-3.535 4.242-2.828z" data-c="31" data-mml-node="mn"/></g><g data-mjx-texclass="ORD" data-mml-node="TeXAtom"><path stroke="none" d="M3974.347 2195.891q.707-4.242 2.121-11.312t8.484-26.866 14.14-33.229 23.331-26.159 32.522-12.019q25.452 0 42.42 12.726t21.21 24.038 4.242 14.847q0 1.414.707 1.414l7.777-7.777q43.127-45.248 98.273-45.248 38.178 0 61.509 19.089t24.038 55.853-26.866 110.999-26.866 89.789q0 18.382 12.019 18.382 4.242 0 6.363-.707 20.503-3.535 36.764-26.866t24.745-56.56q1.414-5.656 14.14-5.656 14.14 0 14.14 5.656 0 .707-2.828 10.605-5.656 20.503-15.554 40.299t-32.522 39.592-48.783 19.089q-33.229 0-48.076-19.089t-14.847-39.592q0-13.433 25.452-84.84t26.159-107.464q0-41.713-31.108-41.713h-3.535q-60.802 0-102.515 71.407l-4.949 8.484-23.331 94.738q-23.331 92.617-26.866 99.687-9.191 19.089-30.401 19.089-9.191 0-14.847-4.242t-7.777-8.484-1.414-7.07q0-9.191 26.866-115.241t28.28-115.241q.707-3.535.707-16.261 0-27.573-16.968-27.573-26.866 0-44.541 70.7-4.242 14.14-4.242 14.847-1.414 4.242-13.433 4.242h-9.898q-4.242-4.242-4.242-6.363" data-c="1D45B" data-mml-node="mi"/></g></g><g data-mml-node="msubsup"><path stroke="none" d="M5093.3 3391.8q0-101 76-192t171-92q51 0 90 49 16-30 46-30 13 0 23 8t10 20q0 13-37 160t-38 166q0 25 7 33t21 9q9-1 20-9 21-20 41-96 6-20 10-21 2-1 10-1h4q19 0 19 9 0 6-5 27t-20 54-32 50q-13 13-32 21-8 2-24 2-34 0-57-15t-30-31l-6-15q-1-1-4 1l-4 4q-59 56-120 56-55 0-97-40t-42-127m318-171q0-6-5-22t-23-35-46-20q-35 0-67 31t-50 81q-29 79-41 164v11q0 8-1 12 0 45 18 62t43 18q38 0 75-33t44-51q2-4 27-107t26-111" data-c="1D44E" data-mml-node="mi"/><path stroke="none" d="M5699.363 2832.497q-19.089 0-30.401-12.726t-11.312-31.108q0-50.197 37.471-86.961t93.324-36.764q64.337 0 107.464 39.592t43.834 102.515q0 30.401-14.14 57.974t-33.936 48.076-56.56 52.318q-25.452 21.917-70.7 65.044l-41.713 39.592 53.732.707q110.999 0 118.069-3.535 4.949-1.414 16.968-62.923v-2.121h28.28v2.121q-.707 2.121-9.191 64.337t-10.605 65.044v2.121H5657.65v-21.917q0-4.949 4.242-10.605t21.21-24.745q20.503-22.624 35.35-39.592 6.363-7.07 24.038-26.159t24.038-26.159 20.503-23.331 19.796-24.038 16.261-21.21 14.847-22.624 10.605-20.503 9.191-22.624 4.949-21.21 2.121-23.331q0-44.541-24.038-77.063t-68.579-32.522q-23.331 0-41.006 12.019t-24.745 23.331-7.07 13.433q0 .707 3.535.707 12.726 0 26.159 9.898t13.433 32.522q0 17.675-11.312 29.694t-31.815 12.726" data-c="32" data-mml-node="mn"/><path stroke="none" d="M5752.388 3371.6q0-16.968 13.433-29.694t31.108-13.433q12.726 0 21.21 8.484t9.191 21.21q0 16.261-14.14 29.694t-31.108 14.14q-10.605 0-19.796-7.07t-9.898-23.331m-115.241 221.291q0-5.656 6.363-21.917t16.968-36.057 31.108-36.057 42.42-15.554q27.573 0 45.955 16.261t19.089 43.834q0 12.019-9.898 39.592t-28.28 74.235-29.694 79.891q-3.535 15.554-3.535 22.624 0 17.675 12.019 17.675 6.363 0 13.433-2.121t16.261-9.898 19.089-24.745 17.675-41.713q2.121-8.484 3.535-9.898t12.019-1.414q14.14 0 14.14 7.07 0 5.656-6.363 21.917t-17.675 36.057-31.815 35.35-43.834 15.554q-22.624 0-41.713-14.847t-19.796-45.248q0-12.019 3.535-22.624t30.401-80.598q26.866-71.407 31.108-85.547t4.949-27.573q0-16.968-12.019-16.968h-1.414q-21.21 0-38.885 23.331t-26.866 59.388q-.707.707-1.414 2.121t-.707 2.121-1.414 1.414-2.121.707-2.828 0-5.656 0h-9.898q-4.242-4.242-4.242-6.363" data-c="1D456" data-mml-node="mi"/></g><path stroke="none" d="M6332 3311.8v-13l14-20h581q15 8 15 20t-15 20h-581q-14-7-14-20Z" data-c="2212" data-mml-node="mo"/><g data-mml-node="mfrac"><g data-mml-node="mrow"><path stroke="none" d="M7562.3 1592.9q0-69 10-131t23-107 37-88 38-67 42-52 33-34 25-21h17q14 0 14 9 0 3-17 21t-41 53-49 86-42 138-17 193 17 192 41 139 49 86 42 53 17 21q0 9-15 9h-16l-28-24q-94-85-137-212t-43-264" data-c="28" data-mml-node="mo"/><g data-mml-node="mstyle"><g data-mml-node="munderover"><path stroke="none" d="M7917.3 894.9q3-2 605-2h602l58 135q59 138 63 146h-40l-7-14q-21-41-56-78-50-48-111-77t-141-43-151-17-183-4h-448l8 11q463 633 465 639 1 2 0 6-3 3-264 302l-264 300q0 1 211 1h141q89 0 128 1 136 0 220-5t167-21 141-49 103-87q21-26 41-72h40q0 1-7 21t-25 65-31 84l-58 155-601 1q-602 0-605-2-6-2-6-9 0-2 2-6l533-610q0-1-33-45t-105-144-130-178l-266-365-1-15q0-21 5-24" data-c="2211" data-mml-node="mo"/><g data-mjx-texclass="ORD" data-mml-node="TeXAtom"><path stroke="none" d="M8135.588 2506.6q0-16.968 13.433-29.694t31.108-13.433q12.726 0 21.21 8.484t9.191 21.21q0 16.261-14.14 29.694t-31.108 14.14q-10.605 0-19.796-7.07t-9.898-23.331m-115.241 221.291q0-5.656 6.363-21.917t16.968-36.057 31.108-36.057 42.42-15.554q27.573 0 45.955 16.261t19.089 43.834q0 12.019-9.898 39.592t-28.28 74.235-29.694 79.891q-3.535 15.554-3.535 22.624 0 17.675 12.019 17.675 6.363 0 13.433-2.121t16.261-9.898 19.089-24.745 17.675-41.713q2.121-8.484 3.535-9.898t12.019-1.414q14.14 0 14.14 7.07 0 5.656-6.363 21.917t-17.675 36.057-31.815 35.35-43.834 15.554q-22.624 0-41.713-14.847t-19.796-45.248q0-12.019 3.535-22.624t30.401-80.598q26.866-71.407 31.108-85.547t4.949-27.573q0-16.968-12.019-16.968h-1.414q-21.21 0-38.885 23.331t-26.866 59.388q-.707.707-1.414 2.121t-.707 2.121-1.414 1.414-2.121.707-2.828 0-5.656 0h-9.898q-4.242-4.242-4.242-6.363" data-c="1D456" data-mml-node="mi"/><path stroke="none" d="M8289.007 2685.471q0-9.191 9.898-14.14h450.359q10.605 5.656 10.605 14.14 0 7.777-9.898 13.433l-224.826.707h-224.826q-11.312-3.535-11.312-14.14m0 137.158q0-10.605 11.312-14.14h449.652q9.898 7.07 9.898 14.14 0 9.191-10.605 14.14h-450.359q-9.898-4.949-9.898-14.14" data-c="3D" data-mml-node="mo"/><path stroke="none" d="m8950.052 2522.154-9.191 3.535q-9.898 3.535-28.28 7.07t-41.006 4.949h-13.433v-32.522h13.433q33.229-1.414 61.509-10.605t39.592-16.968 19.796-15.554q1.414-2.121 8.484-2.121 6.363 0 12.019 4.242v211.393l.707 212.1q4.949 4.949 8.484 6.363t16.968 2.828 43.834 1.414h18.382v32.522h-7.777q-14.847-2.121-112.413-2.121-96.152 0-110.999 2.121h-8.484v-32.522h45.248q11.312 0 17.675-.707t11.312-2.121 5.656-1.414 4.242-3.535 4.242-2.828z" data-c="31" data-mml-node="mn"/></g><g data-mjx-texclass="ORD" data-mml-node="TeXAtom"><path stroke="none" d="M8382.047 489.991q.707-4.242 2.121-11.312t8.484-26.866 14.14-33.229 23.331-26.159 32.522-12.019q25.452 0 42.42 12.726t21.21 24.038 4.242 14.847q0 1.414.707 1.414l7.777-7.777q43.127-45.248 98.273-45.248 38.178 0 61.509 19.089t24.038 55.853-26.866 110.999-26.866 89.789q0 18.382 12.019 18.382 4.242 0 6.363-.707 20.503-3.535 36.764-26.866t24.745-56.56q1.414-5.656 14.14-5.656 14.14 0 14.14 5.656 0 .707-2.828 10.605-5.656 20.503-15.554 40.299t-32.522 39.592-48.783 19.089q-33.229 0-48.076-19.089t-14.847-39.592q0-13.433 25.452-84.84t26.159-107.464q0-41.713-31.108-41.713h-3.535q-60.802 0-102.515 71.407l-4.949 8.484-23.331 94.738q-23.331 92.617-26.866 99.687-9.191 19.089-30.401 19.089-9.191 0-14.847-4.242t-7.777-8.484-1.414-7.07q0-9.191 26.866-115.241t28.28-115.241q.707-3.535.707-16.261 0-27.573-16.968-27.573-26.866 0-44.541 70.7-4.242 14.14-4.242 14.847-1.414 4.242-13.433 4.242h-9.898q-4.242-4.242-4.242-6.363" data-c="1D45B" data-mml-node="mi"/></g></g><g data-mml-node="msub"><path stroke="none" d="M9501 1685.9q0-101 76-192t171-92q51 0 90 49 16-30 46-30 13 0 23 8t10 20q0 13-37 160t-38 166q0 25 7 33t21 9q9-1 20-9 21-20 41-96 6-20 10-21 2-1 10-1h4q19 0 19 9 0 6-5 27t-20 54-32 50q-13 13-32 21-8 2-24 2-34 0-57-15t-30-31l-6-15q-1-1-4 1l-4 4q-59 56-120 56-55 0-97-40t-42-127m318-171q0-6-5-22t-23-35-46-20q-35 0-67 31t-50 81q-29 79-41 164v11q0 8-1 12 0 45 18 62t43 18q38 0 75-33t44-51q2-4 27-107t26-111" data-c="1D44E" data-mml-node="mi"/><path stroke="none" d="M10160.088 1568.7q0-16.968 13.433-29.694t31.108-13.433q12.726 0 21.21 8.484t9.191 21.21q0 16.261-14.14 29.694t-31.108 14.14q-10.605 0-19.796-7.07t-9.898-23.331m-115.241 221.291q0-5.656 6.363-21.917t16.968-36.057 31.108-36.057 42.42-15.554q27.573 0 45.955 16.261t19.089 43.834q0 12.019-9.898 39.592t-28.28 74.235-29.694 79.891q-3.535 15.554-3.535 22.624 0 17.675 12.019 17.675 6.363 0 13.433-2.121t16.261-9.898 19.089-24.745 17.675-41.713q2.121-8.484 3.535-9.898t12.019-1.414q14.14 0 14.14 7.07 0 5.656-6.363 21.917t-17.675 36.057-31.815 35.35-43.834 15.554q-22.624 0-41.713-14.847t-19.796-45.248q0-12.019 3.535-22.624t30.401-80.598q26.866-71.407 31.108-85.547t4.949-27.573q0-16.968-12.019-16.968h-1.414q-21.21 0-38.885 23.331t-26.866 59.388q-.707.707-1.414 2.121t-.707 2.121-1.414 1.414-2.121.707-2.828 0-5.656 0h-9.898q-4.242-4.242-4.242-6.363" data-c="1D456" data-mml-node="mi"/></g><g data-mml-node="msup"><path stroke="none" d="m10383.9 1093.9 4-1h22l28 24q94 85 137 212t43 264q0 68-10 131t-23 107-37 88-38 67-41 51-32 33-23 19l-4 4h-23q-3 0-5-3t-3-9q1-1 11-13 155-161 155-475t-155-475q-10-12-11-13 0-8 5-11" data-c="29" data-mml-node="mo"/><path stroke="none" d="M10822.963 1126.597q-19.089 0-30.401-12.726t-11.312-31.108q0-50.197 37.471-86.961t93.324-36.764q64.337 0 107.464 39.592t43.834 102.515q0 30.401-14.14 57.974t-33.936 48.076-56.56 52.318q-25.452 21.917-70.7 65.044l-41.713 39.592 53.732.707q110.999 0 118.069-3.535 4.949-1.414 16.968-62.923v-2.121h28.28v2.121q-.707 2.121-9.191 64.337t-10.605 65.044v2.121h-262.297v-21.917q0-4.949 4.242-10.605t21.21-24.745q20.503-22.624 35.35-39.592 6.363-7.07 24.038-26.159t24.038-26.159 20.503-23.331 19.796-24.038 16.261-21.21 14.847-22.624 10.605-20.503 9.191-22.624 4.949-21.21 2.121-23.331q0-44.541-24.038-77.063t-68.579-32.522q-23.331 0-41.006 12.019t-24.745 23.331-7.07 13.433q0 .707 3.535.707 12.726 0 26.159 9.898t13.433 32.522q0 17.675-11.312 29.694t-31.815 12.726" data-c="32" data-mml-node="mn"/></g></g></g><path stroke="none" d="M9029.9 3947.8q1-6 3-16t12-38 20-47 33-37 46-17q36 0 60 18t30 34 6 21q0 2 1 2l11-11q61-64 139-64 54 0 87 27t34 79-38 157-38 127q0 26 17 26 6 0 9-1 29-5 52-38t35-80q2-8 20-8 20 0 20 8 0 1-4 15-8 29-22 57t-46 56-69 27q-47 0-68-27t-21-56q0-19 36-120t37-152q0-59-44-59h-5q-86 0-145 101l-7 12-33 134q-33 131-38 141-13 27-43 27-13 0-21-6t-11-12-2-10q0-13 38-163t40-163q1-5 1-23 0-39-24-39-38 0-63 100-6 20-6 21-2 6-19 6h-14q-6-6-6-9" data-c="1D45B" data-mml-node="mi"/><path stroke="none" d="M7368.3 3328.8h3881.2v-60H7368.3z"/></g><path stroke="none" d="m11429.4 2799.8 4-1h22l28 24q94 85 137 212t43 264q0 68-10 131t-23 107-37 88-38 67-41 51-32 33-23 19l-4 4h-23q-3 0-5-3t-3-9q1-1 11-13 155-161 155-475t-155-475q-10-12-11-13 0-8 5-11" data-c="29" data-mml-node="mo"/><path stroke="none" d="M12058.7 3298.8q0-24 17-42t43-18q24 0 42 16t19 43q0 25-17 43t-43 18-43-17-18-43" data-c="22C5" data-mml-node="mo"/><path stroke="none" d="M12574.9 3298.8q0-69 10-131t23-107 37-88 38-67 42-52 33-34 25-21h17q14 0 14 9 0 3-17 21t-41 53-49 86-42 138-17 193 17 192 41 139 49 86 42 53 17 21q0 9-15 9h-16l-28-24q-94-85-137-212t-43-264" data-c="28" data-mml-node="mo"/><g data-mml-node="mstyle"><g data-mml-node="munderover"><path stroke="none" d="M12929.9 2600.8q3-2 605-2h602l58 135q59 138 63 146h-40l-7-14q-21-41-56-78-50-48-111-77t-141-43-151-17-183-4h-448l8 11q463 633 465 639 1 2 0 6-3 3-264 302l-264 300q0 1 211 1h141q89 0 128 1 136 0 220-5t167-21 141-49 103-87q21-26 41-72h40q0 1-7 21t-25 65-31 84l-58 155-601 1q-602 0-605-2-6-2-6-9 0-2 2-6l533-610q0-1-33-45t-105-144-130-178l-266-365-1-15q0-21 5-24" data-c="2211" data-mml-node="mo"/><g data-mjx-texclass="ORD" data-mml-node="TeXAtom"><path stroke="none" d="M13148.188 4212.5q0-16.968 13.433-29.694t31.108-13.433q12.726 0 21.21 8.484t9.191 21.21q0 16.261-14.14 29.694t-31.108 14.14q-10.605 0-19.796-7.07t-9.898-23.331m-115.241 221.291q0-5.656 6.363-21.917t16.968-36.057 31.108-36.057 42.42-15.554q27.573 0 45.955 16.261t19.089 43.834q0 12.019-9.898 39.592t-28.28 74.235-29.694 79.891q-3.535 15.554-3.535 22.624 0 17.675 12.019 17.675 6.363 0 13.433-2.121t16.261-9.898 19.089-24.745 17.675-41.713q2.121-8.484 3.535-9.898t12.019-1.414q14.14 0 14.14 7.07 0 5.656-6.363 21.917t-17.675 36.057-31.815 35.35-43.834 15.554q-22.624 0-41.713-14.847t-19.796-45.248q0-12.019 3.535-22.624t30.401-80.598q26.866-71.407 31.108-85.547t4.949-27.573q0-16.968-12.019-16.968h-1.414q-21.21 0-38.885 23.331t-26.866 59.388q-.707.707-1.414 2.121t-.707 2.121-1.414 1.414-2.121.707-2.828 0-5.656 0h-9.898q-4.242-4.242-4.242-6.363" data-c="1D456" data-mml-node="mi"/><path stroke="none" d="M13301.607 4391.371q0-9.191 9.898-14.14h450.359q10.605 5.656 10.605 14.14 0 7.777-9.898 13.433l-224.826.707h-224.826q-11.312-3.535-11.312-14.14m0 137.158q0-10.605 11.312-14.14h449.652q9.898 7.07 9.898 14.14 0 9.191-10.605 14.14h-450.359q-9.898-4.949-9.898-14.14" data-c="3D" data-mml-node="mo"/><path stroke="none" d="m13962.652 4228.054-9.191 3.535q-9.898 3.535-28.28 7.07t-41.006 4.949h-13.433v-32.522h13.433q33.229-1.414 61.509-10.605t39.592-16.968 19.796-15.554q1.414-2.121 8.484-2.121 6.363 0 12.019 4.242v211.393l.707 212.1q4.949 4.949 8.484 6.363t16.968 2.828 43.834 1.414h18.382v32.522h-7.777q-14.847-2.121-112.413-2.121-96.152 0-110.999 2.121h-8.484v-32.522h45.248q11.312 0 17.675-.707t11.312-2.121 5.656-1.414 4.242-3.535 4.242-2.828z" data-c="31" data-mml-node="mn"/></g><g data-mjx-texclass="ORD" data-mml-node="TeXAtom"><path stroke="none" d="M13394.647 2195.891q.707-4.242 2.121-11.312t8.484-26.866 14.14-33.229 23.331-26.159 32.522-12.019q25.452 0 42.42 12.726t21.21 24.038 4.242 14.847q0 1.414.707 1.414l7.777-7.777q43.127-45.248 98.273-45.248 38.178 0 61.509 19.089t24.038 55.853-26.866 110.999-26.866 89.789q0 18.382 12.019 18.382 4.242 0 6.363-.707 20.503-3.535 36.764-26.866t24.745-56.56q1.414-5.656 14.14-5.656 14.14 0 14.14 5.656 0 .707-2.828 10.605-5.656 20.503-15.554 40.299t-32.522 39.592-48.783 19.089q-33.229 0-48.076-19.089t-14.847-39.592q0-13.433 25.452-84.84t26.159-107.464q0-41.713-31.108-41.713h-3.535q-60.802 0-102.515 71.407l-4.949 8.484-23.331 94.738q-23.331 92.617-26.866 99.687-9.191 19.089-30.401 19.089-9.191 0-14.847-4.242t-7.777-8.484-1.414-7.07q0-9.191 26.866-115.241t28.28-115.241q.707-3.535.707-16.261 0-27.573-16.968-27.573-26.866 0-44.541 70.7-4.242 14.14-4.242 14.847-1.414 4.242-13.433 4.242h-9.898q-4.242-4.242-4.242-6.363" data-c="1D45B" data-mml-node="mi"/></g></g><g data-mml-node="msubsup"><path stroke="none" d="M14553.6 2901.8q0-10 4-23t12-13q1 0 72-5t73-6q12 0 12 9t-34 143q-8 34-17 70t-15 54l-4 19q0 3 6-3 49-40 101-40 62 0 100 46t39 116q0 111-79 201t-170 90q-50 0-91-38t-42-123v-9q0-21 8-58t49-197q50-197 50-209t-38-14h-26q-3 0-7-3t-3-7m263 322v-6q0-74-61-74-17 0-35 8t-33 21-26 24-18 22l-6 8-21 86q-22 86-22 122 0 48 24 72 16 16 40 16 33 0 67-32 25-23 40-56t33-105 18-106" data-c="1D44F" data-mml-node="mi"/><path stroke="none" d="M15019.663 2832.497q-19.089 0-30.401-12.726t-11.312-31.108q0-50.197 37.471-86.961t93.324-36.764q64.337 0 107.464 39.592t43.834 102.515q0 30.401-14.14 57.974t-33.936 48.076-56.56 52.318q-25.452 21.917-70.7 65.044l-41.713 39.592 53.732.707q110.999 0 118.069-3.535 4.949-1.414 16.968-62.923v-2.121h28.28v2.121q-.707 2.121-9.191 64.337t-10.605 65.044v2.121h-262.297v-21.917q0-4.949 4.242-10.605t21.21-24.745q20.503-22.624 35.35-39.592 6.363-7.07 24.038-26.159t24.038-26.159 20.503-23.331 19.796-24.038 16.261-21.21 14.847-22.624 10.605-20.503 9.191-22.624 4.949-21.21 2.121-23.331q0-44.541-24.038-77.063t-68.579-32.522q-23.331 0-41.006 12.019t-24.745 23.331-7.07 13.433q0 .707 3.535.707 12.726 0 26.159 9.898t13.433 32.522q0 17.675-11.312 29.694t-31.815 12.726" data-c="32" data-mml-node="mn"/><path stroke="none" d="M15072.688 3371.6q0-16.968 13.433-29.694t31.108-13.433q12.726 0 21.21 8.484t9.191 21.21q0 16.261-14.14 29.694t-31.108 14.14q-10.605 0-19.796-7.07t-9.898-23.331m-115.241 221.291q0-5.656 6.363-21.917t16.968-36.057 31.108-36.057 42.42-15.554q27.573 0 45.955 16.261t19.089 43.834q0 12.019-9.898 39.592t-28.28 74.235-29.694 79.891q-3.535 15.554-3.535 22.624 0 17.675 12.019 17.675 6.363 0 13.433-2.121t16.261-9.898 19.089-24.745 17.675-41.713q2.121-8.484 3.535-9.898t12.019-1.414q14.14 0 14.14 7.07 0 5.656-6.363 21.917t-17.675 36.057-31.815 35.35-43.834 15.554q-22.624 0-41.713-14.847t-19.796-45.248q0-12.019 3.535-22.624t30.401-80.598q26.866-71.407 31.108-85.547t4.949-27.573q0-16.968-12.019-16.968h-1.414q-21.21 0-38.885 23.331t-26.866 59.388q-.707.707-1.414 2.121t-.707 2.121-1.414 1.414-2.121.707-2.828 0-5.656 0h-9.898q-4.242-4.242-4.242-6.363" data-c="1D456" data-mml-node="mi"/></g><path stroke="none" d="M15652.3 3311.8v-13l14-20h581q15 8 15 20t-15 20h-581q-14-7-14-20Z" data-c="2212" data-mml-node="mo"/><g data-mml-node="mfrac"><g data-mml-node="mrow"><path stroke="none" d="M16882.6 1592.9q0-69 10-131t23-107 37-88 38-67 42-52 33-34 25-21h17q14 0 14 9 0 3-17 21t-41 53-49 86-42 138-17 193 17 192 41 139 49 86 42 53 17 21q0 9-15 9h-16l-28-24q-94-85-137-212t-43-264" data-c="28" data-mml-node="mo"/><g data-mml-node="mstyle"><g data-mml-node="munderover"><path stroke="none" d="M17237.6 894.9q3-2 605-2h602l58 135q59 138 63 146h-40l-7-14q-21-41-56-78-50-48-111-77t-141-43-151-17-183-4h-448l8 11q463 633 465 639 1 2 0 6-3 3-264 302l-264 300q0 1 211 1h141q89 0 128 1 136 0 220-5t167-21 141-49 103-87q21-26 41-72h40q0 1-7 21t-25 65-31 84l-58 155-601 1q-602 0-605-2-6-2-6-9 0-2 2-6l533-610q0-1-33-45t-105-144-130-178l-266-365-1-15q0-21 5-24" data-c="2211" data-mml-node="mo"/><g data-mjx-texclass="ORD" data-mml-node="TeXAtom"><path stroke="none" d="M17455.888 2506.6q0-16.968 13.433-29.694t31.108-13.433q12.726 0 21.21 8.484t9.191 21.21q0 16.261-14.14 29.694t-31.108 14.14q-10.605 0-19.796-7.07t-9.898-23.331m-115.241 221.291q0-5.656 6.363-21.917t16.968-36.057 31.108-36.057 42.42-15.554q27.573 0 45.955 16.261t19.089 43.834q0 12.019-9.898 39.592t-28.28 74.235-29.694 79.891q-3.535 15.554-3.535 22.624 0 17.675 12.019 17.675 6.363 0 13.433-2.121t16.261-9.898 19.089-24.745 17.675-41.713q2.121-8.484 3.535-9.898t12.019-1.414q14.14 0 14.14 7.07 0 5.656-6.363 21.917t-17.675 36.057-31.815 35.35-43.834 15.554q-22.624 0-41.713-14.847t-19.796-45.248q0-12.019 3.535-22.624t30.401-80.598q26.866-71.407 31.108-85.547t4.949-27.573q0-16.968-12.019-16.968h-1.414q-21.21 0-38.885 23.331t-26.866 59.388q-.707.707-1.414 2.121t-.707 2.121-1.414 1.414-2.121.707-2.828 0-5.656 0h-9.898q-4.242-4.242-4.242-6.363" data-c="1D456" data-mml-node="mi"/><path stroke="none" d="M17609.307 2685.471q0-9.191 9.898-14.14h450.359q10.605 5.656 10.605 14.14 0 7.777-9.898 13.433l-224.826.707h-224.826q-11.312-3.535-11.312-14.14m0 137.158q0-10.605 11.312-14.14h449.652q9.898 7.07 9.898 14.14 0 9.191-10.605 14.14h-450.359q-9.898-4.949-9.898-14.14" data-c="3D" data-mml-node="mo"/><path stroke="none" d="m18270.352 2522.154-9.191 3.535q-9.898 3.535-28.28 7.07t-41.006 4.949h-13.433v-32.522h13.433q33.229-1.414 61.509-10.605t39.592-16.968 19.796-15.554q1.414-2.121 8.484-2.121 6.363 0 12.019 4.242v211.393l.707 212.1q4.949 4.949 8.484 6.363t16.968 2.828 43.834 1.414h18.382v32.522h-7.777q-14.847-2.121-112.413-2.121-96.152 0-110.999 2.121h-8.484v-32.522h45.248q11.312 0 17.675-.707t11.312-2.121 5.656-1.414 4.242-3.535 4.242-2.828z" data-c="31" data-mml-node="mn"/></g><g data-mjx-texclass="ORD" data-mml-node="TeXAtom"><path stroke="none" d="M17702.347 489.991q.707-4.242 2.121-11.312t8.484-26.866 14.14-33.229 23.331-26.159 32.522-12.019q25.452 0 42.42 12.726t21.21 24.038 4.242 14.847q0 1.414.707 1.414l7.777-7.777q43.127-45.248 98.273-45.248 38.178 0 61.509 19.089t24.038 55.853-26.866 110.999-26.866 89.789q0 18.382 12.019 18.382 4.242 0 6.363-.707 20.503-3.535 36.764-26.866t24.745-56.56q1.414-5.656 14.14-5.656 14.14 0 14.14 5.656 0 .707-2.828 10.605-5.656 20.503-15.554 40.299t-32.522 39.592-48.783 19.089q-33.229 0-48.076-19.089t-14.847-39.592q0-13.433 25.452-84.84t26.159-107.464q0-41.713-31.108-41.713h-3.535q-60.802 0-102.515 71.407l-4.949 8.484-23.331 94.738q-23.331 92.617-26.866 99.687-9.191 19.089-30.401 19.089-9.191 0-14.847-4.242t-7.777-8.484-1.414-7.07q0-9.191 26.866-115.241t28.28-115.241q.707-3.535.707-16.261 0-27.573-16.968-27.573-26.866 0-44.541 70.7-4.242 14.14-4.242 14.847-1.414 4.242-13.433 4.242h-9.898q-4.242-4.242-4.242-6.363" data-c="1D45B" data-mml-node="mi"/></g></g><g data-mml-node="msub"><path stroke="none" d="M18861.3 1195.9q0-10 4-23t12-13q1 0 72-5t73-6q12 0 12 9t-34 143q-8 34-17 70t-15 54l-4 19q0 3 6-3 49-40 101-40 62 0 100 46t39 116q0 111-79 201t-170 90q-50 0-91-38t-42-123v-9q0-21 8-58t49-197q50-197 50-209t-38-14h-26q-3 0-7-3t-3-7m263 322v-6q0-74-61-74-17 0-35 8t-33 21-26 24-18 22l-6 8-21 86q-22 86-22 122 0 48 24 72 16 16 40 16 33 0 67-32 25-23 40-56t33-105 18-106" data-c="1D44F" data-mml-node="mi"/><path stroke="none" d="M19380.388 1568.7q0-16.968 13.433-29.694t31.108-13.433q12.726 0 21.21 8.484t9.191 21.21q0 16.261-14.14 29.694t-31.108 14.14q-10.605 0-19.796-7.07t-9.898-23.331m-115.241 221.291q0-5.656 6.363-21.917t16.968-36.057 31.108-36.057 42.42-15.554q27.573 0 45.955 16.261t19.089 43.834q0 12.019-9.898 39.592t-28.28 74.235-29.694 79.891q-3.535 15.554-3.535 22.624 0 17.675 12.019 17.675 6.363 0 13.433-2.121t16.261-9.898 19.089-24.745 17.675-41.713q2.121-8.484 3.535-9.898t12.019-1.414q14.14 0 14.14 7.07 0 5.656-6.363 21.917t-17.675 36.057-31.815 35.35-43.834 15.554q-22.624 0-41.713-14.847t-19.796-45.248q0-12.019 3.535-22.624t30.401-80.598q26.866-71.407 31.108-85.547t4.949-27.573q0-16.968-12.019-16.968h-1.414q-21.21 0-38.885 23.331t-26.866 59.388q-.707.707-1.414 2.121t-.707 2.121-1.414 1.414-2.121.707-2.828 0-5.656 0h-9.898q-4.242-4.242-4.242-6.363" data-c="1D456" data-mml-node="mi"/></g><g data-mml-node="msup"><path stroke="none" d="m19604.2 1093.9 4-1h22l28 24q94 85 137 212t43 264q0 68-10 131t-23 107-37 88-38 67-41 51-32 33-23 19l-4 4h-23q-3 0-5-3t-3-9q1-1 11-13 155-161 155-475t-155-475q-10-12-11-13 0-8 5-11" data-c="29" data-mml-node="mo"/><path stroke="none" d="M20043.263 1126.597q-19.089 0-30.401-12.726t-11.312-31.108q0-50.197 37.471-86.961t93.324-36.764q64.337 0 107.464 39.592t43.834 102.515q0 30.401-14.14 57.974t-33.936 48.076-56.56 52.318q-25.452 21.917-70.7 65.044l-41.713 39.592 53.732.707q110.999 0 118.069-3.535 4.949-1.414 16.968-62.923v-2.121h28.28v2.121q-.707 2.121-9.191 64.337t-10.605 65.044v2.121h-262.297v-21.917q0-4.949 4.242-10.605t21.21-24.745q20.503-22.624 35.35-39.592 6.363-7.07 24.038-26.159t24.038-26.159 20.503-23.331 19.796-24.038 16.261-21.21 14.847-22.624 10.605-20.503 9.191-22.624 4.949-21.21 2.121-23.331q0-44.541-24.038-77.063t-68.579-32.522q-23.331 0-41.006 12.019t-24.745 23.331-7.07 13.433q0 .707 3.535.707 12.726 0 26.159 9.898t13.433 32.522q0 17.675-11.312 29.694t-31.815 12.726" data-c="32" data-mml-node="mn"/></g></g></g><path stroke="none" d="M18300.2 3947.8q1-6 3-16t12-38 20-47 33-37 46-17q36 0 60 18t30 34 6 21q0 2 1 2l11-11q61-64 139-64 54 0 87 27t34 79-38 157-38 127q0 26 17 26 6 0 9-1 29-5 52-38t35-80q2-8 20-8 20 0 20 8 0 1-4 15-8 29-22 57t-46 56-69 27q-47 0-68-27t-21-56q0-19 36-120t37-152q0-59-44-59h-5q-86 0-145 101l-7 12-33 134q-33 131-38 141-13 27-43 27-13 0-21-6t-11-12-2-10q0-13 38-163t40-163q1-5 1-23 0-39-24-39-38 0-63 100-6 20-6 21-2 6-19 6h-14q-6-6-6-9" data-c="1D45B" data-mml-node="mi"/><path stroke="none" d="M16688.6 3328.8h3781.2v-60h-3781.2z"/></g><path stroke="none" d="m20649.7 2799.8 4-1h22l28 24q94 85 137 212t43 264q0 68-10 131t-23 107-37 88-38 67-41 51-32 33-23 19l-4 4h-23q-3 0-5-3t-3-9q1-1 11-13 155-161 155-475t-155-475q-10-12-11-13 0-8 5-11" data-c="29" data-mml-node="mo"/></g></g><g data-mml-node="mo" transform="matrix(1 0 0 -1 2004.6 3490.9)"><path stroke="none" d="M702 3454.8q4 12 16 16h343q15-8 15-20 0-13-15-20H742v-565q-8-14-18-14h-4q-12 0-18 14z" data-c="E001"/><path stroke="none" d="m742-1415.2-5-5-4-4q-1-1-3-2t-6-2-10-1h-12L222 24.8l-42-85q-42-85-43-85-6 5-13 13l-13 13 154 311 437-1322v754l1 754q10 13 19 13 12 0 20-15z" data-c="23B7"/><svg width="1056" height="2661" y="290.8" viewBox="0 577.8 1056 2661"><path stroke="none" d="M722-87.444h-2q-12 0-18 87.444v1911.276l1 1911.276q10 81.198 19 81.198 12 0 20-93.69V0q-8-87.444-18-87.444z" data-c="E000"/></svg></g><path stroke="none" d="M3060.6 80h17918.1V20H3060.6z"/></g><path stroke="none" d="M1904.6-220h19174.1v-60H1904.6z"/></g></g></svg>