<svg xmlns="http://www.w3.org/2000/svg" width="36.148ex" height="15.224ex" style="vertical-align:-7.046ex" viewBox="0 -3614.5 15977.3 6729"><title>\begin{aligned} \frac{B^2 - 4A}{B - A}  &amp;= \frac{(2 + \sqrt{3})^2 - 4(1 + \sqrt{3})}{(2 + \sqrt{3}) - (1 + \sqrt{3})} \\ &amp;= \frac{4 + 4\sqrt{3} + 3 - 4 - 4\sqrt{3}}{1} \\ &amp;= 3 \in \mathbb{N} \end{aligned}</title><g fill="currentColor" stroke="currentColor" stroke-width="0" data-mml-node="math"><g data-mml-node="mtable"><g data-mml-node="mtr"><g data-mml-node="mtd"><g data-mml-node="mfrac"><g data-mml-node="mrow"><g data-mml-node="msup"><path stroke="none" d="M451-3268.5q-27 0-32-1t-5-11q0-27 11-33 1-1 130-1 259 0 273 2 63 10 105 45t43 92q0 64-58 115t-133 69l-10 3q64 9 105 46t42 92q0 73-72 141t-177 77q-7 1-211 1-200 0-203-2-4-3-4-8 0-7 2-14 5-19 10-21 4-1 15-1h6q27 0 60-3 14-3 19-12 3-4 72-278t69-289q0-7-57-9m418 93q0-30-15-56t-49-34q-7-2-92-3h-42q-22 0-35 1h-13q-15 1-19 10-2 4-32 120 0 3-1 6l-31 126h81q81 0 93-2 60-10 107-58t48-110m-54 315q0-44-23-73t-60-34q-6-1-83-1-118 0-119 1 0 2-17 73t-35 141l-18 70q0 4 12 4t81 2q89 0 96-1 62-7 114-58t52-124" data-c="1D435" data-mml-node="mi"/><path stroke="none" d="M1089.063-3297.803q-19.089 0-30.401-12.726t-11.312-31.108q0-50.197 37.471-86.961t93.324-36.764q64.337 0 107.464 39.592t43.834 102.515q0 30.401-14.14 57.974t-33.936 48.076-56.56 52.318q-25.452 21.917-70.7 65.044l-41.713 39.592 53.732.707q110.999 0 118.069-3.535 4.949-1.414 16.968-62.923v-2.121h28.28v2.121q-.707 2.121-9.191 64.337t-10.605 65.044v2.121H1047.35v-21.917q0-4.949 4.242-10.605t21.21-24.745q20.503-22.624 35.35-39.592 6.363-7.07 24.038-26.159t24.038-26.159 20.503-23.331 19.796-24.038 16.261-21.21 14.847-22.624 10.605-20.503 9.191-22.624 4.949-21.21 2.121-23.331q0-44.541-24.038-77.063t-68.579-32.522q-23.331 0-41.006 12.019t-24.745 23.331-7.07 13.433q0 .707 3.535.707 12.726 0 26.159 9.898t13.433 32.522q0 17.675-11.312 29.694t-31.815 12.726" data-c="32" data-mml-node="mn"/></g><path stroke="none" d="M1721.8-2868.5v-13l14-20h581q15 8 15 20t-15 20h-581q-14-7-14-20Z" data-c="2212" data-mml-node="mo"/><path stroke="none" d="M3100-2631.5q-18-3-129-3-116 0-134 3h-9v-46h58q7 0 17-2t14-5 7-8q1-2 1-54v-50h-259v-46l151-231q153-232 155-233 2-2 21-2h18l6 6v460h92v46h-92v99q0 7 6 12 8 7 57 8h29v46zm-169-211v-334l-219 333 109 1z" data-c="34" data-mml-node="mn"/><path stroke="none" d="M3346-2705.5q0 24 46 28 18 0 18 11 0 1-2 13-3 14-6 18t-13 4h-12q-10 0-34-1t-64-1q-71 0-91 2h-8q-7-7-7-11 2-27 13-35h14q70-3 102-50 6-6 181-305t178-303q7-12 24-12h25q6 9 6 10l28 323q28 323 30 326 5 11 65 11 25 0 25 10 0 2-3 14-3 15-5 18t-14 4h-14q-11 0-39-1t-73-1q-94 0-123 2h-12q-6-6-6-9t2-18q4-13 6-16l4-3h20q54-3 64-17l-12-150h-238l-34 58q-41 69-41 81m308-186q0-11-12-156t-14-146l-27 43q-16 27-63 107l-90 152 103 1q103 0 103-1" data-c="1D434" data-mml-node="mi"/></g><g data-mml-node="mrow"><path stroke="none" d="M919.3-1906.5q-27 0-32-1t-5-11q0-27 11-33 1-1 130-1 259 0 273 2 63 10 105 45t43 92q0 64-58 115t-133 69l-10 3q64 9 105 46t42 92q0 73-72 141t-177 77q-7 1-211 1-200 0-203-2-4-3-4-8 0-7 2-14 5-19 10-21 4-1 15-1h6q27 0 60-3 14-3 19-12 3-4 72-278t69-289q0-7-57-9m418 93q0-30-15-56t-49-34q-7-2-92-3h-42q-22 0-35 1h-13q-15 1-19 10-2 4-32 120 0 3-1 6l-31 126h81q81 0 93-2 60-10 107-58t48-110m-54 315q0-44-23-73t-60-34q-6-1-83-1-118 0-119 1 0 2-17 73t-35 141l-18 70q0 4 12 4t81 2q89 0 96-1 62-7 114-58t52-124" data-c="1D435" data-mml-node="mi"/><path stroke="none" d="M1753.5-1506.5v-13l14-20h581q15 8 15 20t-15 20h-581q-14-7-14-20Z" data-c="2212" data-mml-node="mo"/><path stroke="none" d="M2877.7-1343.5q0 24 46 28 18 0 18 11 0 1-2 13-3 14-6 18t-13 4h-12q-10 0-34-1t-64-1q-71 0-91 2h-8q-7-7-7-11 2-27 13-35h14q70-3 102-50 6-6 181-305t178-303q7-12 24-12h25q6 9 6 10l28 323q28 323 30 326 5 11 65 11 25 0 25 10 0 2-3 14-3 15-5 18t-14 4h-14q-11 0-39-1t-73-1q-94 0-123 2h-12q-6-6-6-9t2-18q4-13 6-16l4-3h20q54-3 64-17l-12-150h-238l-34 58q-41 69-41 81m308-186q0-11-12-156t-14-146l-27 43q-16 27-63 107l-90 152 103 1q103 0 103-1" data-c="1D434" data-mml-node="mi"/></g><path stroke="none" d="M120-2175.5h3868v-60H120z"/></g></g><g data-mml-node="mtd"><path stroke="none" d="M4441.8-2302.5q0-13 14-20h637q15 8 15 20 0 11-14 19l-318 1h-318q-16-5-16-20m0 194q0-15 16-20h636q14 10 14 20 0 13-15 20h-637q-14-7-14-20" data-c="3D" data-mml-node="mo"/><g data-mml-node="mfrac"><g data-mml-node="mrow"><path stroke="none" d="M5755.6-2915.5q0-69 10-131t23-107 37-88 38-67 42-52 33-34 25-21h17q14 0 14 9 0 3-17 21t-41 53-49 86-42 138-17 193 17 192 41 139 49 86 42 53 17 21q0 9-15 9h-16l-28-24q-94-85-137-212t-43-264" data-c="28" data-mml-node="mo"/><path stroke="none" d="M6159.6-3094.5q-27 0-43-18t-16-44q0-71 53-123t132-52q91 0 152 56t62 145q0 43-20 82t-48 68-80 74q-36 31-100 92l-59 56 76 1q157 0 167-5 7-2 24-89v-3h40v3q-1 3-13 91t-15 92v3h-371v-31q0-7 6-15t30-35q29-32 50-56 9-10 34-37t34-37 29-33 28-34 23-30 21-32 15-29 13-32 7-30 3-33q0-63-34-109t-97-46q-33 0-58 17t-35 33-10 19q0 1 5 1 18 0 37 14t19 46q0 25-16 42t-45 18" data-c="32" data-mml-node="mn"/><path stroke="none" d="M6828.8-2902.5v-13l14-20h299v-150l1-150q10-13 19-13 13 0 20 15v298h298q15 8 15 20t-15 20h-298v298q-8 14-18 14h-4q-12 0-18-14v-298h-299q-14-7-14-20Z" data-c="2B" data-mml-node="mo"/><g data-mml-node="msqrt"><path stroke="none" d="M8753-3128.5q-27 0-42-17t-16-44q0-55 48-98t116-43q35 0 44 1 74 12 113 53t40 89q0 52-34 101t-94 71l-3 2q0 1 9 3t29 9 38 21q82 53 82 140 0 79-62 138t-157 59q-80 0-138-43t-58-109q0-28 18-45t45-18q28 0 46 18t18 45q0 11-3 20t-7 16-11 12-12 8-10 4-8 3l-4 1q51 45 124 45 55 0 83-53 17-33 17-101v-20q0-95-64-127-15-6-61-7l-42-1-3-2q-2-3-2-16 0-18 8-18 28 0 58-5 34-5 62-42t28-112v-8q0-57-35-79-22-14-47-14-32 0-59 11t-38 23-11 12h3q3 1 8 2t10 5 12 7 10 11 8 15 3 20q0 22-14 39t-45 18" data-c="33" data-mml-node="mn"/><path stroke="none" d="M7868-2932.5q-6 0-14-8t-9-14 31-30 66-50 38-29q2-2 5-2h1q6 0 14 17t54 117q19 43 31 69l85 185q1 0 104-213t206-429 107-221q6-14 20-14 7 0 12 6t7 12v6l-233 483-235 486q-4 7-19 7-9 0-12-3-2-2-98-212l-96-210-16 11q-15 12-31 24t-18 12" data-c="221A" data-mml-node="mo"/><path stroke="none" d="M8626-3494.5h500v-60h-500z"/></g><g data-mml-node="msup"><path stroke="none" d="m9186-3414.5 4-1h22l28 24q94 85 137 212t43 264q0 68-10 131t-23 107-37 88-38 67-41 51-32 33-23 19l-4 4h-23q-3 0-5-3t-3-9q1-1 11-13 155-161 155-475t-155-475q-10-12-11-13 0-8 5-11" data-c="29" data-mml-node="mo"/><path stroke="none" d="M9625.063-3331.803q-19.089 0-30.401-12.726t-11.312-31.108q0-50.197 37.471-86.961t93.324-36.764q64.337 0 107.464 39.592t43.834 102.515q0 30.401-14.14 57.974t-33.936 48.076-56.56 52.318q-25.452 21.917-70.7 65.044l-41.713 39.592 53.732.707q110.999 0 118.069-3.535 4.949-1.414 16.968-62.923v-2.121h28.28v2.121q-.707 2.121-9.191 64.337t-10.605 65.044v2.121H9583.35v-21.917q0-4.949 4.242-10.605t21.21-24.745q20.503-22.624 35.35-39.592 6.363-7.07 24.038-26.159t24.038-26.159 20.503-23.331 19.796-24.038 16.261-21.21 14.847-22.624 10.605-20.503 9.191-22.624 4.949-21.21 2.121-23.331q0-44.541-24.038-77.063t-68.579-32.522q-23.331 0-41.006 12.019t-24.745 23.331-7.07 13.433q0 .707 3.535.707 12.726 0 26.159 9.898t13.433 32.522q0 17.675-11.312 29.694t-31.815 12.726" data-c="32" data-mml-node="mn"/></g><path stroke="none" d="M10257.8-2902.5v-13l14-20h581q15 8 15 20t-15 20h-581q-14-7-14-20Z" data-c="2212" data-mml-node="mo"/><path stroke="none" d="M11636-2665.5q-18-3-129-3-116 0-134 3h-9v-46h58q7 0 17-2t14-5 7-8q1-2 1-54v-50h-259v-46l151-231q153-232 155-233 2-2 21-2h18l6 6v460h92v46h-92v99q0 7 6 12 8 7 57 8h29v46zm-169-211v-334l-219 333 109 1z" data-c="34" data-mml-node="mn"/><path stroke="none" d="M11768-2915.5q0-69 10-131t23-107 37-88 38-67 42-52 33-34 25-21h17q14 0 14 9 0 3-17 21t-41 53-49 86-42 138-17 193 17 192 41 139 49 86 42 53 17 21q0 9-15 9h-16l-28-24q-94-85-137-212t-43-264" data-c="28" data-mml-node="mo"/><path stroke="none" d="m12276-3243.5-13 5q-14 5-40 10t-58 7h-19v-46h19q47-2 87-15t56-24 28-22q2-3 12-3 9 0 17 6v299l1 300q7 7 12 9t24 4 62 2h26v46h-11q-21-3-159-3-136 0-157 3h-12v-46h64q16 0 25-1t16-3 8-2 6-5 6-4z" data-c="31" data-mml-node="mn"/><path stroke="none" d="M12841.3-2902.5v-13l14-20h299v-150l1-150q10-13 19-13 13 0 20 15v298h298q15 8 15 20t-15 20h-298v298q-8 14-18 14h-4q-12 0-18-14v-298h-299q-14-7-14-20Z" data-c="2B" data-mml-node="mo"/><g data-mml-node="msqrt"><path stroke="none" d="M14765.5-3128.5q-27 0-42-17t-16-44q0-55 48-98t116-43q35 0 44 1 74 12 113 53t40 89q0 52-34 101t-94 71l-3 2q0 1 9 3t29 9 38 21q82 53 82 140 0 79-62 138t-157 59q-80 0-138-43t-58-109q0-28 18-45t45-18q28 0 46 18t18 45q0 11-3 20t-7 16-11 12-12 8-10 4-8 3l-4 1q51 45 124 45 55 0 83-53 17-33 17-101v-20q0-95-64-127-15-6-61-7l-42-1-3-2q-2-3-2-16 0-18 8-18 28 0 58-5 34-5 62-42t28-112v-8q0-57-35-79-22-14-47-14-32 0-59 11t-38 23-11 12h3q3 1 8 2t10 5 12 7 10 11 8 15 3 20q0 22-14 39t-45 18" data-c="33" data-mml-node="mn"/><path stroke="none" d="M13880.5-2932.5q-6 0-14-8t-9-14 31-30 66-50 38-29q2-2 5-2h1q6 0 14 17t54 117q19 43 31 69l85 185q1 0 104-213t206-429 107-221q6-14 20-14 7 0 12 6t7 12v6l-233 483-235 486q-4 7-19 7-9 0-12-3-2-2-98-212l-96-210-16 11q-15 12-31 24t-18 12" data-c="221A" data-mml-node="mo"/><path stroke="none" d="M14638.5-3494.5h500v-60h-500z"/></g><path stroke="none" d="m15198.5-3414.5 4-1h22l28 24q94 85 137 212t43 264q0 68-10 131t-23 107-37 88-38 67-41 51-32 33-23 19l-4 4h-23q-3 0-5-3t-3-9q1-1 11-13 155-161 155-475t-155-475q-10-12-11-13 0-8 5-11" data-c="29" data-mml-node="mo"/></g><g data-mml-node="mrow"><path stroke="none" d="M6223.9-1296.5q0-69 10-131t23-107 37-88 38-67 42-52 33-34 25-21h17q14 0 14 9 0 3-17 21t-41 53-49 86-42 138-17 193 17 192 41 139 49 86 42 53 17 21q0 9-15 9h-16l-28-24q-94-85-137-212t-43-264" data-c="28" data-mml-node="mo"/><path stroke="none" d="M6627.9-1475.5q-27 0-43-18t-16-44q0-71 53-123t132-52q91 0 152 56t62 145q0 43-20 82t-48 68-80 74q-36 31-100 92l-59 56 76 1q157 0 167-5 7-2 24-89v-3h40v3q-1 3-13 91t-15 92v3h-371v-31q0-7 6-15t30-35q29-32 50-56 9-10 34-37t34-37 29-33 28-34 23-30 21-32 15-29 13-32 7-30 3-33q0-63-34-109t-97-46q-33 0-58 17t-35 33-10 19q0 1 5 1 18 0 37 14t19 46q0 25-16 42t-45 18" data-c="32" data-mml-node="mn"/><path stroke="none" d="M7297.1-1283.5v-13l14-20h299v-150l1-150q10-13 19-13 13 0 20 15v298h298q15 8 15 20t-15 20h-298v298q-8 14-18 14h-4q-12 0-18-14v-298h-299q-14-7-14-20Z" data-c="2B" data-mml-node="mo"/><g data-mml-node="msqrt"><path stroke="none" d="M9221.3-1509.5q-27 0-42-17t-16-44q0-55 48-98t116-43q35 0 44 1 74 12 113 53t40 89q0 52-34 101t-94 71l-3 2q0 1 9 3t29 9 38 21q82 53 82 140 0 79-62 138t-157 59q-80 0-138-43t-58-109q0-28 18-45t45-18q28 0 46 18t18 45q0 11-3 20t-7 16-11 12-12 8-10 4-8 3l-4 1q51 45 124 45 55 0 83-53 17-33 17-101v-20q0-95-64-127-15-6-61-7l-42-1-3-2q-2-3-2-16 0-18 8-18 28 0 58-5 34-5 62-42t28-112v-8q0-57-35-79-22-14-47-14-32 0-59 11t-38 23-11 12h3q3 1 8 2t10 5 12 7 10 11 8 15 3 20q0 22-14 39t-45 18" data-c="33" data-mml-node="mn"/><path stroke="none" d="M8336.3-1313.5q-6 0-14-8t-9-14 31-30 66-50 38-29q2-2 5-2h1q6 0 14 17t54 117q19 43 31 69l85 185q1 0 104-213t206-429 107-221q6-14 20-14 7 0 12 6t7 12v6l-233 483-235 486q-4 7-19 7-9 0-12-3-2-2-98-212l-96-210-16 11q-15 12-31 24t-18 12" data-c="221A" data-mml-node="mo"/><path stroke="none" d="M9094.3-1875.5h500v-60h-500z"/></g><path stroke="none" d="m9654.3-1795.5 4-1h22l28 24q94 85 137 212t43 264q0 68-10 131t-23 107-37 88-38 67-41 51-32 33-23 19l-4 4h-23q-3 0-5-3t-3-9q1-1 11-13 155-161 155-475t-155-475q-10-12-11-13 0-8 5-11" data-c="29" data-mml-node="mo"/><path stroke="none" d="M10289.6-1283.5v-13l14-20h581q15 8 15 20t-15 20h-581q-14-7-14-20Z" data-c="2212" data-mml-node="mo"/><path stroke="none" d="M11299.8-1296.5q0-69 10-131t23-107 37-88 38-67 42-52 33-34 25-21h17q14 0 14 9 0 3-17 21t-41 53-49 86-42 138-17 193 17 192 41 139 49 86 42 53 17 21q0 9-15 9h-16l-28-24q-94-85-137-212t-43-264" data-c="28" data-mml-node="mo"/><path stroke="none" d="m11807.8-1624.5-13 5q-14 5-40 10t-58 7h-19v-46h19q47-2 87-15t56-24 28-22q2-3 12-3 9 0 17 6v299l1 300q7 7 12 9t24 4 62 2h26v46h-11q-21-3-159-3-136 0-157 3h-12v-46h64q16 0 25-1t16-3 8-2 6-5 6-4z" data-c="31" data-mml-node="mn"/><path stroke="none" d="M12373-1283.5v-13l14-20h299v-150l1-150q10-13 19-13 13 0 20 15v298h298q15 8 15 20t-15 20h-298v298q-8 14-18 14h-4q-12 0-18-14v-298h-299q-14-7-14-20Z" data-c="2B" data-mml-node="mo"/><g data-mml-node="msqrt"><path stroke="none" d="M14297.2-1509.5q-27 0-42-17t-16-44q0-55 48-98t116-43q35 0 44 1 74 12 113 53t40 89q0 52-34 101t-94 71l-3 2q0 1 9 3t29 9 38 21q82 53 82 140 0 79-62 138t-157 59q-80 0-138-43t-58-109q0-28 18-45t45-18q28 0 46 18t18 45q0 11-3 20t-7 16-11 12-12 8-10 4-8 3l-4 1q51 45 124 45 55 0 83-53 17-33 17-101v-20q0-95-64-127-15-6-61-7l-42-1-3-2q-2-3-2-16 0-18 8-18 28 0 58-5 34-5 62-42t28-112v-8q0-57-35-79-22-14-47-14-32 0-59 11t-38 23-11 12h3q3 1 8 2t10 5 12 7 10 11 8 15 3 20q0 22-14 39t-45 18" data-c="33" data-mml-node="mn"/><path stroke="none" d="M13412.2-1313.5q-6 0-14-8t-9-14 31-30 66-50 38-29q2-2 5-2h1q6 0 14 17t54 117q19 43 31 69l85 185q1 0 104-213t206-429 107-221q6-14 20-14 7 0 12 6t7 12v6l-233 483-235 486q-4 7-19 7-9 0-12-3-2-2-98-212l-96-210-16 11q-15 12-31 24t-18 12" data-c="221A" data-mml-node="mo"/><path stroke="none" d="M14170.2-1875.5h500v-60h-500z"/></g><path stroke="none" d="m14730.2-1795.5 4-1h22l28 24q94 85 137 212t43 264q0 68-10 131t-23 107-37 88-38 67-41 51-32 33-23 19l-4 4h-23q-3 0-5-3t-3-9q1-1 11-13 155-161 155-475t-155-475q-10-12-11-13 0-8 5-11" data-c="29" data-mml-node="mo"/></g><path stroke="none" d="M5561.6-2175.5h10065.9v-60H5561.6z"/></g></g></g><g data-mml-node="mtr"><g data-mml-node="mtd"><path stroke="none" d="M4441.8 781.5q0-13 14-20h637q15 8 15 20 0 11-14 19l-318 1h-318q-16-5-16-20m0 194q0-15 16-20h636q14 10 14 20 0 13-15 20h-637q-14-7-14-20" data-c="3D" data-mml-node="mo"/><g data-mml-node="mfrac"><g data-mml-node="mrow"><path stroke="none" d="M6123.6 452.5q-18-3-129-3-116 0-134 3h-9v-46h58q7 0 17-2t14-5 7-8q1-2 1-54v-50h-259v-46l151-231q153-232 155-233 2-2 21-2h18l6 6v460h92v46h-92v99q0 7 6 12 8 7 57 8h29v46zm-169-211v-334l-219 333 109 1z" data-c="34" data-mml-node="mn"/><path stroke="none" d="M6439.8 215.5v-13l14-20h299v-150l1-150q10-13 19-13 13 0 20 15v298h298q15 8 15 20t-15 20h-298v298q-8 14-18 14h-4q-12 0-18-14v-298h-299q-14-7-14-20Z" data-c="2B" data-mml-node="mo"/><path stroke="none" d="M7846 452.5q-18-3-129-3-116 0-134 3h-9v-46h58q7 0 17-2t14-5 7-8q1-2 1-54v-50h-259v-46l151-231q153-232 155-233 2-2 21-2h18l6 6v460h92v46h-92v99q0 7 6 12 8 7 57 8h29v46zm-169-211v-334l-219 333 109 1z" data-c="34" data-mml-node="mn"/><g data-mml-node="msqrt"><path stroke="none" d="M8864-10.5q-27 0-42-17t-16-44q0-55 48-98t116-43q35 0 44 1 74 12 113 53t40 89q0 52-34 101t-94 71l-3 2q0 1 9 3t29 9 38 21q82 53 82 140 0 79-62 138t-157 59q-80 0-138-43t-58-109q0-28 18-45t45-18q28 0 46 18t18 45q0 11-3 20t-7 16-11 12-12 8-10 4-8 3l-4 1q51 45 124 45 55 0 83-53 17-33 17-101v-20q0-95-64-127-15-6-61-7l-42-1-3-2q-2-3-2-16 0-18 8-18 28 0 58-5 34-5 62-42t28-112v-8q0-57-35-79-22-14-47-14-32 0-59 11t-38 23-11 12h3q3 1 8 2t10 5 12 7 10 11 8 15 3 20q0 22-14 39t-45 18" data-c="33" data-mml-node="mn"/><path stroke="none" d="M7979 185.5q-6 0-14-8t-9-14 31-30 66-50 38-29q2-2 5-2h1q6 0 14 17t54 117q19 43 31 69l85 185q1 0 104-213t206-429 107-221q6-14 20-14 7 0 12 6t7 12v6l-233 483-235 486q-4 7-19 7-9 0-12-3-2-2-98-212l-96-210-16 11q-15 12-31 24t-18 12" data-c="221A" data-mml-node="mo"/><path stroke="none" d="M8737-376.5h500v-60h-500z"/></g><path stroke="none" d="M9515.3 215.5v-13l14-20h299v-150l1-150q10-13 19-13 13 0 20 15v298h298q15 8 15 20t-15 20h-298v298q-8 14-18 14h-4q-12 0-18-14v-298h-299q-14-7-14-20Z" data-c="2B" data-mml-node="mo"/><path stroke="none" d="M10586.5-10.5q-27 0-42-17t-16-44q0-55 48-98t116-43q35 0 44 1 74 12 113 53t40 89q0 52-34 101t-94 71l-3 2q0 1 9 3t29 9 38 21q82 53 82 140 0 79-62 138t-157 59q-80 0-138-43t-58-109q0-28 18-45t45-18q28 0 46 18t18 45q0 11-3 20t-7 16-11 12-12 8-10 4-8 3l-4 1q51 45 124 45 55 0 83-53 17-33 17-101v-20q0-95-64-127-15-6-61-7l-42-1-3-2q-2-3-2-16 0-18 8-18 28 0 58-5 34-5 62-42t28-112v-8q0-57-35-79-22-14-47-14-32 0-59 11t-38 23-11 12h3q3 1 8 2t10 5 12 7 10 11 8 15 3 20q0 22-14 39t-45 18" data-c="33" data-mml-node="mn"/><path stroke="none" d="M11265.7 215.5v-13l14-20h581q15 8 15 20t-15 20h-581q-14-7-14-20Z" data-c="2212" data-mml-node="mo"/><path stroke="none" d="M12643.9 452.5q-18-3-129-3-116 0-134 3h-9v-46h58q7 0 17-2t14-5 7-8q1-2 1-54v-50h-259v-46l151-231q153-232 155-233 2-2 21-2h18l6 6v460h92v46h-92v99q0 7 6 12 8 7 57 8h29v46zm-169-211v-334l-219 333 109 1z" data-c="34" data-mml-node="mn"/><path stroke="none" d="M12988.2 215.5v-13l14-20h581q15 8 15 20t-15 20h-581q-14-7-14-20Z" data-c="2212" data-mml-node="mo"/><path stroke="none" d="M14366.4 452.5q-18-3-129-3-116 0-134 3h-9v-46h58q7 0 17-2t14-5 7-8q1-2 1-54v-50h-259v-46l151-231q153-232 155-233 2-2 21-2h18l6 6v460h92v46h-92v99q0 7 6 12 8 7 57 8h29v46zm-169-211v-334l-219 333 109 1z" data-c="34" data-mml-node="mn"/><g data-mml-node="msqrt"><path stroke="none" d="M15384.4-10.5q-27 0-42-17t-16-44q0-55 48-98t116-43q35 0 44 1 74 12 113 53t40 89q0 52-34 101t-94 71l-3 2q0 1 9 3t29 9 38 21q82 53 82 140 0 79-62 138t-157 59q-80 0-138-43t-58-109q0-28 18-45t45-18q28 0 46 18t18 45q0 11-3 20t-7 16-11 12-12 8-10 4-8 3l-4 1q51 45 124 45 55 0 83-53 17-33 17-101v-20q0-95-64-127-15-6-61-7l-42-1-3-2q-2-3-2-16 0-18 8-18 28 0 58-5 34-5 62-42t28-112v-8q0-57-35-79-22-14-47-14-32 0-59 11t-38 23-11 12h3q3 1 8 2t10 5 12 7 10 11 8 15 3 20q0 22-14 39t-45 18" data-c="33" data-mml-node="mn"/><path stroke="none" d="M14499.4 185.5q-6 0-14-8t-9-14 31-30 66-50 38-29q2-2 5-2h1q6 0 14 17t54 117q19 43 31 69l85 185q1 0 104-213t206-429 107-221q6-14 20-14 7 0 12 6t7 12v6l-233 483-235 486q-4 7-19 7-9 0-12-3-2-2-98-212l-96-210-16 11q-15 12-31 24t-18 12" data-c="221A" data-mml-node="mo"/><path stroke="none" d="M15257.4-376.5h500v-60h-500z"/></g></g><path stroke="none" d="m10672.5 1236.5-13 5q-14 5-40 10t-58 7h-19v-46h19q47-2 87-15t56-24 28-22q2-3 12-3 9 0 17 6v299l1 300q7 7 12 9t24 4 62 2h26v46h-11q-21-3-159-3-136 0-157 3h-12v-46h64q16 0 25-1t16-3 8-2 6-5 6-4z" data-c="31" data-mml-node="mn"/><path stroke="none" d="M5561.6 908.5h10295.8v-60H5561.6z"/></g></g></g><g data-mml-node="mtr"><g data-mml-node="mtd"><path stroke="none" d="M4441.8 2517.5q0-13 14-20h637q15 8 15 20 0 11-14 19l-318 1h-318q-16-5-16-20m0 194q0-15 16-20h636q14 10 14 20 0 13-15 20h-637q-14-7-14-20" data-c="3D" data-mml-node="mo"/><path stroke="none" d="M5568.6 2401.5q-27 0-42-17t-16-44q0-55 48-98t116-43q35 0 44 1 74 12 113 53t40 89q0 52-34 101t-94 71l-3 2q0 1 9 3t29 9 38 21q82 53 82 140 0 79-62 138t-157 59q-80 0-138-43t-58-109q0-28 18-45t45-18q28 0 46 18t18 45q0 11-3 20t-7 16-11 12-12 8-10 4-8 3l-4 1q51 45 124 45 55 0 83-53 17-33 17-101v-20q0-95-64-127-15-6-61-7l-42-1-3-2q-2-3-2-16 0-18 8-18 28 0 58-5 34-5 62-42t28-112v-8q0-57-35-79-22-14-47-14-32 0-59 11t-38 23-11 12h3q3 1 8 2t10 5 12 7 10 11 8 15 3 20q0 22-14 39t-45 18" data-c="33" data-mml-node="mn"/><path stroke="none" d="M6303.3 2614.5q0-122 82-200t194-89h17q16 0 42-1t50 0h99q15 8 15 20 0 9-13 19l-104 1q-111 1-137 6-49 12-87 36t-59 49-36 55-18 48-5 34v2h444q15 8 15 20t-15 20h-444v2q0 21 10 51t33 65 64 64 97 41q27 6 138 7h104q13 10 13 20 0 12-15 20h-122q-18 0-29 1-155 0-245-86-88-82-88-205" data-c="2208" data-mml-node="mo"/><g data-mjx-texclass="ORD" data-mml-node="TeXAtom"><path stroke="none" d="M7184.1 2200.5q0-2 11-19h111q114 0 116 2 1 1 21 28t63 81 80 104l160 209v-231q0-39 1-51 0-70-10-87t-51-20q-22 0-29-6-9-11 0-25l7-4h191q11 7 11 17 0 9-4 14-10 4-18 4-47 0-53 36-3 11-3 318v302q-8 12-17 12-6 0-11-5-3-2-225-285l-215-278-3 229v85q0 50-1 67 0 64 4 89t16 34 41 10q23 0 29 6 11 11 0 25l-6 4h-200q-12-7-12-17 0-18 32-18 2-1 13-2t17-4 14-10 9-22q2-11 2-273v-258l-15-16q-24-24-52-29-24 0-24-16m393 245-173-229h-120l16 20q1 2 225 287t226 287l2-14v-124z" data-c="2115" data-mml-node="mi"/></g></g></g></g></g></svg>