<svg xmlns="http://www.w3.org/2000/svg" width="7.681ex" height="2.452ex" style="vertical-align:-.566ex" viewBox="0 -833.9 3395 1083.9"><title>(a + b)^2</title><g fill="currentColor" stroke="currentColor" stroke-width="0" data-mml-node="math"><path stroke="none" d="M94-250q0-69 10-131t23-107 37-88 38-67 42-52 33-34 25-21h17q14 0 14 9 0 3-17 21t-41 53-49 86-42 138-17 193 17 192 41 139 49 86 42 53 17 21q0 9-15 9h-16l-28-24q-94-85-137-212T94-250" data-c="28" data-mml-node="mo"/><path stroke="none" d="M422-157q0-101 76-192t171-92q51 0 90 49 16-30 46-30 13 0 23 8t10 20q0 13-37 160T763-68q0 25 7 33t21 9q9-1 20-9 21-20 41-96 6-20 10-21 2-1 10-1h4q19 0 19 9 0 6-5 27t-20 54-32 50Q825 0 806 8q-8 2-24 2-34 0-57-15t-30-31l-6-15q-1-1-4 1l-4 4q-59 56-120 56-55 0-97-40t-42-127m318-171q0-6-5-22t-23-35-46-20q-35 0-67 31t-50 81q-29 79-41 164v11q0 8-1 12 0 45 18 62t43 18q38 0 75-33t44-51q2-4 27-107t26-111" data-c="1D44E" data-mml-node="mi"/><path stroke="none" d="M1196.2-237v-13l14-20h299v-150l1-150q10-13 19-13 13 0 20 15v298h298q15 8 15 20t-15 20h-298V68q-8 14-18 14h-4q-12 0-18-14v-298h-299q-14-7-14-20Z" data-c="2B" data-mml-node="mo"/><path stroke="none" d="M2213.4-647q0-10 4-23t12-13q1 0 72-5t73-6q12 0 12 9t-34 143q-8 34-17 70t-15 54l-4 19q0 3 6-3 49-40 101-40 62 0 100 46t39 116q0 111-79 201t-170 90q-50 0-91-38t-42-123v-9q0-21 8-58t49-197q50-197 50-209t-38-14h-26q-3 0-7-3t-3-7m263 322v-6q0-74-61-74-17 0-35 8t-33 21-26 24-18 22l-6 8-21 86q-22 86-22 122 0 48 24 72 16 16 40 16 33 0 67-32 25-23 40-56t33-105 18-106" data-c="1D44F" data-mml-node="mi"/><g data-mml-node="msup"><path stroke="none" d="m2629.4-749 4-1h22l28 24q94 85 137 212t43 264q0 68-10 131t-23 107-37 88-38 67-41 51-32 33-23 19l-4 4h-23q-3 0-5-3t-3-9q1-1 11-13 155-161 155-475t-155-475q-10-12-11-13 0-8 5-11" data-c="29" data-mml-node="mo"/><path stroke="none" d="M3068.463-666.303q-19.089 0-30.401-12.726t-11.312-31.108q0-50.197 37.471-86.961t93.324-36.764q64.337 0 107.464 39.592t43.834 102.515q0 30.401-14.14 57.974t-33.936 48.076-56.56 52.318q-25.452 21.917-70.7 65.044l-41.713 39.592 53.732.707q110.999 0 118.069-3.535 4.949-1.414 16.968-62.923v-2.121h28.28v2.121q-.707 2.121-9.191 64.337t-10.605 65.044V-363H3026.75v-21.917q0-4.949 4.242-10.605t21.21-24.745q20.503-22.624 35.35-39.592 6.363-7.07 24.038-26.159t24.038-26.159 20.503-23.331 19.796-24.038 16.261-21.21 14.847-22.624 10.605-20.503 9.191-22.624 4.949-21.21 2.121-23.331q0-44.541-24.038-77.063t-68.579-32.522q-23.331 0-41.006 12.019t-24.745 23.331-7.07 13.433q0 .707 3.535.707 12.726 0 26.159 9.898t13.433 32.522q0 17.675-11.312 29.694t-31.815 12.726" data-c="32" data-mml-node="mn"/></g></g></svg>