<svg xmlns="http://www.w3.org/2000/svg" width="19.701ex" height="5.566ex" style="vertical-align:-1.091ex" viewBox="0 -1977.9 8708 2460"><title>B = \sqrt{\sqrt{97 + 56\sqrt{3}}}</title><g fill="currentColor" stroke="currentColor" stroke-width="0" data-mml-node="math"><path stroke="none" d="M231-637q-27 0-32-1t-5-11q0-27 11-33 1-1 130-1 259 0 273 2 63 10 105 45t43 92q0 64-58 115t-133 69l-10 3q64 9 105 46t42 92q0 73-72 141T453-1q-7 1-211 1Q42 0 39-2q-4-3-4-8 0-7 2-14 5-19 10-21 4-1 15-1h6q27 0 60-3 14-3 19-12 3-4 72-278t69-289q0-7-57-9m418 93q0-30-15-56t-49-34q-7-2-92-3h-42q-22 0-35 1h-13q-15 1-19 10-2 4-32 120 0 3-1 6l-31 126h81q81 0 93-2 60-10 107-58t48-110m-54 315q0-44-23-73t-60-34q-6-1-83-1-118 0-119 1 0 2-17 73t-35 141l-18 70q0 4 12 4t81 2q89 0 96-1 62-7 114-58t52-124" data-c="1D435" data-mml-node="mi"/><path stroke="none" d="M1092.8-347q0-13 14-20h637q15 8 15 20 0 11-14 19l-318 1h-318q-16-5-16-20m0 194q0-15 16-20h636q14 10 14 20 0 13-15 20h-637q-14-7-14-20" data-c="3D" data-mml-node="mo"/><g data-mml-node="msqrt"><g data-mml-node="msqrt"><g stroke="none" data-mml-node="mn"><path d="M4484.6-287q-48 76-120 76-78 0-128-59t-60-126q-2-16-2-40v-8q0-93 69-162 60-60 132-60h6q4 0 8 1h4q12 0 25 2t37 12 47 32 43 59q43 88 43 226 0 140-60 237-35 56-84 87t-104 32q-61 0-100-29t-40-86 53-56q22 0 37 14t15 39q0 18-9 31t-16 16-13 5l-4 1q0 2 7 6t26 10 42 5h6q60 0 101-64 39-56 39-194zm-108 39q48 0 77-49t30-133q0-78-8-112-2-10-6-20t-14-26-30-27-47-10q-38 0-65 27-21 22-27 52t-7 105q0 83 5 112t20 47q25 34 72 34" data-c="39"/><path d="M4687.6-458q1-2 17-109l16-107q0-2 20-2h20v4q0 10 15 17t52 9 169 2h121v39l-68 93-30 40q-21 28-27 37t-21 32-20 36-14 37-13 46-8 54-6 68-3 82v28q0 14-1 24v9q-4 17-19 29t-34 12q-11 0-21-3t-21-19-11-40q0-158 97-328 20-32 84-121l46-63h-93q-174 0-183 6-6 3-11 24t-10 43l-3 21v3h-40z" data-c="37"/></g><path stroke="none" d="M5410.8-237v-13l14-20h299v-150l1-150q10-13 19-13 13 0 20 15v298h298q15 8 15 20t-15 20h-298V68q-8 14-18 14h-4q-12 0-18-14v-298h-299q-14-7-14-20Z" data-c="2B" data-mml-node="mo"/><g stroke="none" data-mml-node="mn"><path d="M6519-157q0 24-16 40t-39 16h-7q46 79 122 79 70 0 102-60 19-33 19-128 0-103-27-139-26-33-58-33h-6q-78 0-118 68-4 7-7 8t-15 2q-17 0-19-6-2-4-2-175v-129q0-50 5-50 2-2 4-2 1 0 21 8t55 16 75 8q71 0 136-28 8-4 13-4 8 0 8 18v13q-82 97-205 97-31 0-56-6l-10-2v172q19-14 30-22t36-16 51-8q81 0 137 65t56 154q0 92-64 157t-156 66q-81 0-130-54t-49-122q0-24 11-38t23-18 23-4q25 0 41 17t16 40" data-c="35"/><path d="M6897-313q0-163 81-258t180-95q69 0 99 36t30 80q0 25-14 40t-39 15q-23 0-38-14t-15-39q0-44 47-53-22-22-62-25-71 0-117 60-47 66-47 202l1 4q5-6 8-13 41-60 107-60h4q46 0 81 19 24 14 48 40t39 57q21 49 21 107v18q0 23-5 43-11 59-64 115t-134 56q-28 0-54-8t-56-30-51-59-36-97-14-141m215-84q-30 0-52 17t-34 45-17 57-6 62q0 83 12 119t38 58q24 18 53 18 51 0 78-38 13-18 18-45t5-105q0-80-5-107t-18-45q-27-36-72-36" data-c="36"/></g><g data-mml-node="msqrt"><path stroke="none" d="M8335-463q-27 0-42-17t-16-44q0-55 48-98t116-43q35 0 44 1 74 12 113 53t40 89q0 52-34 101t-94 71l-3 2q0 1 9 3t29 9 38 21q82 53 82 140 0 79-62 138t-157 59q-80 0-138-43t-58-109q0-28 18-45t45-18q28 0 46 18t18 45q0 11-3 20t-7 16-11 12-12 8-10 4-8 3l-4 1q51 45 124 45 55 0 83-53 17-33 17-101v-20q0-95-64-127-15-6-61-7l-42-1-3-2q-2-3-2-16 0-18 8-18 28 0 58-5 34-5 62-42t28-112v-8q0-57-35-79-22-14-47-14-32 0-59 11t-38 23-11 12h3q3 1 8 2t10 5 12 7 10 11 8 15 3 20q0 22-14 39t-45 18" data-c="33" data-mml-node="mn"/><path stroke="none" d="M7450-314.7q-6 0-14-8t-9-14 31-30 66-50 38-29q2-2 5-2h1q6 0 14 17t54 117q19 43 31 69l85 185q1 0 104-213t206-429 107-221q6-14 20-14 7 0 12 6t7 12v6l-233 483-235 486q-4 7-19 7-9 0-12-3-2-2-98-212l-96-210-16 11q-15 12-31 24t-18 12" data-c="221A" data-mml-node="mo"/><path stroke="none" d="M8208-876.7h500v-60h-500z"/></g><path stroke="none" d="M4113.6-1472.6q16 0 19 18 0 5-279 888l-281 887q-7 7-24 7h-12q-1-3-1-5t-2-5-2-9-4-14-7-23-9-34-14-48-18-64-24-84-31-105l-109-378-65 78-27-26 101-121 52-60 208 722 511-1614q5-10 18-10" data-c="221A" data-mml-node="mo"/><path stroke="none" d="M4132.6-1412.6H8708v-60H4132.6z"/></g><path stroke="none" d="M2516.6 480.1q-2-1-111-514t-111-514l-32 49q-5 7-13 21l-20 31q-6-5-13-13l-13-13 153-243 209 968q0-3 254-1079t256-1081q6-10 18-10 6 0 12 5t7 12q0 8-278 1189t-282 1185q-2 9-21 9h-3q-12 0-12-2" data-c="221A" data-mml-node="mo"/><path stroke="none" d="M3112.6-1857.9H8708v-60H3112.6z"/></g></g></svg>