<svg xmlns="http://www.w3.org/2000/svg" width="30.372ex" height="18.305ex" style="vertical-align:-8.587ex" viewBox="0 -4295.5 13424.2 8091"><title>\begin{eqnarray} r &amp;=&amp; P(spam|penis) \\[6pt]   &amp;=&amp; \frac{P(penis|spam) \cdot P(spam)}{ P(penis) } \\[6pt]   &amp;=&amp; \frac{\frac{20}{30} \cdot \frac{30}{74}}{\frac{51}{74}}   = \frac{20}{51} = 0.39 \end{eqnarray}</title><g fill="currentColor" stroke="currentColor" stroke-width="0" data-mml-node="math"><g data-mml-node="mtable"><g data-mml-node="mtr"><g data-mml-node="mtd"><path stroke="none" d="M21-3832.5q1-3 2-8t5-22 10-31 15-33 20-30 26-22 33-9q29 0 51 12t31 22 11 20q2 6 3 6t8-7q48-52 111-52h3q48 0 72 41 8 19 8 37 0 30-13 48t-26 23-25 4q-20 0-32-11t-12-29q0-48 56-64-22-13-36-13-56 0-103 74-10 16-15 33t-34 133q-34 140-39 149-13 27-43 27-13 0-21-6t-11-12-2-10q0-13 40-172t40-177q0-39-26-39-21 0-36 28t-24 61-11 36q-2 2-16 2H27q-6-6-6-9" data-c="1D45F" data-mml-node="mi"/></g><g data-mml-node="mtd"><path stroke="none" d="M784.8-3892.5q0-13 14-20h637q15 8 15 20 0 11-14 19l-318 1h-318q-16-5-16-20m0 194q0-15 16-20h636q14 10 14 20 0 13-15 20h-637q-14-7-14-20" data-c="3D" data-mml-node="mo"/></g><g data-mml-node="mtd"><path stroke="none" d="M2071.8-4173.5q0-7-57-9-24 0-31-1t-7-10q0-1 2-11 6-20 9-22t194-2q190 1 203 3 64 11 107 49t44 101q0 77-66 141-69 68-178 86-7 1-105 2h-95l-30 119q-30 116-30 123 0 4 1 5t7 4 17 2 33 2h31q6 9 6 11 0 16-7 30-5 5-16 5-3 0-37-1t-100-1h-95q-33 0-36 1-18 0-18-10 0-2 3-14 4-16 8-18t23-3q27 0 60-3 14-3 19-12 3-4 72-278t69-289m358 74q0-13-2-21t-9-22-25-22-49-16q-7-1-80-2h-35q-18 0-29 1t-12 0q-13 1-18 9-2 6-19 77t-35 138-18 68q0 2 81 2h35q112 0 160-50 27-27 41-79t14-83" data-c="1D443" data-mml-node="mi"/><path stroke="none" d="M2629.8-3795.5q0-69 10-131t23-107 37-88 38-67 42-52 33-34 25-21h17q14 0 14 9 0 3-17 21t-41 53-49 86-42 138-17 193 17 192 41 139 49 86 42 53 17 21q0 9-15 9h-16l-28-24q-94-85-137-212t-43-264" data-c="28" data-mml-node="mo"/><path stroke="none" d="M3055.8-3834.5q0-32 16-65t56-61 97-27q62 0 90 27t29 60q0 32-17 47t-38 16q-13 0-24-8t-12-26q0-16 9-28t17-18 13-6q1 0 1-1 0-3-7-9t-25-11-39-6q-48 0-70 26t-23 53q0 25 19 35t55 17 52 15q66 29 66 96 0 28-11 56t-33 56-63 44-94 17q-77 0-109-29t-33-68q0-39 21-56t44-17q15 0 28 9t14 31q0 26-18 44t-31 18q-2 1-3 1t-1 2q1 3 8 8t31 13 55 7q36 0 62-11t38-28 17-31 5-25q0-28-21-42t-48-17-59-15-47-35q-17-25-17-58" data-c="1D460" data-mml-node="mi"/><path stroke="none" d="M3416.8-3832.5q1-3 2-8t5-22 10-31 15-33 20-30 26-22 33-9q75 0 96 64l10-9q62-55 118-55 65 0 102 47t37 114q0 108-76 199t-172 92q-22 0-39-6-11-5-23-15t-19-17l-7-8q-1 1-22 87t-21 87q0 6 8 7t37 3h25q6 7 6 9t-3 18q-3 12-6 15t-13 4h-11q-9 0-34-1t-62-1q-70 0-89 2h-8q-7-7-7-11 2-27 13-35h20q34-1 39-12 3-6 61-239t61-247q1-5 1-14 0-41-25-41-22 0-37 28t-23 61-12 36q-2 2-16 2h-14q-6-6-6-9m155 185q22 76 74 76 30 0 58-23t46-58q18-34 36-108t19-110v-6q0-74-61-74-11 0-22 3t-22 9-20 13-17 15-15 15-11 14-8 10l-3 4q0 1-3 14t-11 44-14 52q-26 106-26 110" data-c="1D45D" data-mml-node="mi"/><path stroke="none" d="M3929.8-3702.5q0-101 76-192t171-92q51 0 90 49 16-30 46-30 13 0 23 8t10 20q0 13-37 160t-38 166q0 25 7 33t21 9q9-1 20-9 21-20 41-96 6-20 10-21 2-1 10-1h4q19 0 19 9 0 6-5 27t-20 54-32 50q-13 13-32 21-8 2-24 2-34 0-57-15t-30-31l-6-15q-1-1-4 1l-4 4q-59 56-120 56-55 0-97-40t-42-127m318-171q0-6-5-22t-23-35-46-20q-35 0-67 31t-50 81q-29 79-41 164v11q0 8-1 12 0 45 18 62t43 18q38 0 75-33t44-51q2-4 27-107t26-111" data-c="1D44E" data-mml-node="mi"/><path stroke="none" d="M4446.8-3832.5q1-6 3-16t12-38 20-47 32-37 44-17 43 7 30 18 16 22 8 19l2 7q0 2 1 2l11-11q60-64 141-64 17 0 31 2t26 7 19 10 15 12 10 13 8 13 4 12 3 9 2 7l8-10q63-75 149-75 54 0 87 27t34 79q0 51-38 158t-38 128q1 14 5 19t15 5q28 0 52-30t39-82q3-11 6-13t16-2q20 0 20 8 0 1-4 15-8 29-22 57t-46 56-69 27q-47 0-68-27t-21-56q0-19 36-120t37-152q0-59-44-59h-5q-86 0-145 101l-7 12-33 134q-33 131-38 141-13 27-43 27-13 0-21-7t-11-12-3-10q0-11 34-143l36-146q3-15 3-38 0-59-44-59h-5q-86 0-145 101l-7 12-33 134q-33 131-38 141-13 27-43 27-13 0-21-6t-11-12-2-10q0-13 38-164 39-154 39-161 3-15 3-27 0-36-25-36-22 0-37 28t-23 61-12 36q-2 2-16 2h-14q-6-6-6-9" data-c="1D45A" data-mml-node="mi"/><path stroke="none" d="M5442.8-3296h-2q-12 0-18-14v-486l1-486q10-13 19-13 13 0 20 15v970q-8 14-18 14z" data-c="7C" data-mml-node="mo"/><path stroke="none" d="M5604.8-3832.5q1-3 2-8t5-22 10-31 15-33 20-30 26-22 33-9q75 0 96 64l10-9q62-55 118-55 65 0 102 47t37 114q0 108-76 199t-172 92q-22 0-39-6-11-5-23-15t-19-17l-7-8q-1 1-22 87t-21 87q0 6 8 7t37 3h25q6 7 6 9t-3 18q-3 12-6 15t-13 4h-11q-9 0-34-1t-62-1q-70 0-89 2h-8q-7-7-7-11 2-27 13-35h20q34-1 39-12 3-6 61-239t61-247q1-5 1-14 0-41-25-41-22 0-37 28t-23 61-12 36q-2 2-16 2h-14q-6-6-6-9m155 185q22 76 74 76 30 0 58-23t46-58q18-34 36-108t19-110v-6q0-74-61-74-11 0-22 3t-22 9-20 13-17 15-15 15-11 14-8 10l-3 4q0 1-3 14t-11 44-14 52q-26 106-26 110" data-c="1D45D" data-mml-node="mi"/><path stroke="none" d="M6123.8-3713.5q0-57 19-104t49-78 67-52 70-31 63-9h3q45 0 78 22t33 65q0 90-111 118-49 13-134 14-37 0-38 2 0 2-6 35t-7 58q0 47 21 74t63 28 93-19 92-66q9-10 12-10 4 0 13 9t10 14-9 16-30 27-46 31-63 25-76 10q-79 0-122-53t-44-126m334-185q-6-52-68-52-33 0-61 14t-45 34-29 41-16 36-5 19q0 1 20 1 113 0 158-24t46-69" data-c="1D452" data-mml-node="mi"/><path stroke="none" d="M6571.8-3832.5q1-6 3-16t12-38 20-47 33-37 46-17q36 0 60 18t30 34 6 21q0 2 1 2l11-11q61-64 139-64 54 0 87 27t34 79-38 157-38 127q0 26 17 26 6 0 9-1 29-5 52-38t35-80q2-8 20-8 20 0 20 8 0 1-4 15-8 29-22 57t-46 56-69 27q-47 0-68-27t-21-56q0-19 36-120t37-152q0-59-44-59h-5q-86 0-145 101l-7 12-33 134q-33 131-38 141-13 27-43 27-13 0-21-6t-11-12-2-10q0-13 38-163t40-163q1-5 1-23 0-39-24-39-38 0-63 100-6 20-6 21-2 6-19 6h-14q-6-6-6-9" data-c="1D45B" data-mml-node="mi"/><path stroke="none" d="M7334.8-4145.5q0-24 19-42t44-19q18 0 30 12t13 30q0 23-20 42t-44 20q-15 0-28-10t-14-33m-163 313q0-8 9-31t24-51 44-51 60-22q39 0 65 23t27 62q0 17-14 56t-40 105-42 113q-5 22-5 32 0 25 17 25 9 0 19-3t23-14 27-35 25-59q3-12 5-14t17-2q20 0 20 10 0 8-9 31t-25 51-45 50-62 22q-32 0-59-21t-28-64q0-17 5-32t43-114q38-101 44-121t7-39q0-24-17-24h-2q-30 0-55 33t-38 84q-1 1-2 3t-1 3-2 2-3 1-4 0-8 0h-14q-6-6-6-9" data-c="1D456" data-mml-node="mi"/><path stroke="none" d="M7626.8-3834.5q0-32 16-65t56-61 97-27q62 0 90 27t29 60q0 32-17 47t-38 16q-13 0-24-8t-12-26q0-16 9-28t17-18 13-6q1 0 1-1 0-3-7-9t-25-11-39-6q-48 0-70 26t-23 53q0 25 19 35t55 17 52 15q66 29 66 96 0 28-11 56t-33 56-63 44-94 17q-77 0-109-29t-33-68q0-39 21-56t44-17q15 0 28 9t14 31q0 26-18 44t-31 18q-2 1-3 1t-1 2q1 3 8 8t31 13 55 7q36 0 62-11t38-28 17-31 5-25q0-28-21-42t-48-17-59-15-47-35q-17-25-17-58" data-c="1D460" data-mml-node="mi"/><path stroke="none" d="m8024.8-4294.5 4-1h22l28 24q94 85 137 212t43 264q0 68-10 131t-23 107-37 88-38 67-41 51-32 33-23 19l-4 4h-23q-3 0-5-3t-3-9q1-1 11-13 155-161 155-475t-155-475q-10-12-11-13 0-8 5-11" data-c="29" data-mml-node="mo"/></g></g><g data-mml-node="mtr"><g data-mml-node="mtd"><path stroke="none" d="M784.8-1282.5q0-13 14-20h637q15 8 15 20 0 11-14 19l-318 1h-318q-16-5-16-20m0 194q0-15 16-20h636q14 10 14 20 0 13-15 20h-637q-14-7-14-20" data-c="3D" data-mml-node="mo"/></g><g data-mml-node="mtd"><g data-mml-node="mfrac"><g data-mml-node="mrow"><path stroke="none" d="M2291.8-2273.5q0-7-57-9-24 0-31-1t-7-10q0-1 2-11 6-20 9-22t194-2q190 1 203 3 64 11 107 49t44 101q0 77-66 141-69 68-178 86-7 1-105 2h-95l-30 119q-30 116-30 123 0 4 1 5t7 4 17 2 33 2h31q6 9 6 11 0 16-7 30-5 5-16 5-3 0-37-1t-100-1h-95q-33 0-36 1-18 0-18-10 0-2 3-14 4-16 8-18t23-3q27 0 60-3 14-3 19-12 3-4 72-278t69-289m358 74q0-13-2-21t-9-22-25-22-49-16q-7-1-80-2h-35q-18 0-29 1t-12 0q-13 1-18 9-2 6-19 77t-35 138-18 68q0 2 81 2h35q112 0 160-50 27-27 41-79t14-83" data-c="1D443" data-mml-node="mi"/><path stroke="none" d="M2849.8-1895.5q0-69 10-131t23-107 37-88 38-67 42-52 33-34 25-21h17q14 0 14 9 0 3-17 21t-41 53-49 86-42 138-17 193 17 192 41 139 49 86 42 53 17 21q0 9-15 9h-16l-28-24q-94-85-137-212t-43-264" data-c="28" data-mml-node="mo"/><path stroke="none" d="M3167.8-1932.5q1-3 2-8t5-22 10-31 15-33 20-30 26-22 33-9q75 0 96 64l10-9q62-55 118-55 65 0 102 47t37 114q0 108-76 199t-172 92q-22 0-39-6-11-5-23-15t-19-17l-7-8q-1 1-22 87t-21 87q0 6 8 7t37 3h25q6 7 6 9t-3 18q-3 12-6 15t-13 4h-11q-9 0-34-1t-62-1q-70 0-89 2h-8q-7-7-7-11 2-27 13-35h20q34-1 39-12 3-6 61-239t61-247q1-5 1-14 0-41-25-41-22 0-37 28t-23 61-12 36q-2 2-16 2h-14q-6-6-6-9m155 185q22 76 74 76 30 0 58-23t46-58q18-34 36-108t19-110v-6q0-74-61-74-11 0-22 3t-22 9-20 13-17 15-15 15-11 14-8 10l-3 4q0 1-3 14t-11 44-14 52q-26 106-26 110" data-c="1D45D" data-mml-node="mi"/><path stroke="none" d="M3686.8-1813.5q0-57 19-104t49-78 67-52 70-31 63-9h3q45 0 78 22t33 65q0 90-111 118-49 13-134 14-37 0-38 2 0 2-6 35t-7 58q0 47 21 74t63 28 93-19 92-66q9-10 12-10 4 0 13 9t10 14-9 16-30 27-46 31-63 25-76 10q-79 0-122-53t-44-126m334-185q-6-52-68-52-33 0-61 14t-45 34-29 41-16 36-5 19q0 1 20 1 113 0 158-24t46-69" data-c="1D452" data-mml-node="mi"/><path stroke="none" d="M4134.8-1932.5q1-6 3-16t12-38 20-47 33-37 46-17q36 0 60 18t30 34 6 21q0 2 1 2l11-11q61-64 139-64 54 0 87 27t34 79-38 157-38 127q0 26 17 26 6 0 9-1 29-5 52-38t35-80q2-8 20-8 20 0 20 8 0 1-4 15-8 29-22 57t-46 56-69 27q-47 0-68-27t-21-56q0-19 36-120t37-152q0-59-44-59h-5q-86 0-145 101l-7 12-33 134q-33 131-38 141-13 27-43 27-13 0-21-6t-11-12-2-10q0-13 38-163t40-163q1-5 1-23 0-39-24-39-38 0-63 100-6 20-6 21-2 6-19 6h-14q-6-6-6-9" data-c="1D45B" data-mml-node="mi"/><path stroke="none" d="M4897.8-2245.5q0-24 19-42t44-19q18 0 30 12t13 30q0 23-20 42t-44 20q-15 0-28-10t-14-33m-163 313q0-8 9-31t24-51 44-51 60-22q39 0 65 23t27 62q0 17-14 56t-40 105-42 113q-5 22-5 32 0 25 17 25 9 0 19-3t23-14 27-35 25-59q3-12 5-14t17-2q20 0 20 10 0 8-9 31t-25 51-45 50-62 22q-32 0-59-21t-28-64q0-17 5-32t43-114q38-101 44-121t7-39q0-24-17-24h-2q-30 0-55 33t-38 84q-1 1-2 3t-1 3-2 2-3 1-4 0-8 0h-14q-6-6-6-9" data-c="1D456" data-mml-node="mi"/><path stroke="none" d="M5189.8-1934.5q0-32 16-65t56-61 97-27q62 0 90 27t29 60q0 32-17 47t-38 16q-13 0-24-8t-12-26q0-16 9-28t17-18 13-6q1 0 1-1 0-3-7-9t-25-11-39-6q-48 0-70 26t-23 53q0 25 19 35t55 17 52 15q66 29 66 96 0 28-11 56t-33 56-63 44-94 17q-77 0-109-29t-33-68q0-39 21-56t44-17q15 0 28 9t14 31q0 26-18 44t-31 18q-2 1-3 1t-1 2q1 3 8 8t31 13 55 7q36 0 62-11t38-28 17-31 5-25q0-28-21-42t-48-17-59-15-47-35q-17-25-17-58" data-c="1D460" data-mml-node="mi"/><path stroke="none" d="M5666.8-1396h-2q-12 0-18-14v-486l1-486q10-13 19-13 13 0 20 15v970q-8 14-18 14z" data-c="7C" data-mml-node="mo"/><path stroke="none" d="M5936.8-1934.5q0-32 16-65t56-61 97-27q62 0 90 27t29 60q0 32-17 47t-38 16q-13 0-24-8t-12-26q0-16 9-28t17-18 13-6q1 0 1-1 0-3-7-9t-25-11-39-6q-48 0-70 26t-23 53q0 25 19 35t55 17 52 15q66 29 66 96 0 28-11 56t-33 56-63 44-94 17q-77 0-109-29t-33-68q0-39 21-56t44-17q15 0 28 9t14 31q0 26-18 44t-31 18q-2 1-3 1t-1 2q1 3 8 8t31 13 55 7q36 0 62-11t38-28 17-31 5-25q0-28-21-42t-48-17-59-15-47-35q-17-25-17-58" data-c="1D460" data-mml-node="mi"/><path stroke="none" d="M6297.8-1932.5q1-3 2-8t5-22 10-31 15-33 20-30 26-22 33-9q75 0 96 64l10-9q62-55 118-55 65 0 102 47t37 114q0 108-76 199t-172 92q-22 0-39-6-11-5-23-15t-19-17l-7-8q-1 1-22 87t-21 87q0 6 8 7t37 3h25q6 7 6 9t-3 18q-3 12-6 15t-13 4h-11q-9 0-34-1t-62-1q-70 0-89 2h-8q-7-7-7-11 2-27 13-35h20q34-1 39-12 3-6 61-239t61-247q1-5 1-14 0-41-25-41-22 0-37 28t-23 61-12 36q-2 2-16 2h-14q-6-6-6-9m155 185q22 76 74 76 30 0 58-23t46-58q18-34 36-108t19-110v-6q0-74-61-74-11 0-22 3t-22 9-20 13-17 15-15 15-11 14-8 10l-3 4q0 1-3 14t-11 44-14 52q-26 106-26 110" data-c="1D45D" data-mml-node="mi"/><path stroke="none" d="M6810.8-1802.5q0-101 76-192t171-92q51 0 90 49 16-30 46-30 13 0 23 8t10 20q0 13-37 160t-38 166q0 25 7 33t21 9q9-1 20-9 21-20 41-96 6-20 10-21 2-1 10-1h4q19 0 19 9 0 6-5 27t-20 54-32 50q-13 13-32 21-8 2-24 2-34 0-57-15t-30-31l-6-15q-1-1-4 1l-4 4q-59 56-120 56-55 0-97-40t-42-127m318-171q0-6-5-22t-23-35-46-20q-35 0-67 31t-50 81q-29 79-41 164v11q0 8-1 12 0 45 18 62t43 18q38 0 75-33t44-51q2-4 27-107t26-111" data-c="1D44E" data-mml-node="mi"/><path stroke="none" d="M7327.8-1932.5q1-6 3-16t12-38 20-47 32-37 44-17 43 7 30 18 16 22 8 19l2 7q0 2 1 2l11-11q60-64 141-64 17 0 31 2t26 7 19 10 15 12 10 13 8 13 4 12 3 9 2 7l8-10q63-75 149-75 54 0 87 27t34 79q0 51-38 158t-38 128q1 14 5 19t15 5q28 0 52-30t39-82q3-11 6-13t16-2q20 0 20 8 0 1-4 15-8 29-22 57t-46 56-69 27q-47 0-68-27t-21-56q0-19 36-120t37-152q0-59-44-59h-5q-86 0-145 101l-7 12-33 134q-33 131-38 141-13 27-43 27-13 0-21-7t-11-12-3-10q0-11 34-143l36-146q3-15 3-38 0-59-44-59h-5q-86 0-145 101l-7 12-33 134q-33 131-38 141-13 27-43 27-13 0-21-6t-11-12-2-10q0-13 38-164 39-154 39-161 3-15 3-27 0-36-25-36-22 0-37 28t-23 61-12 36q-2 2-16 2h-14q-6-6-6-9" data-c="1D45A" data-mml-node="mi"/><path stroke="none" d="m8244.8-2394.5 4-1h22l28 24q94 85 137 212t43 264q0 68-10 131t-23 107-37 88-38 67-41 51-32 33-23 19l-4 4h-23q-3 0-5-3t-3-9q1-1 11-13 155-161 155-475t-155-475q-10-12-11-13 0-8 5-11" data-c="29" data-mml-node="mo"/><path stroke="none" d="M8874-1895.5q0-24 17-42t43-18q24 0 42 16t19 43q0 25-17 43t-43 18-43-17-18-43" data-c="22C5" data-mml-node="mo"/><path stroke="none" d="M9583.2-2273.5q0-7-57-9-24 0-31-1t-7-10q0-1 2-11 6-20 9-22t194-2q190 1 203 3 64 11 107 49t44 101q0 77-66 141-69 68-178 86-7 1-105 2h-95l-30 119q-30 116-30 123 0 4 1 5t7 4 17 2 33 2h31q6 9 6 11 0 16-7 30-5 5-16 5-3 0-37-1t-100-1h-95q-33 0-36 1-18 0-18-10 0-2 3-14 4-16 8-18t23-3q27 0 60-3 14-3 19-12 3-4 72-278t69-289m358 74q0-13-2-21t-9-22-25-22-49-16q-7-1-80-2h-35q-18 0-29 1t-12 0q-13 1-18 9-2 6-19 77t-35 138-18 68q0 2 81 2h35q112 0 160-50 27-27 41-79t14-83" data-c="1D443" data-mml-node="mi"/><path stroke="none" d="M10141.2-1895.5q0-69 10-131t23-107 37-88 38-67 42-52 33-34 25-21h17q14 0 14 9 0 3-17 21t-41 53-49 86-42 138-17 193 17 192 41 139 49 86 42 53 17 21q0 9-15 9h-16l-28-24q-94-85-137-212t-43-264" data-c="28" data-mml-node="mo"/><path stroke="none" d="M10567.2-1934.5q0-32 16-65t56-61 97-27q62 0 90 27t29 60q0 32-17 47t-38 16q-13 0-24-8t-12-26q0-16 9-28t17-18 13-6q1 0 1-1 0-3-7-9t-25-11-39-6q-48 0-70 26t-23 53q0 25 19 35t55 17 52 15q66 29 66 96 0 28-11 56t-33 56-63 44-94 17q-77 0-109-29t-33-68q0-39 21-56t44-17q15 0 28 9t14 31q0 26-18 44t-31 18q-2 1-3 1t-1 2q1 3 8 8t31 13 55 7q36 0 62-11t38-28 17-31 5-25q0-28-21-42t-48-17-59-15-47-35q-17-25-17-58" data-c="1D460" data-mml-node="mi"/><path stroke="none" d="M10928.2-1932.5q1-3 2-8t5-22 10-31 15-33 20-30 26-22 33-9q75 0 96 64l10-9q62-55 118-55 65 0 102 47t37 114q0 108-76 199t-172 92q-22 0-39-6-11-5-23-15t-19-17l-7-8q-1 1-22 87t-21 87q0 6 8 7t37 3h25q6 7 6 9t-3 18q-3 12-6 15t-13 4h-11q-9 0-34-1t-62-1q-70 0-89 2h-8q-7-7-7-11 2-27 13-35h20q34-1 39-12 3-6 61-239t61-247q1-5 1-14 0-41-25-41-22 0-37 28t-23 61-12 36q-2 2-16 2h-14q-6-6-6-9m155 185q22 76 74 76 30 0 58-23t46-58q18-34 36-108t19-110v-6q0-74-61-74-11 0-22 3t-22 9-20 13-17 15-15 15-11 14-8 10l-3 4q0 1-3 14t-11 44-14 52q-26 106-26 110" data-c="1D45D" data-mml-node="mi"/><path stroke="none" d="M11441.2-1802.5q0-101 76-192t171-92q51 0 90 49 16-30 46-30 13 0 23 8t10 20q0 13-37 160t-38 166q0 25 7 33t21 9q9-1 20-9 21-20 41-96 6-20 10-21 2-1 10-1h4q19 0 19 9 0 6-5 27t-20 54-32 50q-13 13-32 21-8 2-24 2-34 0-57-15t-30-31l-6-15q-1-1-4 1l-4 4q-59 56-120 56-55 0-97-40t-42-127m318-171q0-6-5-22t-23-35-46-20q-35 0-67 31t-50 81q-29 79-41 164v11q0 8-1 12 0 45 18 62t43 18q38 0 75-33t44-51q2-4 27-107t26-111" data-c="1D44E" data-mml-node="mi"/><path stroke="none" d="M11958.2-1932.5q1-6 3-16t12-38 20-47 32-37 44-17 43 7 30 18 16 22 8 19l2 7q0 2 1 2l11-11q60-64 141-64 17 0 31 2t26 7 19 10 15 12 10 13 8 13 4 12 3 9 2 7l8-10q63-75 149-75 54 0 87 27t34 79q0 51-38 158t-38 128q1 14 5 19t15 5q28 0 52-30t39-82q3-11 6-13t16-2q20 0 20 8 0 1-4 15-8 29-22 57t-46 56-69 27q-47 0-68-27t-21-56q0-19 36-120t37-152q0-59-44-59h-5q-86 0-145 101l-7 12-33 134q-33 131-38 141-13 27-43 27-13 0-21-7t-11-12-3-10q0-11 34-143l36-146q3-15 3-38 0-59-44-59h-5q-86 0-145 101l-7 12-33 134q-33 131-38 141-13 27-43 27-13 0-21-6t-11-12-2-10q0-13 38-164 39-154 39-161 3-15 3-27 0-36-25-36-22 0-37 28t-23 61-12 36q-2 2-16 2h-14q-6-6-6-9" data-c="1D45A" data-mml-node="mi"/><path stroke="none" d="m12875.2-2394.5 4-1h22l28 24q94 85 137 212t43 264q0 68-10 131t-23 107-37 88-38 67-41 51-32 33-23 19l-4 4h-23q-3 0-5-3t-3-9q1-1 11-13 155-161 155-475t-155-475q-10-12-11-13 0-8 5-11" data-c="29" data-mml-node="mo"/></g><g data-mml-node="mrow"><path stroke="none" d="M5935.5-853.5q0-7-57-9-24 0-31-1t-7-10q0-1 2-11 6-20 9-22t194-2q190 1 203 3 64 11 107 49t44 101q0 77-66 141-69 68-178 86-7 1-105 2h-95l-30 119q-30 116-30 123 0 4 1 5t7 4 17 2 33 2h31q6 9 6 11 0 16-7 30-5 5-16 5-3 0-37-1t-100-1h-95q-33 0-36 1-18 0-18-10 0-2 3-14 4-16 8-18t23-3q27 0 60-3 14-3 19-12 3-4 72-278t69-289m358 74q0-13-2-21t-9-22-25-22-49-16q-7-1-80-2h-35q-18 0-29 1t-12 0q-13 1-18 9-2 6-19 77t-35 138-18 68q0 2 81 2h35q112 0 160-50 27-27 41-79t14-83" data-c="1D443" data-mml-node="mi"/><path stroke="none" d="M6493.5-475.5q0-69 10-131t23-107 37-88 38-67 42-52 33-34 25-21h17q14 0 14 9 0 3-17 21t-41 53-49 86-42 138-17 193 17 192 41 139 49 86 42 53 17 21q0 9-15 9h-16l-28-24q-94-85-137-212t-43-264" data-c="28" data-mml-node="mo"/><path stroke="none" d="M6811.5-512.5q1-3 2-8t5-22 10-31 15-33 20-30 26-22 33-9q75 0 96 64l10-9q62-55 118-55 65 0 102 47t37 114q0 108-76 199t-172 92q-22 0-39-6-11-5-23-15t-19-17l-7-8q-1 1-22 87t-21 87q0 6 8 7t37 3h25q6 7 6 9t-3 18q-3 12-6 15t-13 4h-11q-9 0-34-1t-62-1q-70 0-89 2h-8q-7-7-7-11 2-27 13-35h20q34-1 39-12 3-6 61-239t61-247q1-5 1-14 0-41-25-41-22 0-37 28t-23 61-12 36q-2 2-16 2h-14q-6-6-6-9m155 185q22 76 74 76 30 0 58-23t46-58q18-34 36-108t19-110v-6q0-74-61-74-11 0-22 3t-22 9-20 13-17 15-15 15-11 14-8 10l-3 4q0 1-3 14t-11 44-14 52q-26 106-26 110" data-c="1D45D" data-mml-node="mi"/><path stroke="none" d="M7330.5-393.5q0-57 19-104t49-78 67-52 70-31 63-9h3q45 0 78 22t33 65q0 90-111 118-49 13-134 14-37 0-38 2 0 2-6 35t-7 58q0 47 21 74t63 28 93-19 92-66q9-10 12-10 4 0 13 9t10 14-9 16-30 27-46 31-63 25-76 10q-79 0-122-53t-44-126m334-185q-6-52-68-52-33 0-61 14t-45 34-29 41-16 36-5 19q0 1 20 1 113 0 158-24t46-69" data-c="1D452" data-mml-node="mi"/><path stroke="none" d="M7778.5-512.5q1-6 3-16t12-38 20-47 33-37 46-17q36 0 60 18t30 34 6 21q0 2 1 2l11-11q61-64 139-64 54 0 87 27t34 79-38 157-38 127q0 26 17 26 6 0 9-1 29-5 52-38t35-80q2-8 20-8 20 0 20 8 0 1-4 15-8 29-22 57t-46 56-69 27q-47 0-68-27t-21-56q0-19 36-120t37-152q0-59-44-59h-5q-86 0-145 101l-7 12-33 134q-33 131-38 141-13 27-43 27-13 0-21-6t-11-12-2-10q0-13 38-163t40-163q1-5 1-23 0-39-24-39-38 0-63 100-6 20-6 21-2 6-19 6h-14q-6-6-6-9" data-c="1D45B" data-mml-node="mi"/><path stroke="none" d="M8541.5-825.5q0-24 19-42t44-19q18 0 30 12t13 30q0 23-20 42t-44 20q-15 0-28-10t-14-33m-163 313q0-8 9-31t24-51 44-51 60-22q39 0 65 23t27 62q0 17-14 56t-40 105-42 113q-5 22-5 32 0 25 17 25 9 0 19-3t23-14 27-35 25-59q3-12 5-14t17-2q20 0 20 10 0 8-9 31t-25 51-45 50-62 22q-32 0-59-21t-28-64q0-17 5-32t43-114q38-101 44-121t7-39q0-24-17-24h-2q-30 0-55 33t-38 84q-1 1-2 3t-1 3-2 2-3 1-4 0-8 0h-14q-6-6-6-9" data-c="1D456" data-mml-node="mi"/><path stroke="none" d="M8833.5-514.5q0-32 16-65t56-61 97-27q62 0 90 27t29 60q0 32-17 47t-38 16q-13 0-24-8t-12-26q0-16 9-28t17-18 13-6q1 0 1-1 0-3-7-9t-25-11-39-6q-48 0-70 26t-23 53q0 25 19 35t55 17 52 15q66 29 66 96 0 28-11 56t-33 56-63 44-94 17q-77 0-109-29t-33-68q0-39 21-56t44-17q15 0 28 9t14 31q0 26-18 44t-31 18q-2 1-3 1t-1 2q1 3 8 8t31 13 55 7q36 0 62-11t38-28 17-31 5-25q0-28-21-42t-48-17-59-15-47-35q-17-25-17-58" data-c="1D460" data-mml-node="mi"/><path stroke="none" d="m9231.5-974.5 4-1h22l28 24q94 85 137 212t43 264q0 68-10 131t-23 107-37 88-38 67-41 51-32 33-23 19l-4 4h-23q-3 0-5-3t-3-9q1-1 11-13 155-161 155-475t-155-475q-10-12-11-13 0-8 5-11" data-c="29" data-mml-node="mo"/></g><path stroke="none" d="M1904.8-1155.5h11399.4v-60H1904.8z"/></g></g></g><g data-mml-node="mtr"><g data-mml-node="mtd"><path stroke="none" d="M784.8 2263q0-13 14-20h637q15 8 15 20 0 11-14 19l-318 1h-318q-16-5-16-20m0 194q0-15 16-20h636q14 10 14 20 0 13-15 20h-637q-14-7-14-20" data-c="3D" data-mml-node="mo"/></g><g data-mml-node="mtd"><g data-mml-node="mfrac"><g data-mml-node="mrow"><g stroke="none" data-mml-node="mfrac"><g data-mml-node="mn"><path d="M2301.863 1092.097q-19.089 0-30.401-12.726t-11.312-31.108q0-50.197 37.471-86.961t93.324-36.764q64.337 0 107.464 39.592t43.834 102.515q0 30.401-14.14 57.974t-33.936 48.076-56.56 52.318q-25.452 21.917-70.7 65.044l-41.713 39.592 53.732.707q110.999 0 118.069-3.535 4.949-1.414 16.968-62.923v-2.121h28.28v2.121q-.707 2.121-9.191 64.337t-10.605 65.044v2.121H2260.15v-21.917q0-4.949 4.242-10.605t21.21-24.745q20.503-22.624 35.35-39.592 6.363-7.07 24.038-26.159t24.038-26.159 20.503-23.331 19.796-24.038 16.261-21.21 14.847-22.624 10.605-20.503 9.191-22.624 4.949-21.21 2.121-23.331q0-44.541-24.038-77.063t-68.579-32.522q-23.331 0-41.006 12.019t-24.745 23.331-7.07 13.433q0 .707 3.535.707 12.726 0 26.159 9.898t13.433 32.522q0 17.675-11.312 29.694t-31.815 12.726" data-c="32"/><path d="M2646.172 981.805q39.592-57.267 108.171-57.267 33.936 0 67.872 18.382t55.146 65.044q26.159 58.681 26.159 161.196 0 109.585-30.401 167.559-14.14 29.694-38.885 47.369t-43.127 21.917-36.057 4.949q-18.382 0-36.764-4.242t-43.127-22.624-38.885-47.369q-30.401-57.974-30.401-167.559 0-123.018 40.299-187.355m159.075-8.484q-21.21-22.624-50.197-22.624-29.694 0-50.904 22.624-17.675 18.382-23.331 50.904t-5.656 135.744q0 111.706 5.656 147.056t25.452 55.853q19.796 21.21 48.783 21.21 28.28 0 48.076-21.21 20.503-21.21 25.452-59.388t5.656-143.521q0-102.515-5.656-135.037t-23.331-51.611" data-c="30"/></g><g data-mml-node="mn"><path d="M2314.589 1807.059q-19.089 0-29.694-12.019t-11.312-31.108q0-38.885 33.936-69.286t82.012-30.401q24.745 0 31.108.707 52.318 8.484 79.891 37.471t28.28 62.923q0 36.764-24.038 71.407t-66.458 50.197l-2.121 1.414q0 .707 6.363 2.121t20.503 6.363 26.866 14.847q57.974 37.471 57.974 98.98 0 55.853-43.834 97.566t-110.999 41.713q-56.56 0-97.566-30.401t-41.006-77.063q0-19.796 12.726-31.815t31.815-12.726q19.796 0 32.522 12.726t12.726 31.815q0 7.777-2.121 14.14t-4.949 11.312-7.777 8.484-8.484 5.656-7.07 2.828-5.656 2.121l-2.828.707q36.057 31.815 87.668 31.815 38.885 0 58.681-37.471 12.019-23.331 12.019-71.407v-14.14q0-67.165-45.248-89.789-10.605-4.242-43.127-4.949l-29.694-.707-2.121-1.414q-1.414-2.121-1.414-11.312 0-12.726 5.656-12.726 19.796 0 41.006-3.535 24.038-3.535 43.834-29.694t19.796-79.184v-5.656q0-40.299-24.745-55.853-15.554-9.898-33.229-9.898-22.624 0-41.713 7.777t-26.866 16.261-7.777 8.484h2.121q2.121.707 5.656 1.414t7.07 3.535 8.484 4.949 7.07 7.777 5.656 10.605 2.121 14.14q0 15.554-9.898 27.573t-31.815 12.726" data-c="33"/><path d="M2646.172 1720.805q39.592-57.267 108.171-57.267 33.936 0 67.872 18.382t55.146 65.044q26.159 58.681 26.159 161.196 0 109.585-30.401 167.559-14.14 29.694-38.885 47.369t-43.127 21.917-36.057 4.949q-18.382 0-36.764-4.242t-43.127-22.624-38.885-47.369q-30.401-57.974-30.401-167.559 0-123.018 40.299-187.355m159.075-8.484q-21.21-22.624-50.197-22.624-29.694 0-50.904 22.624-17.675 18.382-23.331 50.904t-5.656 135.744q0 111.706 5.656 147.056t25.452 55.853q19.796 21.21 48.783 21.21 28.28 0 48.076-21.21 20.503-21.21 25.452-59.388t5.656-143.521q0-102.515-5.656-135.037t-23.331-51.611" data-c="30"/></g><path d="M2124.8 1569.4h907.1v-60h-907.1z"/></g><path stroke="none" d="M3452.1 1539.4q0-24 17-42t43-18q24 0 42 16t19 43q0 25-17 43t-43 18-43-17-18-43" data-c="22C5" data-mml-node="mo"/><g stroke="none" data-mml-node="mfrac"><g data-mml-node="mn"><path d="M4184.189 1068.059q-19.089 0-29.694-12.019t-11.312-31.108q0-38.885 33.936-69.286t82.012-30.401q24.745 0 31.108.707 52.318 8.484 79.891 37.471t28.28 62.923q0 36.764-24.038 71.407t-66.458 50.197l-2.121 1.414q0 .707 6.363 2.121t20.503 6.363 26.866 14.847q57.974 37.471 57.974 98.98 0 55.853-43.834 97.566t-110.999 41.713q-56.56 0-97.566-30.401t-41.006-77.063q0-19.796 12.726-31.815t31.815-12.726q19.796 0 32.522 12.726t12.726 31.815q0 7.777-2.121 14.14t-4.949 11.312-7.777 8.484-8.484 5.656-7.07 2.828-5.656 2.121l-2.828.707q36.057 31.815 87.668 31.815 38.885 0 58.681-37.471 12.019-23.331 12.019-71.407v-14.14q0-67.165-45.248-89.789-10.605-4.242-43.127-4.949l-29.694-.707-2.121-1.414q-1.414-2.121-1.414-11.312 0-12.726 5.656-12.726 19.796 0 41.006-3.535 24.038-3.535 43.834-29.694t19.796-79.184v-5.656q0-40.299-24.745-55.853-15.554-9.898-33.229-9.898-22.624 0-41.713 7.777t-26.866 16.261-7.777 8.484h2.121q2.121.707 5.656 1.414t7.07 3.535 8.484 4.949 7.07 7.777 5.656 10.605 2.121 14.14q0 15.554-9.898 27.573t-31.815 12.726" data-c="33"/><path d="M4515.772 981.805q39.592-57.267 108.171-57.267 33.936 0 67.872 18.382t55.146 65.044q26.159 58.681 26.159 161.196 0 109.585-30.401 167.559-14.14 29.694-38.885 47.369t-43.127 21.917-36.057 4.949q-18.382 0-36.764-4.242t-43.127-22.624-38.885-47.369q-30.401-57.974-30.401-167.559 0-123.018 40.299-187.355m159.075-8.484q-21.21-22.624-50.197-22.624-29.694 0-50.904 22.624-17.675 18.382-23.331 50.904t-5.656 135.744q0 111.706 5.656 147.056t25.452 55.853q19.796 21.21 48.783 21.21 28.28 0 48.076-21.21 20.503-21.21 25.452-59.388t5.656-143.521q0-102.515-5.656-135.037t-23.331-51.611" data-c="30"/></g><g data-mml-node="mn"><path d="M4133.285 1810.594q.707-1.414 12.019-77.063l11.312-75.649q0-1.414 14.14-1.414h14.14v2.828q0 7.07 10.605 12.019t36.764 6.363 119.483 1.414h85.547v27.573l-48.076 65.751-21.21 28.28q-14.847 19.796-19.089 26.159t-14.847 22.624-14.14 25.452-9.898 26.159-9.191 32.522-5.656 38.178-4.242 48.076-2.121 57.974v19.796q0 9.898-.707 16.968v6.363q-2.828 12.019-13.433 20.503t-24.038 8.484q-7.777 0-14.847-2.121t-14.847-13.433-7.777-28.28q0-111.706 68.579-231.896 14.14-22.624 59.388-85.547l32.522-44.541h-65.751q-123.018 0-129.381 4.242-4.242 2.121-7.777 16.968t-7.07 30.401l-2.121 14.847v2.121h-28.28z" data-c="37"/><path d="M4774.534 2134.4q-12.726-2.121-91.203-2.121-82.012 0-94.738 2.121h-6.363v-32.522h41.006q4.949 0 12.019-1.414t9.898-3.535 4.949-5.656q.707-1.414.707-38.178v-35.35h-183.113v-32.522l106.757-163.317q108.171-164.024 109.585-164.731 1.414-1.414 14.847-1.414h12.726l4.242 4.242v325.22h65.044v32.522h-65.044v69.993q0 4.949 4.242 8.484 5.656 4.949 40.299 5.656h20.503v32.522zm-119.483-149.177v-236.138l-154.833 235.431 77.063.707z" data-c="34"/></g><path d="M3994.4 1569.4h907.1v-60h-907.1z"/></g></g><g stroke="none" data-mml-node="mfrac"><g data-mml-node="mn"><path d="M3275.548 2929.901q0 16.968-11.312 28.28t-27.573 11.312h-4.949q32.522 55.853 86.254 55.853 49.49 0 72.114-42.42 13.433-23.331 13.433-90.496 0-72.821-19.089-98.273-18.382-23.331-41.006-23.331h-4.242q-55.146 0-83.426 48.076-2.828 4.949-4.949 5.656t-10.605 1.414q-12.019 0-13.433-4.242-1.414-2.828-1.414-123.725v-91.203q0-35.35 3.535-35.35 1.414-1.414 2.828-1.414.707 0 14.847 5.656t38.885 11.312 53.025 5.656q50.197 0 96.152-19.796 5.656-2.828 9.191-2.828 5.656 0 5.656 12.726v9.191q-57.974 68.579-144.935 68.579-21.917 0-39.592-4.242l-7.07-1.414v121.604q13.433-9.898 21.21-15.554t25.452-11.312 36.057-5.656q57.267 0 96.859 45.955t39.592 108.878q0 65.044-45.248 110.999t-110.292 46.662q-57.267 0-91.91-38.178t-34.643-86.254q0-16.968 7.777-26.866t16.261-12.726 16.261-2.828q17.675 0 28.987 12.019t11.312 28.28" data-c="35"/><path d="m3663.691 2632.254-9.191 3.535q-9.898 3.535-28.28 7.07t-41.006 4.949h-13.433v-32.522h13.433q33.229-1.414 61.509-10.605t39.592-16.968 19.796-15.554q1.414-2.121 8.484-2.121 6.363 0 12.019 4.242v211.393l.707 212.1q4.949 4.949 8.484 6.363t16.968 2.828 43.834 1.414h18.382v32.522h-7.777q-14.847-2.121-112.413-2.121-96.152 0-110.999 2.121h-8.484v-32.522h45.248q11.312 0 17.675-.707t11.312-2.121 5.656-1.414 4.242-3.535 4.242-2.828z" data-c="31"/></g><g data-mml-node="mn"><path d="M3198.485 3456.094q.707-1.414 12.019-77.063l11.312-75.649q0-1.414 14.14-1.414h14.14v2.828q0 7.07 10.605 12.019t36.764 6.363 119.483 1.414h85.547v27.573l-48.076 65.751-21.21 28.28q-14.847 19.796-19.089 26.159t-14.847 22.624-14.14 25.452-9.898 26.159-9.191 32.522-5.656 38.178-4.242 48.076-2.121 57.974v19.796q0 9.898-.707 16.968v6.363q-2.828 12.019-13.433 20.503t-24.038 8.484q-7.777 0-14.847-2.121t-14.847-13.433-7.777-28.28q0-111.706 68.579-231.896 14.14-22.624 59.388-85.547l32.522-44.541h-65.751q-123.018 0-129.381 4.242-4.242 2.121-7.777 16.968t-7.07 30.401l-2.121 14.847v2.121h-28.28z" data-c="37"/><path d="M3839.734 3779.9q-12.726-2.121-91.203-2.121-82.012 0-94.738 2.121h-6.363v-32.522h41.006q4.949 0 12.019-1.414t9.898-3.535 4.949-5.656q.707-1.414.707-38.178v-35.35h-183.113v-32.522l106.757-163.317q108.171-164.024 109.585-164.731 1.414-1.414 14.847-1.414h12.726l4.242 4.242v325.22h65.044v32.522h-65.044v69.993q0 4.949 4.242 8.484 5.656 4.949 40.299 5.656h20.503v32.522zm-119.483-149.177v-236.138l-154.833 235.431 77.063.707z" data-c="34"/></g><path d="M3059.6 3214.9h907.1v-60h-907.1z"/></g><path stroke="none" d="M1904.8 2390h3216.7v-60H1904.8z"/></g><path stroke="none" d="M5575.2 2263q0-13 14-20h637q15 8 15 20 0 11-14 19l-318 1h-318q-16-5-16-20m0 194q0-15 16-20h636q14 10 14 20 0 13-15 20h-637q-14-7-14-20" data-c="3D" data-mml-node="mo"/><g stroke="none" data-mml-node="mfrac"><g data-mml-node="mn"><path d="M6904 1505q-27 0-43-18t-16-44q0-71 53-123t132-52q91 0 152 56t62 145q0 43-20 82t-48 68-80 74q-36 31-100 92l-59 56 76 1q157 0 167-5 7-2 24-89v-3h40v3q-1 3-13 91t-15 92v3h-371v-31q0-7 6-15t30-35q29-32 50-56 9-10 34-37t34-37 29-33 28-34 23-30 21-32 15-29 13-32 7-30 3-33q0-63-34-109t-97-46q-33 0-58 17t-35 33-10 19q0 1 5 1 18 0 37 14t19 46q0 25-16 42t-45 18" data-c="32"/><path d="M7391 1349q56-81 153-81 48 0 96 26t78 92q37 83 37 228 0 155-43 237-20 42-55 67t-61 31-51 7q-26 0-52-6t-61-32-55-67q-43-82-43-237 0-174 57-265m225-12q-30-32-71-32-42 0-72 32-25 26-33 72t-8 192q0 158 8 208t36 79q28 30 69 30 40 0 68-30 29-30 36-84t8-203q0-145-8-191t-33-73" data-c="30"/></g><g data-mml-node="mn"><path d="M6959 3139q0 24-16 40t-39 16h-7q46 79 122 79 70 0 102-60 19-33 19-128 0-103-27-139-26-33-58-33h-6q-78 0-118 68-4 7-7 8t-15 2q-17 0-19-6-2-4-2-175v-129q0-50 5-50 2-2 4-2 1 0 21 8t55 16 75 8q71 0 136-28 8-4 13-4 8 0 8 18v13q-82 97-205 97-31 0-56-6l-10-2v172q19-14 30-22t36-16 51-8q81 0 137 65t56 154q0 92-64 157t-156 66q-81 0-130-54t-49-122q0-24 11-38t23-18 23-4q25 0 41 17t16 40" data-c="35"/><path d="m7508 2718-13 5q-14 5-40 10t-58 7h-19v-46h19q47-2 87-15t56-24 28-22q2-3 12-3 9 0 17 6v299l1 300q7 7 12 9t24 4 62 2h26v46h-11q-21-3-159-3-136 0-157 3h-12v-46h64q16 0 25-1t16-3 8-2 6-5 6-4z" data-c="31"/></g><path d="M6695 2390h1200v-60H6695z"/></g><path stroke="none" d="M8348.8 2263q0-13 14-20h637q15 8 15 20 0 11-14 19l-318 1h-318q-16-5-16-20m0 194q0-15 16-20h636q14 10 14 20 0 13-15 20h-637q-14-7-14-20" data-c="3D" data-mml-node="mo"/><g stroke="none" data-mml-node="mn"><path d="M9444.6 2025q56-81 153-81 48 0 96 26t78 92q37 83 37 228 0 155-43 237-20 42-55 67t-61 31-51 7q-26 0-52-6t-61-32-55-67q-43-82-43-237 0-174 57-265m225-12q-30-32-71-32-42 0-72 32-25 26-33 72t-8 192q0 158 8 208t36 79q28 30 69 30 40 0 68-30 29-30 36-84t8-203q0-145-8-191t-33-73" data-c="30"/><path d="M9926.6 2550q0-24 17-42t43-18q24 0 42 16t19 43q0 25-17 43t-43 18-43-17-18-43" data-c="2E"/><path d="M10253.6 2147q-27 0-42-17t-16-44q0-55 48-98t116-43q35 0 44 1 74 12 113 53t40 89q0 52-34 101t-94 71l-3 2q0 1 9 3t29 9 38 21q82 53 82 140 0 79-62 138t-157 59q-80 0-138-43t-58-109q0-28 18-45t45-18q28 0 46 18t18 45q0 11-3 20t-7 16-11 12-12 8-10 4-8 3l-4 1q51 45 124 45 55 0 83-53 17-33 17-101v-20q0-95-64-127-15-6-61-7l-42-1-3-2q-2-3-2-16 0-18 8-18 28 0 58-5 34-5 62-42t28-112v-8q0-57-35-79-22-14-47-14-32 0-59 11t-38 23-11 12h3q3 1 8 2t10 5 12 7 10 11 8 15 3 20q0 22-14 39t-45 18" data-c="33"/><path d="M10978.6 2323q-48 76-120 76-78 0-128-59t-60-126q-2-16-2-40v-8q0-93 69-162 60-60 132-60h6q4 0 8 1h4q12 0 25 2t37 12 47 32 43 59q43 88 43 226 0 140-60 237-35 56-84 87t-104 32q-61 0-100-29t-40-86 53-56q22 0 37 14t15 39q0 18-9 31t-16 16-13 5l-4 1q0 2 7 6t26 10 42 5h6q60 0 101-64 39-56 39-194zm-108 39q48 0 77-49t30-133q0-78-8-112-2-10-6-20t-14-26-30-27-47-10q-38 0-65 27-21 22-27 52t-7 105q0 83 5 112t20 47q25 34 72 34" data-c="39"/></g></g></g></g></g></svg>