<svg xmlns="http://www.w3.org/2000/svg" width="52.695ex" height="5.475ex" style="vertical-align:-2.172ex" viewBox="0 -1460 23291.3 2420"><title>\frac{   P(penis|spam \cap viagra) \cdot P(viagra|spam) \cdot P(spam) }{   P(penis|viagra) \cdot P(viagra) }</title><g fill="currentColor" stroke="currentColor" stroke-width="0" data-mml-node="math"><g data-mml-node="mfrac"><g data-mml-node="mrow"><path stroke="none" d="M507-1338q0-7-57-9-24 0-31-1t-7-10q0-1 2-11 6-20 9-22t194-2q190 1 203 3 64 11 107 49t44 101q0 77-66 141-69 68-178 86-7 1-105 2h-95l-30 119q-30 116-30 123 0 4 1 5t7 4 17 2 33 2h31q6 9 6 11 0 16-7 30-5 5-16 5-3 0-37-1t-100-1h-95q-33 0-36 1-18 0-18-10 0-2 3-14 4-16 8-18t23-3q27 0 60-3 14-3 19-12 3-4 72-278t69-289m358 74q0-13-2-21t-9-22-25-22-49-16q-7-1-80-2h-35q-18 0-29 1t-12 0q-13 1-18 9-2 6-19 77t-35 138-18 68q0 2 81 2h35q112 0 160-50 27-27 41-79t14-83" data-c="1D443" data-mml-node="mi"/><path stroke="none" d="M1065-960q0-69 10-131t23-107 37-88 38-67 42-52 33-34 25-21h17q14 0 14 9 0 3-17 21t-41 53-49 86-42 138-17 193 17 192 41 139 49 86 42 53 17 21q0 9-15 9h-16l-28-24q-94-85-137-212t-43-264" data-c="28" data-mml-node="mo"/><path stroke="none" d="M1383-997q1-3 2-8t5-22 10-31 15-33 20-30 26-22 33-9q75 0 96 64l10-9q62-55 118-55 65 0 102 47t37 114q0 108-76 199t-172 92q-22 0-39-6-11-5-23-15t-19-17l-7-8q-1 1-22 87t-21 87q0 6 8 7t37 3h25q6 7 6 9t-3 18q-3 12-6 15t-13 4h-11q-9 0-34-1t-62-1q-70 0-89 2h-8q-7-7-7-11 2-27 13-35h20q34-1 39-12 3-6 61-239t61-247q1-5 1-14 0-41-25-41-22 0-37 28t-23 61-12 36q-2 2-16 2h-14q-6-6-6-9m155 185q22 76 74 76 30 0 58-23t46-58q18-34 36-108t19-110v-6q0-74-61-74-11 0-22 3t-22 9-20 13-17 15-15 15-11 14-8 10l-3 4q0 1-3 14t-11 44-14 52q-26 106-26 110" data-c="1D45D" data-mml-node="mi"/><path stroke="none" d="M1902-878q0-57 19-104t49-78 67-52 70-31 63-9h3q45 0 78 22t33 65q0 90-111 118-49 13-134 14-37 0-38 2 0 2-6 35t-7 58q0 47 21 74t63 28 93-19 92-66q9-10 12-10 4 0 13 9t10 14-9 16-30 27-46 31-63 25-76 10q-79 0-122-53t-44-126m334-185q-6-52-68-52-33 0-61 14t-45 34-29 41-16 36-5 19q0 1 20 1 113 0 158-24t46-69" data-c="1D452" data-mml-node="mi"/><path stroke="none" d="M2350-997q1-6 3-16t12-38 20-47 33-37 46-17q36 0 60 18t30 34 6 21q0 2 1 2l11-11q61-64 139-64 54 0 87 27t34 79-38 157-38 127q0 26 17 26 6 0 9-1 29-5 52-38t35-80q2-8 20-8 20 0 20 8 0 1-4 15-8 29-22 57t-46 56-69 27q-47 0-68-27t-21-56q0-19 36-120t37-152q0-59-44-59h-5q-86 0-145 101l-7 12-33 134q-33 131-38 141-13 27-43 27-13 0-21-6t-11-12-2-10q0-13 38-163t40-163q1-5 1-23 0-39-24-39-38 0-63 100-6 20-6 21-2 6-19 6h-14q-6-6-6-9" data-c="1D45B" data-mml-node="mi"/><path stroke="none" d="M3113-1310q0-24 19-42t44-19q18 0 30 12t13 30q0 23-20 42t-44 20q-15 0-28-10t-14-33m-163 313q0-8 9-31t24-51 44-51 60-22q39 0 65 23t27 62q0 17-14 56t-40 105-42 113q-5 22-5 32 0 25 17 25 9 0 19-3t23-14 27-35 25-59q3-12 5-14t17-2q20 0 20 10 0 8-9 31t-25 51-45 50-62 22q-32 0-59-21t-28-64q0-17 5-32t43-114q38-101 44-121t7-39q0-24-17-24h-2q-30 0-55 33t-38 84q-1 1-2 3t-1 3-2 2-3 1-4 0-8 0h-14q-6-6-6-9" data-c="1D456" data-mml-node="mi"/><path stroke="none" d="M3405-999q0-32 16-65t56-61 97-27q62 0 90 27t29 60q0 32-17 47t-38 16q-13 0-24-8t-12-26q0-16 9-28t17-18 13-6q1 0 1-1 0-3-7-9t-25-11-39-6q-48 0-70 26t-23 53q0 25 19 35t55 17 52 15q66 29 66 96 0 28-11 56t-33 56-63 44-94 17q-77 0-109-29t-33-68q0-39 21-56t44-17q15 0 28 9t14 31q0 26-18 44t-31 18q-2 1-3 1t-1 2q1 3 8 8t31 13 55 7q36 0 62-11t38-28 17-31 5-25q0-28-21-42t-48-17-59-15-47-35q-17-25-17-58" data-c="1D460" data-mml-node="mi"/><path stroke="none" d="M3882-460.5h-2q-12 0-18-14v-486l1-486q10-13 19-13 13 0 20 15v970q-8 14-18 14z" data-c="7C" data-mml-node="mo"/><path stroke="none" d="M4152-999q0-32 16-65t56-61 97-27q62 0 90 27t29 60q0 32-17 47t-38 16q-13 0-24-8t-12-26q0-16 9-28t17-18 13-6q1 0 1-1 0-3-7-9t-25-11-39-6q-48 0-70 26t-23 53q0 25 19 35t55 17 52 15q66 29 66 96 0 28-11 56t-33 56-63 44-94 17q-77 0-109-29t-33-68q0-39 21-56t44-17q15 0 28 9t14 31q0 26-18 44t-31 18q-2 1-3 1t-1 2q1 3 8 8t31 13 55 7q36 0 62-11t38-28 17-31 5-25q0-28-21-42t-48-17-59-15-47-35q-17-25-17-58" data-c="1D460" data-mml-node="mi"/><path stroke="none" d="M4513-997q1-3 2-8t5-22 10-31 15-33 20-30 26-22 33-9q75 0 96 64l10-9q62-55 118-55 65 0 102 47t37 114q0 108-76 199t-172 92q-22 0-39-6-11-5-23-15t-19-17l-7-8q-1 1-22 87t-21 87q0 6 8 7t37 3h25q6 7 6 9t-3 18q-3 12-6 15t-13 4h-11q-9 0-34-1t-62-1q-70 0-89 2h-8q-7-7-7-11 2-27 13-35h20q34-1 39-12 3-6 61-239t61-247q1-5 1-14 0-41-25-41-22 0-37 28t-23 61-12 36q-2 2-16 2h-14q-6-6-6-9m155 185q22 76 74 76 30 0 58-23t46-58q18-34 36-108t19-110v-6q0-74-61-74-11 0-22 3t-22 9-20 13-17 15-15 15-11 14-8 10l-3 4q0 1-3 14t-11 44-14 52q-26 106-26 110" data-c="1D45D" data-mml-node="mi"/><path stroke="none" d="M5026-867q0-101 76-192t171-92q51 0 90 49 16-30 46-30 13 0 23 8t10 20q0 13-37 160t-38 166q0 25 7 33t21 9q9-1 20-9 21-20 41-96 6-20 10-21 2-1 10-1h4q19 0 19 9 0 6-5 27t-20 54-32 50q-13 13-32 21-8 2-24 2-34 0-57-15t-30-31l-6-15q-1-1-4 1l-4 4q-59 56-120 56-55 0-97-40t-42-127m318-171q0-6-5-22t-23-35-46-20q-35 0-67 31t-50 81q-29 79-41 164v11q0 8-1 12 0 45 18 62t43 18q38 0 75-33t44-51q2-4 27-107t26-111" data-c="1D44E" data-mml-node="mi"/><path stroke="none" d="M5543-997q1-6 3-16t12-38 20-47 32-37 44-17 43 7 30 18 16 22 8 19l2 7q0 2 1 2l11-11q60-64 141-64 17 0 31 2t26 7 19 10 15 12 10 13 8 13 4 12 3 9 2 7l8-10q63-75 149-75 54 0 87 27t34 79q0 51-38 158t-38 128q1 14 5 19t15 5q28 0 52-30t39-82q3-11 6-13t16-2q20 0 20 8 0 1-4 15-8 29-22 57t-46 56-69 27q-47 0-68-27t-21-56q0-19 36-120t37-152q0-59-44-59h-5q-86 0-145 101l-7 12-33 134q-33 131-38 141-13 27-43 27-13 0-21-7t-11-12-3-10q0-11 34-143l36-146q3-15 3-38 0-59-44-59h-5q-86 0-145 101l-7 12-33 134q-33 131-38 141-13 27-43 27-13 0-21-6t-11-12-2-10q0-13 38-164 39-154 39-161 3-15 3-27 0-36-25-36-22 0-37 28t-23 61-12 36q-2 2-16 2h-14q-6-6-6-9" data-c="1D45A" data-mml-node="mi"/><path stroke="none" d="M6710.2-689h-13l-20-14v-287q1-134 5-148 1-2 1-3 16-69 91-118t180-49q111 0 190 54t88 139q1 6 1 211v201q-7 15-20 15-9 0-19-13l-2-414q-7-28-14-44t-27-36q-31-34-84-53t-111-20q-83 0-155 40t-83 117q-1 5-1 208v200q-7 14-20 14Z" data-c="2229" data-mml-node="mo"/><path stroke="none" d="M7684.4-1090q0-25-19-25-24 0-50 29t-43 89q-1 1-2 3t-1 3-2 2-3 1-4 0-8 0h-14q-6-6-6-9 0-7 8-29t24-52 44-51 63-22q42 0 65 24t24 56q0 17-3 26 0 6-15 44t-31 89-18 89q0 27 5 44 13 43 63 43 37 0 69-34t50-79 29-83 11-55q0-23-8-40t-18-26-18-18-8-22q0-22 19-41t41-19q19 0 34 18t16 58q0 27-12 83t-37 125-71 119-106 51q-64 0-102-33-37-32-37-95 0-31 8-64t41-117q22-64 22-82" data-c="1D463" data-mml-node="mi"/><path stroke="none" d="M8180.4-1310q0-24 19-42t44-19q18 0 30 12t13 30q0 23-20 42t-44 20q-15 0-28-10t-14-33m-163 313q0-8 9-31t24-51 44-51 60-22q39 0 65 23t27 62q0 17-14 56t-40 105-42 113q-5 22-5 32 0 25 17 25 9 0 19-3t23-14 27-35 25-59q3-12 5-14t17-2q20 0 20 10 0 8-9 31t-25 51-45 50-62 22q-32 0-59-21t-28-64q0-17 5-32t43-114q38-101 44-121t7-39q0-24-17-24h-2q-30 0-55 33t-38 84q-1 1-2 3t-1 3-2 2-3 1-4 0-8 0h-14q-6-6-6-9" data-c="1D456" data-mml-node="mi"/><path stroke="none" d="M8374.4-867q0-101 76-192t171-92q51 0 90 49 16-30 46-30 13 0 23 8t10 20q0 13-37 160t-38 166q0 25 7 33t21 9q9-1 20-9 21-20 41-96 6-20 10-21 2-1 10-1h4q19 0 19 9 0 6-5 27t-20 54-32 50q-13 13-32 21-8 2-24 2-34 0-57-15t-30-31l-6-15q-1-1-4 1l-4 4q-59 56-120 56-55 0-97-40t-42-127m318-171q0-6-5-22t-23-35-46-20q-35 0-67 31t-50 81q-29 79-41 164v11q0 8-1 12 0 45 18 62t43 18q38 0 75-33t44-51q2-4 27-107t26-111" data-c="1D44E" data-mml-node="mi"/><path stroke="none" d="M9181.4-753q-15 13-44 28t-61 15q-63 0-101-45t-39-115q0-105 77-193t171-89q47 0 87 48l3-4q2-3 5-6t9-8 13-7 16-3q14 0 23 9t10 19q0 15-57 242t-60 232q-18 54-77 89t-135 36q-141 0-141-68 0-26 18-46t46-20q15 0 28 9t14 31q0 10-2 19t-7 14-8 10-7 8l-2 2h1q10 3 60 3 38 0 60-12 23-11 43-33t28-47q6-19 16-62 13-48 13-56m73-285-4-11q-3-11-5-15t-6-14-10-14-13-11-18-9-22-3q-44 0-85 53-30 39-50 119t-20 116q0 79 62 79 56 0 110-70l8-10z" data-c="1D454" data-mml-node="mi"/><path stroke="none" d="M9368.4-997q1-3 2-8t5-22 10-31 15-33 20-30 26-22 33-9q29 0 51 12t31 22 11 20q2 6 3 6t8-7q48-52 111-52h3q48 0 72 41 8 19 8 37 0 30-13 48t-26 23-25 4q-20 0-32-11t-12-29q0-48 56-64-22-13-36-13-56 0-103 74-10 16-15 33t-34 133q-34 140-39 149-13 27-43 27-13 0-21-6t-11-12-2-10q0-13 40-172t40-177q0-39-26-39-21 0-36 28t-24 61-11 36q-2 2-16 2h-14q-6-6-6-9" data-c="1D45F" data-mml-node="mi"/><path stroke="none" d="M9831.4-867q0-101 76-192t171-92q51 0 90 49 16-30 46-30 13 0 23 8t10 20q0 13-37 160t-38 166q0 25 7 33t21 9q9-1 20-9 21-20 41-96 6-20 10-21 2-1 10-1h4q19 0 19 9 0 6-5 27t-20 54-32 50q-13 13-32 21-8 2-24 2-34 0-57-15t-30-31l-6-15q-1-1-4 1l-4 4q-59 56-120 56-55 0-97-40t-42-127m318-171q0-6-5-22t-23-35-46-20q-35 0-67 31t-50 81q-29 79-41 164v11q0 8-1 12 0 45 18 62t43 18q38 0 75-33t44-51q2-4 27-107t26-111" data-c="1D44E" data-mml-node="mi"/><path stroke="none" d="m10387.4-1459 4-1h22l28 24q94 85 137 212t43 264q0 68-10 131t-23 107-37 88-38 67-41 51-32 33-23 19l-4 4h-23q-3 0-5-3t-3-9q1-1 11-13 155-161 155-475t-155-475q-10-12-11-13 0-8 5-11" data-c="29" data-mml-node="mo"/><path stroke="none" d="M11016.7-960q0-24 17-42t43-18q24 0 42 16t19 43q0 25-17 43t-43 18-43-17-18-43" data-c="22C5" data-mml-node="mo"/><path stroke="none" d="M11725.9-1338q0-7-57-9-24 0-31-1t-7-10q0-1 2-11 6-20 9-22t194-2q190 1 203 3 64 11 107 49t44 101q0 77-66 141-69 68-178 86-7 1-105 2h-95l-30 119q-30 116-30 123 0 4 1 5t7 4 17 2 33 2h31q6 9 6 11 0 16-7 30-5 5-16 5-3 0-37-1t-100-1h-95q-33 0-36 1-18 0-18-10 0-2 3-14 4-16 8-18t23-3q27 0 60-3 14-3 19-12 3-4 72-278t69-289m358 74q0-13-2-21t-9-22-25-22-49-16q-7-1-80-2h-35q-18 0-29 1t-12 0q-13 1-18 9-2 6-19 77t-35 138-18 68q0 2 81 2h35q112 0 160-50 27-27 41-79t14-83" data-c="1D443" data-mml-node="mi"/><path stroke="none" d="M12283.9-960q0-69 10-131t23-107 37-88 38-67 42-52 33-34 25-21h17q14 0 14 9 0 3-17 21t-41 53-49 86-42 138-17 193 17 192 41 139 49 86 42 53 17 21q0 9-15 9h-16l-28-24q-94-85-137-212t-43-264" data-c="28" data-mml-node="mo"/><path stroke="none" d="M12751.9-1090q0-25-19-25-24 0-50 29t-43 89q-1 1-2 3t-1 3-2 2-3 1-4 0-8 0h-14q-6-6-6-9 0-7 8-29t24-52 44-51 63-22q42 0 65 24t24 56q0 17-3 26 0 6-15 44t-31 89-18 89q0 27 5 44 13 43 63 43 37 0 69-34t50-79 29-83 11-55q0-23-8-40t-18-26-18-18-8-22q0-22 19-41t41-19q19 0 34 18t16 58q0 27-12 83t-37 125-71 119-106 51q-64 0-102-33-37-32-37-95 0-31 8-64t41-117q22-64 22-82" data-c="1D463" data-mml-node="mi"/><path stroke="none" d="M13247.9-1310q0-24 19-42t44-19q18 0 30 12t13 30q0 23-20 42t-44 20q-15 0-28-10t-14-33m-163 313q0-8 9-31t24-51 44-51 60-22q39 0 65 23t27 62q0 17-14 56t-40 105-42 113q-5 22-5 32 0 25 17 25 9 0 19-3t23-14 27-35 25-59q3-12 5-14t17-2q20 0 20 10 0 8-9 31t-25 51-45 50-62 22q-32 0-59-21t-28-64q0-17 5-32t43-114q38-101 44-121t7-39q0-24-17-24h-2q-30 0-55 33t-38 84q-1 1-2 3t-1 3-2 2-3 1-4 0-8 0h-14q-6-6-6-9" data-c="1D456" data-mml-node="mi"/><path stroke="none" d="M13441.9-867q0-101 76-192t171-92q51 0 90 49 16-30 46-30 13 0 23 8t10 20q0 13-37 160t-38 166q0 25 7 33t21 9q9-1 20-9 21-20 41-96 6-20 10-21 2-1 10-1h4q19 0 19 9 0 6-5 27t-20 54-32 50q-13 13-32 21-8 2-24 2-34 0-57-15t-30-31l-6-15q-1-1-4 1l-4 4q-59 56-120 56-55 0-97-40t-42-127m318-171q0-6-5-22t-23-35-46-20q-35 0-67 31t-50 81q-29 79-41 164v11q0 8-1 12 0 45 18 62t43 18q38 0 75-33t44-51q2-4 27-107t26-111" data-c="1D44E" data-mml-node="mi"/><path stroke="none" d="M14248.9-753q-15 13-44 28t-61 15q-63 0-101-45t-39-115q0-105 77-193t171-89q47 0 87 48l3-4q2-3 5-6t9-8 13-7 16-3q14 0 23 9t10 19q0 15-57 242t-60 232q-18 54-77 89t-135 36q-141 0-141-68 0-26 18-46t46-20q15 0 28 9t14 31q0 10-2 19t-7 14-8 10-7 8l-2 2h1q10 3 60 3 38 0 60-12 23-11 43-33t28-47q6-19 16-62 13-48 13-56m73-285-4-11q-3-11-5-15t-6-14-10-14-13-11-18-9-22-3q-44 0-85 53-30 39-50 119t-20 116q0 79 62 79 56 0 110-70l8-10z" data-c="1D454" data-mml-node="mi"/><path stroke="none" d="M14435.9-997q1-3 2-8t5-22 10-31 15-33 20-30 26-22 33-9q29 0 51 12t31 22 11 20q2 6 3 6t8-7q48-52 111-52h3q48 0 72 41 8 19 8 37 0 30-13 48t-26 23-25 4q-20 0-32-11t-12-29q0-48 56-64-22-13-36-13-56 0-103 74-10 16-15 33t-34 133q-34 140-39 149-13 27-43 27-13 0-21-6t-11-12-2-10q0-13 40-172t40-177q0-39-26-39-21 0-36 28t-24 61-11 36q-2 2-16 2h-14q-6-6-6-9" data-c="1D45F" data-mml-node="mi"/><path stroke="none" d="M14898.9-867q0-101 76-192t171-92q51 0 90 49 16-30 46-30 13 0 23 8t10 20q0 13-37 160t-38 166q0 25 7 33t21 9q9-1 20-9 21-20 41-96 6-20 10-21 2-1 10-1h4q19 0 19 9 0 6-5 27t-20 54-32 50q-13 13-32 21-8 2-24 2-34 0-57-15t-30-31l-6-15q-1-1-4 1l-4 4q-59 56-120 56-55 0-97-40t-42-127m318-171q0-6-5-22t-23-35-46-20q-35 0-67 31t-50 81q-29 79-41 164v11q0 8-1 12 0 45 18 62t43 18q38 0 75-33t44-51q2-4 27-107t26-111" data-c="1D44E" data-mml-node="mi"/><path stroke="none" d="M15533.9-460.5h-2q-12 0-18-14v-486l1-486q10-13 19-13 13 0 20 15v970q-8 14-18 14z" data-c="7C" data-mml-node="mo"/><path stroke="none" d="M15803.9-999q0-32 16-65t56-61 97-27q62 0 90 27t29 60q0 32-17 47t-38 16q-13 0-24-8t-12-26q0-16 9-28t17-18 13-6q1 0 1-1 0-3-7-9t-25-11-39-6q-48 0-70 26t-23 53q0 25 19 35t55 17 52 15q66 29 66 96 0 28-11 56t-33 56-63 44-94 17q-77 0-109-29t-33-68q0-39 21-56t44-17q15 0 28 9t14 31q0 26-18 44t-31 18q-2 1-3 1t-1 2q1 3 8 8t31 13 55 7q36 0 62-11t38-28 17-31 5-25q0-28-21-42t-48-17-59-15-47-35q-17-25-17-58" data-c="1D460" data-mml-node="mi"/><path stroke="none" d="M16164.9-997q1-3 2-8t5-22 10-31 15-33 20-30 26-22 33-9q75 0 96 64l10-9q62-55 118-55 65 0 102 47t37 114q0 108-76 199t-172 92q-22 0-39-6-11-5-23-15t-19-17l-7-8q-1 1-22 87t-21 87q0 6 8 7t37 3h25q6 7 6 9t-3 18q-3 12-6 15t-13 4h-11q-9 0-34-1t-62-1q-70 0-89 2h-8q-7-7-7-11 2-27 13-35h20q34-1 39-12 3-6 61-239t61-247q1-5 1-14 0-41-25-41-22 0-37 28t-23 61-12 36q-2 2-16 2h-14q-6-6-6-9m155 185q22 76 74 76 30 0 58-23t46-58q18-34 36-108t19-110v-6q0-74-61-74-11 0-22 3t-22 9-20 13-17 15-15 15-11 14-8 10l-3 4q0 1-3 14t-11 44-14 52q-26 106-26 110" data-c="1D45D" data-mml-node="mi"/><path stroke="none" d="M16677.9-867q0-101 76-192t171-92q51 0 90 49 16-30 46-30 13 0 23 8t10 20q0 13-37 160t-38 166q0 25 7 33t21 9q9-1 20-9 21-20 41-96 6-20 10-21 2-1 10-1h4q19 0 19 9 0 6-5 27t-20 54-32 50q-13 13-32 21-8 2-24 2-34 0-57-15t-30-31l-6-15q-1-1-4 1l-4 4q-59 56-120 56-55 0-97-40t-42-127m318-171q0-6-5-22t-23-35-46-20q-35 0-67 31t-50 81q-29 79-41 164v11q0 8-1 12 0 45 18 62t43 18q38 0 75-33t44-51q2-4 27-107t26-111" data-c="1D44E" data-mml-node="mi"/><path stroke="none" d="M17194.9-997q1-6 3-16t12-38 20-47 32-37 44-17 43 7 30 18 16 22 8 19l2 7q0 2 1 2l11-11q60-64 141-64 17 0 31 2t26 7 19 10 15 12 10 13 8 13 4 12 3 9 2 7l8-10q63-75 149-75 54 0 87 27t34 79q0 51-38 158t-38 128q1 14 5 19t15 5q28 0 52-30t39-82q3-11 6-13t16-2q20 0 20 8 0 1-4 15-8 29-22 57t-46 56-69 27q-47 0-68-27t-21-56q0-19 36-120t37-152q0-59-44-59h-5q-86 0-145 101l-7 12-33 134q-33 131-38 141-13 27-43 27-13 0-21-7t-11-12-3-10q0-11 34-143l36-146q3-15 3-38 0-59-44-59h-5q-86 0-145 101l-7 12-33 134q-33 131-38 141-13 27-43 27-13 0-21-6t-11-12-2-10q0-13 38-164 39-154 39-161 3-15 3-27 0-36-25-36-22 0-37 28t-23 61-12 36q-2 2-16 2h-14q-6-6-6-9" data-c="1D45A" data-mml-node="mi"/><path stroke="none" d="m18111.9-1459 4-1h22l28 24q94 85 137 212t43 264q0 68-10 131t-23 107-37 88-38 67-41 51-32 33-23 19l-4 4h-23q-3 0-5-3t-3-9q1-1 11-13 155-161 155-475t-155-475q-10-12-11-13 0-8 5-11" data-c="29" data-mml-node="mo"/><path stroke="none" d="M18741.1-960q0-24 17-42t43-18q24 0 42 16t19 43q0 25-17 43t-43 18-43-17-18-43" data-c="22C5" data-mml-node="mo"/><path stroke="none" d="M19450.3-1338q0-7-57-9-24 0-31-1t-7-10q0-1 2-11 6-20 9-22t194-2q190 1 203 3 64 11 107 49t44 101q0 77-66 141-69 68-178 86-7 1-105 2h-95l-30 119q-30 116-30 123 0 4 1 5t7 4 17 2 33 2h31q6 9 6 11 0 16-7 30-5 5-16 5-3 0-37-1t-100-1h-95q-33 0-36 1-18 0-18-10 0-2 3-14 4-16 8-18t23-3q27 0 60-3 14-3 19-12 3-4 72-278t69-289m358 74q0-13-2-21t-9-22-25-22-49-16q-7-1-80-2h-35q-18 0-29 1t-12 0q-13 1-18 9-2 6-19 77t-35 138-18 68q0 2 81 2h35q112 0 160-50 27-27 41-79t14-83" data-c="1D443" data-mml-node="mi"/><path stroke="none" d="M20008.3-960q0-69 10-131t23-107 37-88 38-67 42-52 33-34 25-21h17q14 0 14 9 0 3-17 21t-41 53-49 86-42 138-17 193 17 192 41 139 49 86 42 53 17 21q0 9-15 9h-16l-28-24q-94-85-137-212t-43-264" data-c="28" data-mml-node="mo"/><path stroke="none" d="M20434.3-999q0-32 16-65t56-61 97-27q62 0 90 27t29 60q0 32-17 47t-38 16q-13 0-24-8t-12-26q0-16 9-28t17-18 13-6q1 0 1-1 0-3-7-9t-25-11-39-6q-48 0-70 26t-23 53q0 25 19 35t55 17 52 15q66 29 66 96 0 28-11 56t-33 56-63 44-94 17q-77 0-109-29t-33-68q0-39 21-56t44-17q15 0 28 9t14 31q0 26-18 44t-31 18q-2 1-3 1t-1 2q1 3 8 8t31 13 55 7q36 0 62-11t38-28 17-31 5-25q0-28-21-42t-48-17-59-15-47-35q-17-25-17-58" data-c="1D460" data-mml-node="mi"/><path stroke="none" d="M20795.3-997q1-3 2-8t5-22 10-31 15-33 20-30 26-22 33-9q75 0 96 64l10-9q62-55 118-55 65 0 102 47t37 114q0 108-76 199t-172 92q-22 0-39-6-11-5-23-15t-19-17l-7-8q-1 1-22 87t-21 87q0 6 8 7t37 3h25q6 7 6 9t-3 18q-3 12-6 15t-13 4h-11q-9 0-34-1t-62-1q-70 0-89 2h-8q-7-7-7-11 2-27 13-35h20q34-1 39-12 3-6 61-239t61-247q1-5 1-14 0-41-25-41-22 0-37 28t-23 61-12 36q-2 2-16 2h-14q-6-6-6-9m155 185q22 76 74 76 30 0 58-23t46-58q18-34 36-108t19-110v-6q0-74-61-74-11 0-22 3t-22 9-20 13-17 15-15 15-11 14-8 10l-3 4q0 1-3 14t-11 44-14 52q-26 106-26 110" data-c="1D45D" data-mml-node="mi"/><path stroke="none" d="M21308.3-867q0-101 76-192t171-92q51 0 90 49 16-30 46-30 13 0 23 8t10 20q0 13-37 160t-38 166q0 25 7 33t21 9q9-1 20-9 21-20 41-96 6-20 10-21 2-1 10-1h4q19 0 19 9 0 6-5 27t-20 54-32 50q-13 13-32 21-8 2-24 2-34 0-57-15t-30-31l-6-15q-1-1-4 1l-4 4q-59 56-120 56-55 0-97-40t-42-127m318-171q0-6-5-22t-23-35-46-20q-35 0-67 31t-50 81q-29 79-41 164v11q0 8-1 12 0 45 18 62t43 18q38 0 75-33t44-51q2-4 27-107t26-111" data-c="1D44E" data-mml-node="mi"/><path stroke="none" d="M21825.3-997q1-6 3-16t12-38 20-47 32-37 44-17 43 7 30 18 16 22 8 19l2 7q0 2 1 2l11-11q60-64 141-64 17 0 31 2t26 7 19 10 15 12 10 13 8 13 4 12 3 9 2 7l8-10q63-75 149-75 54 0 87 27t34 79q0 51-38 158t-38 128q1 14 5 19t15 5q28 0 52-30t39-82q3-11 6-13t16-2q20 0 20 8 0 1-4 15-8 29-22 57t-46 56-69 27q-47 0-68-27t-21-56q0-19 36-120t37-152q0-59-44-59h-5q-86 0-145 101l-7 12-33 134q-33 131-38 141-13 27-43 27-13 0-21-7t-11-12-3-10q0-11 34-143l36-146q3-15 3-38 0-59-44-59h-5q-86 0-145 101l-7 12-33 134q-33 131-38 141-13 27-43 27-13 0-21-6t-11-12-2-10q0-13 38-164 39-154 39-161 3-15 3-27 0-36-25-36-22 0-37 28t-23 61-12 36q-2 2-16 2h-14q-6-6-6-9" data-c="1D45A" data-mml-node="mi"/><path stroke="none" d="m22742.3-1459 4-1h22l28 24q94 85 137 212t43 264q0 68-10 131t-23 107-37 88-38 67-41 51-32 33-23 19l-4 4h-23q-3 0-5-3t-3-9q1-1 11-13 155-161 155-475t-155-475q-10-12-11-13 0-8 5-11" data-c="29" data-mml-node="mo"/></g><g data-mml-node="mrow"><path stroke="none" d="M5895.9 82q0-7-57-9-24 0-31-1t-7-10q0-1 2-11 6-20 9-22t194-2q190 1 203 3 64 11 107 49t44 101q0 77-66 141-69 68-178 86-7 1-105 2h-95l-30 119q-30 116-30 123 0 4 1 5t7 4 17 2 33 2h31q6 9 6 11 0 16-7 30-5 5-16 5-3 0-37-1t-100-1h-95q-33 0-36 1-18 0-18-10 0-2 3-14 4-16 8-18t23-3q27 0 60-3 14-3 19-12 3-4 72-278t69-289m358 74q0-13-2-21t-9-22-25-22-49-16q-7-1-80-2h-35q-18 0-29 1t-12 0q-13 1-18 9-2 6-19 77t-35 138-18 68q0 2 81 2h35q112 0 160-50 27-27 41-79t14-83" data-c="1D443" data-mml-node="mi"/><path stroke="none" d="M6453.9 460q0-69 10-131t23-107 37-88 38-67 42-52 33-34 25-21h17q14 0 14 9 0 3-17 21t-41 53-49 86-42 138-17 193 17 192 41 139 49 86 42 53 17 21q0 9-15 9h-16l-28-24q-94-85-137-212t-43-264" data-c="28" data-mml-node="mo"/><path stroke="none" d="M6771.9 423q1-3 2-8t5-22 10-31 15-33 20-30 26-22 33-9q75 0 96 64l10-9q62-55 118-55 65 0 102 47t37 114q0 108-76 199t-172 92q-22 0-39-6-11-5-23-15t-19-17l-7-8q-1 1-22 87t-21 87q0 6 8 7t37 3h25q6 7 6 9t-3 18q-3 12-6 15t-13 4h-11q-9 0-34-1t-62-1q-70 0-89 2h-8q-7-7-7-11 2-27 13-35h20q34-1 39-12 3-6 61-239t61-247q1-5 1-14 0-41-25-41-22 0-37 28t-23 61-12 36q-2 2-16 2h-14q-6-6-6-9m155 185q22 76 74 76 30 0 58-23t46-58q18-34 36-108t19-110v-6q0-74-61-74-11 0-22 3t-22 9-20 13-17 15-15 15-11 14-8 10l-3 4q0 1-3 14t-11 44-14 52q-26 106-26 110" data-c="1D45D" data-mml-node="mi"/><path stroke="none" d="M7290.9 542q0-57 19-104t49-78 67-52 70-31 63-9h3q45 0 78 22t33 65q0 90-111 118-49 13-134 14-37 0-38 2 0 2-6 35t-7 58q0 47 21 74t63 28 93-19 92-66q9-10 12-10 4 0 13 9t10 14-9 16-30 27-46 31-63 25-76 10q-79 0-122-53t-44-126m334-185q-6-52-68-52-33 0-61 14t-45 34-29 41-16 36-5 19q0 1 20 1 113 0 158-24t46-69" data-c="1D452" data-mml-node="mi"/><path stroke="none" d="M7738.9 423q1-6 3-16t12-38 20-47 33-37 46-17q36 0 60 18t30 34 6 21q0 2 1 2l11-11q61-64 139-64 54 0 87 27t34 79-38 157-38 127q0 26 17 26 6 0 9-1 29-5 52-38t35-80q2-8 20-8 20 0 20 8 0 1-4 15-8 29-22 57t-46 56-69 27q-47 0-68-27t-21-56q0-19 36-120t37-152q0-59-44-59h-5q-86 0-145 101l-7 12-33 134q-33 131-38 141-13 27-43 27-13 0-21-6t-11-12-2-10q0-13 38-163t40-163q1-5 1-23 0-39-24-39-38 0-63 100-6 20-6 21-2 6-19 6h-14q-6-6-6-9" data-c="1D45B" data-mml-node="mi"/><path stroke="none" d="M8501.9 110q0-24 19-42t44-19q18 0 30 12t13 30q0 23-20 42t-44 20q-15 0-28-10t-14-33m-163 313q0-8 9-31t24-51 44-51 60-22q39 0 65 23t27 62q0 17-14 56t-40 105-42 113q-5 22-5 32 0 25 17 25 9 0 19-3t23-14 27-35 25-59q3-12 5-14t17-2q20 0 20 10 0 8-9 31t-25 51-45 50-62 22q-32 0-59-21t-28-64q0-17 5-32t43-114q38-101 44-121t7-39q0-24-17-24h-2q-30 0-55 33t-38 84q-1 1-2 3t-1 3-2 2-3 1-4 0-8 0h-14q-6-6-6-9" data-c="1D456" data-mml-node="mi"/><path stroke="none" d="M8793.9 421q0-32 16-65t56-61 97-27q62 0 90 27t29 60q0 32-17 47t-38 16q-13 0-24-8t-12-26q0-16 9-28t17-18 13-6q1 0 1-1 0-3-7-9t-25-11-39-6q-48 0-70 26t-23 53q0 25 19 35t55 17 52 15q66 29 66 96 0 28-11 56t-33 56-63 44-94 17q-77 0-109-29t-33-68q0-39 21-56t44-17q15 0 28 9t14 31q0 26-18 44t-31 18q-2 1-3 1t-1 2q1 3 8 8t31 13 55 7q36 0 62-11t38-28 17-31 5-25q0-28-21-42t-48-17-59-15-47-35q-17-25-17-58" data-c="1D460" data-mml-node="mi"/><path stroke="none" d="M9270.9 959.5h-2q-12 0-18-14v-486l1-486q10-13 19-13 13 0 20 15v970q-8 14-18 14z" data-c="7C" data-mml-node="mo"/><path stroke="none" d="M9582.9 330q0-25-19-25-24 0-50 29t-43 89q-1 1-2 3t-1 3-2 2-3 1-4 0-8 0h-14q-6-6-6-9 0-7 8-29t24-52 44-51 63-22q42 0 65 24t24 56q0 17-3 26 0 6-15 44t-31 89-18 89q0 27 5 44 13 43 63 43 37 0 69-34t50-79 29-83 11-55q0-23-8-40t-18-26-18-18-8-22q0-22 19-41t41-19q19 0 34 18t16 58q0 27-12 83t-37 125-71 119-106 51q-64 0-102-33-37-32-37-95 0-31 8-64t41-117q22-64 22-82" data-c="1D463" data-mml-node="mi"/><path stroke="none" d="M10078.9 110q0-24 19-42t44-19q18 0 30 12t13 30q0 23-20 42t-44 20q-15 0-28-10t-14-33m-163 313q0-8 9-31t24-51 44-51 60-22q39 0 65 23t27 62q0 17-14 56t-40 105-42 113q-5 22-5 32 0 25 17 25 9 0 19-3t23-14 27-35 25-59q3-12 5-14t17-2q20 0 20 10 0 8-9 31t-25 51-45 50-62 22q-32 0-59-21t-28-64q0-17 5-32t43-114q38-101 44-121t7-39q0-24-17-24h-2q-30 0-55 33t-38 84q-1 1-2 3t-1 3-2 2-3 1-4 0-8 0h-14q-6-6-6-9" data-c="1D456" data-mml-node="mi"/><path stroke="none" d="M10272.9 553q0-101 76-192t171-92q51 0 90 49 16-30 46-30 13 0 23 8t10 20q0 13-37 160t-38 166q0 25 7 33t21 9q9-1 20-9 21-20 41-96 6-20 10-21 2-1 10-1h4q19 0 19 9 0 6-5 27t-20 54-32 50q-13 13-32 21-8 2-24 2-34 0-57-15t-30-31l-6-15q-1-1-4 1l-4 4q-59 56-120 56-55 0-97-40t-42-127m318-171q0-6-5-22t-23-35-46-20q-35 0-67 31t-50 81q-29 79-41 164v11q0 8-1 12 0 45 18 62t43 18q38 0 75-33t44-51q2-4 27-107t26-111" data-c="1D44E" data-mml-node="mi"/><path stroke="none" d="M11079.9 667q-15 13-44 28t-61 15q-63 0-101-45t-39-115q0-105 77-193t171-89q47 0 87 48l3-4q2-3 5-6t9-8 13-7 16-3q14 0 23 9t10 19q0 15-57 242t-60 232q-18 54-77 89t-135 36q-141 0-141-68 0-26 18-46t46-20q15 0 28 9t14 31q0 10-2 19t-7 14-8 10-7 8l-2 2h1q10 3 60 3 38 0 60-12 23-11 43-33t28-47q6-19 16-62 13-48 13-56m73-285-4-11q-3-11-5-15t-6-14-10-14-13-11-18-9-22-3q-44 0-85 53-30 39-50 119t-20 116q0 79 62 79 56 0 110-70l8-10z" data-c="1D454" data-mml-node="mi"/><path stroke="none" d="M11266.9 423q1-3 2-8t5-22 10-31 15-33 20-30 26-22 33-9q29 0 51 12t31 22 11 20q2 6 3 6t8-7q48-52 111-52h3q48 0 72 41 8 19 8 37 0 30-13 48t-26 23-25 4q-20 0-32-11t-12-29q0-48 56-64-22-13-36-13-56 0-103 74-10 16-15 33t-34 133q-34 140-39 149-13 27-43 27-13 0-21-6t-11-12-2-10q0-13 40-172t40-177q0-39-26-39-21 0-36 28t-24 61-11 36q-2 2-16 2h-14q-6-6-6-9" data-c="1D45F" data-mml-node="mi"/><path stroke="none" d="M11729.9 553q0-101 76-192t171-92q51 0 90 49 16-30 46-30 13 0 23 8t10 20q0 13-37 160t-38 166q0 25 7 33t21 9q9-1 20-9 21-20 41-96 6-20 10-21 2-1 10-1h4q19 0 19 9 0 6-5 27t-20 54-32 50q-13 13-32 21-8 2-24 2-34 0-57-15t-30-31l-6-15q-1-1-4 1l-4 4q-59 56-120 56-55 0-97-40t-42-127m318-171q0-6-5-22t-23-35-46-20q-35 0-67 31t-50 81q-29 79-41 164v11q0 8-1 12 0 45 18 62t43 18q38 0 75-33t44-51q2-4 27-107t26-111" data-c="1D44E" data-mml-node="mi"/><path stroke="none" d="m12285.9-39 4-1h22l28 24q94 85 137 212t43 264q0 68-10 131t-23 107-37 88-38 67-41 51-32 33-23 19l-4 4h-23q-3 0-5-3t-3-9q1-1 11-13 155-161 155-475t-155-475q-10-12-11-13 0-8 5-11" data-c="29" data-mml-node="mo"/><path stroke="none" d="M12915.1 460q0-24 17-42t43-18q24 0 42 16t19 43q0 25-17 43t-43 18-43-17-18-43" data-c="22C5" data-mml-node="mo"/><path stroke="none" d="M13624.3 82q0-7-57-9-24 0-31-1t-7-10q0-1 2-11 6-20 9-22t194-2q190 1 203 3 64 11 107 49t44 101q0 77-66 141-69 68-178 86-7 1-105 2h-95l-30 119q-30 116-30 123 0 4 1 5t7 4 17 2 33 2h31q6 9 6 11 0 16-7 30-5 5-16 5-3 0-37-1t-100-1h-95q-33 0-36 1-18 0-18-10 0-2 3-14 4-16 8-18t23-3q27 0 60-3 14-3 19-12 3-4 72-278t69-289m358 74q0-13-2-21t-9-22-25-22-49-16q-7-1-80-2h-35q-18 0-29 1t-12 0q-13 1-18 9-2 6-19 77t-35 138-18 68q0 2 81 2h35q112 0 160-50 27-27 41-79t14-83" data-c="1D443" data-mml-node="mi"/><path stroke="none" d="M14182.3 460q0-69 10-131t23-107 37-88 38-67 42-52 33-34 25-21h17q14 0 14 9 0 3-17 21t-41 53-49 86-42 138-17 193 17 192 41 139 49 86 42 53 17 21q0 9-15 9h-16l-28-24q-94-85-137-212t-43-264" data-c="28" data-mml-node="mo"/><path stroke="none" d="M14650.3 330q0-25-19-25-24 0-50 29t-43 89q-1 1-2 3t-1 3-2 2-3 1-4 0-8 0h-14q-6-6-6-9 0-7 8-29t24-52 44-51 63-22q42 0 65 24t24 56q0 17-3 26 0 6-15 44t-31 89-18 89q0 27 5 44 13 43 63 43 37 0 69-34t50-79 29-83 11-55q0-23-8-40t-18-26-18-18-8-22q0-22 19-41t41-19q19 0 34 18t16 58q0 27-12 83t-37 125-71 119-106 51q-64 0-102-33-37-32-37-95 0-31 8-64t41-117q22-64 22-82" data-c="1D463" data-mml-node="mi"/><path stroke="none" d="M15146.3 110q0-24 19-42t44-19q18 0 30 12t13 30q0 23-20 42t-44 20q-15 0-28-10t-14-33m-163 313q0-8 9-31t24-51 44-51 60-22q39 0 65 23t27 62q0 17-14 56t-40 105-42 113q-5 22-5 32 0 25 17 25 9 0 19-3t23-14 27-35 25-59q3-12 5-14t17-2q20 0 20 10 0 8-9 31t-25 51-45 50-62 22q-32 0-59-21t-28-64q0-17 5-32t43-114q38-101 44-121t7-39q0-24-17-24h-2q-30 0-55 33t-38 84q-1 1-2 3t-1 3-2 2-3 1-4 0-8 0h-14q-6-6-6-9" data-c="1D456" data-mml-node="mi"/><path stroke="none" d="M15340.3 553q0-101 76-192t171-92q51 0 90 49 16-30 46-30 13 0 23 8t10 20q0 13-37 160t-38 166q0 25 7 33t21 9q9-1 20-9 21-20 41-96 6-20 10-21 2-1 10-1h4q19 0 19 9 0 6-5 27t-20 54-32 50q-13 13-32 21-8 2-24 2-34 0-57-15t-30-31l-6-15q-1-1-4 1l-4 4q-59 56-120 56-55 0-97-40t-42-127m318-171q0-6-5-22t-23-35-46-20q-35 0-67 31t-50 81q-29 79-41 164v11q0 8-1 12 0 45 18 62t43 18q38 0 75-33t44-51q2-4 27-107t26-111" data-c="1D44E" data-mml-node="mi"/><path stroke="none" d="M16147.3 667q-15 13-44 28t-61 15q-63 0-101-45t-39-115q0-105 77-193t171-89q47 0 87 48l3-4q2-3 5-6t9-8 13-7 16-3q14 0 23 9t10 19q0 15-57 242t-60 232q-18 54-77 89t-135 36q-141 0-141-68 0-26 18-46t46-20q15 0 28 9t14 31q0 10-2 19t-7 14-8 10-7 8l-2 2h1q10 3 60 3 38 0 60-12 23-11 43-33t28-47q6-19 16-62 13-48 13-56m73-285-4-11q-3-11-5-15t-6-14-10-14-13-11-18-9-22-3q-44 0-85 53-30 39-50 119t-20 116q0 79 62 79 56 0 110-70l8-10z" data-c="1D454" data-mml-node="mi"/><path stroke="none" d="M16334.3 423q1-3 2-8t5-22 10-31 15-33 20-30 26-22 33-9q29 0 51 12t31 22 11 20q2 6 3 6t8-7q48-52 111-52h3q48 0 72 41 8 19 8 37 0 30-13 48t-26 23-25 4q-20 0-32-11t-12-29q0-48 56-64-22-13-36-13-56 0-103 74-10 16-15 33t-34 133q-34 140-39 149-13 27-43 27-13 0-21-6t-11-12-2-10q0-13 40-172t40-177q0-39-26-39-21 0-36 28t-24 61-11 36q-2 2-16 2h-14q-6-6-6-9" data-c="1D45F" data-mml-node="mi"/><path stroke="none" d="M16797.3 553q0-101 76-192t171-92q51 0 90 49 16-30 46-30 13 0 23 8t10 20q0 13-37 160t-38 166q0 25 7 33t21 9q9-1 20-9 21-20 41-96 6-20 10-21 2-1 10-1h4q19 0 19 9 0 6-5 27t-20 54-32 50q-13 13-32 21-8 2-24 2-34 0-57-15t-30-31l-6-15q-1-1-4 1l-4 4q-59 56-120 56-55 0-97-40t-42-127m318-171q0-6-5-22t-23-35-46-20q-35 0-67 31t-50 81q-29 79-41 164v11q0 8-1 12 0 45 18 62t43 18q38 0 75-33t44-51q2-4 27-107t26-111" data-c="1D44E" data-mml-node="mi"/><path stroke="none" d="m17353.3-39 4-1h22l28 24q94 85 137 212t43 264q0 68-10 131t-23 107-37 88-38 67-41 51-32 33-23 19l-4 4h-23q-3 0-5-3t-3-9q1-1 11-13 155-161 155-475t-155-475q-10-12-11-13 0-8 5-11" data-c="29" data-mml-node="mo"/></g><path stroke="none" d="M120-220h23051.3v-60H120z"/></g></g></svg>