<svg xmlns="http://www.w3.org/2000/svg" width="37.574ex" height="5.475ex" style="vertical-align:-2.172ex" viewBox="0 -1460 16607.6 2420"><title>P(A | B) = \frac{P(A \cap B)}{P(B)} = \frac{P(B|A) P(A)}{P(B)}</title><g fill="currentColor" stroke="currentColor" stroke-width="0" data-mml-node="math"><path stroke="none" d="M287-628q0-7-57-9-24 0-31-1t-7-10q0-1 2-11 6-20 9-22t194-2q190 1 203 3 64 11 107 49t44 101q0 77-66 141-69 68-178 86-7 1-105 2h-95l-30 119Q247-66 247-59q0 4 1 5t7 4 17 2 33 2h31q6 9 6 11 0 16-7 30-5 5-16 5-3 0-37-1T182-2H87Q54-2 51-1 33-1 33-11q0-2 3-14 4-16 8-18t23-3q27 0 60-3 14-3 19-12 3-4 72-278t69-289m358 74q0-13-2-21t-9-22-25-22-49-16q-7-1-80-2h-35q-18 0-29 1t-12 0q-13 1-18 9-2 6-19 77t-35 138-18 68q0 2 81 2h35q112 0 160-50 27-27 41-79t14-83" data-c="1D443" data-mml-node="mi"/><path stroke="none" d="M845-250q0-69 10-131t23-107 37-88 38-67 42-52 33-34 25-21h17q14 0 14 9 0 3-17 21t-41 53-49 86-42 138-17 193 17 192 41 139 49 86 42 53 17 21q0 9-15 9h-16l-28-24q-94-85-137-212t-43-264" data-c="28" data-mml-node="mo"/><path stroke="none" d="M1348-74q0 24 46 28 18 0 18 11 0 1-2 13-3 14-6 18t-13 4h-12q-10 0-34-1t-64-1q-71 0-91 2h-8q-7-7-7-11 2-27 13-35h14q70-3 102-50 6-6 181-305t178-303q7-12 24-12h25q6 9 6 10l28 323q28 323 30 326 5 11 65 11 25 0 25 10 0 2-3 14-3 15-5 18t-14 4h-14q-11 0-39-1t-73-1q-94 0-123 2h-12q-6-6-6-9t2-18q4-13 6-16l4-3h20q54-3 64-17l-12-150h-238l-34 58q-41 69-41 81m308-186q0-11-12-156t-14-146l-27 43q-16 27-63 107l-90 152 103 1q103 0 103-1" data-c="1D434" data-mml-node="mi"/><path stroke="none" d="M2029 249.5h-2q-12 0-18-14v-486l1-486q10-13 19-13 13 0 20 15v970q-8 14-18 14z" data-c="7C" data-mml-node="mo"/><path stroke="none" d="M2399-637q-27 0-32-1t-5-11q0-27 11-33 1-1 130-1 259 0 273 2 63 10 105 45t43 92q0 64-58 115t-133 69l-10 3q64 9 105 46t42 92q0 73-72 141T2621-1q-7 1-211 1-200 0-203-2-4-3-4-8 0-7 2-14 5-19 10-21 4-1 15-1h6q27 0 60-3 14-3 19-12 3-4 72-278t69-289q0-7-57-9m418 93q0-30-15-56t-49-34q-7-2-92-3h-42q-22 0-35 1h-13q-15 1-19 10-2 4-32 120 0 3-1 6l-31 126h81q81 0 93-2 60-10 107-58t48-110m-54 315q0-44-23-73t-60-34q-6-1-83-1-118 0-119 1 0 2-17 73t-35 141l-18 70q0 4 12 4t81 2q89 0 96-1 62-7 114-58t52-124" data-c="1D435" data-mml-node="mi"/><path stroke="none" d="m2987-749 4-1h22l28 24q94 85 137 212t43 264q0 68-10 131t-23 107-37 88-38 67-41 51-32 33-23 19l-4 4h-23q-3 0-5-3t-3-9q1-1 11-13 155-161 155-475t-155-475q-10-12-11-13 0-8 5-11" data-c="29" data-mml-node="mo"/><path stroke="none" d="M3649.8-347q0-13 14-20h637q15 8 15 20 0 11-14 19l-318 1h-318q-16-5-16-20m0 194q0-15 16-20h636q14 10 14 20 0 13-15 20h-637q-14-7-14-20" data-c="3D" data-mml-node="mo"/><g data-mml-node="mfrac"><g data-mml-node="mrow"><path stroke="none" d="M5156.6-1338q0-7-57-9-24 0-31-1t-7-10q0-1 2-11 6-20 9-22t194-2q190 1 203 3 64 11 107 49t44 101q0 77-66 141-69 68-178 86-7 1-105 2h-95l-30 119q-30 116-30 123 0 4 1 5t7 4 17 2 33 2h31q6 9 6 11 0 16-7 30-5 5-16 5-3 0-37-1t-100-1h-95q-33 0-36 1-18 0-18-10 0-2 3-14 4-16 8-18t23-3q27 0 60-3 14-3 19-12 3-4 72-278t69-289m358 74q0-13-2-21t-9-22-25-22-49-16q-7-1-80-2h-35q-18 0-29 1t-12 0q-13 1-18 9-2 6-19 77t-35 138-18 68q0 2 81 2h35q112 0 160-50 27-27 41-79t14-83" data-c="1D443" data-mml-node="mi"/><path stroke="none" d="M5714.6-960q0-69 10-131t23-107 37-88 38-67 42-52 33-34 25-21h17q14 0 14 9 0 3-17 21t-41 53-49 86-42 138-17 193 17 192 41 139 49 86 42 53 17 21q0 9-15 9h-16l-28-24q-94-85-137-212t-43-264" data-c="28" data-mml-node="mo"/><path stroke="none" d="M6217.6-784q0 24 46 28 18 0 18 11 0 1-2 13-3 14-6 18t-13 4h-12q-10 0-34-1t-64-1q-71 0-91 2h-8q-7-7-7-11 2-27 13-35h14q70-3 102-50 6-6 181-305t178-303q7-12 24-12h25q6 9 6 10l28 323q28 323 30 326 5 11 65 11 25 0 25 10 0 2-3 14-3 15-5 18t-14 4h-14q-11 0-39-1t-73-1q-94 0-123 2h-12q-6-6-6-9t2-18q4-13 6-16l4-3h20q54-3 64-17l-12-150h-238l-34 58q-41 69-41 81m308-186q0-11-12-156t-14-146l-27 43q-16 27-63 107l-90 152 103 1q103 0 103-1" data-c="1D434" data-mml-node="mi"/><path stroke="none" d="M7069.8-689h-13l-20-14v-287q1-134 5-148 1-2 1-3 16-69 91-118t180-49q111 0 190 54t88 139q1 6 1 211v201q-7 15-20 15-9 0-19-13l-2-414q-7-28-14-44t-27-36q-31-34-84-53t-111-20q-83 0-155 40t-83 117q-1 5-1 208v200q-7 14-20 14Z" data-c="2229" data-mml-node="mo"/><path stroke="none" d="M8102-1347q-27 0-32-1t-5-11q0-27 11-33 1-1 130-1 259 0 273 2 63 10 105 45t43 92q0 64-58 115t-133 69l-10 3q64 9 105 46t42 92q0 73-72 141t-177 77q-7 1-211 1-200 0-203-2-4-3-4-8 0-7 2-14 5-19 10-21 4-1 15-1h6q27 0 60-3 14-3 19-12 3-4 72-278t69-289q0-7-57-9m418 93q0-30-15-56t-49-34q-7-2-92-3h-42q-22 0-35 1h-13q-15 1-19 10-2 4-32 120 0 3-1 6l-31 126h81q81 0 93-2 60-10 107-58t48-110m-54 315q0-44-23-73t-60-34q-6-1-83-1-118 0-119 1 0 2-17 73t-35 141l-18 70q0 4 12 4t81 2q89 0 96-1 62-7 114-58t52-124" data-c="1D435" data-mml-node="mi"/><path stroke="none" d="m8690-1459 4-1h22l28 24q94 85 137 212t43 264q0 68-10 131t-23 107-37 88-38 67-41 51-32 33-23 19l-4 4h-23q-3 0-5-3t-3-9q1-1 11-13 155-161 155-475t-155-475q-10-12-11-13 0-8 5-11" data-c="29" data-mml-node="mo"/></g><g data-mml-node="mrow"><path stroke="none" d="M6087.3 82q0-7-57-9-24 0-31-1t-7-10q0-1 2-11 6-20 9-22t194-2q190 1 203 3 64 11 107 49t44 101q0 77-66 141-69 68-178 86-7 1-105 2h-95l-30 119q-30 116-30 123 0 4 1 5t7 4 17 2 33 2h31q6 9 6 11 0 16-7 30-5 5-16 5-3 0-37-1t-100-1h-95q-33 0-36 1-18 0-18-10 0-2 3-14 4-16 8-18t23-3q27 0 60-3 14-3 19-12 3-4 72-278t69-289m358 74q0-13-2-21t-9-22-25-22-49-16q-7-1-80-2h-35q-18 0-29 1t-12 0q-13 1-18 9-2 6-19 77t-35 138-18 68q0 2 81 2h35q112 0 160-50 27-27 41-79t14-83" data-c="1D443" data-mml-node="mi"/><path stroke="none" d="M6645.3 460q0-69 10-131t23-107 37-88 38-67 42-52 33-34 25-21h17q14 0 14 9 0 3-17 21t-41 53-49 86-42 138-17 193 17 192 41 139 49 86 42 53 17 21q0 9-15 9h-16l-28-24q-94-85-137-212t-43-264" data-c="28" data-mml-node="mo"/><path stroke="none" d="M7171.3 73q-27 0-32-1t-5-11q0-27 11-33 1-1 130-1 259 0 273 2 63 10 105 45t43 92q0 64-58 115t-133 69l-10 3q64 9 105 46t42 92q0 73-72 141t-177 77q-7 1-211 1-200 0-203-2-4-3-4-8 0-7 2-14 5-19 10-21 4-1 15-1h6q27 0 60-3 14-3 19-12 3-4 72-278t69-289q0-7-57-9m418 93q0-30-15-56t-49-34q-7-2-92-3h-42q-22 0-35 1h-13q-15 1-19 10-2 4-32 120 0 3-1 6l-31 126h81q81 0 93-2 60-10 107-58t48-110m-54 315q0-44-23-73t-60-34q-6-1-83-1-118 0-119 1 0 2-17 73t-35 141l-18 70q0 4 12 4t81 2q89 0 96-1 62-7 114-58t52-124" data-c="1D435" data-mml-node="mi"/><path stroke="none" d="m7759.3-39 4-1h22l28 24q94 85 137 212t43 264q0 68-10 131t-23 107-37 88-38 67-41 51-32 33-23 19l-4 4h-23q-3 0-5-3t-3-9q1-1 11-13 155-161 155-475t-155-475q-10-12-11-13 0-8 5-11" data-c="29" data-mml-node="mo"/></g><path stroke="none" d="M4769.6-220H9119v-60H4769.6z"/></g><path stroke="none" d="M9572.8-347q0-13 14-20h637q15 8 15 20 0 11-14 19l-318 1h-318q-16-5-16-20m0 194q0-15 16-20h636q14 10 14 20 0 13-15 20h-637q-14-7-14-20" data-c="3D" data-mml-node="mo"/><g data-mml-node="mfrac"><g data-mml-node="mrow"><path stroke="none" d="M11079.6-1338q0-7-57-9-24 0-31-1t-7-10q0-1 2-11 6-20 9-22t194-2q190 1 203 3 64 11 107 49t44 101q0 77-66 141-69 68-178 86-7 1-105 2h-95l-30 119q-30 116-30 123 0 4 1 5t7 4 17 2 33 2h31q6 9 6 11 0 16-7 30-5 5-16 5-3 0-37-1t-100-1h-95q-33 0-36 1-18 0-18-10 0-2 3-14 4-16 8-18t23-3q27 0 60-3 14-3 19-12 3-4 72-278t69-289m358 74q0-13-2-21t-9-22-25-22-49-16q-7-1-80-2h-35q-18 0-29 1t-12 0q-13 1-18 9-2 6-19 77t-35 138-18 68q0 2 81 2h35q112 0 160-50 27-27 41-79t14-83" data-c="1D443" data-mml-node="mi"/><path stroke="none" d="M11637.6-960q0-69 10-131t23-107 37-88 38-67 42-52 33-34 25-21h17q14 0 14 9 0 3-17 21t-41 53-49 86-42 138-17 193 17 192 41 139 49 86 42 53 17 21q0 9-15 9h-16l-28-24q-94-85-137-212t-43-264" data-c="28" data-mml-node="mo"/><path stroke="none" d="M12163.6-1347q-27 0-32-1t-5-11q0-27 11-33 1-1 130-1 259 0 273 2 63 10 105 45t43 92q0 64-58 115t-133 69l-10 3q64 9 105 46t42 92q0 73-72 141t-177 77q-7 1-211 1-200 0-203-2-4-3-4-8 0-7 2-14 5-19 10-21 4-1 15-1h6q27 0 60-3 14-3 19-12 3-4 72-278t69-289q0-7-57-9m418 93q0-30-15-56t-49-34q-7-2-92-3h-42q-22 0-35 1h-13q-15 1-19 10-2 4-32 120 0 3-1 6l-31 126h81q81 0 93-2 60-10 107-58t48-110m-54 315q0-44-23-73t-60-34q-6-1-83-1-118 0-119 1 0 2-17 73t-35 141l-18 70q0 4 12 4t81 2q89 0 96-1 62-7 114-58t52-124" data-c="1D435" data-mml-node="mi"/><path stroke="none" d="M12830.6-460.5h-2q-12 0-18-14v-486l1-486q10-13 19-13 13 0 20 15v970q-8 14-18 14z" data-c="7C" data-mml-node="mo"/><path stroke="none" d="M13177.6-784q0 24 46 28 18 0 18 11 0 1-2 13-3 14-6 18t-13 4h-12q-10 0-34-1t-64-1q-71 0-91 2h-8q-7-7-7-11 2-27 13-35h14q70-3 102-50 6-6 181-305t178-303q7-12 24-12h25q6 9 6 10l28 323q28 323 30 326 5 11 65 11 25 0 25 10 0 2-3 14-3 15-5 18t-14 4h-14q-11 0-39-1t-73-1q-94 0-123 2h-12q-6-6-6-9t2-18q4-13 6-16l4-3h20q54-3 64-17l-12-150h-238l-34 58q-41 69-41 81m308-186q0-11-12-156t-14-146l-27 43q-16 27-63 107l-90 152 103 1q103 0 103-1" data-c="1D434" data-mml-node="mi"/><path stroke="none" d="m13779.6-1459 4-1h22l28 24q94 85 137 212t43 264q0 68-10 131t-23 107-37 88-38 67-41 51-32 33-23 19l-4 4h-23q-3 0-5-3t-3-9q1-1 11-13 155-161 155-475t-155-475q-10-12-11-13 0-8 5-11" data-c="29" data-mml-node="mo"/><path stroke="none" d="M14395.6-1338q0-7-57-9-24 0-31-1t-7-10q0-1 2-11 6-20 9-22t194-2q190 1 203 3 64 11 107 49t44 101q0 77-66 141-69 68-178 86-7 1-105 2h-95l-30 119q-30 116-30 123 0 4 1 5t7 4 17 2 33 2h31q6 9 6 11 0 16-7 30-5 5-16 5-3 0-37-1t-100-1h-95q-33 0-36 1-18 0-18-10 0-2 3-14 4-16 8-18t23-3q27 0 60-3 14-3 19-12 3-4 72-278t69-289m358 74q0-13-2-21t-9-22-25-22-49-16q-7-1-80-2h-35q-18 0-29 1t-12 0q-13 1-18 9-2 6-19 77t-35 138-18 68q0 2 81 2h35q112 0 160-50 27-27 41-79t14-83" data-c="1D443" data-mml-node="mi"/><path stroke="none" d="M14953.6-960q0-69 10-131t23-107 37-88 38-67 42-52 33-34 25-21h17q14 0 14 9 0 3-17 21t-41 53-49 86-42 138-17 193 17 192 41 139 49 86 42 53 17 21q0 9-15 9h-16l-28-24q-94-85-137-212t-43-264" data-c="28" data-mml-node="mo"/><path stroke="none" d="M15456.6-784q0 24 46 28 18 0 18 11 0 1-2 13-3 14-6 18t-13 4h-12q-10 0-34-1t-64-1q-71 0-91 2h-8q-7-7-7-11 2-27 13-35h14q70-3 102-50 6-6 181-305t178-303q7-12 24-12h25q6 9 6 10l28 323q28 323 30 326 5 11 65 11 25 0 25 10 0 2-3 14-3 15-5 18t-14 4h-14q-11 0-39-1t-73-1q-94 0-123 2h-12q-6-6-6-9t2-18q4-13 6-16l4-3h20q54-3 64-17l-12-150h-238l-34 58q-41 69-41 81m308-186q0-11-12-156t-14-146l-27 43q-16 27-63 107l-90 152 103 1q103 0 103-1" data-c="1D434" data-mml-node="mi"/><path stroke="none" d="m16058.6-1459 4-1h22l28 24q94 85 137 212t43 264q0 68-10 131t-23 107-37 88-38 67-41 51-32 33-23 19l-4 4h-23q-3 0-5-3t-3-9q1-1 11-13 155-161 155-475t-155-475q-10-12-11-13 0-8 5-11" data-c="29" data-mml-node="mo"/></g><g data-mml-node="mrow"><path stroke="none" d="M12733.1 82q0-7-57-9-24 0-31-1t-7-10q0-1 2-11 6-20 9-22t194-2q190 1 203 3 64 11 107 49t44 101q0 77-66 141-69 68-178 86-7 1-105 2h-95l-30 119q-30 116-30 123 0 4 1 5t7 4 17 2 33 2h31q6 9 6 11 0 16-7 30-5 5-16 5-3 0-37-1t-100-1h-95q-33 0-36 1-18 0-18-10 0-2 3-14 4-16 8-18t23-3q27 0 60-3 14-3 19-12 3-4 72-278t69-289m358 74q0-13-2-21t-9-22-25-22-49-16q-7-1-80-2h-35q-18 0-29 1t-12 0q-13 1-18 9-2 6-19 77t-35 138-18 68q0 2 81 2h35q112 0 160-50 27-27 41-79t14-83" data-c="1D443" data-mml-node="mi"/><path stroke="none" d="M13291.1 460q0-69 10-131t23-107 37-88 38-67 42-52 33-34 25-21h17q14 0 14 9 0 3-17 21t-41 53-49 86-42 138-17 193 17 192 41 139 49 86 42 53 17 21q0 9-15 9h-16l-28-24q-94-85-137-212t-43-264" data-c="28" data-mml-node="mo"/><path stroke="none" d="M13817.1 73q-27 0-32-1t-5-11q0-27 11-33 1-1 130-1 259 0 273 2 63 10 105 45t43 92q0 64-58 115t-133 69l-10 3q64 9 105 46t42 92q0 73-72 141t-177 77q-7 1-211 1-200 0-203-2-4-3-4-8 0-7 2-14 5-19 10-21 4-1 15-1h6q27 0 60-3 14-3 19-12 3-4 72-278t69-289q0-7-57-9m418 93q0-30-15-56t-49-34q-7-2-92-3h-42q-22 0-35 1h-13q-15 1-19 10-2 4-32 120 0 3-1 6l-31 126h81q81 0 93-2 60-10 107-58t48-110m-54 315q0-44-23-73t-60-34q-6-1-83-1-118 0-119 1 0 2-17 73t-35 141l-18 70q0 4 12 4t81 2q89 0 96-1 62-7 114-58t52-124" data-c="1D435" data-mml-node="mi"/><path stroke="none" d="m14405.1-39 4-1h22l28 24q94 85 137 212t43 264q0 68-10 131t-23 107-37 88-38 67-41 51-32 33-23 19l-4 4h-23q-3 0-5-3t-3-9q1-1 11-13 155-161 155-475t-155-475q-10-12-11-13 0-8 5-11" data-c="29" data-mml-node="mo"/></g><path stroke="none" d="M10692.6-220h5795v-60h-5795z"/></g></g></svg>