<svg xmlns="http://www.w3.org/2000/svg" width="14.323ex" height="5.154ex" style="vertical-align:-1.738ex" viewBox="0 -1509.9 6330.6 2277.9"><title>\frac{B^2 - 4A}{B - A} \in \mathbb{N}.</title><g fill="currentColor" stroke="currentColor" stroke-width="0" data-mml-node="math"><g data-mml-node="mfrac"><g data-mml-node="mrow"><g data-mml-node="msup"><path stroke="none" d="M451-1313q-27 0-32-1t-5-11q0-27 11-33 1-1 130-1 259 0 273 2 63 10 105 45t43 92q0 64-58 115t-133 69l-10 3q64 9 105 46t42 92q0 73-72 141t-177 77q-7 1-211 1-200 0-203-2-4-3-4-8 0-7 2-14 5-19 10-21 4-1 15-1h6q27 0 60-3 14-3 19-12 3-4 72-278t69-289q0-7-57-9m418 93q0-30-15-56t-49-34q-7-2-92-3h-42q-22 0-35 1h-13q-15 1-19 10-2 4-32 120 0 3-1 6l-31 126h81q81 0 93-2 60-10 107-58t48-110m-54 315q0-44-23-73t-60-34q-6-1-83-1-118 0-119 1 0 2-17 73t-35 141l-18 70q0 4 12 4t81 2q89 0 96-1 62-7 114-58t52-124" data-c="1D435" data-mml-node="mi"/><path stroke="none" d="M1089.063-1342.303q-19.089 0-30.401-12.726t-11.312-31.108q0-50.197 37.471-86.961t93.324-36.764q64.337 0 107.464 39.592t43.834 102.515q0 30.401-14.14 57.974t-33.936 48.076-56.56 52.318q-25.452 21.917-70.7 65.044l-41.713 39.592 53.732.707q110.999 0 118.069-3.535 4.949-1.414 16.968-62.923v-2.121h28.28v2.121q-.707 2.121-9.191 64.337t-10.605 65.044v2.121H1047.35v-21.917q0-4.949 4.242-10.605t21.21-24.745q20.503-22.624 35.35-39.592 6.363-7.07 24.038-26.159t24.038-26.159 20.503-23.331 19.796-24.038 16.261-21.21 14.847-22.624 10.605-20.503 9.191-22.624 4.949-21.21 2.121-23.331q0-44.541-24.038-77.063t-68.579-32.522q-23.331 0-41.006 12.019t-24.745 23.331-7.07 13.433q0 .707 3.535.707 12.726 0 26.159 9.898t13.433 32.522q0 17.675-11.312 29.694t-31.815 12.726" data-c="32" data-mml-node="mn"/></g><path stroke="none" d="M1721.8-913v-13l14-20h581q15 8 15 20t-15 20h-581q-14-7-14-20Z" data-c="2212" data-mml-node="mo"/><path stroke="none" d="M3100-676q-18-3-129-3-116 0-134 3h-9v-46h58q7 0 17-2t14-5 7-8q1-2 1-54v-50h-259v-46l151-231q153-232 155-233 2-2 21-2h18l6 6v460h92v46h-92v99q0 7 6 12 8 7 57 8h29v46zm-169-211v-334l-219 333 109 1z" data-c="34" data-mml-node="mn"/><path stroke="none" d="M3346-750q0 24 46 28 18 0 18 11 0 1-2 13-3 14-6 18t-13 4h-12q-10 0-34-1t-64-1q-71 0-91 2h-8q-7-7-7-11 2-27 13-35h14q70-3 102-50 6-6 181-305t178-303q7-12 24-12h25q6 9 6 10l28 323q28 323 30 326 5 11 65 11 25 0 25 10 0 2-3 14-3 15-5 18t-14 4h-14q-11 0-39-1t-73-1q-94 0-123 2h-12q-6-6-6-9t2-18q4-13 6-16l4-3h20q54-3 64-17l-12-150h-238l-34 58q-41 69-41 81m308-186q0-11-12-156t-14-146l-27 43q-16 27-63 107l-90 152 103 1q103 0 103-1" data-c="1D434" data-mml-node="mi"/></g><g data-mml-node="mrow"><path stroke="none" d="M919.3 49q-27 0-32-1t-5-11q0-27 11-33 1-1 130-1 259 0 273 2 63 10 105 45t43 92q0 64-58 115t-133 69l-10 3q64 9 105 46t42 92q0 73-72 141t-177 77q-7 1-211 1-200 0-203-2-4-3-4-8 0-7 2-14 5-19 10-21 4-1 15-1h6q27 0 60-3 14-3 19-12 3-4 72-278t69-289q0-7-57-9m418 93q0-30-15-56t-49-34q-7-2-92-3h-42q-22 0-35 1h-13q-15 1-19 10-2 4-32 120 0 3-1 6l-31 126h81q81 0 93-2 60-10 107-58t48-110m-54 315q0-44-23-73t-60-34q-6-1-83-1-118 0-119 1 0 2-17 73t-35 141l-18 70q0 4 12 4t81 2q89 0 96-1 62-7 114-58t52-124" data-c="1D435" data-mml-node="mi"/><path stroke="none" d="M1753.5 449v-13l14-20h581q15 8 15 20t-15 20h-581q-14-7-14-20Z" data-c="2212" data-mml-node="mo"/><path stroke="none" d="M2877.7 612q0 24 46 28 18 0 18 11 0 1-2 13-3 14-6 18t-13 4h-12q-10 0-34-1t-64-1q-71 0-91 2h-8q-7-7-7-11 2-27 13-35h14q70-3 102-50 6-6 181-305t178-303q7-12 24-12h25q6 9 6 10l28 323q28 323 30 326 5 11 65 11 25 0 25 10 0 2-3 14-3 15-5 18t-14 4h-14q-11 0-39-1t-73-1q-94 0-123 2h-12q-6-6-6-9t2-18q4-13 6-16l4-3h20q54-3 64-17l-12-150h-238l-34 58q-41 69-41 81m308-186q0-11-12-156t-14-146l-27 43q-16 27-63 107l-90 152 103 1q103 0 103-1" data-c="1D434" data-mml-node="mi"/></g><path stroke="none" d="M120-220h3868v-60H120z"/></g><path stroke="none" d="M4469.8-250q0-122 82-200t194-89h17q16 0 42-1t50 0h99q15 8 15 20 0 9-13 19l-104 1q-111 1-137 6-49 12-87 36t-59 49-36 55-18 48-5 34v2h444q15 8 15 20t-15 20h-444v2q0 21 10 51t33 65 64 64 97 41q27 6 138 7h104q13 10 13 20 0 12-15 20h-122q-18 0-29 1-155 0-245-86-88-82-88-205" data-c="2208" data-mml-node="mo"/><g data-mjx-texclass="ORD" data-mml-node="TeXAtom"><path stroke="none" d="M5350.6-664q0-2 11-19h111q114 0 116 2 1 1 21 28t63 81 80 104l160 209v-231q0-39 1-51 0-70-10-87t-51-20q-22 0-29-6-9-11 0-25l7-4h191q11 7 11 17 0 9-4 14-10 4-18 4-47 0-53 36-3 11-3 318V8q-8 12-17 12-6 0-11-5-3-2-225-285l-215-278-3 229v85q0 50-1 67 0 64 4 89t16 34 41 10q23 0 29 6 11 11 0 25l-6 4h-200q-12-7-12-17 0-18 32-18 2-1 13-2t17-4 14-10 9-22q2-11 2-273v-258l-15-16q-24-24-52-29-24 0-24-16m393 245-173-229h-120l16 20q1 2 225 287t226 287l2-14v-124z" data-c="2115" data-mml-node="mi"/></g><path stroke="none" d="M6130.6-60q0-24 17-42t43-18q24 0 42 16t19 43q0 25-17 43t-43 18-43-17-18-43" data-c="2E" data-mml-node="mo"/></g></svg>