<svg xmlns="http://www.w3.org/2000/svg" width="42.021ex" height="5.451ex" style="vertical-align:-2.172ex" viewBox="0 -1449.5 18573.4 2409.5"><title>\frac{1}{(4k-1)(4k+3)} = a \left( \frac{1}{4k-1} - \frac{1}{4k+3} \right)</title><g fill="currentColor" stroke="currentColor" stroke-width="0" data-mml-node="math"><g data-mml-node="mfrac"><path stroke="none" d="m3704.4-1254-13 5q-14 5-40 10t-58 7h-19v-46h19q47-2 87-15t56-24 28-22q2-3 12-3 9 0 17 6v299l1 300q7 7 12 9t24 4 62 2h26v46h-11q-21-3-159-3-136 0-157 3h-12v-46h64q16 0 25-1t16-3 8-2 6-5 6-4z" data-c="31" data-mml-node="mn"/><g data-mml-node="mrow"><path stroke="none" d="M314 460q0-69 10-131t23-107 37-88 38-67 42-52 33-34 25-21h17q14 0 14 9 0 3-17 21t-41 53-49 86-42 138-17 193 17 192 41 139 49 86 42 53 17 21q0 9-15 9h-16l-28-24q-94-85-137-212t-43-264" data-c="28" data-mml-node="mo"/><path stroke="none" d="M1071 710q-18-3-129-3-116 0-134 3h-9v-46h58q7 0 17-2t14-5 7-8q1-2 1-54v-50H637v-46l151-231Q941 36 943 35q2-2 21-2h18l6 6v460h92v46h-92v99q0 7 6 12 8 7 57 8h29v46zM902 499V165L683 498l109 1z" data-c="34" data-mml-node="mn"/><path stroke="none" d="M1230 63q0-10 4-23t12-13q1 0 72-5t73-6q12 0 12 8 0 7-50 209-50 198-50 205 19-10 29-19 24-18 69-63t70-61q40-27 76-27 30 0 47 19t18 54q0 25-7 42t-19 25-21 11-18 3q-20 0-32-11t-12-29q0-25 16-41t32-21l16-3q-12-12-24-12h-4q-32 3-63 25t-73 64-66 61q2 1 15 3t24 6 26 8 27 14 22 18 17 26 6 33q0 17-5 41t-6 40q0 40 27 40 48 0 78-119 2-8 20-8h4q16 0 16 9 0 5-3 14-41 141-118 141-45 0-73-26t-28-75q0-18 3-31t3-24q0-22-14-38t-35-23-34-11-18-3h-2q-12 42-21 81t-14 58-9 37-7 24-7 13-11 9q-13 9-28 9-17 0-26-10t-9-17q0-10 37-160t73-295l37-145q1-13-7-16t-39-5h-18q-3 0-7-3t-3-7" data-c="1D458" data-mml-node="mi"/><path stroke="none" d="M1936.2 473v-13l14-20h581q15 8 15 20t-15 20h-581q-14-7-14-20Z" data-c="2212" data-mml-node="mo"/><path stroke="none" d="m3065.4 132-13 5q-14 5-40 10t-58 7h-19v-46h19q47-2 87-15t56-24 28-22q2-3 12-3 9 0 17 6v299l1 300q7 7 12 9t24 4 62 2h26v46h-11q-21-3-159-3-136 0-157 3h-12v-46h64q16 0 25-1t16-3 8-2 6-5 6-4z" data-c="31" data-mml-node="mn"/><path stroke="none" d="m3412.4-39 4-1h22l28 24q94 85 137 212t43 264q0 68-10 131t-23 107-37 88-38 67-41 51-32 33-23 19l-4 4h-23q-3 0-5-3t-3-9q1-1 11-13 155-161 155-475t-155-475q-10-12-11-13 0-8 5-11" data-c="29" data-mml-node="mo"/><path stroke="none" d="M3835.4 460q0-69 10-131t23-107 37-88 38-67 42-52 33-34 25-21h17q14 0 14 9 0 3-17 21t-41 53-49 86-42 138-17 193 17 192 41 139 49 86 42 53 17 21q0 9-15 9h-16l-28-24q-94-85-137-212t-43-264" data-c="28" data-mml-node="mo"/><path stroke="none" d="M4592.4 710q-18-3-129-3-116 0-134 3h-9v-46h58q7 0 17-2t14-5 7-8q1-2 1-54v-50h-259v-46l151-231q153-232 155-233 2-2 21-2h18l6 6v460h92v46h-92v99q0 7 6 12 8 7 57 8h29v46zm-169-211V165l-219 333 109 1z" data-c="34" data-mml-node="mn"/><path stroke="none" d="M4751.4 63q0-10 4-23t12-13q1 0 72-5t73-6q12 0 12 8 0 7-50 209-50 198-50 205 19-10 29-19 24-18 69-63t70-61q40-27 76-27 30 0 47 19t18 54q0 25-7 42t-19 25-21 11-18 3q-20 0-32-11t-12-29q0-25 16-41t32-21l16-3q-12-12-24-12h-4q-32 3-63 25t-73 64-66 61q2 1 15 3t24 6 26 8 27 14 22 18 17 26 6 33q0 17-5 41t-6 40q0 40 27 40 48 0 78-119 2-8 20-8h4q16 0 16 9 0 5-3 14-41 141-118 141-45 0-73-26t-28-75q0-18 3-31t3-24q0-22-14-38t-35-23-34-11-18-3h-2q-12 42-21 81t-14 58-9 37-7 24-7 13-11 9q-13 9-28 9-17 0-26-10t-9-17q0-10 37-160t73-295l37-145q1-13-7-16t-39-5h-18q-3 0-7-3t-3-7" data-c="1D458" data-mml-node="mi"/><path stroke="none" d="M5429.7 473v-13l14-20h299V290l1-150q10-13 19-13 13 0 20 15v298h298q15 8 15 20t-15 20h-298v298q-8 14-18 14h-4q-12 0-18-14V480h-299q-14-7-14-20Z" data-c="2B" data-mml-node="mo"/><path stroke="none" d="M6500.9 247q-27 0-42-17t-16-44q0-55 48-98t116-43q35 0 44 1 74 12 113 53t40 89q0 52-34 101t-94 71l-3 2q0 1 9 3t29 9 38 21q82 53 82 140 0 79-62 138t-157 59q-80 0-138-43t-58-109q0-28 18-45t45-18q28 0 46 18t18 45q0 11-3 20t-7 16-11 12-12 8-10 4-8 3l-4 1q51 45 124 45 55 0 83-53 17-33 17-101v-20q0-95-64-127-15-6-61-7l-42-1-3-2q-2-3-2-16 0-18 8-18 28 0 58-5 34-5 62-42t28-112v-8q0-57-35-79-22-14-47-14-32 0-59 11t-38 23-11 12h3q3 1 8 2t10 5 12 7 10 11 8 15 3 20q0 22-14 39t-45 18" data-c="33" data-mml-node="mn"/><path stroke="none" d="m6933.9-39 4-1h22l28 24q94 85 137 212t43 264q0 68-10 131t-23 107-37 88-38 67-41 51-32 33-23 19l-4 4h-23q-3 0-5-3t-3-9q1-1 11-13 155-161 155-475t-155-475q-10-12-11-13 0-8 5-11" data-c="29" data-mml-node="mo"/></g><path stroke="none" d="M120-220h7242.9v-60H120z"/></g><path stroke="none" d="M7816.7-347q0-13 14-20h637q15 8 15 20 0 11-14 19l-318 1h-318q-16-5-16-20m0 194q0-15 16-20h636q14 10 14 20 0 13-15 20h-637q-14-7-14-20" data-c="3D" data-mml-node="mo"/><path stroke="none" d="M8849.4-157q0-101 76-192t171-92q51 0 90 49 16-30 46-30 13 0 23 8t10 20q0 13-37 160t-38 166q0 25 7 33t21 9q9-1 20-9 21-20 41-96 6-20 10-21 2-1 10-1h4q19 0 19 9 0 6-5 27t-20 54-32 50q-13 13-32 21-8 2-24 2-34 0-57-15t-30-31l-6-15q-1-1-4 1l-4 4q-59 56-120 56-55 0-97-40t-42-127m318-171q0-6-5-22t-23-35-46-20q-35 0-67 31t-50 81q-29 79-41 164v11q0 8-1 12 0 45 18 62t43 18q38 0 75-33t44-51q2-4 27-107t26-111" data-c="1D44E" data-mml-node="mi"/><g data-mml-node="mrow"><path stroke="none" d="M10213.1 940.5q0 3-6 9h-31q-2-2-28-27t-45-43-54-61-62-81-63-101-62-125-55-149-45-176-29-203-12-234q0-711 364-1110 23-25 43-44t33-32 15-13h31q6 6 6 9 0 5-20 26t-52 59-72 95-81 143-76 191-60 252-32 316q-2 38-2 109 0 389 94 680t290 494q11 12 11 16" data-c="28" data-mml-node="mo"/><g data-mml-node="mfrac"><path stroke="none" d="m11802.8-1254-13 5q-14 5-40 10t-58 7h-19v-46h19q47-2 87-15t56-24 28-22q2-3 12-3 9 0 17 6v299l1 300q7 7 12 9t24 4 62 2h26v46h-11q-21-3-159-3-136 0-157 3h-12v-46h64q16 0 25-1t16-3 8-2 6-5 6-4z" data-c="31" data-mml-node="mn"/><g data-mml-node="mrow"><path stroke="none" d="M10930.1 686q-18-3-129-3-116 0-134 3h-9v-46h58q7 0 17-2t14-5 7-8q1-2 1-54v-50h-259v-46l151-231q153-232 155-233 2-2 21-2h18l6 6v460h92v46h-92v99q0 7 6 12 8 7 57 8h29v46zm-169-211V141l-219 333 109 1z" data-c="34" data-mml-node="mn"/><path stroke="none" d="M11089.1 39q0-10 4-23t12-13q1 0 72-5t73-6q12 0 12 8 0 7-50 209-50 198-50 205 19-10 29-19 24-18 69-63t70-61q40-27 76-27 30 0 47 19t18 54q0 25-7 42t-19 25-21 11-18 3q-20 0-32-11t-12-29q0-25 16-41t32-21l16-3q-12-12-24-12h-4q-32 3-63 25t-73 64-66 61q2 1 15 3t24 6 26 8 27 14 22 18 17 26 6 33q0 17-5 41t-6 40q0 40 27 40 48 0 78-119 2-8 20-8h4q16 0 16 9 0 5-3 14-41 141-118 141-45 0-73-26t-28-75q0-18 3-31t3-24q0-22-14-38t-35-23-34-11-18-3h-2q-12 42-21 81t-14 58-9 37-7 24-7 13-11 9q-13 9-28 9-17 0-26-10t-9-17q0-10 37-160t73-295l37-145q1-13-7-16t-39-5h-18q-3 0-7-3t-3-7" data-c="1D458" data-mml-node="mi"/><path stroke="none" d="M11795.3 449v-13l14-20h581q15 8 15 20t-15 20h-581q-14-7-14-20Z" data-c="2212" data-mml-node="mo"/><path stroke="none" d="m12924.5 108-13 5q-14 5-40 10t-58 7h-19V84h19q47-2 87-15t56-24 28-22q2-3 12-3 9 0 17 6v299l1 300q7 7 12 9t24 4 62 2h26v46h-11q-21-3-159-3-136 0-157 3h-12v-46h64q16 0 25-1t16-3 8-2 6-5 6-4z" data-c="31" data-mml-node="mn"/></g><path stroke="none" d="M10368.1-220h2943.4v-60h-2943.4z"/></g><path stroke="none" d="M13737.8-237v-13l14-20h581q15 8 15 20t-15 20h-581q-14-7-14-20Z" data-c="2212" data-mml-node="mo"/><g data-mml-node="mfrac"><path stroke="none" d="m16208.7-1254-13 5q-14 5-40 10t-58 7h-19v-46h19q47-2 87-15t56-24 28-22q2-3 12-3 9 0 17 6v299l1 300q7 7 12 9t24 4 62 2h26v46h-11q-21-3-159-3-136 0-157 3h-12v-46h64q16 0 25-1t16-3 8-2 6-5 6-4z" data-c="31" data-mml-node="mn"/><g data-mml-node="mrow"><path stroke="none" d="M15336 686q-18-3-129-3-116 0-134 3h-9v-46h58q7 0 17-2t14-5 7-8q1-2 1-54v-50h-259v-46l151-231q153-232 155-233 2-2 21-2h18l6 6v460h92v46h-92v99q0 7 6 12 8 7 57 8h29v46zm-169-211V141l-219 333 109 1z" data-c="34" data-mml-node="mn"/><path stroke="none" d="M15495 39q0-10 4-23t12-13q1 0 72-5t73-6q12 0 12 8 0 7-50 209-50 198-50 205 19-10 29-19 24-18 69-63t70-61q40-27 76-27 30 0 47 19t18 54q0 25-7 42t-19 25-21 11-18 3q-20 0-32-11t-12-29q0-25 16-41t32-21l16-3q-12-12-24-12h-4q-32 3-63 25t-73 64-66 61q2 1 15 3t24 6 26 8 27 14 22 18 17 26 6 33q0 17-5 41t-6 40q0 40 27 40 48 0 78-119 2-8 20-8h4q16 0 16 9 0 5-3 14-41 141-118 141-45 0-73-26t-28-75q0-18 3-31t3-24q0-22-14-38t-35-23-34-11-18-3h-2q-12 42-21 81t-14 58-9 37-7 24-7 13-11 9q-13 9-28 9-17 0-26-10t-9-17q0-10 37-160t73-295l37-145q1-13-7-16t-39-5h-18q-3 0-7-3t-3-7" data-c="1D458" data-mml-node="mi"/><path stroke="none" d="M16173.2 449v-13l14-20h299V266l1-150q10-13 19-13 13 0 20 15v298h298q15 8 15 20t-15 20h-298v298q-8 14-18 14h-4q-12 0-18-14V456h-299q-14-7-14-20Z" data-c="2B" data-mml-node="mo"/><path stroke="none" d="M17244.4 223q-27 0-42-17t-16-44q0-55 48-98t116-43q35 0 44 1 74 12 113 53t40 89q0 52-34 101t-94 71l-3 2q0 1 9 3t29 9 38 21q82 53 82 140 0 79-62 138t-157 59q-80 0-138-43t-58-109q0-28 18-45t45-18q28 0 46 18t18 45q0 11-3 20t-7 16-11 12-12 8-10 4-8 3l-4 1q51 45 124 45 55 0 83-53 17-33 17-101v-20q0-95-64-127-15-6-61-7l-42-1-3-2q-2-3-2-16 0-18 8-18 28 0 58-5 34-5 62-42t28-112v-8q0-57-35-79-22-14-47-14-32 0-59 11t-38 23-11 12h3q3 1 8 2t10 5 12 7 10 11 8 15 3 20q0 22-14 39t-45 18" data-c="33" data-mml-node="mn"/></g><path stroke="none" d="M14774-220h2943.4v-60H14774z"/></g><path stroke="none" d="M17871.4-1437.5q0-8 3-10t13-2h21q2 2 28 27t45 43 54 61 62 81 63 101 62 124 55 149 45 176 29 203 12 234q0 117-7 198-47 572-357 913-23 25-43 44t-33 32-15 13h-15q-13 0-17-2t-5-10q54-54 106-124 288-383 288-1064 0-202-26-377t-64-294-93-224-100-163-99-116l-4-4q-2-2-3-4t-3-3z" data-c="29" data-mml-node="mo"/></g></g></svg>