<svg xmlns="http://www.w3.org/2000/svg" width="58.512ex" height="5.428ex" style="vertical-align:-2.148ex" viewBox="0 -1449.5 25862.1 2399"><title>S = \frac{1}{4} \left( \frac{1}{3} - \frac{1}{7} + \frac{1}{7} - \frac{1}{11} + \frac{1}{11} - \frac{1}{15} + \ldots + \frac{1}{99} - \frac{1}{103} \right)</title><g fill="currentColor" stroke="currentColor" stroke-width="0" data-mml-node="math"><path stroke="none" d="M308-24q59 0 108-52t50-121q0-63-52-87-106-27-136-37t-42-20q-60-42-60-121 0-61 32-111t65-75q29-25 70-40t64-16h18q96 0 139 64 1 0 13-13t26-29 20-22h4q3 0 5-1 13 0 13 7t-28 121-32 118-16 3q-20 0-20-9 0-6 1-10 0-3 1-19t2-26q0-34-9-59t-18-37-25-25q-36-21-82-21-57 0-106 46t-50 106q0 30 15 52t41 31q4 2 70 19t67 18q34 11 66 48t32 100q0 26-8 56-5 22-18 49t-36 59-66 60-94 38q-12 2-34 2-99 0-154-55l-10-11-28 31Q83 14 78 18t-13 4q-13 0-13-8 0-3 58-235 2-6 20-6h13q6 6 6 11 0 2-1 9t-4 21-2 33q2 39 18 66t43 40 52 18 53 5" data-c="1D446" data-mml-node="mi"/><path stroke="none" d="M978.8-347q0-13 14-20h637q15 8 15 20 0 11-14 19l-318 1h-318q-16-5-16-20m0 194q0-15 16-20h636q14 10 14 20 0 13-15 20h-637q-14-7-14-20" data-c="3D" data-mml-node="mo"/><g data-mml-node="mfrac"><path stroke="none" d="m2411.6-1254-13 5q-14 5-40 10t-58 7h-19v-46h19q47-2 87-15t56-24 28-22q2-3 12-3 9 0 17 6v299l1 300q7 7 12 9t24 4 62 2h26v46h-11q-21-3-159-3-136 0-157 3h-12v-46h64q16 0 25-1t16-3 8-2 6-5 6-4z" data-c="31" data-mml-node="mn"/><path stroke="none" d="M2660.6 686q-18-3-129-3-116 0-134 3h-9v-46h58q7 0 17-2t14-5 7-8q1-2 1-54v-50h-259v-46l151-231q153-232 155-233 2-2 21-2h18l6 6v460h92v46h-92v99q0 7 6 12 8 7 57 8h29v46zm-169-211V141l-219 333 109 1z" data-c="34" data-mml-node="mn"/><path stroke="none" d="M2098.6-220h700v-60h-700z"/></g><g data-mml-node="mrow"><path stroke="none" d="M3619.6 940.5q0 3-6 9h-31q-2-2-28-27t-45-43-54-61-62-81-63-101-62-125-55-149-45-176-29-203-12-234q0-711 364-1110 23-25 43-44t33-32 15-13h31q6 6 6 9 0 5-20 26t-52 59-72 95-81 143-76 191-60 252-32 316q-2 38-2 109 0 389 94 680t290 494q11 12 11 16" data-c="28" data-mml-node="mo"/><g data-mml-node="mfrac"><path stroke="none" d="m4087.6-1254-13 5q-14 5-40 10t-58 7h-19v-46h19q47-2 87-15t56-24 28-22q2-3 12-3 9 0 17 6v299l1 300q7 7 12 9t24 4 62 2h26v46h-11q-21-3-159-3-136 0-157 3h-12v-46h64q16 0 25-1t16-3 8-2 6-5 6-4z" data-c="31" data-mml-node="mn"/><path stroke="none" d="M4001.6 223q-27 0-42-17t-16-44q0-55 48-98t116-43q35 0 44 1 74 12 113 53t40 89q0 52-34 101t-94 71l-3 2q0 1 9 3t29 9 38 21q82 53 82 140 0 79-62 138t-157 59q-80 0-138-43t-58-109q0-28 18-45t45-18q28 0 46 18t18 45q0 11-3 20t-7 16-11 12-12 8-10 4-8 3l-4 1q51 45 124 45 55 0 83-53 17-33 17-101v-20q0-95-64-127-15-6-61-7l-42-1-3-2q-2-3-2-16 0-18 8-18 28 0 58-5 34-5 62-42t28-112v-8q0-57-35-79-22-14-47-14-32 0-59 11t-38 23-11 12h3q3 1 8 2t10 5 12 7 10 11 8 15 3 20q0 22-14 39t-45 18" data-c="33" data-mml-node="mn"/><path stroke="none" d="M3774.6-220h700v-60h-700z"/></g><path stroke="none" d="M4900.8-237v-13l14-20h581q15 8 15 20t-15 20h-581q-14-7-14-20Z" data-c="2212" data-mml-node="mo"/><g data-mml-node="mfrac"><path stroke="none" d="m6250-1254-13 5q-14 5-40 10t-58 7h-19v-46h19q47-2 87-15t56-24 28-22q2-3 12-3 9 0 17 6v299l1 300q7 7 12 9t24 4 62 2h26v46h-11q-21-3-159-3-136 0-157 3h-12v-46h64q16 0 25-1t16-3 8-2 6-5 6-4z" data-c="31" data-mml-node="mn"/><path stroke="none" d="M6092 228q1-2 17-109l16-107q0-2 20-2h20v4q0 10 15 17t52 9 169 2h121v39l-68 93-30 40q-21 28-27 37t-21 32-20 36-14 37-13 46-8 54-6 68-3 82v28q0 14-1 24v9q-4 17-19 29t-34 12q-11 0-21-3t-21-19-11-40q0-158 97-328 20-32 84-121l46-63h-93q-174 0-183 6-6 3-11 24t-10 43l-3 21v3h-40z" data-c="37" data-mml-node="mn"/><path stroke="none" d="M5937-220h700v-60h-700z"/></g><path stroke="none" d="M7035.3-237v-13l14-20h299v-150l1-150q10-13 19-13 13 0 20 15v298h298q15 8 15 20t-15 20h-298V68q-8 14-18 14h-4q-12 0-18-14v-298h-299q-14-7-14-20Z" data-c="2B" data-mml-node="mo"/><g data-mml-node="mfrac"><path stroke="none" d="m8412.5-1254-13 5q-14 5-40 10t-58 7h-19v-46h19q47-2 87-15t56-24 28-22q2-3 12-3 9 0 17 6v299l1 300q7 7 12 9t24 4 62 2h26v46h-11q-21-3-159-3-136 0-157 3h-12v-46h64q16 0 25-1t16-3 8-2 6-5 6-4z" data-c="31" data-mml-node="mn"/><path stroke="none" d="M8254.5 228q1-2 17-109l16-107q0-2 20-2h20v4q0 10 15 17t52 9 169 2h121v39l-68 93-30 40q-21 28-27 37t-21 32-20 36-14 37-13 46-8 54-6 68-3 82v28q0 14-1 24v9q-4 17-19 29t-34 12q-11 0-21-3t-21-19-11-40q0-158 97-328 20-32 84-121l46-63h-93q-174 0-183 6-6 3-11 24t-10 43l-3 21v3h-40z" data-c="37" data-mml-node="mn"/><path stroke="none" d="M8099.5-220h700v-60h-700z"/></g><path stroke="none" d="M9225.7-237v-13l14-20h581q15 8 15 20t-15 20h-581q-14-7-14-20Z" data-c="2212" data-mml-node="mo"/><g data-mml-node="mfrac"><path stroke="none" d="m10824.9-1254-13 5q-14 5-40 10t-58 7h-19v-46h19q47-2 87-15t56-24 28-22q2-3 12-3 9 0 17 6v299l1 300q7 7 12 9t24 4 62 2h26v46h-11q-21-3-159-3-136 0-157 3h-12v-46h64q16 0 25-1t16-3 8-2 6-5 6-4z" data-c="31" data-mml-node="mn"/><g stroke="none" data-mml-node="mn"><path d="m10574.9 108-13 5q-14 5-40 10t-58 7h-19V84h19q47-2 87-15t56-24 28-22q2-3 12-3 9 0 17 6v299l1 300q7 7 12 9t24 4 62 2h26v46h-11q-21-3-159-3-136 0-157 3h-12v-46h64q16 0 25-1t16-3 8-2 6-5 6-4zM11074.9 108l-13 5q-14 5-40 10t-58 7h-19V84h19q47-2 87-15t56-24 28-22q2-3 12-3 9 0 17 6v299l1 300q7 7 12 9t24 4 62 2h26v46h-11q-21-3-159-3-136 0-157 3h-12v-46h64q16 0 25-1t16-3 8-2 6-5 6-4z" data-c="31"/></g><path stroke="none" d="M10261.9-220h1200v-60h-1200z"/></g><path stroke="none" d="M11860.2-237v-13l14-20h299v-150l1-150q10-13 19-13 13 0 20 15v298h298q15 8 15 20t-15 20h-298V68q-8 14-18 14h-4q-12 0-18-14v-298h-299q-14-7-14-20Z" data-c="2B" data-mml-node="mo"/><g data-mml-node="mfrac"><path stroke="none" d="m13487.4-1254-13 5q-14 5-40 10t-58 7h-19v-46h19q47-2 87-15t56-24 28-22q2-3 12-3 9 0 17 6v299l1 300q7 7 12 9t24 4 62 2h26v46h-11q-21-3-159-3-136 0-157 3h-12v-46h64q16 0 25-1t16-3 8-2 6-5 6-4z" data-c="31" data-mml-node="mn"/><g stroke="none" data-mml-node="mn"><path d="m13237.4 108-13 5q-14 5-40 10t-58 7h-19V84h19q47-2 87-15t56-24 28-22q2-3 12-3 9 0 17 6v299l1 300q7 7 12 9t24 4 62 2h26v46h-11q-21-3-159-3-136 0-157 3h-12v-46h64q16 0 25-1t16-3 8-2 6-5 6-4zM13737.4 108l-13 5q-14 5-40 10t-58 7h-19V84h19q47-2 87-15t56-24 28-22q2-3 12-3 9 0 17 6v299l1 300q7 7 12 9t24 4 62 2h26v46h-11q-21-3-159-3-136 0-157 3h-12v-46h64q16 0 25-1t16-3 8-2 6-5 6-4z" data-c="31"/></g><path stroke="none" d="M12924.4-220h1200v-60h-1200z"/></g><path stroke="none" d="M14550.6-237v-13l14-20h581q15 8 15 20t-15 20h-581q-14-7-14-20Z" data-c="2212" data-mml-node="mo"/><g data-mml-node="mfrac"><path stroke="none" d="m16149.8-1254-13 5q-14 5-40 10t-58 7h-19v-46h19q47-2 87-15t56-24 28-22q2-3 12-3 9 0 17 6v299l1 300q7 7 12 9t24 4 62 2h26v46h-11q-21-3-159-3-136 0-157 3h-12v-46h64q16 0 25-1t16-3 8-2 6-5 6-4z" data-c="31" data-mml-node="mn"/><g stroke="none" data-mml-node="mn"><path d="m15899.8 108-13 5q-14 5-40 10t-58 7h-19V84h19q47-2 87-15t56-24 28-22q2-3 12-3 9 0 17 6v299l1 300q7 7 12 9t24 4 62 2h26v46h-11q-21-3-159-3-136 0-157 3h-12v-46h64q16 0 25-1t16-3 8-2 6-5 6-4z" data-c="31"/><path d="M16350.8 529q0 24-16 40t-39 16h-7q46 79 122 79 70 0 102-60 19-33 19-128 0-103-27-139-26-33-58-33h-6q-78 0-118 68-4 7-7 8t-15 2q-17 0-19-6-2-4-2-175V72q0-50 5-50 2-2 4-2 1 0 21 8t55 16 75 8q71 0 136-28 8-4 13-4 8 0 8 18v13q-82 97-205 97-31 0-56-6l-10-2v172q19-14 30-22t36-16 51-8q81 0 137 65t56 154q0 92-64 157t-156 66q-81 0-130-54t-49-122q0-24 11-38t23-18 23-4q25 0 41 17t16 40" data-c="35"/></g><path stroke="none" d="M15586.8-220h1200v-60h-1200z"/></g><path stroke="none" d="M17185-237v-13l14-20h299v-150l1-150q10-13 19-13 13 0 20 15v298h298q15 8 15 20t-15 20h-298V68q-8 14-18 14h-4q-12 0-18-14v-298h-299q-14-7-14-20Z" data-c="2B" data-mml-node="mo"/><path stroke="none" d="M18207.3-60q0-24 17-42t43-18q24 0 42 16t19 43q0 25-17 43t-43 18-43-17-18-43m447 0q0-24 17-42t43-18q24 0 42 16t19 43q0 25-17 43t-43 18-43-17-18-43m447 0q0-24 17-42t43-18q24 0 42 16t19 43q0 25-17 43t-43 18-43-17-18-43" data-c="2026" data-mml-node="mo"/><path stroke="none" d="M19579.5-237v-13l14-20h299v-150l1-150q10-13 19-13 13 0 20 15v298h298q15 8 15 20t-15 20h-298V68q-8 14-18 14h-4q-12 0-18-14v-298h-299q-14-7-14-20Z" data-c="2B" data-mml-node="mo"/><g data-mml-node="mfrac"><path stroke="none" d="m21206.7-1254-13 5q-14 5-40 10t-58 7h-19v-46h19q47-2 87-15t56-24 28-22q2-3 12-3 9 0 17 6v299l1 300q7 7 12 9t24 4 62 2h26v46h-11q-21-3-159-3-136 0-157 3h-12v-46h64q16 0 25-1t16-3 8-2 6-5 6-4z" data-c="31" data-mml-node="mn"/><g stroke="none" data-mml-node="mn"><path d="M21095.7 399q-48 76-120 76-78 0-128-59t-60-126q-2-16-2-40v-8q0-93 69-162 60-60 132-60h6q4 0 8 1h4q12 0 25 2t37 12 47 32 43 59q43 88 43 226 0 140-60 237-35 56-84 87t-104 32q-61 0-100-29t-40-86 53-56q22 0 37 14t15 39q0 18-9 31t-16 16-13 5l-4 1q0 2 7 6t26 10 42 5h6q60 0 101-64 39-56 39-194zm-108 39q48 0 77-49t30-133q0-78-8-112-2-10-6-20t-14-26-30-27-47-10q-38 0-65 27-21 22-27 52t-7 105q0 83 5 112t20 47q25 34 72 34M21595.7 399q-48 76-120 76-78 0-128-59t-60-126q-2-16-2-40v-8q0-93 69-162 60-60 132-60h6q4 0 8 1h4q12 0 25 2t37 12 47 32 43 59q43 88 43 226 0 140-60 237-35 56-84 87t-104 32q-61 0-100-29t-40-86 53-56q22 0 37 14t15 39q0 18-9 31t-16 16-13 5l-4 1q0 2 7 6t26 10 42 5h6q60 0 101-64 39-56 39-194zm-108 39q48 0 77-49t30-133q0-78-8-112-2-10-6-20t-14-26-30-27-47-10q-38 0-65 27-21 22-27 52t-7 105q0 83 5 112t20 47q25 34 72 34" data-c="39"/></g><path stroke="none" d="M20643.7-220h1200v-60h-1200z"/></g><path stroke="none" d="M22269.9-237v-13l14-20h581q15 8 15 20t-15 20h-581q-14-7-14-20Z" data-c="2212" data-mml-node="mo"/><g data-mml-node="mfrac"><path stroke="none" d="m24119.2-1254-13 5q-14 5-40 10t-58 7h-19v-46h19q47-2 87-15t56-24 28-22q2-3 12-3 9 0 17 6v299l1 300q7 7 12 9t24 4 62 2h26v46h-11q-21-3-159-3-136 0-157 3h-12v-46h64q16 0 25-1t16-3 8-2 6-5 6-4z" data-c="31" data-mml-node="mn"/><g stroke="none" data-mml-node="mn"><path d="m23619.2 108-13 5q-14 5-40 10t-58 7h-19V84h19q47-2 87-15t56-24 28-22q2-3 12-3 9 0 17 6v299l1 300q7 7 12 9t24 4 62 2h26v46h-11q-21-3-159-3-136 0-157 3h-12v-46h64q16 0 25-1t16-3 8-2 6-5 6-4z" data-c="31"/><path d="M24002.2 101q56-81 153-81 48 0 96 26t78 92q37 83 37 228 0 155-43 237-20 42-55 67t-61 31-51 7q-26 0-52-6t-61-32-55-67q-43-82-43-237 0-174 57-265m225-12q-30-32-71-32-42 0-72 32-25 26-33 72t-8 192q0 158 8 208t36 79q28 30 69 30 40 0 68-30 29-30 36-84t8-203q0-145-8-191t-33-73" data-c="30"/><path d="M24533.2 223q-27 0-42-17t-16-44q0-55 48-98t116-43q35 0 44 1 74 12 113 53t40 89q0 52-34 101t-94 71l-3 2q0 1 9 3t29 9 38 21q82 53 82 140 0 79-62 138t-157 59q-80 0-138-43t-58-109q0-28 18-45t45-18q28 0 46 18t18 45q0 11-3 20t-7 16-11 12-12 8-10 4-8 3l-4 1q51 45 124 45 55 0 83-53 17-33 17-101v-20q0-95-64-127-15-6-61-7l-42-1-3-2q-2-3-2-16 0-18 8-18 28 0 58-5 34-5 62-42t28-112v-8q0-57-35-79-22-14-47-14-32 0-59 11t-38 23-11 12h3q3 1 8 2t10 5 12 7 10 11 8 15 3 20q0 22-14 39t-45 18" data-c="33"/></g><path stroke="none" d="M23306.2-220h1700v-60h-1700z"/></g><path stroke="none" d="M25160.2-1437.5q0-8 3-10t13-2h21q2 2 28 27t45 43 54 61 62 81 63 101 62 124 55 149 45 176 29 203 12 234q0 117-7 198-47 572-357 913-23 25-43 44t-33 32-15 13h-15q-13 0-17-2t-5-10q54-54 106-124 288-383 288-1064 0-202-26-377t-64-294-93-224-100-163-99-116l-4-4q-2-2-3-4t-3-3z" data-c="29" data-mml-node="mo"/></g></g></svg>