<svg xmlns="http://www.w3.org/2000/svg" width="40.102ex" height="19.583ex" style="vertical-align:-9.226ex" viewBox="0 -4577.8 17725 8655.5"><title>\begin{aligned} S &amp;= \sum_{k=1}^{n} \left( \frac{1}{7} + \frac{12}{49} \left( \frac{1}{7k-3} - \frac{1}{7k+4} \right) \right) \\ &amp;= \frac{n}{7} + \frac{12}{49} \sum_{k=1}^{n} \left( \frac{1}{7k-3} - \frac{1}{7k+4} \right) \\ &amp;= \frac{n}{7} + \frac{12}{49} \left( \frac{1}{4} - \frac{1}{7n+4} \right) \end{aligned}</title><g fill="currentColor" stroke="currentColor" stroke-width="0" data-mml-node="math"><g data-mml-node="mtable"><g data-mml-node="mtr"><g data-mml-node="mtd"><path stroke="none" d="M308-3039.2q59 0 108-52t50-121q0-63-52-87-106-27-136-37t-42-20q-60-42-60-121 0-61 32-111t65-75q29-25 70-40t64-16h18q96 0 139 64 1 0 13-13t26-29 20-22h4q3 0 5-1 13 0 13 7t-28 121-32 118-16 3q-20 0-20-9 0-6 1-10 0-3 1-19t2-26q0-34-9-59t-18-37-25-25q-36-21-82-21-57 0-106 46t-50 106q0 30 15 52t41 31q4 2 70 19t67 18q34 11 66 48t32 100q0 26-8 56-5 22-18 49t-36 59-66 60-94 38q-12 2-34 2-99 0-154-55l-10-11-28 31q-23 27-28 31t-13 4q-13 0-13-8 0-3 58-235 2-6 20-6h13q6 6 6 11 0 2-1 9t-4 21-2 33q2 39 18 66t43 40 52 18 53 5" data-c="1D446" data-mml-node="mi"/></g><g data-mml-node="mtd"><path stroke="none" d="M978.8-3362.2q0-13 14-20h637q15 8 15 20 0 11-14 19l-318 1h-318q-16-5-16-20m0 194q0-15 16-20h636q14 10 14 20 0 13-15 20h-637q-14-7-14-20" data-c="3D" data-mml-node="mo"/><g data-mml-node="munderover"><path stroke="none" d="M2038.6-3963.2q3-2 605-2h602l58 135q59 138 63 146h-40l-7-14q-21-41-56-78-50-48-111-77t-141-43-151-17-183-4h-448l8 11q463 633 465 639 1 2 0 6-3 3-264 302l-264 300q0 1 211 1h141q89 0 128 1 136 0 220-5t167-21 141-49 103-87q21-26 41-72h40q0 1-7 21t-25 65-31 84l-58 155-601 1q-602 0-605-2-6-2-6-9 0-2 2-6l533-610q0-1-33-45t-105-144-130-178l-266-365-1-15q0-21 5-24" data-c="2211" data-mml-node="mo"/><g data-mjx-texclass="ORD" data-mml-node="TeXAtom"><path stroke="none" d="M2150.147-2364.929q0-7.07 2.828-16.261t8.484-9.191q.707 0 50.904-3.535t51.611-4.242q8.484 0 8.484 5.656 0 4.949-35.35 147.763-35.35 139.986-35.35 144.935 13.433-7.07 20.503-13.433 16.968-12.726 48.783-44.541t49.49-43.127q28.28-19.089 53.732-19.089 21.21 0 33.229 13.433t12.726 38.178q0 17.675-4.949 29.694t-13.433 17.675-14.847 7.777-12.726 2.121q-14.14 0-22.624-7.777t-8.484-20.503q0-17.675 11.312-28.987t22.624-14.847l11.312-2.121q-8.484-8.484-16.968-8.484h-2.828q-22.624 2.121-44.541 17.675t-51.611 45.248-46.662 43.127q1.414.707 10.605 2.121t16.968 4.242 18.382 5.656 19.089 9.898 15.554 12.726 12.019 18.382 4.242 23.331q0 12.019-3.535 28.987t-4.242 28.28q0 28.28 19.089 28.28 33.936 0 55.146-84.133 1.414-5.656 14.14-5.656h2.828q11.312 0 11.312 6.363 0 3.535-2.121 9.898-28.987 99.687-83.426 99.687-31.815 0-51.611-18.382t-19.796-53.025q0-12.726 2.121-21.917t2.121-16.968q0-15.554-9.898-26.866t-24.745-16.261-24.038-7.777-12.726-2.121h-1.414q-8.484 29.694-14.847 57.267t-9.898 41.006-6.363 26.159-4.949 16.968-4.949 9.191-7.777 6.363q-9.191 6.363-19.796 6.363-12.019 0-18.382-7.07t-6.363-12.019q0-7.07 26.159-113.12t51.611-208.565l26.159-102.515q.707-9.191-4.949-11.312t-27.573-3.535h-12.726q-2.121 0-4.949-2.121t-2.121-4.949" data-c="1D458" data-mml-node="mi"/><path stroke="none" d="M2472.539-2152.829q0-9.191 9.898-14.14h450.359q10.605 5.656 10.605 14.14 0 7.777-9.898 13.433l-224.826.707h-224.826q-11.312-3.535-11.312-14.14m0 137.158q0-10.605 11.312-14.14h449.652q9.898 7.07 9.898 14.14 0 9.191-10.605 14.14h-450.359q-9.898-4.949-9.898-14.14" data-c="3D" data-mml-node="mo"/><path stroke="none" d="m3133.584-2316.146-9.191 3.535q-9.898 3.535-28.28 7.07t-41.006 4.949h-13.433v-32.522h13.433q33.229-1.414 61.509-10.605t39.592-16.968 19.796-15.554q1.414-2.121 8.484-2.121 6.363 0 12.019 4.242v211.393l.707 212.1q4.949 4.949 8.484 6.363t16.968 2.828 43.834 1.414h18.382v32.522h-7.777q-14.847-2.121-112.413-2.121-96.152 0-110.999 2.121h-8.484v-32.522h45.248q11.312 0 17.675-.707t11.312-2.121 5.656-1.414 4.242-3.535 4.242-2.828z" data-c="31" data-mml-node="mn"/></g><g data-mjx-texclass="ORD" data-mml-node="TeXAtom"><path stroke="none" d="M2503.347-4368.109q.707-4.242 2.121-11.312t8.484-26.866 14.14-33.229 23.331-26.159 32.522-12.019q25.452 0 42.42 12.726t21.21 24.038 4.242 14.847q0 1.414.707 1.414l7.777-7.777q43.127-45.248 98.273-45.248 38.178 0 61.509 19.089t24.038 55.853-26.866 110.999-26.866 89.789q0 18.382 12.019 18.382 4.242 0 6.363-.707 20.503-3.535 36.764-26.866t24.745-56.56q1.414-5.656 14.14-5.656 14.14 0 14.14 5.656 0 .707-2.828 10.605-5.656 20.503-15.554 40.299t-32.522 39.592-48.783 19.089q-33.229 0-48.076-19.089t-14.847-39.592q0-13.433 25.452-84.84t26.159-107.464q0-41.713-31.108-41.713h-3.535q-60.802 0-102.515 71.407l-4.949 8.484-23.331 94.738q-23.331 92.617-26.866 99.687-9.191 19.089-30.401 19.089-9.191 0-14.847-4.242t-7.777-8.484-1.414-7.07q0-9.191 26.866-115.241t28.28-115.241q.707-3.535.707-16.261 0-27.573-16.968-27.573-26.866 0-44.541 70.7-4.242 14.14-4.242 14.847-1.414 4.242-13.433 4.242h-9.898q-4.242-4.242-4.242-6.363" data-c="1D45B" data-mml-node="mi"/></g></g><g data-mml-node="mrow"><path stroke="none" d="M4290.2-2074.7q0 3-6 9h-31q-2-2-28-27t-45-43-54-61-62-81-63-101-62-125-55-149-45-176-29-203-12-234q0-711 364-1110 23-25 43-44t33-32 15-13h31q6 6 6 9 0 5-20 26t-52 59-72 95-81 143-76 191-60 252-32 316q-2 38-2 109 0 389 94 680t290 494q11 12 11 16" data-c="28" data-mml-node="mo"/><g data-mml-node="mfrac"><path stroke="none" d="m4758.2-4269.2-13 5q-14 5-40 10t-58 7h-19v-46h19q47-2 87-15t56-24 28-22q2-3 12-3 9 0 17 6v299l1 300q7 7 12 9t24 4 62 2h26v46h-11q-21-3-159-3-136 0-157 3h-12v-46h64q16 0 25-1t16-3 8-2 6-5 6-4z" data-c="31" data-mml-node="mn"/><path stroke="none" d="M4600.2-2787.2q1-2 17-109l16-107q0-2 20-2h20v4q0 10 15 17t52 9 169 2h121v39l-68 93-30 40q-21 28-27 37t-21 32-20 36-14 37-13 46-8 54-6 68-3 82v28q0 14-1 24v9q-4 17-19 29t-34 12q-11 0-21-3t-21-19-11-40q0-158 97-328 20-32 84-121l46-63h-93q-174 0-183 6-6 3-11 24t-10 43l-3 21v3h-40z" data-c="37" data-mml-node="mn"/><path stroke="none" d="M4445.2-3235.2h700v-60h-700z"/></g><path stroke="none" d="M5543.4-3252.2v-13l14-20h299v-150l1-150q10-13 19-13 13 0 20 15v298h298q15 8 15 20t-15 20h-298v298q-8 14-18 14h-4q-12 0-18-14v-298h-299q-14-7-14-20Z" data-c="2B" data-mml-node="mo"/><g stroke="none" data-mml-node="mfrac"><g data-mml-node="mn"><path d="m6920.6-4269.2-13 5q-14 5-40 10t-58 7h-19v-46h19q47-2 87-15t56-24 28-22q2-3 12-3 9 0 17 6v299l1 300q7 7 12 9t24 4 62 2h26v46h-11q-21-3-159-3-136 0-157 3h-12v-46h64q16 0 25-1t16-3 8-2 6-5 6-4z" data-c="31"/><path d="M7316.6-4120.2q-27 0-43-18t-16-44q0-71 53-123t132-52q91 0 152 56t62 145q0 43-20 82t-48 68-80 74q-36 31-100 92l-59 56 76 1q157 0 167-5 7-2 24-89v-3h40v3q-1 3-13 91t-15 92v3h-371v-31q0-7 6-15t30-35q29-32 50-56 9-10 34-37t34-37 29-33 28-34 23-30 21-32 15-29 13-32 7-30 3-33q0-63-34-109t-97-46q-33 0-58 17t-35 33-10 19q0 1 5 1 18 0 37 14t19 46q0 25-16 42t-45 18" data-c="32"/></g><g data-mml-node="mn"><path d="M7169.6-2329.2q-18-3-129-3-116 0-134 3h-9v-46h58q7 0 17-2t14-5 7-8q1-2 1-54v-50h-259v-46l151-231q153-232 155-233 2-2 21-2h18l6 6v460h92v46h-92v99q0 7 6 12 8 7 57 8h29v46zm-169-211v-334l-219 333 109 1z" data-c="34"/><path d="M7559.6-2616.2q-48 76-120 76-78 0-128-59t-60-126q-2-16-2-40v-8q0-93 69-162 60-60 132-60h6q4 0 8 1h4q12 0 25 2t37 12 47 32 43 59q43 88 43 226 0 140-60 237-35 56-84 87t-104 32q-61 0-100-29t-40-86 53-56q22 0 37 14t15 39q0 18-9 31t-16 16-13 5l-4 1q0 2 7 6t26 10 42 5h6q60 0 101-64 39-56 39-194zm-108 39q48 0 77-49t30-133q0-78-8-112-2-10-6-20t-14-26-30-27-47-10q-38 0-65 27-21 22-27 52t-7 105q0 83 5 112t20 47q25 34 72 34" data-c="39"/></g><path d="M6607.6-3235.2h1200v-60h-1200z"/></g><g data-mml-node="mrow"><path stroke="none" d="M8628.6-2074.7q0 3-6 9h-31q-2-2-28-27t-45-43-54-61-62-81-63-101-62-125-55-149-45-176-29-203-12-234q0-711 364-1110 23-25 43-44t33-32 15-13h31q6 6 6 9 0 5-20 26t-52 59-72 95-81 143-76 191-60 252-32 316q-2 38-2 109 0 389 94 680t290 494q11 12 11 16" data-c="28" data-mml-node="mo"/><g data-mml-node="mfrac"><path stroke="none" d="m10218.3-4269.2-13 5q-14 5-40 10t-58 7h-19v-46h19q47-2 87-15t56-24 28-22q2-3 12-3 9 0 17 6v299l1 300q7 7 12 9t24 4 62 2h26v46h-11q-21-3-159-3-136 0-157 3h-12v-46h64q16 0 25-1t16-3 8-2 6-5 6-4z" data-c="31" data-mml-node="mn"/><g data-mml-node="mrow"><path stroke="none" d="M8938.6-2787.2q1-2 17-109l16-107q0-2 20-2h20v4q0 10 15 17t52 9 169 2h121v39l-68 93-30 40q-21 28-27 37t-21 32-20 36-14 37-13 46-8 54-6 68-3 82v28q0 14-1 24v9q-4 17-19 29t-34 12q-11 0-21-3t-21-19-11-40q0-158 97-328 20-32 84-121l46-63h-93q-174 0-183 6-6 3-11 24t-10 43l-3 21v3h-40z" data-c="37" data-mml-node="mn"/><path stroke="none" d="M9504.6-2976.2q0-10 4-23t12-13q1 0 72-5t73-6q12 0 12 8 0 7-50 209-50 198-50 205 19-10 29-19 24-18 69-63t70-61q40-27 76-27 30 0 47 19t18 54q0 25-7 42t-19 25-21 11-18 3q-20 0-32-11t-12-29q0-25 16-41t32-21l16-3q-12-12-24-12h-4q-32 3-63 25t-73 64-66 61q2 1 15 3t24 6 26 8 27 14 22 18 17 26 6 33q0 17-5 41t-6 40q0 40 27 40 48 0 78-119 2-8 20-8h4q16 0 16 9 0 5-3 14-41 141-118 141-45 0-73-26t-28-75q0-18 3-31t3-24q0-22-14-38t-35-23-34-11-18-3h-2q-12 42-21 81t-14 58-9 37-7 24-7 13-11 9q-13 9-28 9-17 0-26-10t-9-17q0-10 37-160t73-295l37-145q1-13-7-16t-39-5h-18q-3 0-7-3t-3-7" data-c="1D458" data-mml-node="mi"/><path stroke="none" d="M10210.8-2566.2v-13l14-20h581q15 8 15 20t-15 20h-581q-14-7-14-20Z" data-c="2212" data-mml-node="mo"/><path stroke="none" d="M11254-2792.2q-27 0-42-17t-16-44q0-55 48-98t116-43q35 0 44 1 74 12 113 53t40 89q0 52-34 101t-94 71l-3 2q0 1 9 3t29 9 38 21q82 53 82 140 0 79-62 138t-157 59q-80 0-138-43t-58-109q0-28 18-45t45-18q28 0 46 18t18 45q0 11-3 20t-7 16-11 12-12 8-10 4-8 3l-4 1q51 45 124 45 55 0 83-53 17-33 17-101v-20q0-95-64-127-15-6-61-7l-42-1-3-2q-2-3-2-16 0-18 8-18 28 0 58-5 34-5 62-42t28-112v-8q0-57-35-79-22-14-47-14-32 0-59 11t-38 23-11 12h3q3 1 8 2t10 5 12 7 10 11 8 15 3 20q0 22-14 39t-45 18" data-c="33" data-mml-node="mn"/></g><path stroke="none" d="M8783.6-3235.2H11727v-60H8783.6z"/></g><path stroke="none" d="M12153.3-3252.2v-13l14-20h581q15 8 15 20t-15 20h-581q-14-7-14-20Z" data-c="2212" data-mml-node="mo"/><g data-mml-node="mfrac"><path stroke="none" d="m14624.2-4269.2-13 5q-14 5-40 10t-58 7h-19v-46h19q47-2 87-15t56-24 28-22q2-3 12-3 9 0 17 6v299l1 300q7 7 12 9t24 4 62 2h26v46h-11q-21-3-159-3-136 0-157 3h-12v-46h64q16 0 25-1t16-3 8-2 6-5 6-4z" data-c="31" data-mml-node="mn"/><g data-mml-node="mrow"><path stroke="none" d="M13344.5-2787.2q1-2 17-109l16-107q0-2 20-2h20v4q0 10 15 17t52 9 169 2h121v39l-68 93-30 40q-21 28-27 37t-21 32-20 36-14 37-13 46-8 54-6 68-3 82v28q0 14-1 24v9q-4 17-19 29t-34 12q-11 0-21-3t-21-19-11-40q0-158 97-328 20-32 84-121l46-63h-93q-174 0-183 6-6 3-11 24t-10 43l-3 21v3h-40z" data-c="37" data-mml-node="mn"/><path stroke="none" d="M13910.5-2976.2q0-10 4-23t12-13q1 0 72-5t73-6q12 0 12 8 0 7-50 209-50 198-50 205 19-10 29-19 24-18 69-63t70-61q40-27 76-27 30 0 47 19t18 54q0 25-7 42t-19 25-21 11-18 3q-20 0-32-11t-12-29q0-25 16-41t32-21l16-3q-12-12-24-12h-4q-32 3-63 25t-73 64-66 61q2 1 15 3t24 6 26 8 27 14 22 18 17 26 6 33q0 17-5 41t-6 40q0 40 27 40 48 0 78-119 2-8 20-8h4q16 0 16 9 0 5-3 14-41 141-118 141-45 0-73-26t-28-75q0-18 3-31t3-24q0-22-14-38t-35-23-34-11-18-3h-2q-12 42-21 81t-14 58-9 37-7 24-7 13-11 9q-13 9-28 9-17 0-26-10t-9-17q0-10 37-160t73-295l37-145q1-13-7-16t-39-5h-18q-3 0-7-3t-3-7" data-c="1D458" data-mml-node="mi"/><path stroke="none" d="M14588.7-2566.2v-13l14-20h299v-150l1-150q10-13 19-13 13 0 20 15v298h298q15 8 15 20t-15 20h-298v298q-8 14-18 14h-4q-12 0-18-14v-298h-299q-14-7-14-20Z" data-c="2B" data-mml-node="mo"/><path stroke="none" d="M15994.9-2329.2q-18-3-129-3-116 0-134 3h-9v-46h58q7 0 17-2t14-5 7-8q1-2 1-54v-50h-259v-46l151-231q153-232 155-233 2-2 21-2h18l6 6v460h92v46h-92v99q0 7 6 12 8 7 57 8h29v46zm-169-211v-334l-219 333 109 1z" data-c="34" data-mml-node="mn"/></g><path stroke="none" d="M13189.5-3235.2h2943.4v-60h-2943.4z"/></g><path stroke="none" d="M16286.9-4452.7q0-8 3-10t13-2h21q2 2 28 27t45 43 54 61 62 81 63 101 62 124 55 149 45 176 29 203 12 234q0 117-7 198-47 572-357 913-23 25-43 44t-33 32-15 13h-15q-13 0-17-2t-5-10q54-54 106-124 288-383 288-1064 0-202-26-377t-64-294-93-224-100-163-99-116l-4-4q-2-2-3-4t-3-3z" data-c="29" data-mml-node="mo"/></g><path stroke="none" d="M17023-4452.7q0-8 3-10t13-2h21q2 2 28 27t45 43 54 61 62 81 63 101 62 124 55 149 45 176 29 203 12 234q0 117-7 198-47 572-357 913-23 25-43 44t-33 32-15 13h-15q-13 0-17-2t-5-10q54-54 106-124 288-383 288-1064 0-202-26-377t-64-294-93-224-100-163-99-116l-4-4q-2-2-3-4t-3-3z" data-c="29" data-mml-node="mo"/></g></g></g><g data-mml-node="mtr"><g data-mml-node="mtd"><path stroke="none" d="M978.8-234q0-13 14-20h637q15 8 15 20 0 11-14 19l-318 1h-318q-16-5-16-20m0 194q0-15 16-20h636q14 10 14 20 0 13-15 20h-637q-14-7-14-20" data-c="3D" data-mml-node="mo"/><g data-mml-node="mfrac"><path stroke="none" d="M2219.6-850q1-6 3-16t12-38 20-47 33-37 46-17q36 0 60 18t30 34 6 21q0 2 1 2l11-11q61-64 139-64 54 0 87 27t34 79-38 157-38 127q0 26 17 26 6 0 9-1 29-5 52-38t35-80q2-8 20-8 20 0 20 8 0 1-4 15-8 29-22 57t-46 56-69 27q-47 0-68-27t-21-56q0-19 36-120t37-152q0-59-44-59h-5q-86 0-145 101l-7 12-33 134q-33 131-38 141-13 27-43 27-13 0-21-6t-11-12-2-10q0-13 38-163t40-163q1-5 1-23 0-39-24-39-38 0-63 100-6 20-6 21-2 6-19 6h-14q-6-6-6-9" data-c="1D45B" data-mml-node="mi"/><path stroke="none" d="M2303.6 341q1-2 17-109l16-107q0-2 20-2h20v4q0 10 15 17t52 9 169 2h121v39l-68 93-30 40q-21 28-27 37t-21 32-20 36-14 37-13 46-8 54-6 68-3 82v28q0 14-1 24v9q-4 17-19 29t-34 12q-11 0-21-3t-21-19-11-40q0-158 97-328 20-32 84-121l46-63h-93q-174 0-183 6-6 3-11 24t-10 43l-3 21v3h-40z" data-c="37" data-mml-node="mn"/><path stroke="none" d="M2098.6-107h800v-60h-800z"/></g><path stroke="none" d="M3296.8-124v-13l14-20h299v-150l1-150q10-13 19-13 13 0 20 15v298h298q15 8 15 20t-15 20h-298v298q-8 14-18 14h-4q-12 0-18-14v-298h-299q-14-7-14-20Z" data-c="2B" data-mml-node="mo"/><g stroke="none" data-mml-node="mfrac"><g data-mml-node="mn"><path d="m4674-1141-13 5q-14 5-40 10t-58 7h-19v-46h19q47-2 87-15t56-24 28-22q2-3 12-3 9 0 17 6v299l1 300q7 7 12 9t24 4 62 2h26v46h-11q-21-3-159-3-136 0-157 3h-12v-46h64q16 0 25-1t16-3 8-2 6-5 6-4z" data-c="31"/><path d="M5070-992q-27 0-43-18t-16-44q0-71 53-123t132-52q91 0 152 56t62 145q0 43-20 82t-48 68-80 74q-36 31-100 92l-59 56 76 1q157 0 167-5 7-2 24-89v-3h40v3q-1 3-13 91t-15 92v3h-371v-31q0-7 6-15t30-35q29-32 50-56 9-10 34-37t34-37 29-33 28-34 23-30 21-32 15-29 13-32 7-30 3-33q0-63-34-109t-97-46q-33 0-58 17t-35 33-10 19q0 1 5 1 18 0 37 14t19 46q0 25-16 42t-45 18" data-c="32"/></g><g data-mml-node="mn"><path d="M4923 799q-18-3-129-3-116 0-134 3h-9v-46h58q7 0 17-2t14-5 7-8q1-2 1-54v-50h-259v-46l151-231q153-232 155-233 2-2 21-2h18l6 6v460h92v46h-92v99q0 7 6 12 8 7 57 8h29v46zm-169-211V254l-219 333 109 1z" data-c="34"/><path d="M5313 512q-48 76-120 76-78 0-128-59t-60-126q-2-16-2-40v-8q0-93 69-162 60-60 132-60h6q4 0 8 1h4q12 0 25 2t37 12 47 32 43 59q43 88 43 226 0 140-60 237-35 56-84 87t-104 32q-61 0-100-29t-40-86 53-56q22 0 37 14t15 39q0 18-9 31t-16 16-13 5l-4 1q0 2 7 6t26 10 42 5h6q60 0 101-64 39-56 39-194zm-108 39q48 0 77-49t30-133q0-78-8-112-2-10-6-20t-14-26-30-27-47-10q-38 0-65 27-21 22-27 52t-7 105q0 83 5 112t20 47q25 34 72 34" data-c="39"/></g><path d="M4361-107h1200v-60H4361z"/></g><g data-mml-node="munderover"><path stroke="none" d="M5907.7-835q3-2 605-2h602l58 135q59 138 63 146h-40l-7-14q-21-41-56-78-50-48-111-77t-141-43-151-17-183-4h-448l8 11q463 633 465 639 1 2 0 6-3 3-264 302l-264 300q0 1 211 1h141q89 0 128 1 136 0 220-5t167-21 141-49 103-87q21-26 41-72h40q0 1-7 21t-25 65-31 84l-58 155-601 1q-602 0-605-2-6-2-6-9 0-2 2-6l533-610q0-1-33-45t-105-144-130-178l-266-365-1-15q0-21 5-24" data-c="2211" data-mml-node="mo"/><g data-mjx-texclass="ORD" data-mml-node="TeXAtom"><path stroke="none" d="M6019.247 763.271q0-7.07 2.828-16.261t8.484-9.191q.707 0 50.904-3.535t51.611-4.242q8.484 0 8.484 5.656 0 4.949-35.35 147.763-35.35 139.986-35.35 144.935 13.433-7.07 20.503-13.433 16.968-12.726 48.783-44.541t49.49-43.127q28.28-19.089 53.732-19.089 21.21 0 33.229 13.433t12.726 38.178q0 17.675-4.949 29.694t-13.433 17.675-14.847 7.777-12.726 2.121q-14.14 0-22.624-7.777t-8.484-20.503q0-17.675 11.312-28.987t22.624-14.847l11.312-2.121q-8.484-8.484-16.968-8.484h-2.828q-22.624 2.121-44.541 17.675t-51.611 45.248-46.662 43.127q1.414.707 10.605 2.121t16.968 4.242 18.382 5.656 19.089 9.898 15.554 12.726 12.019 18.382 4.242 23.331q0 12.019-3.535 28.987t-4.242 28.28q0 28.28 19.089 28.28 33.936 0 55.146-84.133 1.414-5.656 14.14-5.656h2.828q11.312 0 11.312 6.363 0 3.535-2.121 9.898-28.987 99.687-83.426 99.687-31.815 0-51.611-18.382t-19.796-53.025q0-12.726 2.121-21.917t2.121-16.968q0-15.554-9.898-26.866t-24.745-16.261-24.038-7.777-12.726-2.121h-1.414q-8.484 29.694-14.847 57.267t-9.898 41.006-6.363 26.159-4.949 16.968-4.949 9.191-7.777 6.363q-9.191 6.363-19.796 6.363-12.019 0-18.382-7.07t-6.363-12.019q0-7.07 26.159-113.12t51.611-208.565l26.159-102.515q.707-9.191-4.949-11.312t-27.573-3.535h-12.726q-2.121 0-4.949-2.121t-2.121-4.949" data-c="1D458" data-mml-node="mi"/><path stroke="none" d="M6341.639 975.371q0-9.191 9.898-14.14h450.359q10.605 5.656 10.605 14.14 0 7.777-9.898 13.433l-224.826.707h-224.826q-11.312-3.535-11.312-14.14m0 137.158q0-10.605 11.312-14.14h449.652q9.898 7.07 9.898 14.14 0 9.191-10.605 14.14h-450.359q-9.898-4.949-9.898-14.14" data-c="3D" data-mml-node="mo"/><path stroke="none" d="m7002.684 812.054-9.191 3.535q-9.898 3.535-28.28 7.07t-41.006 4.949h-13.433v-32.522h13.433q33.229-1.414 61.509-10.605t39.592-16.968 19.796-15.554q1.414-2.121 8.484-2.121 6.363 0 12.019 4.242v211.393l.707 212.1q4.949 4.949 8.484 6.363t16.968 2.828 43.834 1.414h18.382v32.522h-7.777q-14.847-2.121-112.413-2.121-96.152 0-110.999 2.121h-8.484v-32.522h45.248q11.312 0 17.675-.707t11.312-2.121 5.656-1.414 4.242-3.535 4.242-2.828z" data-c="31" data-mml-node="mn"/></g><g data-mjx-texclass="ORD" data-mml-node="TeXAtom"><path stroke="none" d="M6372.447-1239.909q.707-4.242 2.121-11.312t8.484-26.866 14.14-33.229 23.331-26.159 32.522-12.019q25.452 0 42.42 12.726t21.21 24.038 4.242 14.847q0 1.414.707 1.414l7.777-7.777q43.127-45.248 98.273-45.248 38.178 0 61.509 19.089t24.038 55.853-26.866 110.999-26.866 89.789q0 18.382 12.019 18.382 4.242 0 6.363-.707 20.503-3.535 36.764-26.866t24.745-56.56q1.414-5.656 14.14-5.656 14.14 0 14.14 5.656 0 .707-2.828 10.605-5.656 20.503-15.554 40.299t-32.522 39.592-48.783 19.089q-33.229 0-48.076-19.089t-14.847-39.592q0-13.433 25.452-84.84t26.159-107.464q0-41.713-31.108-41.713h-3.535q-60.802 0-102.515 71.407l-4.949 8.484-23.331 94.738q-23.331 92.617-26.866 99.687-9.191 19.089-30.401 19.089-9.191 0-14.847-4.242t-7.777-8.484-1.414-7.07q0-9.191 26.866-115.241t28.28-115.241q.707-3.535.707-16.261 0-27.573-16.968-27.573-26.866 0-44.541 70.7-4.242 14.14-4.242 14.847-1.414 4.242-13.433 4.242h-9.898q-4.242-4.242-4.242-6.363" data-c="1D45B" data-mml-node="mi"/></g></g><g data-mml-node="mrow"><path stroke="none" d="M8159.3 1053.5q0 3-6 9h-31q-2-2-28-27t-45-43-54-61-62-81-63-101-62-125-55-149-45-176-29-203-12-234q0-711 364-1110 23-25 43-44t33-32 15-13h31q6 6 6 9 0 5-20 26t-52 59-72 95-81 143-76 191-60 252-32 316q-2 38-2 109 0 389 94 680t290 494q11 12 11 16" data-c="28" data-mml-node="mo"/><g data-mml-node="mfrac"><path stroke="none" d="m9749-1141-13 5q-14 5-40 10t-58 7h-19v-46h19q47-2 87-15t56-24 28-22q2-3 12-3 9 0 17 6v299l1 300q7 7 12 9t24 4 62 2h26v46h-11q-21-3-159-3-136 0-157 3h-12v-46h64q16 0 25-1t16-3 8-2 6-5 6-4z" data-c="31" data-mml-node="mn"/><g data-mml-node="mrow"><path stroke="none" d="M8469.3 341q1-2 17-109l16-107q0-2 20-2h20v4q0 10 15 17t52 9 169 2h121v39l-68 93-30 40q-21 28-27 37t-21 32-20 36-14 37-13 46-8 54-6 68-3 82v28q0 14-1 24v9q-4 17-19 29t-34 12q-11 0-21-3t-21-19-11-40q0-158 97-328 20-32 84-121l46-63h-93q-174 0-183 6-6 3-11 24t-10 43l-3 21v3h-40z" data-c="37" data-mml-node="mn"/><path stroke="none" d="M9035.3 152q0-10 4-23t12-13q1 0 72-5t73-6q12 0 12 8 0 7-50 209-50 198-50 205 19-10 29-19 24-18 69-63t70-61q40-27 76-27 30 0 47 19t18 54q0 25-7 42t-19 25-21 11-18 3q-20 0-32-11t-12-29q0-25 16-41t32-21l16-3q-12-12-24-12h-4q-32 3-63 25t-73 64-66 61q2 1 15 3t24 6 26 8 27 14 22 18 17 26 6 33q0 17-5 41t-6 40q0 40 27 40 48 0 78-119 2-8 20-8h4q16 0 16 9 0 5-3 14-41 141-118 141-45 0-73-26t-28-75q0-18 3-31t3-24q0-22-14-38t-35-23-34-11-18-3h-2q-12 42-21 81t-14 58-9 37-7 24-7 13-11 9q-13 9-28 9-17 0-26-10t-9-17q0-10 37-160t73-295l37-145q1-13-7-16t-39-5h-18q-3 0-7-3t-3-7" data-c="1D458" data-mml-node="mi"/><path stroke="none" d="M9741.5 562v-13l14-20h581q15 8 15 20t-15 20h-581q-14-7-14-20Z" data-c="2212" data-mml-node="mo"/><path stroke="none" d="M10784.7 336q-27 0-42-17t-16-44q0-55 48-98t116-43q35 0 44 1 74 12 113 53t40 89q0 52-34 101t-94 71l-3 2q0 1 9 3t29 9 38 21q82 53 82 140 0 79-62 138t-157 59q-80 0-138-43t-58-109q0-28 18-45t45-18q28 0 46 18t18 45q0 11-3 20t-7 16-11 12-12 8-10 4-8 3l-4 1q51 45 124 45 55 0 83-53 17-33 17-101v-20q0-95-64-127-15-6-61-7l-42-1-3-2q-2-3-2-16 0-18 8-18 28 0 58-5 34-5 62-42t28-112v-8q0-57-35-79-22-14-47-14-32 0-59 11t-38 23-11 12h3q3 1 8 2t10 5 12 7 10 11 8 15 3 20q0 22-14 39t-45 18" data-c="33" data-mml-node="mn"/></g><path stroke="none" d="M8314.3-107h2943.4v-60H8314.3z"/></g><path stroke="none" d="M11684-124v-13l14-20h581q15 8 15 20t-15 20h-581q-14-7-14-20Z" data-c="2212" data-mml-node="mo"/><g data-mml-node="mfrac"><path stroke="none" d="m14154.9-1141-13 5q-14 5-40 10t-58 7h-19v-46h19q47-2 87-15t56-24 28-22q2-3 12-3 9 0 17 6v299l1 300q7 7 12 9t24 4 62 2h26v46h-11q-21-3-159-3-136 0-157 3h-12v-46h64q16 0 25-1t16-3 8-2 6-5 6-4z" data-c="31" data-mml-node="mn"/><g data-mml-node="mrow"><path stroke="none" d="M12875.2 341q1-2 17-109l16-107q0-2 20-2h20v4q0 10 15 17t52 9 169 2h121v39l-68 93-30 40q-21 28-27 37t-21 32-20 36-14 37-13 46-8 54-6 68-3 82v28q0 14-1 24v9q-4 17-19 29t-34 12q-11 0-21-3t-21-19-11-40q0-158 97-328 20-32 84-121l46-63h-93q-174 0-183 6-6 3-11 24t-10 43l-3 21v3h-40z" data-c="37" data-mml-node="mn"/><path stroke="none" d="M13441.2 152q0-10 4-23t12-13q1 0 72-5t73-6q12 0 12 8 0 7-50 209-50 198-50 205 19-10 29-19 24-18 69-63t70-61q40-27 76-27 30 0 47 19t18 54q0 25-7 42t-19 25-21 11-18 3q-20 0-32-11t-12-29q0-25 16-41t32-21l16-3q-12-12-24-12h-4q-32 3-63 25t-73 64-66 61q2 1 15 3t24 6 26 8 27 14 22 18 17 26 6 33q0 17-5 41t-6 40q0 40 27 40 48 0 78-119 2-8 20-8h4q16 0 16 9 0 5-3 14-41 141-118 141-45 0-73-26t-28-75q0-18 3-31t3-24q0-22-14-38t-35-23-34-11-18-3h-2q-12 42-21 81t-14 58-9 37-7 24-7 13-11 9q-13 9-28 9-17 0-26-10t-9-17q0-10 37-160t73-295l37-145q1-13-7-16t-39-5h-18q-3 0-7-3t-3-7" data-c="1D458" data-mml-node="mi"/><path stroke="none" d="M14119.4 562v-13l14-20h299V379l1-150q10-13 19-13 13 0 20 15v298h298q15 8 15 20t-15 20h-298v298q-8 14-18 14h-4q-12 0-18-14V569h-299q-14-7-14-20Z" data-c="2B" data-mml-node="mo"/><path stroke="none" d="M15525.6 799q-18-3-129-3-116 0-134 3h-9v-46h58q7 0 17-2t14-5 7-8q1-2 1-54v-50h-259v-46l151-231q153-232 155-233 2-2 21-2h18l6 6v460h92v46h-92v99q0 7 6 12 8 7 57 8h29v46zm-169-211V254l-219 333 109 1z" data-c="34" data-mml-node="mn"/></g><path stroke="none" d="M12720.2-107h2943.4v-60h-2943.4z"/></g><path stroke="none" d="M15817.6-1324.5q0-8 3-10t13-2h21q2 2 28 27t45 43 54 61 62 81 63 101 62 124 55 149 45 176 29 203 12 234q0 117-7 198-47 572-357 913-23 25-43 44t-33 32-15 13h-15q-13 0-17-2t-5-10q54-54 106-124 288-383 288-1064 0-202-26-377t-64-294-93-224-100-163-99-116l-4-4q-2-2-3-4t-3-3z" data-c="29" data-mml-node="mo"/></g></g></g><g data-mml-node="mtr"><g data-mml-node="mtd"><path stroke="none" d="M978.8 2781.3q0-13 14-20h637q15 8 15 20 0 11-14 19l-318 1h-318q-16-5-16-20m0 194q0-15 16-20h636q14 10 14 20 0 13-15 20h-637q-14-7-14-20" data-c="3D" data-mml-node="mo"/><g data-mml-node="mfrac"><path stroke="none" d="M2219.6 2165.3q1-6 3-16t12-38 20-47 33-37 46-17q36 0 60 18t30 34 6 21q0 2 1 2l11-11q61-64 139-64 54 0 87 27t34 79-38 157-38 127q0 26 17 26 6 0 9-1 29-5 52-38t35-80q2-8 20-8 20 0 20 8 0 1-4 15-8 29-22 57t-46 56-69 27q-47 0-68-27t-21-56q0-19 36-120t37-152q0-59-44-59h-5q-86 0-145 101l-7 12-33 134q-33 131-38 141-13 27-43 27-13 0-21-6t-11-12-2-10q0-13 38-163t40-163q1-5 1-23 0-39-24-39-38 0-63 100-6 20-6 21-2 6-19 6h-14q-6-6-6-9" data-c="1D45B" data-mml-node="mi"/><path stroke="none" d="M2303.6 3356.3q1-2 17-109l16-107q0-2 20-2h20v4q0 10 15 17t52 9 169 2h121v39l-68 93-30 40q-21 28-27 37t-21 32-20 36-14 37-13 46-8 54-6 68-3 82v28q0 14-1 24v9q-4 17-19 29t-34 12q-11 0-21-3t-21-19-11-40q0-158 97-328 20-32 84-121l46-63h-93q-174 0-183 6-6 3-11 24t-10 43l-3 21v3h-40z" data-c="37" data-mml-node="mn"/><path stroke="none" d="M2098.6 2908.3h800v-60h-800z"/></g><path stroke="none" d="M3296.8 2891.3v-13l14-20h299v-150l1-150q10-13 19-13 13 0 20 15v298h298q15 8 15 20t-15 20h-298v298q-8 14-18 14h-4q-12 0-18-14v-298h-299q-14-7-14-20Z" data-c="2B" data-mml-node="mo"/><g stroke="none" data-mml-node="mfrac"><g data-mml-node="mn"><path d="m4674 1874.3-13 5q-14 5-40 10t-58 7h-19v-46h19q47-2 87-15t56-24 28-22q2-3 12-3 9 0 17 6v299l1 300q7 7 12 9t24 4 62 2h26v46h-11q-21-3-159-3-136 0-157 3h-12v-46h64q16 0 25-1t16-3 8-2 6-5 6-4z" data-c="31"/><path d="M5070 2023.3q-27 0-43-18t-16-44q0-71 53-123t132-52q91 0 152 56t62 145q0 43-20 82t-48 68-80 74q-36 31-100 92l-59 56 76 1q157 0 167-5 7-2 24-89v-3h40v3q-1 3-13 91t-15 92v3h-371v-31q0-7 6-15t30-35q29-32 50-56 9-10 34-37t34-37 29-33 28-34 23-30 21-32 15-29 13-32 7-30 3-33q0-63-34-109t-97-46q-33 0-58 17t-35 33-10 19q0 1 5 1 18 0 37 14t19 46q0 25-16 42t-45 18" data-c="32"/></g><g data-mml-node="mn"><path d="M4923 3814.3q-18-3-129-3-116 0-134 3h-9v-46h58q7 0 17-2t14-5 7-8q1-2 1-54v-50h-259v-46l151-231q153-232 155-233 2-2 21-2h18l6 6v460h92v46h-92v99q0 7 6 12 8 7 57 8h29v46zm-169-211v-334l-219 333 109 1z" data-c="34"/><path d="M5313 3527.3q-48 76-120 76-78 0-128-59t-60-126q-2-16-2-40v-8q0-93 69-162 60-60 132-60h6q4 0 8 1h4q12 0 25 2t37 12 47 32 43 59q43 88 43 226 0 140-60 237-35 56-84 87t-104 32q-61 0-100-29t-40-86 53-56q22 0 37 14t15 39q0 18-9 31t-16 16-13 5l-4 1q0 2 7 6t26 10 42 5h6q60 0 101-64 39-56 39-194zm-108 39q48 0 77-49t30-133q0-78-8-112-2-10-6-20t-14-26-30-27-47-10q-38 0-65 27-21 22-27 52t-7 105q0 83 5 112t20 47q25 34 72 34" data-c="39"/></g><path d="M4361 2908.3h1200v-60H4361z"/></g><g data-mml-node="mrow"><path stroke="none" d="M6382 4068.8q0 3-6 9h-31q-2-2-28-27t-45-43-54-61-62-81-63-101-62-125-55-149-45-176-29-203-12-234q0-711 364-1110 23-25 43-44t33-32 15-13h31q6 6 6 9 0 5-20 26t-52 59-72 95-81 143-76 191-60 252-32 316q-2 38-2 109 0 389 94 680t290 494q11 12 11 16" data-c="28" data-mml-node="mo"/><g data-mml-node="mfrac"><path stroke="none" d="m6850 1874.3-13 5q-14 5-40 10t-58 7h-19v-46h19q47-2 87-15t56-24 28-22q2-3 12-3 9 0 17 6v299l1 300q7 7 12 9t24 4 62 2h26v46h-11q-21-3-159-3-136 0-157 3h-12v-46h64q16 0 25-1t16-3 8-2 6-5 6-4z" data-c="31" data-mml-node="mn"/><path stroke="none" d="M7099 3814.3q-18-3-129-3-116 0-134 3h-9v-46h58q7 0 17-2t14-5 7-8q1-2 1-54v-50h-259v-46l151-231q153-232 155-233 2-2 21-2h18l6 6v460h92v46h-92v99q0 7 6 12 8 7 57 8h29v46zm-169-211v-334l-219 333 109 1z" data-c="34" data-mml-node="mn"/><path stroke="none" d="M6537 2908.3h700v-60h-700z"/></g><path stroke="none" d="M7663.2 2891.3v-13l14-20h581q15 8 15 20t-15 20h-581q-14-7-14-20Z" data-c="2212" data-mml-node="mo"/><g data-mml-node="mfrac"><path stroke="none" d="m10173.6 1874.3-13 5q-14 5-40 10t-58 7h-19v-46h19q47-2 87-15t56-24 28-22q2-3 12-3 9 0 17 6v299l1 300q7 7 12 9t24 4 62 2h26v46h-11q-21-3-159-3-136 0-157 3h-12v-46h64q16 0 25-1t16-3 8-2 6-5 6-4z" data-c="31" data-mml-node="mn"/><g data-mml-node="mrow"><path stroke="none" d="M8854.4 3356.3q1-2 17-109l16-107q0-2 20-2h20v4q0 10 15 17t52 9 169 2h121v39l-68 93-30 40q-21 28-27 37t-21 32-20 36-14 37-13 46-8 54-6 68-3 82v28q0 14-1 24v9q-4 17-19 29t-34 12q-11 0-21-3t-21-19-11-40q0-158 97-328 20-32 84-121l46-63h-93q-174 0-183 6-6 3-11 24t-10 43l-3 21v3h-40z" data-c="37" data-mml-node="mn"/><path stroke="none" d="M9320.4 3527.3q1-6 3-16t12-38 20-47 33-37 46-17q36 0 60 18t30 34 6 21q0 2 1 2l11-11q61-64 139-64 54 0 87 27t34 79-38 157-38 127q0 26 17 26 6 0 9-1 29-5 52-38t35-80q2-8 20-8 20 0 20 8 0 1-4 15-8 29-22 57t-46 56-69 27q-47 0-68-27t-21-56q0-19 36-120t37-152q0-59-44-59h-5q-86 0-145 101l-7 12-33 134q-33 131-38 141-13 27-43 27-13 0-21-6t-11-12-2-10q0-13 38-163t40-163q1-5 1-23 0-39-24-39-38 0-63 100-6 20-6 21-2 6-19 6h-14q-6-6-6-9" data-c="1D45B" data-mml-node="mi"/><path stroke="none" d="M10177.6 3577.3v-13l14-20h299v-150l1-150q10-13 19-13 13 0 20 15v298h298q15 8 15 20t-15 20h-298v298q-8 14-18 14h-4q-12 0-18-14v-298h-299q-14-7-14-20Z" data-c="2B" data-mml-node="mo"/><path stroke="none" d="M11583.8 3814.3q-18-3-129-3-116 0-134 3h-9v-46h58q7 0 17-2t14-5 7-8q1-2 1-54v-50h-259v-46l151-231q153-232 155-233 2-2 21-2h18l6 6v460h92v46h-92v99q0 7 6 12 8 7 57 8h29v46zm-169-211v-334l-219 333 109 1z" data-c="34" data-mml-node="mn"/></g><path stroke="none" d="M8699.4 2908.3h3022.4v-60H8699.4z"/></g><path stroke="none" d="M11875.9 1690.8q0-8 3-10t13-2h21q2 2 28 27t45 43 54 61 62 81 63 101 62 124 55 149 45 176 29 203 12 234q0 117-7 198-47 572-357 913-23 25-43 44t-33 32-15 13h-15q-13 0-17-2t-5-10q54-54 106-124 288-383 288-1064 0-202-26-377t-64-294-93-224-100-163-99-116l-4-4q-2-2-3-4t-3-3z" data-c="29" data-mml-node="mo"/></g></g></g></g></g></svg>