<?xml version="1.0" encoding="UTF-8" standalone="no"?>
<!DOCTYPE svg PUBLIC "-//W3C//DTD SVG 1.1//EN"
 "http://www.w3.org/Graphics/SVG/1.1/DTD/svg11.dtd">
<!-- Generated by graphviz version 2.43.0 (0)
 -->
<!-- Title: ErrorHierarchy Pages: 1 -->
<svg width="1094pt" height="188pt"
 viewBox="0.00 0.00 1094.29 188.00" xmlns="http://www.w3.org/2000/svg" xmlns:xlink="http://www.w3.org/1999/xlink">
<g id="graph0" class="graph" transform="scale(1 1) rotate(0) translate(4 184)">
<title>ErrorHierarchy</title>
<polygon fill="white" stroke="transparent" points="-4,4 -4,-184 1090.29,-184 1090.29,4 -4,4"/>
<!-- KnownException -->
<g id="node1" class="node">
<title>KnownException</title>
<ellipse fill="none" stroke="black" cx="486.8" cy="-162" rx="72.29" ry="18"/>
<text text-anchor="middle" x="486.8" y="-158.3" font-family="Times,serif" font-size="14.00">KnownException</text>
</g>
<!-- InputException -->
<g id="node2" class="node">
<title>InputException</title>
<ellipse fill="none" stroke="black" cx="318.8" cy="-90" rx="64.99" ry="18"/>
<text text-anchor="middle" x="318.8" y="-86.3" font-family="Times,serif" font-size="14.00">InputException</text>
</g>
<!-- KnownException&#45;&gt;InputException -->
<g id="edge1" class="edge">
<title>KnownException&#45;&gt;InputException</title>
<path fill="none" stroke="black" d="M451.17,-146.15C425.32,-135.38 390.2,-120.75 362.63,-109.27"/>
<polygon fill="black" stroke="black" points="363.8,-105.96 353.22,-105.35 361.11,-112.42 363.8,-105.96"/>
</g>
<!-- OutputException -->
<g id="node3" class="node">
<title>OutputException</title>
<ellipse fill="none" stroke="black" cx="710.8" cy="-90" rx="70.69" ry="18"/>
<text text-anchor="middle" x="710.8" y="-86.3" font-family="Times,serif" font-size="14.00">OutputException</text>
</g>
<!-- KnownException&#45;&gt;OutputException -->
<g id="edge2" class="edge">
<title>KnownException&#45;&gt;OutputException</title>
<path fill="none" stroke="black" d="M529.99,-147.5C566.55,-136.08 619.1,-119.66 658.13,-107.46"/>
<polygon fill="black" stroke="black" points="659.24,-110.78 667.74,-104.46 657.15,-104.1 659.24,-110.78"/>
</g>
<!-- Validation -->
<g id="node4" class="node">
<title>Validation</title>
<ellipse fill="none" stroke="black" cx="46.8" cy="-18" rx="46.59" ry="18"/>
<text text-anchor="middle" x="46.8" y="-14.3" font-family="Times,serif" font-size="14.00">Validation</text>
</g>
<!-- InputException&#45;&gt;Validation -->
<g id="edge3" class="edge">
<title>InputException&#45;&gt;Validation</title>
<path fill="none" stroke="black" d="M269.88,-77.94C225.76,-67.75 159.17,-51.86 101.8,-36 98.42,-35.07 94.93,-34.07 91.44,-33.04"/>
<polygon fill="black" stroke="black" points="92.2,-29.62 81.62,-30.11 90.2,-36.33 92.2,-29.62"/>
</g>
<!-- BadInput -->
<g id="node5" class="node">
<title>BadInput</title>
<ellipse fill="none" stroke="black" cx="154.8" cy="-18" rx="43.59" ry="18"/>
<text text-anchor="middle" x="154.8" y="-14.3" font-family="Times,serif" font-size="14.00">BadInput</text>
</g>
<!-- InputException&#45;&gt;BadInput -->
<g id="edge4" class="edge">
<title>InputException&#45;&gt;BadInput</title>
<path fill="none" stroke="black" d="M284.81,-74.5C258.21,-63.14 221.19,-47.34 193.46,-35.5"/>
<polygon fill="black" stroke="black" points="194.64,-32.2 184.07,-31.49 191.89,-38.64 194.64,-32.2"/>
</g>
<!-- Forbidden -->
<g id="node6" class="node">
<title>Forbidden</title>
<ellipse fill="none" stroke="black" cx="262.8" cy="-18" rx="46.59" ry="18"/>
<text text-anchor="middle" x="262.8" y="-14.3" font-family="Times,serif" font-size="14.00">Forbidden</text>
</g>
<!-- InputException&#45;&gt;Forbidden -->
<g id="edge5" class="edge">
<title>InputException&#45;&gt;Forbidden</title>
<path fill="none" stroke="black" d="M305.24,-72.05C298.33,-63.42 289.8,-52.76 282.21,-43.27"/>
<polygon fill="black" stroke="black" points="284.82,-40.93 275.84,-35.31 279.36,-45.3 284.82,-40.93"/>
</g>
<!-- NotFound -->
<g id="node7" class="node">
<title>NotFound</title>
<ellipse fill="none" stroke="black" cx="373.8" cy="-18" rx="46.29" ry="18"/>
<text text-anchor="middle" x="373.8" y="-14.3" font-family="Times,serif" font-size="14.00">NotFound</text>
</g>
<!-- InputException&#45;&gt;NotFound -->
<g id="edge6" class="edge">
<title>InputException&#45;&gt;NotFound</title>
<path fill="none" stroke="black" d="M332.11,-72.05C338.9,-63.42 347.27,-52.76 354.73,-43.27"/>
<polygon fill="black" stroke="black" points="357.56,-45.33 360.98,-35.31 352.05,-41.01 357.56,-45.33"/>
</g>
<!-- Conflict -->
<g id="node8" class="node">
<title>Conflict</title>
<ellipse fill="none" stroke="black" cx="476.8" cy="-18" rx="38.99" ry="18"/>
<text text-anchor="middle" x="476.8" y="-14.3" font-family="Times,serif" font-size="14.00">Conflict</text>
</g>
<!-- InputException&#45;&gt;Conflict -->
<g id="edge7" class="edge">
<title>InputException&#45;&gt;Conflict</title>
<path fill="none" stroke="black" d="M351.92,-74.33C377.79,-62.86 413.7,-46.95 440.38,-35.13"/>
<polygon fill="black" stroke="black" points="442.03,-38.23 449.75,-30.98 439.19,-31.83 442.03,-38.23"/>
</g>
<!-- Timeout -->
<g id="node9" class="node">
<title>Timeout</title>
<ellipse fill="none" stroke="black" cx="574.8" cy="-18" rx="40.89" ry="18"/>
<text text-anchor="middle" x="574.8" y="-14.3" font-family="Times,serif" font-size="14.00">Timeout</text>
</g>
<!-- OutputException&#45;&gt;Timeout -->
<g id="edge8" class="edge">
<title>OutputException&#45;&gt;Timeout</title>
<path fill="none" stroke="black" d="M680.95,-73.64C659.88,-62.79 631.58,-48.23 609.5,-36.86"/>
<polygon fill="black" stroke="black" points="610.95,-33.67 600.45,-32.21 607.74,-39.89 610.95,-33.67"/>
</g>
<!-- TooManyRequests -->
<g id="node10" class="node">
<title>TooManyRequests</title>
<ellipse fill="none" stroke="black" cx="710.8" cy="-18" rx="77.19" ry="18"/>
<text text-anchor="middle" x="710.8" y="-14.3" font-family="Times,serif" font-size="14.00">TooManyRequests</text>
</g>
<!-- OutputException&#45;&gt;TooManyRequests -->
<g id="edge9" class="edge">
<title>OutputException&#45;&gt;TooManyRequests</title>
<path fill="none" stroke="black" d="M710.8,-71.7C710.8,-63.98 710.8,-54.71 710.8,-46.11"/>
<polygon fill="black" stroke="black" points="714.3,-46.1 710.8,-36.1 707.3,-46.1 714.3,-46.1"/>
</g>
<!-- ResourceUnavailable -->
<g id="node11" class="node">
<title>ResourceUnavailable</title>
<ellipse fill="none" stroke="black" cx="891.8" cy="-18" rx="85.59" ry="18"/>
<text text-anchor="middle" x="891.8" y="-14.3" font-family="Times,serif" font-size="14.00">ResourceUnavailable</text>
</g>
<!-- OutputException&#45;&gt;ResourceUnavailable -->
<g id="edge10" class="edge">
<title>OutputException&#45;&gt;ResourceUnavailable</title>
<path fill="none" stroke="black" d="M748.3,-74.5C775.86,-63.84 813.55,-49.26 843.39,-37.72"/>
<polygon fill="black" stroke="black" points="844.71,-40.96 852.78,-34.09 842.19,-34.43 844.71,-40.96"/>
</g>
<!-- Unknown -->
<g id="node12" class="node">
<title>Unknown</title>
<ellipse fill="none" stroke="black" cx="1040.8" cy="-18" rx="45.49" ry="18"/>
<text text-anchor="middle" x="1040.8" y="-14.3" font-family="Times,serif" font-size="14.00">Unknown</text>
</g>
<!-- OutputException&#45;&gt;Unknown -->
<g id="edge11" class="edge">
<title>OutputException&#45;&gt;Unknown</title>
<path fill="none" stroke="black" d="M769.38,-79.77C825.54,-70.44 912.52,-54.76 986.8,-36 990.34,-35.11 993.99,-34.11 997.65,-33.07"/>
<polygon fill="black" stroke="black" points="998.67,-36.41 1007.26,-30.21 996.68,-29.7 998.67,-36.41"/>
</g>
</g>
</svg>
