<?xml version="1.0" encoding="UTF-8" standalone="no"?>
<!DOCTYPE svg PUBLIC "-//W3C//DTD SVG 1.1//EN"
 "http://www.w3.org/Graphics/SVG/1.1/DTD/svg11.dtd">
<!-- Generated by graphviz version 2.43.0 (0)
 -->
<!-- Title: ErrorHierarchy Pages: 1 -->
<svg width="1095pt" height="188pt"
 viewBox="0.00 0.00 1095.29 188.00" xmlns="http://www.w3.org/2000/svg" xmlns:xlink="http://www.w3.org/1999/xlink">
<g id="graph0" class="graph" transform="scale(1 1) rotate(0) translate(4 184)">
<title>ErrorHierarchy</title>
<polygon fill="white" stroke="transparent" points="-4,4 -4,-184 1091.29,-184 1091.29,4 -4,4"/>
<!-- KnownException -->
<g id="node1" class="node">
<title>KnownException</title>
<ellipse fill="none" stroke="darkslategrey" cx="488.8" cy="-162" rx="72.29" ry="18"/>
<text text-anchor="middle" x="488.8" y="-158.3" font-family="Times,serif" font-size="14.00" fill="darkslategrey">KnownException</text>
</g>
<!-- InputException -->
<g id="node2" class="node">
<title>InputException</title>
<ellipse fill="none" stroke="#8b475d" cx="320.8" cy="-90" rx="64.99" ry="18"/>
<text text-anchor="middle" x="320.8" y="-86.3" font-family="Times,serif" font-size="14.00" fill="#8b475d">InputException</text>
</g>
<!-- KnownException&#45;&gt;InputException -->
<g id="edge1" class="edge">
<title>KnownException&#45;&gt;InputException</title>
<path fill="none" stroke="black" d="M453.17,-146.15C427.32,-135.38 392.2,-120.75 364.63,-109.27"/>
<polygon fill="black" stroke="black" points="365.8,-105.96 355.22,-105.35 363.11,-112.42 365.8,-105.96"/>
</g>
<!-- OutputException -->
<g id="node3" class="node">
<title>OutputException</title>
<ellipse fill="none" stroke="#8b475d" cx="711.8" cy="-90" rx="70.69" ry="18"/>
<text text-anchor="middle" x="711.8" y="-86.3" font-family="Times,serif" font-size="14.00" fill="#8b475d">OutputException</text>
</g>
<!-- KnownException&#45;&gt;OutputException -->
<g id="edge2" class="edge">
<title>KnownException&#45;&gt;OutputException</title>
<path fill="none" stroke="black" d="M531.79,-147.5C568.2,-136.08 620.5,-119.66 659.36,-107.46"/>
<polygon fill="black" stroke="black" points="660.44,-110.79 668.93,-104.46 658.34,-104.11 660.44,-110.79"/>
</g>
<!-- Validation -->
<g id="node4" class="node">
<title>Validation</title>
<ellipse fill="none" stroke="#104e8b" cx="46.8" cy="-18" rx="46.59" ry="18"/>
<text text-anchor="middle" x="46.8" y="-14.3" font-family="Times,serif" font-size="14.00" fill="#104e8b">Validation</text>
</g>
<!-- InputException&#45;&gt;Validation -->
<g id="edge3" class="edge">
<title>InputException&#45;&gt;Validation</title>
<path fill="none" stroke="black" d="M272.11,-77.99C227.79,-67.77 160.66,-51.8 102.8,-36 99.2,-35.02 95.49,-33.97 91.77,-32.89"/>
<polygon fill="black" stroke="black" points="92.54,-29.47 81.96,-30 90.56,-36.19 92.54,-29.47"/>
</g>
<!-- Forbidden -->
<g id="node5" class="node">
<title>Forbidden</title>
<ellipse fill="none" stroke="#104e8b" cx="158.8" cy="-18" rx="46.59" ry="18"/>
<text text-anchor="middle" x="158.8" y="-14.3" font-family="Times,serif" font-size="14.00" fill="#104e8b">Forbidden</text>
</g>
<!-- InputException&#45;&gt;Forbidden -->
<g id="edge4" class="edge">
<title>InputException&#45;&gt;Forbidden</title>
<path fill="none" stroke="black" d="M287.23,-74.5C261.28,-63.28 225.3,-47.74 198.03,-35.95"/>
<polygon fill="black" stroke="black" points="199.34,-32.71 188.77,-31.95 196.56,-39.13 199.34,-32.71"/>
</g>
<!-- BadInput -->
<g id="node6" class="node">
<title>BadInput</title>
<ellipse fill="none" stroke="#104e8b" cx="266.8" cy="-18" rx="43.59" ry="18"/>
<text text-anchor="middle" x="266.8" y="-14.3" font-family="Times,serif" font-size="14.00" fill="#104e8b">BadInput</text>
</g>
<!-- InputException&#45;&gt;BadInput -->
<g id="edge5" class="edge">
<title>InputException&#45;&gt;BadInput</title>
<path fill="none" stroke="black" d="M307.72,-72.05C301.06,-63.42 292.84,-52.76 285.52,-43.27"/>
<polygon fill="black" stroke="black" points="288.25,-41.09 279.38,-35.31 282.71,-45.36 288.25,-41.09"/>
</g>
<!-- NotFound -->
<g id="node7" class="node">
<title>NotFound</title>
<ellipse fill="none" stroke="#104e8b" cx="374.8" cy="-18" rx="46.29" ry="18"/>
<text text-anchor="middle" x="374.8" y="-14.3" font-family="Times,serif" font-size="14.00" fill="#104e8b">NotFound</text>
</g>
<!-- InputException&#45;&gt;NotFound -->
<g id="edge6" class="edge">
<title>InputException&#45;&gt;NotFound</title>
<path fill="none" stroke="black" d="M333.87,-72.05C340.37,-63.63 348.35,-53.28 355.54,-43.97"/>
<polygon fill="black" stroke="black" points="358.51,-45.84 361.84,-35.79 352.97,-41.57 358.51,-45.84"/>
</g>
<!-- Conflict -->
<g id="node8" class="node">
<title>Conflict</title>
<ellipse fill="none" stroke="#104e8b" cx="477.8" cy="-18" rx="38.99" ry="18"/>
<text text-anchor="middle" x="477.8" y="-14.3" font-family="Times,serif" font-size="14.00" fill="#104e8b">Conflict</text>
</g>
<!-- InputException&#45;&gt;Conflict -->
<g id="edge7" class="edge">
<title>InputException&#45;&gt;Conflict</title>
<path fill="none" stroke="black" d="M353.71,-74.33C379.33,-62.9 414.88,-47.05 441.36,-35.24"/>
<polygon fill="black" stroke="black" points="442.96,-38.36 450.67,-31.09 440.11,-31.97 442.96,-38.36"/>
</g>
<!-- Timeout -->
<g id="node9" class="node">
<title>Timeout</title>
<ellipse fill="none" stroke="#473c8b" cx="575.8" cy="-18" rx="40.89" ry="18"/>
<text text-anchor="middle" x="575.8" y="-14.3" font-family="Times,serif" font-size="14.00" fill="#473c8b">Timeout</text>
</g>
<!-- OutputException&#45;&gt;Timeout -->
<g id="edge8" class="edge">
<title>OutputException&#45;&gt;Timeout</title>
<path fill="none" stroke="black" d="M681.95,-73.64C660.88,-62.79 632.58,-48.23 610.5,-36.86"/>
<polygon fill="black" stroke="black" points="611.95,-33.67 601.45,-32.21 608.74,-39.89 611.95,-33.67"/>
</g>
<!-- TooManyRequests -->
<g id="node10" class="node">
<title>TooManyRequests</title>
<ellipse fill="none" stroke="#473c8b" cx="711.8" cy="-18" rx="77.19" ry="18"/>
<text text-anchor="middle" x="711.8" y="-14.3" font-family="Times,serif" font-size="14.00" fill="#473c8b">TooManyRequests</text>
</g>
<!-- OutputException&#45;&gt;TooManyRequests -->
<g id="edge9" class="edge">
<title>OutputException&#45;&gt;TooManyRequests</title>
<path fill="none" stroke="black" d="M711.8,-71.7C711.8,-63.98 711.8,-54.71 711.8,-46.11"/>
<polygon fill="black" stroke="black" points="715.3,-46.1 711.8,-36.1 708.3,-46.1 715.3,-46.1"/>
</g>
<!-- ResourceUnavailable -->
<g id="node11" class="node">
<title>ResourceUnavailable</title>
<ellipse fill="none" stroke="#473c8b" cx="892.8" cy="-18" rx="85.59" ry="18"/>
<text text-anchor="middle" x="892.8" y="-14.3" font-family="Times,serif" font-size="14.00" fill="#473c8b">ResourceUnavailable</text>
</g>
<!-- OutputException&#45;&gt;ResourceUnavailable -->
<g id="edge10" class="edge">
<title>OutputException&#45;&gt;ResourceUnavailable</title>
<path fill="none" stroke="black" d="M749.3,-74.5C776.86,-63.84 814.55,-49.26 844.39,-37.72"/>
<polygon fill="black" stroke="black" points="845.71,-40.96 853.78,-34.09 843.19,-34.43 845.71,-40.96"/>
</g>
<!-- Unknown -->
<g id="node12" class="node">
<title>Unknown</title>
<ellipse fill="none" stroke="#473c8b" cx="1041.8" cy="-18" rx="45.49" ry="18"/>
<text text-anchor="middle" x="1041.8" y="-14.3" font-family="Times,serif" font-size="14.00" fill="#473c8b">Unknown</text>
</g>
<!-- OutputException&#45;&gt;Unknown -->
<g id="edge11" class="edge">
<title>OutputException&#45;&gt;Unknown</title>
<path fill="none" stroke="black" d="M770.38,-79.77C826.54,-70.44 913.52,-54.76 987.8,-36 991.34,-35.11 994.99,-34.11 998.65,-33.07"/>
<polygon fill="black" stroke="black" points="999.67,-36.41 1008.26,-30.21 997.68,-29.7 999.67,-36.41"/>
</g>
</g>
</svg>
